<?xml version="1.0" encoding="UTF-8" standalone="no"?>
<!DOCTYPE svg PUBLIC "-//W3C//DTD SVG 1.1//EN"
 "http://www.w3.org/Graphics/SVG/1.1/DTD/svg11.dtd">
<!-- Generated by graphviz version 2.40.1 (20161225.0304)
 -->
<!-- Title: structs Pages: 1 -->
<svg width="880pt" height="184pt"
 viewBox="0.00 0.00 879.50 184.00" xmlns="http://www.w3.org/2000/svg" xmlns:xlink="http://www.w3.org/1999/xlink">
<g id="graph0" class="graph" transform="scale(1 1) rotate(0) translate(4 180)">
<title>structs</title>
<polygon fill="#ffffff" stroke="transparent" points="-4,4 -4,-180 875.5,-180 875.5,4 -4,4"/>
<!-- aslprep_wffsdir_run_20200811_002648_12faeae6_6667_482b_a7a7_1bae99e79aa0 -->
<g id="node1" class="node">
<title>aslprep_wffsdir_run_20200811_002648_12faeae6_6667_482b_a7a7_1bae99e79aa0</title>
<polygon fill="none" stroke="#000000" points="0,-106.5 0,-175.5 543,-175.5 543,-106.5 0,-106.5"/>
<text text-anchor="middle" x="15.5" y="-137.3" font-family="Times,serif" font-size="14.00" fill="#000000">IN</text>
<polyline fill="none" stroke="#000000" points="31,-106.5 31,-175.5 "/>
<text text-anchor="middle" x="245" y="-160.3" font-family="Times,serif" font-size="14.00" fill="#000000">fsdir_run_20200811_002648_12faeae6_6667_482b_a7a7_1bae99e79aa0</text>
<polyline fill="none" stroke="#000000" points="31,-152.5 459,-152.5 "/>
<text text-anchor="middle" x="245" y="-137.3" font-family="Times,serif" font-size="14.00" fill="#000000">interfaces</text>
<polyline fill="none" stroke="#000000" points="31,-129.5 459,-129.5 "/>
<text text-anchor="middle" x="245" y="-114.3" font-family="Times,serif" font-size="14.00" fill="#000000"> </text>
<polyline fill="none" stroke="#000000" points="459,-106.5 459,-175.5 "/>
<text text-anchor="middle" x="501" y="-154.8" font-family="Times,serif" font-size="14.00" fill="#000000">OUT</text>
<polyline fill="none" stroke="#000000" points="459,-141.5 543,-141.5 "/>
<text text-anchor="middle" x="501" y="-120.3" font-family="Times,serif" font-size="14.00" fill="#000000">subjects_dir</text>
</g>
<!-- aslprep_wfsingle_subject_01_wf -->
<g id="node2" class="node">
<title>aslprep_wfsingle_subject_01_wf</title>
<polygon fill="none" stroke="#000000" points="543.5,-.5 543.5,-69.5 871.5,-69.5 871.5,-.5 543.5,-.5"/>
<text text-anchor="middle" x="615.5" y="-48.8" font-family="Times,serif" font-size="14.00" fill="#000000">IN</text>
<polyline fill="none" stroke="#000000" points="543.5,-35.5 687.5,-35.5 "/>
<text text-anchor="middle" x="615.5" y="-14.3" font-family="Times,serif" font-size="14.00" fill="#000000">inputnode.subjects_dir</text>
<polyline fill="none" stroke="#000000" points="687.5,-.5 687.5,-69.5 "/>
<text text-anchor="middle" x="757" y="-54.3" font-family="Times,serif" font-size="14.00" fill="#000000">single_subject_01_wf</text>
<polyline fill="none" stroke="#000000" points="687.5,-46.5 826.5,-46.5 "/>
<text text-anchor="middle" x="757" y="-31.3" font-family="Times,serif" font-size="14.00" fill="#000000"> </text>
<polyline fill="none" stroke="#000000" points="687.5,-23.5 826.5,-23.5 "/>
<text text-anchor="middle" x="757" y="-8.3" font-family="Times,serif" font-size="14.00" fill="#000000"> </text>
<polyline fill="none" stroke="#000000" points="826.5,-.5 826.5,-69.5 "/>
<text text-anchor="middle" x="849" y="-31.3" font-family="Times,serif" font-size="14.00" fill="#000000">OUT</text>
</g>
<!-- aslprep_wffsdir_run_20200811_002648_12faeae6_6667_482b_a7a7_1bae99e79aa0&#45;&gt;aslprep_wfsingle_subject_01_wf -->
<g id="edge1" class="edge">
<title>aslprep_wffsdir_run_20200811_002648_12faeae6_6667_482b_a7a7_1bae99e79aa0:e&#45;&gt;aslprep_wfsingle_subject_01_wf:w</title>
<path fill="none" stroke="#000000" d="M543.5,-124C586.1944,-124 512.8134,-36.9434 533.7437,-20.6202"/>
<polygon fill="#000000" stroke="#000000" points="534.7501,-23.9741 543.5,-18 532.9344,-17.2136 534.7501,-23.9741"/>
</g>
</g>
</svg>
