<?xml version="1.0" encoding="UTF-8" standalone="no"?>
<!DOCTYPE svg PUBLIC "-//W3C//DTD SVG 1.1//EN"
 "http://www.w3.org/Graphics/SVG/1.1/DTD/svg11.dtd">
<!-- Generated by graphviz version 2.40.1 (20161225.0304)
 -->
<!-- Title: structs Pages: 1 -->
<svg width="841pt" height="396pt"
 viewBox="0.00 0.00 841.00 396.00" xmlns="http://www.w3.org/2000/svg" xmlns:xlink="http://www.w3.org/1999/xlink">
<g id="graph0" class="graph" transform="scale(1 1) rotate(0) translate(4 392)">
<title>structs</title>
<polygon fill="#ffffff" stroke="transparent" points="-4,4 -4,-392 837,-392 837,4 -4,4"/>
<!-- bold_stc_wfinputnode -->
<g id="node1" class="node">
<title>bold_stc_wfinputnode</title>
<polygon fill="none" stroke="#000000" points="0,-318.5 0,-387.5 173,-387.5 173,-318.5 0,-318.5"/>
<text text-anchor="middle" x="15.5" y="-349.3" font-family="Times,serif" font-size="14.00" fill="#000000">IN</text>
<polyline fill="none" stroke="#000000" points="31,-318.5 31,-387.5 "/>
<text text-anchor="middle" x="67" y="-372.3" font-family="Times,serif" font-size="14.00" fill="#000000">inputnode</text>
<polyline fill="none" stroke="#000000" points="31,-364.5 103,-364.5 "/>
<text text-anchor="middle" x="67" y="-349.3" font-family="Times,serif" font-size="14.00" fill="#000000">utility</text>
<polyline fill="none" stroke="#000000" points="31,-341.5 103,-341.5 "/>
<text text-anchor="middle" x="67" y="-326.3" font-family="Times,serif" font-size="14.00" fill="#000000"> </text>
<polyline fill="none" stroke="#000000" points="103,-318.5 103,-387.5 "/>
<text text-anchor="middle" x="138" y="-372.3" font-family="Times,serif" font-size="14.00" fill="#000000">OUT</text>
<polyline fill="none" stroke="#000000" points="103,-364.5 173,-364.5 "/>
<text text-anchor="middle" x="138" y="-349.3" font-family="Times,serif" font-size="14.00" fill="#000000">bold_file</text>
<polyline fill="none" stroke="#000000" points="103,-341.5 173,-341.5 "/>
<text text-anchor="middle" x="138" y="-326.3" font-family="Times,serif" font-size="14.00" fill="#000000">skip_vols</text>
</g>
<!-- bold_stc_wfslice_timing_correction -->
<g id="node2" class="node">
<title>bold_stc_wfslice_timing_correction</title>
<polygon fill="none" stroke="#000000" points="173.5,-212.5 173.5,-281.5 433.5,-281.5 433.5,-212.5 173.5,-212.5"/>
<text text-anchor="middle" x="199.5" y="-266.3" font-family="Times,serif" font-size="14.00" fill="#000000">IN</text>
<polyline fill="none" stroke="#000000" points="173.5,-258.5 225.5,-258.5 "/>
<text text-anchor="middle" x="199.5" y="-243.3" font-family="Times,serif" font-size="14.00" fill="#000000">ignore</text>
<polyline fill="none" stroke="#000000" points="173.5,-235.5 225.5,-235.5 "/>
<text text-anchor="middle" x="199.5" y="-220.3" font-family="Times,serif" font-size="14.00" fill="#000000">in_file</text>
<polyline fill="none" stroke="#000000" points="225.5,-212.5 225.5,-281.5 "/>
<text text-anchor="middle" x="300" y="-266.3" font-family="Times,serif" font-size="14.00" fill="#000000">slice_timing_correction</text>
<polyline fill="none" stroke="#000000" points="225.5,-258.5 374.5,-258.5 "/>
<text text-anchor="middle" x="300" y="-243.3" font-family="Times,serif" font-size="14.00" fill="#000000">afni</text>
<polyline fill="none" stroke="#000000" points="225.5,-235.5 374.5,-235.5 "/>
<text text-anchor="middle" x="300" y="-220.3" font-family="Times,serif" font-size="14.00" fill="#000000"> </text>
<polyline fill="none" stroke="#000000" points="374.5,-212.5 374.5,-281.5 "/>
<text text-anchor="middle" x="404" y="-260.8" font-family="Times,serif" font-size="14.00" fill="#000000">OUT</text>
<polyline fill="none" stroke="#000000" points="374.5,-247.5 433.5,-247.5 "/>
<text text-anchor="middle" x="404" y="-226.3" font-family="Times,serif" font-size="14.00" fill="#000000">out_file</text>
</g>
<!-- bold_stc_wfinputnode&#45;&gt;bold_stc_wfslice_timing_correction -->
<g id="edge3" class="edge">
<title>bold_stc_wfinputnode:e&#45;&gt;bold_stc_wfslice_timing_correction:w</title>
<path fill="none" stroke="#000000" d="M173.5,-353C226.5781,-353 132.2401,-242.4379 163.4361,-226.0263"/>
<polygon fill="#000000" stroke="#000000" points="164.3876,-229.405 173.5,-224 163.0059,-222.5427 164.3876,-229.405"/>
</g>
<!-- bold_stc_wfinputnode&#45;&gt;bold_stc_wfslice_timing_correction -->
<g id="edge4" class="edge">
<title>bold_stc_wfinputnode:e&#45;&gt;bold_stc_wfslice_timing_correction:w</title>
<path fill="none" stroke="#000000" d="M173.5,-330C205.4896,-330 154.2563,-267.5828 164.1398,-251.0033"/>
<polygon fill="#000000" stroke="#000000" points="165.6819,-254.1504 173.5,-247 162.9293,-247.7144 165.6819,-254.1504"/>
</g>
<!-- bold_stc_wfcopy_xform -->
<g id="node3" class="node">
<title>bold_stc_wfcopy_xform</title>
<polygon fill="none" stroke="#000000" points="447.5,-106.5 447.5,-175.5 651.5,-175.5 651.5,-106.5 447.5,-106.5"/>
<text text-anchor="middle" x="477.5" y="-160.3" font-family="Times,serif" font-size="14.00" fill="#000000">IN</text>
<polyline fill="none" stroke="#000000" points="447.5,-152.5 507.5,-152.5 "/>
<text text-anchor="middle" x="477.5" y="-137.3" font-family="Times,serif" font-size="14.00" fill="#000000">hdr_file</text>
<polyline fill="none" stroke="#000000" points="447.5,-129.5 507.5,-129.5 "/>
<text text-anchor="middle" x="477.5" y="-114.3" font-family="Times,serif" font-size="14.00" fill="#000000">in_file</text>
<polyline fill="none" stroke="#000000" points="507.5,-106.5 507.5,-175.5 "/>
<text text-anchor="middle" x="550" y="-160.3" font-family="Times,serif" font-size="14.00" fill="#000000">copy_xform</text>
<polyline fill="none" stroke="#000000" points="507.5,-152.5 592.5,-152.5 "/>
<text text-anchor="middle" x="550" y="-137.3" font-family="Times,serif" font-size="14.00" fill="#000000">interfaces</text>
<polyline fill="none" stroke="#000000" points="507.5,-129.5 592.5,-129.5 "/>
<text text-anchor="middle" x="550" y="-114.3" font-family="Times,serif" font-size="14.00" fill="#000000"> </text>
<polyline fill="none" stroke="#000000" points="592.5,-106.5 592.5,-175.5 "/>
<text text-anchor="middle" x="622" y="-154.8" font-family="Times,serif" font-size="14.00" fill="#000000">OUT</text>
<polyline fill="none" stroke="#000000" points="592.5,-141.5 651.5,-141.5 "/>
<text text-anchor="middle" x="622" y="-120.3" font-family="Times,serif" font-size="14.00" fill="#000000">out_file</text>
</g>
<!-- bold_stc_wfinputnode&#45;&gt;bold_stc_wfcopy_xform -->
<g id="edge2" class="edge">
<title>bold_stc_wfinputnode:e&#45;&gt;bold_stc_wfcopy_xform:w</title>
<path fill="none" stroke="#000000" d="M173.5,-353C235.3249,-353 403.9095,-330.3021 442.5,-282 479.1942,-236.0714 396.3686,-152.3331 437.5402,-142.0453"/>
<polygon fill="#000000" stroke="#000000" points="437.92,-145.5247 447.5,-141 437.1893,-138.563 437.92,-145.5247"/>
</g>
<!-- bold_stc_wfslice_timing_correction&#45;&gt;bold_stc_wfcopy_xform -->
<g id="edge5" class="edge">
<title>bold_stc_wfslice_timing_correction:e&#45;&gt;bold_stc_wfcopy_xform:w</title>
<path fill="none" stroke="#000000" d="M433.5,-230C454.8594,-230 431.8044,-148.7822 439.9783,-124.6707"/>
<polygon fill="#000000" stroke="#000000" points="442.3407,-127.2538 447.5,-118 437.696,-122.0166 442.3407,-127.2538"/>
</g>
<!-- bold_stc_wfoutputnode -->
<g id="node4" class="node">
<title>bold_stc_wfoutputnode</title>
<polygon fill="none" stroke="#000000" points="652,-.5 652,-69.5 833,-69.5 833,-.5 652,-.5"/>
<text text-anchor="middle" x="680.5" y="-48.8" font-family="Times,serif" font-size="14.00" fill="#000000">IN</text>
<polyline fill="none" stroke="#000000" points="652,-35.5 709,-35.5 "/>
<text text-anchor="middle" x="680.5" y="-14.3" font-family="Times,serif" font-size="14.00" fill="#000000">stc_file</text>
<polyline fill="none" stroke="#000000" points="709,-.5 709,-69.5 "/>
<text text-anchor="middle" x="748.5" y="-54.3" font-family="Times,serif" font-size="14.00" fill="#000000">outputnode</text>
<polyline fill="none" stroke="#000000" points="709,-46.5 788,-46.5 "/>
<text text-anchor="middle" x="748.5" y="-31.3" font-family="Times,serif" font-size="14.00" fill="#000000">utility</text>
<polyline fill="none" stroke="#000000" points="709,-23.5 788,-23.5 "/>
<text text-anchor="middle" x="748.5" y="-8.3" font-family="Times,serif" font-size="14.00" fill="#000000"> </text>
<polyline fill="none" stroke="#000000" points="788,-.5 788,-69.5 "/>
<text text-anchor="middle" x="810.5" y="-31.3" font-family="Times,serif" font-size="14.00" fill="#000000">OUT</text>
</g>
<!-- bold_stc_wfcopy_xform&#45;&gt;bold_stc_wfoutputnode -->
<g id="edge1" class="edge">
<title>bold_stc_wfcopy_xform:e&#45;&gt;bold_stc_wfoutputnode:w</title>
<path fill="none" stroke="#000000" d="M651.5,-124C694.1944,-124 620.8134,-36.9434 641.7437,-20.6202"/>
<polygon fill="#000000" stroke="#000000" points="642.7501,-23.9741 651.5,-18 640.9344,-17.2136 642.7501,-23.9741"/>
</g>
</g>
</svg>
