<?xml version="1.0" encoding="UTF-8" standalone="no"?>
<!DOCTYPE svg PUBLIC "-//W3C//DTD SVG 1.1//EN"
 "http://www.w3.org/Graphics/SVG/1.1/DTD/svg11.dtd">
<!-- Generated by graphviz version 2.40.1 (20161225.0304)
 -->
<!-- Title: structs Pages: 1 -->
<svg width="1893pt" height="971pt"
 viewBox="0.00 0.00 1893.00 971.00" xmlns="http://www.w3.org/2000/svg" xmlns:xlink="http://www.w3.org/1999/xlink">
<g id="graph0" class="graph" transform="scale(1 1) rotate(0) translate(4 967)">
<title>structs</title>
<polygon fill="#ffffff" stroke="transparent" points="-4,4 -4,-967 1889,-967 1889,4 -4,4"/>
<!-- single_subject_01_wfabout -->
<g id="node1" class="node">
<title>single_subject_01_wfabout</title>
<polygon fill="none" stroke="#000000" points="0,-859 0,-928 161,-928 161,-859 0,-859"/>
<text text-anchor="middle" x="15.5" y="-889.8" font-family="Times,serif" font-size="14.00" fill="#000000">IN</text>
<polyline fill="none" stroke="#000000" points="31,-859 31,-928 "/>
<text text-anchor="middle" x="58.5" y="-912.8" font-family="Times,serif" font-size="14.00" fill="#000000">about</text>
<polyline fill="none" stroke="#000000" points="31,-905 86,-905 "/>
<text text-anchor="middle" x="58.5" y="-889.8" font-family="Times,serif" font-size="14.00" fill="#000000">reports</text>
<polyline fill="none" stroke="#000000" points="31,-882 86,-882 "/>
<text text-anchor="middle" x="58.5" y="-866.8" font-family="Times,serif" font-size="14.00" fill="#000000"> </text>
<polyline fill="none" stroke="#000000" points="86,-859 86,-928 "/>
<text text-anchor="middle" x="123.5" y="-907.3" font-family="Times,serif" font-size="14.00" fill="#000000">OUT</text>
<polyline fill="none" stroke="#000000" points="86,-894 161,-894 "/>
<text text-anchor="middle" x="123.5" y="-872.8" font-family="Times,serif" font-size="14.00" fill="#000000">out_report</text>
</g>
<!-- single_subject_01_wfds_report_about -->
<g id="node3" class="node">
<title>single_subject_01_wfds_report_about</title>
<polygon fill="none" stroke="#000000" points="161.5,-718.5 161.5,-787.5 391.5,-787.5 391.5,-718.5 161.5,-718.5"/>
<text text-anchor="middle" x="200.5" y="-772.3" font-family="Times,serif" font-size="14.00" fill="#000000">IN</text>
<polyline fill="none" stroke="#000000" points="161.5,-764.5 239.5,-764.5 "/>
<text text-anchor="middle" x="200.5" y="-749.3" font-family="Times,serif" font-size="14.00" fill="#000000">in_file</text>
<polyline fill="none" stroke="#000000" points="161.5,-741.5 239.5,-741.5 "/>
<text text-anchor="middle" x="200.5" y="-726.3" font-family="Times,serif" font-size="14.00" fill="#000000">source_file</text>
<polyline fill="none" stroke="#000000" points="239.5,-718.5 239.5,-787.5 "/>
<text text-anchor="middle" x="293" y="-772.3" font-family="Times,serif" font-size="14.00" fill="#000000">ds_report_about</text>
<polyline fill="none" stroke="#000000" points="239.5,-764.5 346.5,-764.5 "/>
<text text-anchor="middle" x="293" y="-749.3" font-family="Times,serif" font-size="14.00" fill="#000000"> </text>
<polyline fill="none" stroke="#000000" points="239.5,-741.5 346.5,-741.5 "/>
<text text-anchor="middle" x="293" y="-726.3" font-family="Times,serif" font-size="14.00" fill="#000000"> </text>
<polyline fill="none" stroke="#000000" points="346.5,-718.5 346.5,-787.5 "/>
<text text-anchor="middle" x="369" y="-749.3" font-family="Times,serif" font-size="14.00" fill="#000000">OUT</text>
</g>
<!-- single_subject_01_wfabout&#45;&gt;single_subject_01_wfds_report_about -->
<g id="edge1" class="edge">
<title>single_subject_01_wfabout:e&#45;&gt;single_subject_01_wfds_report_about:w</title>
<path fill="none" stroke="#000000" d="M161.5,-876.5C212.1007,-876.5 122.7588,-771.5431 151.4935,-755.1436"/>
<polygon fill="#000000" stroke="#000000" points="152.455,-758.5171 161.5,-753 150.9887,-751.6724 152.455,-758.5171"/>
</g>
<!-- single_subject_01_wfbidssrc -->
<g id="node2" class="node">
<title>single_subject_01_wfbidssrc</title>
<polygon fill="none" stroke="#000000" points="400,-824.5 400,-962.5 547,-962.5 547,-824.5 400,-824.5"/>
<text text-anchor="middle" x="415.5" y="-889.8" font-family="Times,serif" font-size="14.00" fill="#000000">IN</text>
<polyline fill="none" stroke="#000000" points="431,-824.5 431,-962.5 "/>
<text text-anchor="middle" x="466.5" y="-935.8" font-family="Times,serif" font-size="14.00" fill="#000000">bidssrc</text>
<polyline fill="none" stroke="#000000" points="431,-916.5 502,-916.5 "/>
<text text-anchor="middle" x="466.5" y="-889.8" font-family="Times,serif" font-size="14.00" fill="#000000">interfaces</text>
<polyline fill="none" stroke="#000000" points="431,-870.5 502,-870.5 "/>
<text text-anchor="middle" x="466.5" y="-843.8" font-family="Times,serif" font-size="14.00" fill="#000000"> </text>
<polyline fill="none" stroke="#000000" points="502,-824.5 502,-962.5 "/>
<text text-anchor="middle" x="524.5" y="-947.3" font-family="Times,serif" font-size="14.00" fill="#000000">OUT</text>
<polyline fill="none" stroke="#000000" points="502,-939.5 547,-939.5 "/>
<text text-anchor="middle" x="524.5" y="-924.3" font-family="Times,serif" font-size="14.00" fill="#000000">asl</text>
<polyline fill="none" stroke="#000000" points="502,-916.5 547,-916.5 "/>
<text text-anchor="middle" x="524.5" y="-901.3" font-family="Times,serif" font-size="14.00" fill="#000000">flair</text>
<polyline fill="none" stroke="#000000" points="502,-893.5 547,-893.5 "/>
<text text-anchor="middle" x="524.5" y="-878.3" font-family="Times,serif" font-size="14.00" fill="#000000">roi</text>
<polyline fill="none" stroke="#000000" points="502,-870.5 547,-870.5 "/>
<text text-anchor="middle" x="524.5" y="-855.3" font-family="Times,serif" font-size="14.00" fill="#000000">t1w</text>
<polyline fill="none" stroke="#000000" points="502,-847.5 547,-847.5 "/>
<text text-anchor="middle" x="524.5" y="-832.3" font-family="Times,serif" font-size="14.00" fill="#000000">t2w</text>
</g>
<!-- single_subject_01_wfbidssrc&#45;&gt;single_subject_01_wfds_report_about -->
<g id="edge22" class="edge">
<title>single_subject_01_wfbidssrc:e&#45;&gt;single_subject_01_wfds_report_about:w</title>
<path fill="none" stroke="#000000" d="M547.5,-858.5C562.8333,-858.5 557.8266,-835.3345 547.5,-824 489.4801,-760.3171 219.5199,-851.6829 161.5,-788 146.8519,-771.9222 138.5709,-741.6847 151.8248,-732.628"/>
<polygon fill="#000000" stroke="#000000" points="152.7671,-735.9989 161.5,-730 150.9322,-729.2437 152.7671,-735.9989"/>
</g>
<!-- single_subject_01_wfbids_info -->
<g id="node4" class="node">
<title>single_subject_01_wfbids_info</title>
<polygon fill="none" stroke="#000000" points="562,-718.5 562,-787.5 741,-787.5 741,-718.5 562,-718.5"/>
<text text-anchor="middle" x="588" y="-766.8" font-family="Times,serif" font-size="14.00" fill="#000000">IN</text>
<polyline fill="none" stroke="#000000" points="562,-753.5 614,-753.5 "/>
<text text-anchor="middle" x="588" y="-732.3" font-family="Times,serif" font-size="14.00" fill="#000000">in_file</text>
<polyline fill="none" stroke="#000000" points="614,-718.5 614,-787.5 "/>
<text text-anchor="middle" x="649.5" y="-772.3" font-family="Times,serif" font-size="14.00" fill="#000000">bids_info</text>
<polyline fill="none" stroke="#000000" points="614,-764.5 685,-764.5 "/>
<text text-anchor="middle" x="649.5" y="-749.3" font-family="Times,serif" font-size="14.00" fill="#000000">interfaces</text>
<polyline fill="none" stroke="#000000" points="614,-741.5 685,-741.5 "/>
<text text-anchor="middle" x="649.5" y="-726.3" font-family="Times,serif" font-size="14.00" fill="#000000"> </text>
<polyline fill="none" stroke="#000000" points="685,-718.5 685,-787.5 "/>
<text text-anchor="middle" x="713" y="-766.8" font-family="Times,serif" font-size="14.00" fill="#000000">OUT</text>
<polyline fill="none" stroke="#000000" points="685,-753.5 741,-753.5 "/>
<text text-anchor="middle" x="713" y="-732.3" font-family="Times,serif" font-size="14.00" fill="#000000">subject</text>
</g>
<!-- single_subject_01_wfbidssrc&#45;&gt;single_subject_01_wfbids_info -->
<g id="edge21" class="edge">
<title>single_subject_01_wfbidssrc:e&#45;&gt;single_subject_01_wfbids_info:w</title>
<path fill="none" stroke="#000000" d="M547.5,-858.5C571.0464,-858.5 544.2266,-768.0306 553.6075,-742.5861"/>
<polygon fill="#000000" stroke="#000000" points="556.0646,-745.0943 561.5,-736 551.5796,-739.7198 556.0646,-745.0943"/>
</g>
<!-- single_subject_01_wfsummary -->
<g id="node6" class="node">
<title>single_subject_01_wfsummary</title>
<polygon fill="none" stroke="#000000" points="514.5,-451.5 514.5,-589.5 742.5,-589.5 742.5,-451.5 514.5,-451.5"/>
<text text-anchor="middle" x="556.5" y="-574.3" font-family="Times,serif" font-size="14.00" fill="#000000">IN</text>
<polyline fill="none" stroke="#000000" points="514.5,-566.5 598.5,-566.5 "/>
<text text-anchor="middle" x="556.5" y="-551.3" font-family="Times,serif" font-size="14.00" fill="#000000">bold</text>
<polyline fill="none" stroke="#000000" points="514.5,-543.5 598.5,-543.5 "/>
<text text-anchor="middle" x="556.5" y="-528.3" font-family="Times,serif" font-size="14.00" fill="#000000">subject_id</text>
<polyline fill="none" stroke="#000000" points="514.5,-520.5 598.5,-520.5 "/>
<text text-anchor="middle" x="556.5" y="-505.3" font-family="Times,serif" font-size="14.00" fill="#000000">subjects_dir</text>
<polyline fill="none" stroke="#000000" points="514.5,-497.5 598.5,-497.5 "/>
<text text-anchor="middle" x="556.5" y="-482.3" font-family="Times,serif" font-size="14.00" fill="#000000">t1w</text>
<polyline fill="none" stroke="#000000" points="514.5,-474.5 598.5,-474.5 "/>
<text text-anchor="middle" x="556.5" y="-459.3" font-family="Times,serif" font-size="14.00" fill="#000000">t2w</text>
<polyline fill="none" stroke="#000000" points="598.5,-451.5 598.5,-589.5 "/>
<text text-anchor="middle" x="633" y="-562.8" font-family="Times,serif" font-size="14.00" fill="#000000">summary</text>
<polyline fill="none" stroke="#000000" points="598.5,-543.5 667.5,-543.5 "/>
<text text-anchor="middle" x="633" y="-516.8" font-family="Times,serif" font-size="14.00" fill="#000000">reports</text>
<polyline fill="none" stroke="#000000" points="598.5,-497.5 667.5,-497.5 "/>
<text text-anchor="middle" x="633" y="-470.8" font-family="Times,serif" font-size="14.00" fill="#000000"> </text>
<polyline fill="none" stroke="#000000" points="667.5,-451.5 667.5,-589.5 "/>
<text text-anchor="middle" x="705" y="-551.3" font-family="Times,serif" font-size="14.00" fill="#000000">OUT</text>
<polyline fill="none" stroke="#000000" points="667.5,-520.5 742.5,-520.5 "/>
<text text-anchor="middle" x="705" y="-482.3" font-family="Times,serif" font-size="14.00" fill="#000000">out_report</text>
</g>
<!-- single_subject_01_wfbidssrc&#45;&gt;single_subject_01_wfsummary -->
<g id="edge17" class="edge">
<title>single_subject_01_wfbidssrc:e&#45;&gt;single_subject_01_wfsummary:w</title>
<path fill="none" stroke="#000000" d="M547.5,-928.5C626.8121,-928.5 449.3624,-589.6492 504.6031,-557.8819"/>
<polygon fill="#000000" stroke="#000000" points="505.5966,-561.2428 514.5,-555.5 503.9586,-554.4371 505.5966,-561.2428"/>
</g>
<!-- single_subject_01_wfbidssrc&#45;&gt;single_subject_01_wfsummary -->
<g id="edge24" class="edge">
<title>single_subject_01_wfbidssrc:e&#45;&gt;single_subject_01_wfsummary:w</title>
<path fill="none" stroke="#000000" d="M547.5,-858.5C562.8333,-858.5 552.2176,-838.5896 547.5,-824 541.4277,-805.2208 527.9032,-806.669 521.5,-788 479.0205,-664.1478 385.142,-494.7106 504.3417,-485.8615"/>
<polygon fill="#000000" stroke="#000000" points="504.6308,-489.3535 514.5,-485.5 504.3818,-482.358 504.6308,-489.3535"/>
</g>
<!-- single_subject_01_wfbidssrc&#45;&gt;single_subject_01_wfsummary -->
<g id="edge26" class="edge">
<title>single_subject_01_wfbidssrc:e&#45;&gt;single_subject_01_wfsummary:w</title>
<path fill="none" stroke="#000000" d="M547.5,-835.5C552.6111,-835.5 549.9307,-828.4961 547.5,-824 533.606,-798.3 506.394,-813.7 492.5,-788 465.0587,-737.2415 428.7888,-484.4898 504.2015,-463.8417"/>
<polygon fill="#000000" stroke="#000000" points="505.036,-467.2626 514.5,-462.5 504.1316,-460.3213 505.036,-467.2626"/>
</g>
<!-- single_subject_01_wfds_report_summary -->
<g id="node7" class="node">
<title>single_subject_01_wfds_report_summary</title>
<polygon fill="none" stroke="#000000" points="591,-127 591,-196 842,-196 842,-127 591,-127"/>
<text text-anchor="middle" x="630" y="-180.8" font-family="Times,serif" font-size="14.00" fill="#000000">IN</text>
<polyline fill="none" stroke="#000000" points="591,-173 669,-173 "/>
<text text-anchor="middle" x="630" y="-157.8" font-family="Times,serif" font-size="14.00" fill="#000000">in_file</text>
<polyline fill="none" stroke="#000000" points="591,-150 669,-150 "/>
<text text-anchor="middle" x="630" y="-134.8" font-family="Times,serif" font-size="14.00" fill="#000000">source_file</text>
<polyline fill="none" stroke="#000000" points="669,-127 669,-196 "/>
<text text-anchor="middle" x="733" y="-180.8" font-family="Times,serif" font-size="14.00" fill="#000000">ds_report_summary</text>
<polyline fill="none" stroke="#000000" points="669,-173 797,-173 "/>
<text text-anchor="middle" x="733" y="-157.8" font-family="Times,serif" font-size="14.00" fill="#000000"> </text>
<polyline fill="none" stroke="#000000" points="669,-150 797,-150 "/>
<text text-anchor="middle" x="733" y="-134.8" font-family="Times,serif" font-size="14.00" fill="#000000"> </text>
<polyline fill="none" stroke="#000000" points="797,-127 797,-196 "/>
<text text-anchor="middle" x="819.5" y="-157.8" font-family="Times,serif" font-size="14.00" fill="#000000">OUT</text>
</g>
<!-- single_subject_01_wfbidssrc&#45;&gt;single_subject_01_wfds_report_summary -->
<g id="edge23" class="edge">
<title>single_subject_01_wfbidssrc:e&#45;&gt;single_subject_01_wfds_report_summary:w</title>
<path fill="none" stroke="#000000" d="M547.5,-858.5C562.8333,-858.5 555.764,-836.9158 547.5,-824 526.9223,-791.8389 490.0777,-820.1611 469.5,-788 452.7326,-761.794 467.946,-749.0723 469.5,-718 482.4695,-458.6828 331.4542,-146.8416 580.3106,-138.6643"/>
<polygon fill="#000000" stroke="#000000" points="580.5578,-142.1609 590.5,-138.5 580.4448,-135.1618 580.5578,-142.1609"/>
</g>
<!-- single_subject_01_wfanat_preproc_wf -->
<g id="node8" class="node">
<title>single_subject_01_wfanat_preproc_wf</title>
<polygon fill="none" stroke="#000000" points="993.5,-359.5 993.5,-681.5 1433.5,-681.5 1433.5,-359.5 993.5,-359.5"/>
<text text-anchor="middle" x="1065.5" y="-654.8" font-family="Times,serif" font-size="14.00" fill="#000000">IN</text>
<polyline fill="none" stroke="#000000" points="993.5,-635.5 1137.5,-635.5 "/>
<text text-anchor="middle" x="1065.5" y="-608.8" font-family="Times,serif" font-size="14.00" fill="#000000">inputnode.flair</text>
<polyline fill="none" stroke="#000000" points="993.5,-589.5 1137.5,-589.5 "/>
<text text-anchor="middle" x="1065.5" y="-562.8" font-family="Times,serif" font-size="14.00" fill="#000000">inputnode.roi</text>
<polyline fill="none" stroke="#000000" points="993.5,-543.5 1137.5,-543.5 "/>
<text text-anchor="middle" x="1065.5" y="-516.8" font-family="Times,serif" font-size="14.00" fill="#000000">inputnode.subject_id</text>
<polyline fill="none" stroke="#000000" points="993.5,-497.5 1137.5,-497.5 "/>
<text text-anchor="middle" x="1065.5" y="-470.8" font-family="Times,serif" font-size="14.00" fill="#000000">inputnode.subjects_dir</text>
<polyline fill="none" stroke="#000000" points="993.5,-451.5 1137.5,-451.5 "/>
<text text-anchor="middle" x="1065.5" y="-424.8" font-family="Times,serif" font-size="14.00" fill="#000000">inputnode.t1w</text>
<polyline fill="none" stroke="#000000" points="993.5,-405.5 1137.5,-405.5 "/>
<text text-anchor="middle" x="1065.5" y="-378.8" font-family="Times,serif" font-size="14.00" fill="#000000">inputnode.t2w</text>
<polyline fill="none" stroke="#000000" points="1137.5,-359.5 1137.5,-681.5 "/>
<text text-anchor="middle" x="1193" y="-624.3" font-family="Times,serif" font-size="14.00" fill="#000000">anat_preproc_wf</text>
<polyline fill="none" stroke="#000000" points="1137.5,-574.5 1248.5,-574.5 "/>
<text text-anchor="middle" x="1193" y="-517.3" font-family="Times,serif" font-size="14.00" fill="#000000"> </text>
<polyline fill="none" stroke="#000000" points="1137.5,-467.5 1248.5,-467.5 "/>
<text text-anchor="middle" x="1193" y="-409.8" font-family="Times,serif" font-size="14.00" fill="#000000"> </text>
<polyline fill="none" stroke="#000000" points="1248.5,-359.5 1248.5,-681.5 "/>
<text text-anchor="middle" x="1341" y="-666.3" font-family="Times,serif" font-size="14.00" fill="#000000">OUT</text>
<polyline fill="none" stroke="#000000" points="1248.5,-658.5 1433.5,-658.5 "/>
<text text-anchor="middle" x="1341" y="-643.3" font-family="Times,serif" font-size="14.00" fill="#000000">outputnode.anat2std_xfm</text>
<polyline fill="none" stroke="#000000" points="1248.5,-635.5 1433.5,-635.5 "/>
<text text-anchor="middle" x="1341" y="-620.3" font-family="Times,serif" font-size="14.00" fill="#000000">outputnode.fsnative2t1w_xfm</text>
<polyline fill="none" stroke="#000000" points="1248.5,-612.5 1433.5,-612.5 "/>
<text text-anchor="middle" x="1341" y="-597.3" font-family="Times,serif" font-size="14.00" fill="#000000">outputnode.std2anat_xfm</text>
<polyline fill="none" stroke="#000000" points="1248.5,-589.5 1433.5,-589.5 "/>
<text text-anchor="middle" x="1341" y="-574.3" font-family="Times,serif" font-size="14.00" fill="#000000">outputnode.subject_id</text>
<polyline fill="none" stroke="#000000" points="1248.5,-566.5 1433.5,-566.5 "/>
<text text-anchor="middle" x="1341" y="-551.3" font-family="Times,serif" font-size="14.00" fill="#000000">outputnode.subjects_dir</text>
<polyline fill="none" stroke="#000000" points="1248.5,-543.5 1433.5,-543.5 "/>
<text text-anchor="middle" x="1341" y="-528.3" font-family="Times,serif" font-size="14.00" fill="#000000">outputnode.t1w2fsnative_xfm</text>
<polyline fill="none" stroke="#000000" points="1248.5,-520.5 1433.5,-520.5 "/>
<text text-anchor="middle" x="1341" y="-505.3" font-family="Times,serif" font-size="14.00" fill="#000000">outputnode.t1w_aparc</text>
<polyline fill="none" stroke="#000000" points="1248.5,-497.5 1433.5,-497.5 "/>
<text text-anchor="middle" x="1341" y="-482.3" font-family="Times,serif" font-size="14.00" fill="#000000">outputnode.t1w_aseg</text>
<polyline fill="none" stroke="#000000" points="1248.5,-474.5 1433.5,-474.5 "/>
<text text-anchor="middle" x="1341" y="-459.3" font-family="Times,serif" font-size="14.00" fill="#000000">outputnode.t1w_dseg</text>
<polyline fill="none" stroke="#000000" points="1248.5,-451.5 1433.5,-451.5 "/>
<text text-anchor="middle" x="1341" y="-436.3" font-family="Times,serif" font-size="14.00" fill="#000000">outputnode.t1w_mask</text>
<polyline fill="none" stroke="#000000" points="1248.5,-428.5 1433.5,-428.5 "/>
<text text-anchor="middle" x="1341" y="-413.3" font-family="Times,serif" font-size="14.00" fill="#000000">outputnode.t1w_preproc</text>
<polyline fill="none" stroke="#000000" points="1248.5,-405.5 1433.5,-405.5 "/>
<text text-anchor="middle" x="1341" y="-390.3" font-family="Times,serif" font-size="14.00" fill="#000000">outputnode.t1w_tpms</text>
<polyline fill="none" stroke="#000000" points="1248.5,-382.5 1433.5,-382.5 "/>
<text text-anchor="middle" x="1341" y="-367.3" font-family="Times,serif" font-size="14.00" fill="#000000">outputnode.template</text>
</g>
<!-- single_subject_01_wfbidssrc&#45;&gt;single_subject_01_wfanat_preproc_wf -->
<g id="edge18" class="edge">
<title>single_subject_01_wfbidssrc:e&#45;&gt;single_subject_01_wfanat_preproc_wf:w</title>
<path fill="none" stroke="#000000" d="M547.5,-905.5C665.3187,-905.5 990.9987,-880.0805 1064.5,-788 1083.9087,-763.6853 1080.7817,-744.5105 1064.5,-718 1045.9842,-687.8517 1012.0158,-712.1483 993.5,-682 979.4816,-659.1746 966.5475,-623.672 983.5029,-614.6443"/>
<polygon fill="#000000" stroke="#000000" points="984.4564,-618.0194 993.5,-612.5 982.9883,-611.1751 984.4564,-618.0194"/>
</g>
<!-- single_subject_01_wfbidssrc&#45;&gt;single_subject_01_wfanat_preproc_wf -->
<g id="edge19" class="edge">
<title>single_subject_01_wfbidssrc:e&#45;&gt;single_subject_01_wfanat_preproc_wf:w</title>
<path fill="none" stroke="#000000" d="M547.5,-881.5C655.9534,-881.5 957.5481,-871.7125 1026.5,-788 1046.2796,-763.9861 1037.7785,-746.9948 1026.5,-718 1018.6314,-697.7714 1001.3686,-702.2286 993.5,-682 976.2717,-637.7094 946.9464,-576.4339 983.4192,-567.5823"/>
<polygon fill="#000000" stroke="#000000" points="983.9308,-571.0476 993.5,-566.5 983.1835,-564.0876 983.9308,-571.0476"/>
</g>
<!-- single_subject_01_wfbidssrc&#45;&gt;single_subject_01_wfanat_preproc_wf -->
<g id="edge20" class="edge">
<title>single_subject_01_wfbidssrc:e&#45;&gt;single_subject_01_wfanat_preproc_wf:w</title>
<path fill="none" stroke="#000000" d="M547.5,-858.5C597.1222,-858.5 956.0384,-825.5314 988.5,-788 1012.4894,-760.2639 962.986,-480.5109 985.6046,-434.8006"/>
<polygon fill="#000000" stroke="#000000" points="987.8668,-437.4732 993.5,-428.5 983.5006,-432.0017 987.8668,-437.4732"/>
</g>
<!-- single_subject_01_wfbidssrc&#45;&gt;single_subject_01_wfanat_preproc_wf -->
<g id="edge25" class="edge">
<title>single_subject_01_wfbidssrc:e&#45;&gt;single_subject_01_wfanat_preproc_wf:w</title>
<path fill="none" stroke="#000000" d="M547.5,-835.5C593.0292,-835.5 922.6344,-820.5191 954.5,-788 1078.7435,-661.2085 822.7942,-393.2324 983.3999,-382.8129"/>
<polygon fill="#000000" stroke="#000000" points="983.6132,-386.3081 993.5,-382.5 983.3964,-379.3114 983.6132,-386.3081"/>
</g>
<!-- single_subject_01_wfbids_info&#45;&gt;single_subject_01_wfsummary -->
<g id="edge16" class="edge">
<title>single_subject_01_wfbids_info:e&#45;&gt;single_subject_01_wfsummary:w</title>
<path fill="none" stroke="#000000" d="M741.5,-736C749.5,-736 745.5352,-724.9078 741.5,-718 683.0796,-617.9901 572.9204,-690.0099 514.5,-590 503.7247,-571.5538 493.1063,-543.7668 504.8404,-535.1457"/>
<polygon fill="#000000" stroke="#000000" points="505.7798,-538.5174 514.5,-532.5 503.9306,-531.7661 505.7798,-538.5174"/>
</g>
<!-- single_subject_01_wfbids_info&#45;&gt;single_subject_01_wfanat_preproc_wf -->
<g id="edge15" class="edge">
<title>single_subject_01_wfbids_info:e&#45;&gt;single_subject_01_wfanat_preproc_wf:w</title>
<path fill="none" stroke="#000000" d="M741.5,-736C750.2545,-736 744.1721,-724.9466 749.5,-718 832.3356,-609.9975 852.9878,-524.7523 983.4932,-520.6543"/>
<polygon fill="#000000" stroke="#000000" points="983.5552,-524.1538 993.5,-520.5 983.4472,-517.1547 983.5552,-524.1538"/>
</g>
<!-- single_subject_01_wfinputnode -->
<g id="node5" class="node">
<title>single_subject_01_wfinputnode</title>
<polygon fill="none" stroke="#000000" points="759,-718.5 759,-787.5 946,-787.5 946,-718.5 759,-718.5"/>
<text text-anchor="middle" x="774.5" y="-749.3" font-family="Times,serif" font-size="14.00" fill="#000000">IN</text>
<polyline fill="none" stroke="#000000" points="790,-718.5 790,-787.5 "/>
<text text-anchor="middle" x="826" y="-772.3" font-family="Times,serif" font-size="14.00" fill="#000000">inputnode</text>
<polyline fill="none" stroke="#000000" points="790,-764.5 862,-764.5 "/>
<text text-anchor="middle" x="826" y="-749.3" font-family="Times,serif" font-size="14.00" fill="#000000">utility</text>
<polyline fill="none" stroke="#000000" points="790,-741.5 862,-741.5 "/>
<text text-anchor="middle" x="826" y="-726.3" font-family="Times,serif" font-size="14.00" fill="#000000"> </text>
<polyline fill="none" stroke="#000000" points="862,-718.5 862,-787.5 "/>
<text text-anchor="middle" x="904" y="-766.8" font-family="Times,serif" font-size="14.00" fill="#000000">OUT</text>
<polyline fill="none" stroke="#000000" points="862,-753.5 946,-753.5 "/>
<text text-anchor="middle" x="904" y="-732.3" font-family="Times,serif" font-size="14.00" fill="#000000">subjects_dir</text>
</g>
<!-- single_subject_01_wfinputnode&#45;&gt;single_subject_01_wfsummary -->
<g id="edge28" class="edge">
<title>single_subject_01_wfinputnode:e&#45;&gt;single_subject_01_wfsummary:w</title>
<path fill="none" stroke="#000000" d="M946.5,-736C954.5,-736 951.2864,-724.4102 946.5,-718 826.6912,-557.5438 634.3088,-750.4562 514.5,-590 495.1988,-564.1505 481.5459,-519.6986 504.3796,-510.2839"/>
<polygon fill="#000000" stroke="#000000" points="505.2594,-513.6829 514.5,-508.5 504.0442,-506.7892 505.2594,-513.6829"/>
</g>
<!-- single_subject_01_wfinputnode&#45;&gt;single_subject_01_wfanat_preproc_wf -->
<g id="edge27" class="edge">
<title>single_subject_01_wfinputnode:e&#45;&gt;single_subject_01_wfanat_preproc_wf:w</title>
<path fill="none" stroke="#000000" d="M946.5,-736C973.1959,-736 965.9032,-522.1576 986.0934,-481.2269"/>
<polygon fill="#000000" stroke="#000000" points="988.4505,-483.8142 993.5,-474.5 983.7442,-478.6323 988.4505,-483.8142"/>
</g>
<!-- single_subject_01_wfsummary&#45;&gt;single_subject_01_wfds_report_summary -->
<g id="edge29" class="edge">
<title>single_subject_01_wfsummary:e&#45;&gt;single_subject_01_wfds_report_summary:w</title>
<path fill="none" stroke="#000000" d="M742.5,-485.5C897.831,-485.5 453.1322,-176.5095 580.3368,-162.0256"/>
<polygon fill="#000000" stroke="#000000" points="580.6941,-165.5119 590.5,-161.5 580.3326,-158.5212 580.6941,-165.5119"/>
</g>
<!-- single_subject_01_wffunc_preproc_task_restEyesOpen_asl -->
<g id="node9" class="node">
<title>single_subject_01_wffunc_preproc_task_restEyesOpen_asl</title>
<polygon fill="none" stroke="#000000" points="1434,-.5 1434,-322.5 1885,-322.5 1885,-.5 1434,-.5"/>
<text text-anchor="middle" x="1523" y="-307.3" font-family="Times,serif" font-size="14.00" fill="#000000">IN</text>
<polyline fill="none" stroke="#000000" points="1434,-299.5 1612,-299.5 "/>
<text text-anchor="middle" x="1523" y="-284.3" font-family="Times,serif" font-size="14.00" fill="#000000">inputnode.anat2std_xfm</text>
<polyline fill="none" stroke="#000000" points="1434,-276.5 1612,-276.5 "/>
<text text-anchor="middle" x="1523" y="-261.3" font-family="Times,serif" font-size="14.00" fill="#000000">inputnode.fsnative2t1w_xfm</text>
<polyline fill="none" stroke="#000000" points="1434,-253.5 1612,-253.5 "/>
<text text-anchor="middle" x="1523" y="-238.3" font-family="Times,serif" font-size="14.00" fill="#000000">inputnode.std2anat_xfm</text>
<polyline fill="none" stroke="#000000" points="1434,-230.5 1612,-230.5 "/>
<text text-anchor="middle" x="1523" y="-215.3" font-family="Times,serif" font-size="14.00" fill="#000000">inputnode.subject_id</text>
<polyline fill="none" stroke="#000000" points="1434,-207.5 1612,-207.5 "/>
<text text-anchor="middle" x="1523" y="-192.3" font-family="Times,serif" font-size="14.00" fill="#000000">inputnode.subjects_dir</text>
<polyline fill="none" stroke="#000000" points="1434,-184.5 1612,-184.5 "/>
<text text-anchor="middle" x="1523" y="-169.3" font-family="Times,serif" font-size="14.00" fill="#000000">inputnode.t1w2fsnative_xfm</text>
<polyline fill="none" stroke="#000000" points="1434,-161.5 1612,-161.5 "/>
<text text-anchor="middle" x="1523" y="-146.3" font-family="Times,serif" font-size="14.00" fill="#000000">inputnode.t1w_aparc</text>
<polyline fill="none" stroke="#000000" points="1434,-138.5 1612,-138.5 "/>
<text text-anchor="middle" x="1523" y="-123.3" font-family="Times,serif" font-size="14.00" fill="#000000">inputnode.t1w_aseg</text>
<polyline fill="none" stroke="#000000" points="1434,-115.5 1612,-115.5 "/>
<text text-anchor="middle" x="1523" y="-100.3" font-family="Times,serif" font-size="14.00" fill="#000000">inputnode.t1w_dseg</text>
<polyline fill="none" stroke="#000000" points="1434,-92.5 1612,-92.5 "/>
<text text-anchor="middle" x="1523" y="-77.3" font-family="Times,serif" font-size="14.00" fill="#000000">inputnode.t1w_mask</text>
<polyline fill="none" stroke="#000000" points="1434,-69.5 1612,-69.5 "/>
<text text-anchor="middle" x="1523" y="-54.3" font-family="Times,serif" font-size="14.00" fill="#000000">inputnode.t1w_preproc</text>
<polyline fill="none" stroke="#000000" points="1434,-46.5 1612,-46.5 "/>
<text text-anchor="middle" x="1523" y="-31.3" font-family="Times,serif" font-size="14.00" fill="#000000">inputnode.t1w_tpms</text>
<polyline fill="none" stroke="#000000" points="1434,-23.5 1612,-23.5 "/>
<text text-anchor="middle" x="1523" y="-8.3" font-family="Times,serif" font-size="14.00" fill="#000000">inputnode.template</text>
<polyline fill="none" stroke="#000000" points="1612,-.5 1612,-322.5 "/>
<text text-anchor="middle" x="1726" y="-265.3" font-family="Times,serif" font-size="14.00" fill="#000000">func_preproc_task_restEyesOpen_asl</text>
<polyline fill="none" stroke="#000000" points="1612,-215.5 1840,-215.5 "/>
<text text-anchor="middle" x="1726" y="-158.3" font-family="Times,serif" font-size="14.00" fill="#000000"> </text>
<polyline fill="none" stroke="#000000" points="1612,-108.5 1840,-108.5 "/>
<text text-anchor="middle" x="1726" y="-50.8" font-family="Times,serif" font-size="14.00" fill="#000000"> </text>
<polyline fill="none" stroke="#000000" points="1840,-.5 1840,-322.5 "/>
<text text-anchor="middle" x="1862.5" y="-157.8" font-family="Times,serif" font-size="14.00" fill="#000000">OUT</text>
</g>
<!-- single_subject_01_wfanat_preproc_wf&#45;&gt;single_subject_01_wffunc_preproc_task_restEyesOpen_asl -->
<g id="edge2" class="edge">
<title>single_subject_01_wfanat_preproc_wf:e&#45;&gt;single_subject_01_wffunc_preproc_task_restEyesOpen_asl:w</title>
<path fill="none" stroke="#000000" d="M1433.5,-647.5C1433.5,-647.5 1433.5,-357.7188 1433.5,-298.857"/>
<polygon fill="#000000" stroke="#000000" points="1437.0001,-298.5 1433.5,-288.5 1430.0001,-298.5 1437.0001,-298.5"/>
</g>
<!-- single_subject_01_wfanat_preproc_wf&#45;&gt;single_subject_01_wffunc_preproc_task_restEyesOpen_asl -->
<g id="edge3" class="edge">
<title>single_subject_01_wfanat_preproc_wf:e&#45;&gt;single_subject_01_wffunc_preproc_task_restEyesOpen_asl:w</title>
<path fill="none" stroke="#000000" d="M1433.5,-624.5C1433.5,-624.5 1433.5,-334.7188 1433.5,-275.857"/>
<polygon fill="#000000" stroke="#000000" points="1437.0001,-275.5 1433.5,-265.5 1430.0001,-275.5 1437.0001,-275.5"/>
</g>
<!-- single_subject_01_wfanat_preproc_wf&#45;&gt;single_subject_01_wffunc_preproc_task_restEyesOpen_asl -->
<g id="edge4" class="edge">
<title>single_subject_01_wfanat_preproc_wf:e&#45;&gt;single_subject_01_wffunc_preproc_task_restEyesOpen_asl:w</title>
<path fill="none" stroke="#000000" d="M1433.5,-601.5C1433.5,-601.5 1433.5,-311.7188 1433.5,-252.857"/>
<polygon fill="#000000" stroke="#000000" points="1437.0001,-252.5 1433.5,-242.5 1430.0001,-252.5 1437.0001,-252.5"/>
</g>
<!-- single_subject_01_wfanat_preproc_wf&#45;&gt;single_subject_01_wffunc_preproc_task_restEyesOpen_asl -->
<g id="edge5" class="edge">
<title>single_subject_01_wfanat_preproc_wf:e&#45;&gt;single_subject_01_wffunc_preproc_task_restEyesOpen_asl:w</title>
<path fill="none" stroke="#000000" d="M1433.5,-578.5C1433.5,-578.5 1433.5,-288.7188 1433.5,-229.857"/>
<polygon fill="#000000" stroke="#000000" points="1437.0001,-229.5 1433.5,-219.5 1430.0001,-229.5 1437.0001,-229.5"/>
</g>
<!-- single_subject_01_wfanat_preproc_wf&#45;&gt;single_subject_01_wffunc_preproc_task_restEyesOpen_asl -->
<g id="edge6" class="edge">
<title>single_subject_01_wfanat_preproc_wf:e&#45;&gt;single_subject_01_wffunc_preproc_task_restEyesOpen_asl:w</title>
<path fill="none" stroke="#000000" d="M1433.5,-555.5C1433.5,-555.5 1433.5,-265.7188 1433.5,-206.857"/>
<polygon fill="#000000" stroke="#000000" points="1437.0001,-206.5 1433.5,-196.5 1430.0001,-206.5 1437.0001,-206.5"/>
</g>
<!-- single_subject_01_wfanat_preproc_wf&#45;&gt;single_subject_01_wffunc_preproc_task_restEyesOpen_asl -->
<g id="edge7" class="edge">
<title>single_subject_01_wfanat_preproc_wf:e&#45;&gt;single_subject_01_wffunc_preproc_task_restEyesOpen_asl:w</title>
<path fill="none" stroke="#000000" d="M1433.5,-532.5C1589.4718,-532.5 1288.038,-189.4458 1423.4623,-174.0352"/>
<polygon fill="#000000" stroke="#000000" points="1423.7006,-177.5276 1433.5,-173.5 1423.3278,-170.5375 1423.7006,-177.5276"/>
</g>
<!-- single_subject_01_wfanat_preproc_wf&#45;&gt;single_subject_01_wffunc_preproc_task_restEyesOpen_asl -->
<g id="edge8" class="edge">
<title>single_subject_01_wfanat_preproc_wf:e&#45;&gt;single_subject_01_wffunc_preproc_task_restEyesOpen_asl:w</title>
<path fill="none" stroke="#000000" d="M1433.5,-508.5C1589.4718,-508.5 1288.038,-165.4458 1423.4623,-150.0352"/>
<polygon fill="#000000" stroke="#000000" points="1423.7006,-153.5276 1433.5,-149.5 1423.3278,-146.5375 1423.7006,-153.5276"/>
</g>
<!-- single_subject_01_wfanat_preproc_wf&#45;&gt;single_subject_01_wffunc_preproc_task_restEyesOpen_asl -->
<g id="edge9" class="edge">
<title>single_subject_01_wfanat_preproc_wf:e&#45;&gt;single_subject_01_wffunc_preproc_task_restEyesOpen_asl:w</title>
<path fill="none" stroke="#000000" d="M1433.5,-485.5C1433.5,-485.5 1433.5,-195.7188 1433.5,-136.857"/>
<polygon fill="#000000" stroke="#000000" points="1437.0001,-136.5 1433.5,-126.5 1430.0001,-136.5 1437.0001,-136.5"/>
</g>
<!-- single_subject_01_wfanat_preproc_wf&#45;&gt;single_subject_01_wffunc_preproc_task_restEyesOpen_asl -->
<g id="edge10" class="edge">
<title>single_subject_01_wfanat_preproc_wf:e&#45;&gt;single_subject_01_wffunc_preproc_task_restEyesOpen_asl:w</title>
<path fill="none" stroke="#000000" d="M1433.5,-462.5C1433.5,-462.5 1433.5,-172.7188 1433.5,-113.857"/>
<polygon fill="#000000" stroke="#000000" points="1437.0001,-113.5 1433.5,-103.5 1430.0001,-113.5 1437.0001,-113.5"/>
</g>
<!-- single_subject_01_wfanat_preproc_wf&#45;&gt;single_subject_01_wffunc_preproc_task_restEyesOpen_asl -->
<g id="edge11" class="edge">
<title>single_subject_01_wfanat_preproc_wf:e&#45;&gt;single_subject_01_wffunc_preproc_task_restEyesOpen_asl:w</title>
<path fill="none" stroke="#000000" d="M1433.5,-439.5C1433.5,-439.5 1433.5,-149.7188 1433.5,-90.857"/>
<polygon fill="#000000" stroke="#000000" points="1437.0001,-90.5 1433.5,-80.5 1430.0001,-90.5 1437.0001,-90.5"/>
</g>
<!-- single_subject_01_wfanat_preproc_wf&#45;&gt;single_subject_01_wffunc_preproc_task_restEyesOpen_asl -->
<g id="edge12" class="edge">
<title>single_subject_01_wfanat_preproc_wf:e&#45;&gt;single_subject_01_wffunc_preproc_task_restEyesOpen_asl:w</title>
<path fill="none" stroke="#000000" d="M1433.5,-416.5C1433.5,-416.5 1433.5,-126.7188 1433.5,-67.857"/>
<polygon fill="#000000" stroke="#000000" points="1437.0001,-67.5 1433.5,-57.5 1430.0001,-67.5 1437.0001,-67.5"/>
</g>
<!-- single_subject_01_wfanat_preproc_wf&#45;&gt;single_subject_01_wffunc_preproc_task_restEyesOpen_asl -->
<g id="edge13" class="edge">
<title>single_subject_01_wfanat_preproc_wf:e&#45;&gt;single_subject_01_wffunc_preproc_task_restEyesOpen_asl:w</title>
<path fill="none" stroke="#000000" d="M1433.5,-393.5C1433.5,-393.5 1433.5,-103.7188 1433.5,-44.857"/>
<polygon fill="#000000" stroke="#000000" points="1437.0001,-44.5 1433.5,-34.5 1430.0001,-44.5 1437.0001,-44.5"/>
</g>
<!-- single_subject_01_wfanat_preproc_wf&#45;&gt;single_subject_01_wffunc_preproc_task_restEyesOpen_asl -->
<g id="edge14" class="edge">
<title>single_subject_01_wfanat_preproc_wf:e&#45;&gt;single_subject_01_wffunc_preproc_task_restEyesOpen_asl:w</title>
<path fill="none" stroke="#000000" d="M1433.5,-370.5C1433.5,-370.5 1433.5,-80.7188 1433.5,-21.857"/>
<polygon fill="#000000" stroke="#000000" points="1437.0001,-21.5 1433.5,-11.5 1430.0001,-21.5 1437.0001,-21.5"/>
</g>
</g>
</svg>
