<?xml version="1.0" encoding="UTF-8" standalone="no"?>
<!DOCTYPE svg PUBLIC "-//W3C//DTD SVG 1.1//EN"
 "http://www.w3.org/Graphics/SVG/1.1/DTD/svg11.dtd">
<!-- Generated by graphviz version 2.40.1 (20161225.0304)
 -->
<!-- Title: structs Pages: 1 -->
<svg width="1100pt" height="746pt"
 viewBox="0.00 0.00 1099.56 746.00" xmlns="http://www.w3.org/2000/svg" xmlns:xlink="http://www.w3.org/1999/xlink">
<g id="graph0" class="graph" transform="scale(1 1) rotate(0) translate(4 742)">
<title>structs</title>
<polygon fill="#ffffff" stroke="transparent" points="-4,4 -4,-742 1095.56,-742 1095.56,4 -4,4"/>
<!-- fsl_bbr_wfinputnode -->
<g id="node1" class="node">
<title>fsl_bbr_wfinputnode</title>
<polygon fill="none" stroke="#000000" points="81.8274,-645.5 81.8274,-737.5 257.8274,-737.5 257.8274,-645.5 81.8274,-645.5"/>
<text text-anchor="middle" x="97.3274" y="-687.8" font-family="Times,serif" font-size="14.00" fill="#000000">IN</text>
<polyline fill="none" stroke="#000000" points="112.8274,-645.5 112.8274,-737.5 "/>
<text text-anchor="middle" x="148.8274" y="-718.8" font-family="Times,serif" font-size="14.00" fill="#000000">inputnode</text>
<polyline fill="none" stroke="#000000" points="112.8274,-707.5 184.8274,-707.5 "/>
<text text-anchor="middle" x="148.8274" y="-688.3" font-family="Times,serif" font-size="14.00" fill="#000000">utility</text>
<polyline fill="none" stroke="#000000" points="112.8274,-676.5 184.8274,-676.5 "/>
<text text-anchor="middle" x="148.8274" y="-657.3" font-family="Times,serif" font-size="14.00" fill="#000000"> </text>
<polyline fill="none" stroke="#000000" points="184.8274,-645.5 184.8274,-737.5 "/>
<text text-anchor="middle" x="221.3274" y="-722.3" font-family="Times,serif" font-size="14.00" fill="#000000">OUT</text>
<polyline fill="none" stroke="#000000" points="184.8274,-714.5 257.8274,-714.5 "/>
<text text-anchor="middle" x="221.3274" y="-699.3" font-family="Times,serif" font-size="14.00" fill="#000000">in_file</text>
<polyline fill="none" stroke="#000000" points="184.8274,-691.5 257.8274,-691.5 "/>
<text text-anchor="middle" x="221.3274" y="-676.3" font-family="Times,serif" font-size="14.00" fill="#000000">t1w_brain</text>
<polyline fill="none" stroke="#000000" points="184.8274,-668.5 257.8274,-668.5 "/>
<text text-anchor="middle" x="221.3274" y="-653.3" font-family="Times,serif" font-size="14.00" fill="#000000">t1w_dseg</text>
</g>
<!-- fsl_bbr_wfwm_mask -->
<g id="node2" class="node">
<title>fsl_bbr_wfwm_mask</title>
<polygon fill="none" stroke="#000000" points="67.8274,-539.5 67.8274,-608.5 239.8274,-608.5 239.8274,-539.5 67.8274,-539.5"/>
<text text-anchor="middle" x="94.3274" y="-587.8" font-family="Times,serif" font-size="14.00" fill="#000000">IN</text>
<polyline fill="none" stroke="#000000" points="67.8274,-574.5 120.8274,-574.5 "/>
<text text-anchor="middle" x="94.3274" y="-553.3" font-family="Times,serif" font-size="14.00" fill="#000000">in_seg</text>
<polyline fill="none" stroke="#000000" points="120.8274,-539.5 120.8274,-608.5 "/>
<text text-anchor="middle" x="157.8274" y="-593.3" font-family="Times,serif" font-size="14.00" fill="#000000">wm_mask</text>
<polyline fill="none" stroke="#000000" points="120.8274,-585.5 194.8274,-585.5 "/>
<text text-anchor="middle" x="157.8274" y="-570.3" font-family="Times,serif" font-size="14.00" fill="#000000">utility</text>
<polyline fill="none" stroke="#000000" points="120.8274,-562.5 194.8274,-562.5 "/>
<text text-anchor="middle" x="157.8274" y="-547.3" font-family="Times,serif" font-size="14.00" fill="#000000"> </text>
<polyline fill="none" stroke="#000000" points="194.8274,-539.5 194.8274,-608.5 "/>
<text text-anchor="middle" x="217.3274" y="-587.8" font-family="Times,serif" font-size="14.00" fill="#000000">OUT</text>
<polyline fill="none" stroke="#000000" points="194.8274,-574.5 239.8274,-574.5 "/>
<text text-anchor="middle" x="217.3274" y="-553.3" font-family="Times,serif" font-size="14.00" fill="#000000">out</text>
</g>
<!-- fsl_bbr_wfinputnode&#45;&gt;fsl_bbr_wfwm_mask -->
<g id="edge15" class="edge">
<title>fsl_bbr_wfinputnode:e&#45;&gt;fsl_bbr_wfwm_mask:w</title>
<path fill="none" stroke="#000000" d="M257.8274,-656.5C262.9385,-656.5 261.0878,-648.9362 257.8274,-645 203.0017,-578.8108 122.6531,-675.1892 67.8274,-609 62.4717,-602.5342 58.7984,-578.0136 61.6221,-565.0873"/>
<polygon fill="#000000" stroke="#000000" points="64.5167,-567.0643 67.8274,-557 58.9631,-562.8031 64.5167,-567.0643"/>
</g>
<!-- fsl_bbr_wfflt_bbr_init -->
<g id="node3" class="node">
<title>fsl_bbr_wfflt_bbr_init</title>
<polygon fill="none" stroke="#000000" points="257.8274,-539.5 257.8274,-608.5 509.8274,-608.5 509.8274,-539.5 257.8274,-539.5"/>
<text text-anchor="middle" x="292.3274" y="-593.3" font-family="Times,serif" font-size="14.00" fill="#000000">IN</text>
<polyline fill="none" stroke="#000000" points="257.8274,-585.5 326.8274,-585.5 "/>
<text text-anchor="middle" x="292.3274" y="-570.3" font-family="Times,serif" font-size="14.00" fill="#000000">in_file</text>
<polyline fill="none" stroke="#000000" points="257.8274,-562.5 326.8274,-562.5 "/>
<text text-anchor="middle" x="292.3274" y="-547.3" font-family="Times,serif" font-size="14.00" fill="#000000">reference</text>
<polyline fill="none" stroke="#000000" points="326.8274,-539.5 326.8274,-608.5 "/>
<text text-anchor="middle" x="366.8274" y="-593.3" font-family="Times,serif" font-size="14.00" fill="#000000">flt_bbr_init</text>
<polyline fill="none" stroke="#000000" points="326.8274,-585.5 406.8274,-585.5 "/>
<text text-anchor="middle" x="366.8274" y="-570.3" font-family="Times,serif" font-size="14.00" fill="#000000">interfaces</text>
<polyline fill="none" stroke="#000000" points="326.8274,-562.5 406.8274,-562.5 "/>
<text text-anchor="middle" x="366.8274" y="-547.3" font-family="Times,serif" font-size="14.00" fill="#000000"> </text>
<polyline fill="none" stroke="#000000" points="406.8274,-539.5 406.8274,-608.5 "/>
<text text-anchor="middle" x="458.3274" y="-587.8" font-family="Times,serif" font-size="14.00" fill="#000000">OUT</text>
<polyline fill="none" stroke="#000000" points="406.8274,-574.5 509.8274,-574.5 "/>
<text text-anchor="middle" x="458.3274" y="-553.3" font-family="Times,serif" font-size="14.00" fill="#000000">out_matrix_file</text>
</g>
<!-- fsl_bbr_wfinputnode&#45;&gt;fsl_bbr_wfflt_bbr_init -->
<g id="edge8" class="edge">
<title>fsl_bbr_wfinputnode:e&#45;&gt;fsl_bbr_wfflt_bbr_init:w</title>
<path fill="none" stroke="#000000" d="M257.8274,-703.5C282.5583,-703.5 243.5298,-607.861 250.3284,-580.9625"/>
<polygon fill="#000000" stroke="#000000" points="252.8804,-583.369 257.8274,-574 248.1176,-578.2392 252.8804,-583.369"/>
</g>
<!-- fsl_bbr_wfinputnode&#45;&gt;fsl_bbr_wfflt_bbr_init -->
<g id="edge12" class="edge">
<title>fsl_bbr_wfinputnode:e&#45;&gt;fsl_bbr_wfflt_bbr_init:w</title>
<path fill="none" stroke="#000000" d="M257.8274,-679.5C282.3673,-679.5 243.6402,-584.5995 250.3863,-557.9087"/>
<polygon fill="#000000" stroke="#000000" points="252.8804,-560.369 257.8274,-551 248.1176,-555.2392 252.8804,-560.369"/>
</g>
<!-- fsl_bbr_wfflt_bbr -->
<g id="node4" class="node">
<title>fsl_bbr_wfflt_bbr</title>
<polygon fill="none" stroke="#000000" points="56.8274,-387.5 56.8274,-502.5 326.8274,-502.5 326.8274,-387.5 56.8274,-387.5"/>
<text text-anchor="middle" x="104.8274" y="-487.3" font-family="Times,serif" font-size="14.00" fill="#000000">IN</text>
<polyline fill="none" stroke="#000000" points="56.8274,-479.5 152.8274,-479.5 "/>
<text text-anchor="middle" x="104.8274" y="-464.3" font-family="Times,serif" font-size="14.00" fill="#000000">in_file</text>
<polyline fill="none" stroke="#000000" points="56.8274,-456.5 152.8274,-456.5 "/>
<text text-anchor="middle" x="104.8274" y="-441.3" font-family="Times,serif" font-size="14.00" fill="#000000">in_matrix_file</text>
<polyline fill="none" stroke="#000000" points="56.8274,-433.5 152.8274,-433.5 "/>
<text text-anchor="middle" x="104.8274" y="-418.3" font-family="Times,serif" font-size="14.00" fill="#000000">reference</text>
<polyline fill="none" stroke="#000000" points="56.8274,-410.5 152.8274,-410.5 "/>
<text text-anchor="middle" x="104.8274" y="-395.3" font-family="Times,serif" font-size="14.00" fill="#000000">wm_seg</text>
<polyline fill="none" stroke="#000000" points="152.8274,-387.5 152.8274,-502.5 "/>
<text text-anchor="middle" x="188.3274" y="-479.8" font-family="Times,serif" font-size="14.00" fill="#000000">flt_bbr</text>
<polyline fill="none" stroke="#000000" points="152.8274,-464.5 223.8274,-464.5 "/>
<text text-anchor="middle" x="188.3274" y="-441.8" font-family="Times,serif" font-size="14.00" fill="#000000">interfaces</text>
<polyline fill="none" stroke="#000000" points="152.8274,-426.5 223.8274,-426.5 "/>
<text text-anchor="middle" x="188.3274" y="-403.3" font-family="Times,serif" font-size="14.00" fill="#000000"> </text>
<polyline fill="none" stroke="#000000" points="223.8274,-387.5 223.8274,-502.5 "/>
<text text-anchor="middle" x="275.3274" y="-479.8" font-family="Times,serif" font-size="14.00" fill="#000000">OUT</text>
<polyline fill="none" stroke="#000000" points="223.8274,-464.5 326.8274,-464.5 "/>
<text text-anchor="middle" x="275.3274" y="-441.8" font-family="Times,serif" font-size="14.00" fill="#000000">out_matrix_file</text>
<polyline fill="none" stroke="#000000" points="223.8274,-426.5 326.8274,-426.5 "/>
<text text-anchor="middle" x="275.3274" y="-403.3" font-family="Times,serif" font-size="14.00" fill="#000000">out_report</text>
</g>
<!-- fsl_bbr_wfinputnode&#45;&gt;fsl_bbr_wfflt_bbr -->
<g id="edge7" class="edge">
<title>fsl_bbr_wfinputnode:e&#45;&gt;fsl_bbr_wfflt_bbr:w</title>
<path fill="none" stroke="#000000" d="M257.8274,-703.5C283.8274,-703.5 274.744,-664.7441 257.8274,-645 189.9364,-565.7617 93.7184,-688.2383 25.8274,-609 -13.6368,-562.9398 -8.1243,-477.9623 46.7984,-468.8057"/>
<polygon fill="#000000" stroke="#000000" points="47.1398,-472.2896 56.8274,-468 46.5792,-465.3121 47.1398,-472.2896"/>
</g>
<!-- fsl_bbr_wfinputnode&#45;&gt;fsl_bbr_wfflt_bbr -->
<g id="edge11" class="edge">
<title>fsl_bbr_wfinputnode:e&#45;&gt;fsl_bbr_wfflt_bbr:w</title>
<path fill="none" stroke="#000000" d="M257.8274,-679.5C273.1607,-679.5 267.6574,-656.7678 257.8274,-645 200.2065,-576.0199 117.0964,-677.4335 58.8274,-609 34.2008,-580.0775 18.2016,-447.7885 47.3718,-425.265"/>
<polygon fill="#000000" stroke="#000000" points="48.5174,-428.5722 56.8274,-422 46.2326,-421.9556 48.5174,-428.5722"/>
</g>
<!-- fsl_bbr_wffsl2itk_fwd -->
<g id="node5" class="node">
<title>fsl_bbr_wffsl2itk_fwd</title>
<polygon fill="none" stroke="#000000" points="520.8274,-258.5 520.8274,-350.5 790.8274,-350.5 790.8274,-258.5 520.8274,-258.5"/>
<text text-anchor="middle" x="568.8274" y="-335.3" font-family="Times,serif" font-size="14.00" fill="#000000">IN</text>
<polyline fill="none" stroke="#000000" points="520.8274,-327.5 616.8274,-327.5 "/>
<text text-anchor="middle" x="568.8274" y="-312.3" font-family="Times,serif" font-size="14.00" fill="#000000">reference_file</text>
<polyline fill="none" stroke="#000000" points="520.8274,-304.5 616.8274,-304.5 "/>
<text text-anchor="middle" x="568.8274" y="-289.3" font-family="Times,serif" font-size="14.00" fill="#000000">source_file</text>
<polyline fill="none" stroke="#000000" points="520.8274,-281.5 616.8274,-281.5 "/>
<text text-anchor="middle" x="568.8274" y="-266.3" font-family="Times,serif" font-size="14.00" fill="#000000">transform_file</text>
<polyline fill="none" stroke="#000000" points="616.8274,-258.5 616.8274,-350.5 "/>
<text text-anchor="middle" x="657.3274" y="-331.8" font-family="Times,serif" font-size="14.00" fill="#000000">fsl2itk_fwd</text>
<polyline fill="none" stroke="#000000" points="616.8274,-320.5 697.8274,-320.5 "/>
<text text-anchor="middle" x="657.3274" y="-301.3" font-family="Times,serif" font-size="14.00" fill="#000000">c3</text>
<polyline fill="none" stroke="#000000" points="616.8274,-289.5 697.8274,-289.5 "/>
<text text-anchor="middle" x="657.3274" y="-270.3" font-family="Times,serif" font-size="14.00" fill="#000000"> </text>
<polyline fill="none" stroke="#000000" points="697.8274,-258.5 697.8274,-350.5 "/>
<text text-anchor="middle" x="744.3274" y="-323.8" font-family="Times,serif" font-size="14.00" fill="#000000">OUT</text>
<polyline fill="none" stroke="#000000" points="697.8274,-304.5 790.8274,-304.5 "/>
<text text-anchor="middle" x="744.3274" y="-277.8" font-family="Times,serif" font-size="14.00" fill="#000000">itk_transform</text>
</g>
<!-- fsl_bbr_wfinputnode&#45;&gt;fsl_bbr_wffsl2itk_fwd -->
<g id="edge9" class="edge">
<title>fsl_bbr_wfinputnode:e&#45;&gt;fsl_bbr_wffsl2itk_fwd:w</title>
<path fill="none" stroke="#000000" d="M257.8274,-703.5C319.5121,-703.5 483.2447,-659.3872 518.8274,-609 527.9007,-596.1516 508.2714,-353.0309 516.6162,-301.8905"/>
<polygon fill="#000000" stroke="#000000" points="519.929,-303.0567 520.8274,-292.5 513.5419,-300.1923 519.929,-303.0567"/>
</g>
<!-- fsl_bbr_wfinputnode&#45;&gt;fsl_bbr_wffsl2itk_fwd -->
<g id="edge13" class="edge">
<title>fsl_bbr_wfinputnode:e&#45;&gt;fsl_bbr_wffsl2itk_fwd:w</title>
<path fill="none" stroke="#000000" d="M257.8274,-679.5C321.13,-679.5 494.9978,-658.9948 533.8274,-609 542.1751,-598.2519 544.3435,-479.3404 530.8274,-387 529.1086,-375.2575 515.4423,-341.4725 515.3921,-325.3139"/>
<polygon fill="#000000" stroke="#000000" points="518.5575,-326.8488 520.8274,-316.5 512.5993,-323.1746 518.5575,-326.8488"/>
</g>
<!-- fsl_bbr_wffsl2itk_inv -->
<g id="node7" class="node">
<title>fsl_bbr_wffsl2itk_inv</title>
<polygon fill="none" stroke="#000000" points="818.8274,-129.5 818.8274,-221.5 1084.8274,-221.5 1084.8274,-129.5 818.8274,-129.5"/>
<text text-anchor="middle" x="866.8274" y="-206.3" font-family="Times,serif" font-size="14.00" fill="#000000">IN</text>
<polyline fill="none" stroke="#000000" points="818.8274,-198.5 914.8274,-198.5 "/>
<text text-anchor="middle" x="866.8274" y="-183.3" font-family="Times,serif" font-size="14.00" fill="#000000">reference_file</text>
<polyline fill="none" stroke="#000000" points="818.8274,-175.5 914.8274,-175.5 "/>
<text text-anchor="middle" x="866.8274" y="-160.3" font-family="Times,serif" font-size="14.00" fill="#000000">source_file</text>
<polyline fill="none" stroke="#000000" points="818.8274,-152.5 914.8274,-152.5 "/>
<text text-anchor="middle" x="866.8274" y="-137.3" font-family="Times,serif" font-size="14.00" fill="#000000">transform_file</text>
<polyline fill="none" stroke="#000000" points="914.8274,-129.5 914.8274,-221.5 "/>
<text text-anchor="middle" x="953.3274" y="-202.8" font-family="Times,serif" font-size="14.00" fill="#000000">fsl2itk_inv</text>
<polyline fill="none" stroke="#000000" points="914.8274,-191.5 991.8274,-191.5 "/>
<text text-anchor="middle" x="953.3274" y="-172.3" font-family="Times,serif" font-size="14.00" fill="#000000">c3</text>
<polyline fill="none" stroke="#000000" points="914.8274,-160.5 991.8274,-160.5 "/>
<text text-anchor="middle" x="953.3274" y="-141.3" font-family="Times,serif" font-size="14.00" fill="#000000"> </text>
<polyline fill="none" stroke="#000000" points="991.8274,-129.5 991.8274,-221.5 "/>
<text text-anchor="middle" x="1038.3274" y="-194.8" font-family="Times,serif" font-size="14.00" fill="#000000">OUT</text>
<polyline fill="none" stroke="#000000" points="991.8274,-175.5 1084.8274,-175.5 "/>
<text text-anchor="middle" x="1038.3274" y="-148.8" font-family="Times,serif" font-size="14.00" fill="#000000">itk_transform</text>
</g>
<!-- fsl_bbr_wfinputnode&#45;&gt;fsl_bbr_wffsl2itk_inv -->
<g id="edge10" class="edge">
<title>fsl_bbr_wfinputnode:e&#45;&gt;fsl_bbr_wffsl2itk_inv:w</title>
<path fill="none" stroke="#000000" d="M257.8274,-703.5C545.1807,-703.5 676.9986,-610.7787 799.8274,-351 806.5456,-336.7912 802.242,-226.2549 812.5062,-195.4475"/>
<polygon fill="#000000" stroke="#000000" points="815.3418,-197.5051 818.8274,-187.5 809.8633,-193.1477 815.3418,-197.5051"/>
</g>
<!-- fsl_bbr_wfinputnode&#45;&gt;fsl_bbr_wffsl2itk_inv -->
<g id="edge14" class="edge">
<title>fsl_bbr_wfinputnode:e&#45;&gt;fsl_bbr_wffsl2itk_inv:w</title>
<path fill="none" stroke="#000000" d="M257.8274,-679.5C349.3997,-679.5 583.501,-652.9678 663.8274,-609 719.8442,-578.3384 727.7686,-557.6364 760.8274,-503 798.0187,-441.5338 802.853,-421.6608 815.8274,-351 816.2307,-348.8036 816.2332,-212.5289 817.8674,-173.7139"/>
<polygon fill="#000000" stroke="#000000" points="821.3762,-173.7837 818.8274,-163.5 814.4069,-173.1286 821.3762,-173.7837"/>
</g>
<!-- fsl_bbr_wfwm_mask&#45;&gt;fsl_bbr_wfflt_bbr -->
<g id="edge17" class="edge">
<title>fsl_bbr_wfwm_mask:e&#45;&gt;fsl_bbr_wfflt_bbr:w</title>
<path fill="none" stroke="#000000" d="M239.8274,-557C247.8274,-557 244.9091,-545.1787 239.8274,-539 187.1736,-474.979 109.4811,-567.021 56.8274,-503 29.8752,-470.2291 13.4556,-409.9862 46.698,-400.3231"/>
<polygon fill="#000000" stroke="#000000" points="47.365,-403.7658 56.8274,-399 46.4583,-396.8248 47.365,-403.7658"/>
</g>
<!-- fsl_bbr_wfflt_bbr_init&#45;&gt;fsl_bbr_wfflt_bbr -->
<g id="edge4" class="edge">
<title>fsl_bbr_wfflt_bbr_init:e&#45;&gt;fsl_bbr_wfflt_bbr:w</title>
<path fill="none" stroke="#000000" d="M509.8274,-557C517.8274,-557 515.2556,-544.8767 509.8274,-539 441.3077,-464.819 125.3471,-577.181 56.8274,-503 42.0696,-487.0228 33.864,-456.7161 47.1442,-447.6353"/>
<polygon fill="#000000" stroke="#000000" points="48.0975,-451.0033 56.8274,-445 46.2592,-444.249 48.0975,-451.0033"/>
</g>
<!-- fsl_bbr_wfflt_bbr&#45;&gt;fsl_bbr_wffsl2itk_fwd -->
<g id="edge1" class="edge">
<title>fsl_bbr_wfflt_bbr:e&#45;&gt;fsl_bbr_wffsl2itk_fwd:w</title>
<path fill="none" stroke="#000000" d="M326.8274,-446C419.2569,-446 459.3947,-427.1185 511.8274,-351 520.0642,-339.0423 509.318,-294.3889 513.8329,-276.7418"/>
<polygon fill="#000000" stroke="#000000" points="516.3977,-279.1244 520.8274,-269.5 511.3627,-274.2613 516.3977,-279.1244"/>
</g>
<!-- fsl_bbr_wfinvt_bbr -->
<g id="node6" class="node">
<title>fsl_bbr_wfinvt_bbr</title>
<polygon fill="none" stroke="#000000" points="327.3274,-270 327.3274,-339 502.3274,-339 502.3274,-270 327.3274,-270"/>
<text text-anchor="middle" x="353.3274" y="-318.3" font-family="Times,serif" font-size="14.00" fill="#000000">IN</text>
<polyline fill="none" stroke="#000000" points="327.3274,-305 379.3274,-305 "/>
<text text-anchor="middle" x="353.3274" y="-283.8" font-family="Times,serif" font-size="14.00" fill="#000000">in_file</text>
<polyline fill="none" stroke="#000000" points="379.3274,-270 379.3274,-339 "/>
<text text-anchor="middle" x="411.3274" y="-323.8" font-family="Times,serif" font-size="14.00" fill="#000000">invt_bbr</text>
<polyline fill="none" stroke="#000000" points="379.3274,-316 443.3274,-316 "/>
<text text-anchor="middle" x="411.3274" y="-300.8" font-family="Times,serif" font-size="14.00" fill="#000000">fsl</text>
<polyline fill="none" stroke="#000000" points="379.3274,-293 443.3274,-293 "/>
<text text-anchor="middle" x="411.3274" y="-277.8" font-family="Times,serif" font-size="14.00" fill="#000000"> </text>
<polyline fill="none" stroke="#000000" points="443.3274,-270 443.3274,-339 "/>
<text text-anchor="middle" x="472.8274" y="-318.3" font-family="Times,serif" font-size="14.00" fill="#000000">OUT</text>
<polyline fill="none" stroke="#000000" points="443.3274,-305 502.3274,-305 "/>
<text text-anchor="middle" x="472.8274" y="-283.8" font-family="Times,serif" font-size="14.00" fill="#000000">out_file</text>
</g>
<!-- fsl_bbr_wfflt_bbr&#45;&gt;fsl_bbr_wfinvt_bbr -->
<g id="edge2" class="edge">
<title>fsl_bbr_wfflt_bbr:e&#45;&gt;fsl_bbr_wfinvt_bbr:w</title>
<path fill="none" stroke="#000000" d="M326.8274,-446C357.922,-446 306.6645,-322.4718 318.4578,-293.5198"/>
<polygon fill="#000000" stroke="#000000" points="320.7528,-296.1805 326.8274,-287.5 316.6655,-290.4977 320.7528,-296.1805"/>
</g>
<!-- fsl_bbr_wfoutputnode -->
<g id="node8" class="node">
<title>fsl_bbr_wfoutputnode</title>
<polygon fill="none" stroke="#000000" points="791.3274,-.5 791.3274,-92.5 1014.3274,-92.5 1014.3274,-.5 791.3274,-.5"/>
<text text-anchor="middle" x="840.8274" y="-77.3" font-family="Times,serif" font-size="14.00" fill="#000000">IN</text>
<polyline fill="none" stroke="#000000" points="791.3274,-69.5 890.3274,-69.5 "/>
<text text-anchor="middle" x="840.8274" y="-54.3" font-family="Times,serif" font-size="14.00" fill="#000000">itk_bold_to_t1</text>
<polyline fill="none" stroke="#000000" points="791.3274,-46.5 890.3274,-46.5 "/>
<text text-anchor="middle" x="840.8274" y="-31.3" font-family="Times,serif" font-size="14.00" fill="#000000">itk_t1_to_bold</text>
<polyline fill="none" stroke="#000000" points="791.3274,-23.5 890.3274,-23.5 "/>
<text text-anchor="middle" x="840.8274" y="-8.3" font-family="Times,serif" font-size="14.00" fill="#000000">out_report</text>
<polyline fill="none" stroke="#000000" points="890.3274,-.5 890.3274,-92.5 "/>
<text text-anchor="middle" x="929.8274" y="-73.8" font-family="Times,serif" font-size="14.00" fill="#000000">outputnode</text>
<polyline fill="none" stroke="#000000" points="890.3274,-62.5 969.3274,-62.5 "/>
<text text-anchor="middle" x="929.8274" y="-43.3" font-family="Times,serif" font-size="14.00" fill="#000000">utility</text>
<polyline fill="none" stroke="#000000" points="890.3274,-31.5 969.3274,-31.5 "/>
<text text-anchor="middle" x="929.8274" y="-12.3" font-family="Times,serif" font-size="14.00" fill="#000000"> </text>
<polyline fill="none" stroke="#000000" points="969.3274,-.5 969.3274,-92.5 "/>
<text text-anchor="middle" x="991.8274" y="-42.8" font-family="Times,serif" font-size="14.00" fill="#000000">OUT</text>
</g>
<!-- fsl_bbr_wfflt_bbr&#45;&gt;fsl_bbr_wfoutputnode -->
<g id="edge3" class="edge">
<title>fsl_bbr_wfflt_bbr:e&#45;&gt;fsl_bbr_wfoutputnode:w</title>
<path fill="none" stroke="#000000" d="M326.8274,-407C335.7163,-407 327.7973,-395.8358 326.8274,-387 325.0389,-370.7076 320.6158,-367.2924 318.8274,-351 314.3172,-309.9135 297.4081,-293.3505 318.8274,-258 439.6715,-58.5584 550.8611,-12.8258 780.5066,-11.5287"/>
<polygon fill="#000000" stroke="#000000" points="780.8372,-15.0279 790.8274,-11.5 780.8176,-8.028 780.8372,-15.0279"/>
</g>
<!-- fsl_bbr_wffsl2itk_fwd&#45;&gt;fsl_bbr_wfoutputnode -->
<g id="edge5" class="edge">
<title>fsl_bbr_wffsl2itk_fwd:e&#45;&gt;fsl_bbr_wfoutputnode:w</title>
<path fill="none" stroke="#000000" d="M790.8274,-281.5C812.7499,-281.5 776.4835,-106.9333 784.9954,-66.7012"/>
<polygon fill="#000000" stroke="#000000" points="787.8844,-68.6779 790.8274,-58.5 782.1797,-64.6212 787.8844,-68.6779"/>
</g>
<!-- fsl_bbr_wfinvt_bbr&#45;&gt;fsl_bbr_wffsl2itk_inv -->
<g id="edge16" class="edge">
<title>fsl_bbr_wfinvt_bbr:e&#45;&gt;fsl_bbr_wffsl2itk_inv:w</title>
<path fill="none" stroke="#000000" d="M502.8274,-287.5C516.5351,-287.5 502.4768,-268.0233 511.8274,-258 609.1503,-153.675 669.8387,-141.053 808.6932,-140.5187"/>
<polygon fill="#000000" stroke="#000000" points="808.8339,-144.0185 818.8274,-140.5 808.8209,-137.0185 808.8339,-144.0185"/>
</g>
<!-- fsl_bbr_wffsl2itk_inv&#45;&gt;fsl_bbr_wfoutputnode -->
<g id="edge6" class="edge">
<title>fsl_bbr_wffsl2itk_inv:e&#45;&gt;fsl_bbr_wfoutputnode:w</title>
<path fill="none" stroke="#000000" d="M1084.8274,-152.5C1095.2718,-152.5 1091.7494,-136.8213 1084.8274,-129 997.5821,-30.4199 878.0727,-191.5801 790.8274,-93 776.2884,-76.5722 767.7742,-46.2193 781.0861,-37.1351"/>
<polygon fill="#000000" stroke="#000000" points="782.0883,-40.4899 790.8274,-34.5 780.2604,-33.7328 782.0883,-40.4899"/>
</g>
</g>
</svg>
