<?xml version="1.0" encoding="UTF-8" standalone="no"?>
<!DOCTYPE svg PUBLIC "-//W3C//DTD SVG 1.1//EN"
 "http://www.w3.org/Graphics/SVG/1.1/DTD/svg11.dtd">
<!-- Generated by graphviz version 2.40.1 (20161225.0304)
 -->
<!-- Title: %3 Pages: 1 -->
<svg width="1564pt" height="764pt"
 viewBox="0.00 0.00 1564.00 764.00" xmlns="http://www.w3.org/2000/svg" xmlns:xlink="http://www.w3.org/1999/xlink">
<g id="graph0" class="graph" transform="scale(1 1) rotate(0) translate(4 760)">
<title>%3</title>
<polygon fill="#ffffff" stroke="transparent" points="-4,4 -4,-760 1560,-760 1560,4 -4,4"/>
<!-- outputnode (utility) -->
<g id="node1" class="node">
<title>outputnode (utility)</title>
<ellipse fill="none" stroke="#000000" cx="541" cy="-162" rx="81.7856" ry="18"/>
<text text-anchor="middle" x="541" y="-158.3" font-family="Times,serif" font-size="14.00" fill="#000000">outputnode (utility)</text>
</g>
<!-- func_derivatives_wf -->
<g id="node2" class="node">
<title>func_derivatives_wf</title>
<ellipse fill="none" stroke="#000000" cx="1010" cy="-90" rx="85.5853" ry="18"/>
<text text-anchor="middle" x="1010" y="-86.3" font-family="Times,serif" font-size="14.00" fill="#000000">func_derivatives_wf</text>
</g>
<!-- outputnode (utility)&#45;&gt;func_derivatives_wf -->
<g id="edge1" class="edge">
<title>outputnode (utility)&#45;&gt;func_derivatives_wf</title>
<path fill="none" stroke="#000000" d="M608.1963,-151.6842C693.3992,-138.604 840.0876,-116.0846 930.6892,-102.1756"/>
<polygon fill="#000000" stroke="#000000" points="931.2827,-105.6256 940.6358,-100.6487 930.2205,-98.7067 931.2827,-105.6256"/>
</g>
<!-- summary (reports) -->
<g id="node3" class="node">
<title>summary (reports)</title>
<ellipse fill="none" stroke="#000000" cx="289" cy="-90" rx="77.9862" ry="18"/>
<text text-anchor="middle" x="289" y="-86.3" font-family="Times,serif" font-size="14.00" fill="#000000">summary (reports)</text>
</g>
<!-- outputnode (utility)&#45;&gt;summary (reports) -->
<g id="edge2" class="edge">
<title>outputnode (utility)&#45;&gt;summary (reports)</title>
<path fill="none" stroke="#000000" d="M490.9116,-147.689C449.7639,-135.9326 391.3963,-119.2561 347.991,-106.8546"/>
<polygon fill="#000000" stroke="#000000" points="348.7122,-103.4206 338.1354,-104.0387 346.7891,-110.1513 348.7122,-103.4206"/>
</g>
<!-- ds_report_summary -->
<g id="node23" class="node">
<title>ds_report_summary</title>
<ellipse fill="none" stroke="#000000" cx="289" cy="-18" rx="83.3857" ry="18"/>
<text text-anchor="middle" x="289" y="-14.3" font-family="Times,serif" font-size="14.00" fill="#000000">ds_report_summary</text>
</g>
<!-- summary (reports)&#45;&gt;ds_report_summary -->
<g id="edge3" class="edge">
<title>summary (reports)&#45;&gt;ds_report_summary</title>
<path fill="none" stroke="#000000" d="M289,-71.8314C289,-64.131 289,-54.9743 289,-46.4166"/>
<polygon fill="#000000" stroke="#000000" points="292.5001,-46.4132 289,-36.4133 285.5001,-46.4133 292.5001,-46.4132"/>
</g>
<!-- bold_reference_wf -->
<g id="node4" class="node">
<title>bold_reference_wf</title>
<ellipse fill="none" stroke="#000000" cx="718" cy="-666" rx="79.0865" ry="18"/>
<text text-anchor="middle" x="718" y="-662.3" font-family="Times,serif" font-size="14.00" fill="#000000">bold_reference_wf</text>
</g>
<!-- bold_reference_wf&#45;&gt;summary (reports) -->
<g id="edge6" class="edge">
<title>bold_reference_wf&#45;&gt;summary (reports)</title>
<path fill="none" stroke="#000000" d="M640.4108,-662.0094C501.3787,-654.2981 220.7184,-635.975 183,-612 49.2649,-526.9939 0,-464.4649 0,-306 0,-306 0,-306 0,-234 0,-141.9281 118.963,-108.7252 204.2382,-96.752"/>
<polygon fill="#000000" stroke="#000000" points="204.7482,-100.2151 214.1995,-95.4273 203.8253,-93.2762 204.7482,-100.2151"/>
</g>
<!-- boldbuffer (utility) -->
<g id="node5" class="node">
<title>boldbuffer (utility)</title>
<ellipse fill="none" stroke="#000000" cx="699" cy="-594" rx="79.0865" ry="18"/>
<text text-anchor="middle" x="699" y="-590.3" font-family="Times,serif" font-size="14.00" fill="#000000">boldbuffer (utility)</text>
</g>
<!-- bold_reference_wf&#45;&gt;boldbuffer (utility) -->
<g id="edge4" class="edge">
<title>bold_reference_wf&#45;&gt;boldbuffer (utility)</title>
<path fill="none" stroke="#000000" d="M713.2055,-647.8314C711.1511,-640.0463 708.704,-630.7729 706.4244,-622.1347"/>
<polygon fill="#000000" stroke="#000000" points="709.7948,-621.1892 703.8591,-612.4133 703.0265,-622.9753 709.7948,-621.1892"/>
</g>
<!-- bold_hmc_wf -->
<g id="node6" class="node">
<title>bold_hmc_wf</title>
<ellipse fill="none" stroke="#000000" cx="756" cy="-522" rx="61.1893" ry="18"/>
<text text-anchor="middle" x="756" y="-518.3" font-family="Times,serif" font-size="14.00" fill="#000000">bold_hmc_wf</text>
</g>
<!-- bold_reference_wf&#45;&gt;bold_hmc_wf -->
<g id="edge5" class="edge">
<title>bold_reference_wf&#45;&gt;bold_hmc_wf</title>
<path fill="none" stroke="#000000" d="M750.403,-649.4466C764.3795,-640.4373 779.2713,-627.8627 787,-612 797.0772,-591.3171 787.0259,-566.513 775.7585,-548.1869"/>
<polygon fill="#000000" stroke="#000000" points="778.6328,-546.1876 770.2125,-539.7573 772.7849,-550.0351 778.6328,-546.1876"/>
</g>
<!-- sdc_bypass_wf -->
<g id="node7" class="node">
<title>sdc_bypass_wf</title>
<ellipse fill="none" stroke="#000000" cx="283" cy="-522" rx="66.0889" ry="18"/>
<text text-anchor="middle" x="283" y="-518.3" font-family="Times,serif" font-size="14.00" fill="#000000">sdc_bypass_wf</text>
</g>
<!-- bold_reference_wf&#45;&gt;sdc_bypass_wf -->
<g id="edge7" class="edge">
<title>bold_reference_wf&#45;&gt;sdc_bypass_wf</title>
<path fill="none" stroke="#000000" d="M680.0888,-650.149C658.9104,-640.504 632.5314,-627.1411 611,-612 591.9698,-598.6177 593.7288,-586.5618 573,-576 535.5748,-556.931 427.0444,-540.1283 353.8973,-530.5169"/>
<polygon fill="#000000" stroke="#000000" points="354.1893,-527.0255 343.8219,-529.2089 353.288,-533.9672 354.1893,-527.0255"/>
</g>
<!-- bold_confounds_wf -->
<g id="node8" class="node">
<title>bold_confounds_wf</title>
<ellipse fill="none" stroke="#000000" cx="995" cy="-378" rx="83.3857" ry="18"/>
<text text-anchor="middle" x="995" y="-374.3" font-family="Times,serif" font-size="14.00" fill="#000000">bold_confounds_wf</text>
</g>
<!-- bold_reference_wf&#45;&gt;bold_confounds_wf -->
<g id="edge8" class="edge">
<title>bold_reference_wf&#45;&gt;bold_confounds_wf</title>
<path fill="none" stroke="#000000" d="M748.4127,-649.2875C765.2329,-639.4178 786.0882,-626.1158 803,-612 869.8844,-556.1735 882.379,-536.6652 936,-468 951.8377,-447.7188 967.7115,-423.2097 978.9983,-404.8925"/>
<polygon fill="#000000" stroke="#000000" points="982.0874,-406.5492 984.3039,-396.1888 976.1103,-402.9057 982.0874,-406.5492"/>
</g>
<!-- cbf_plot -->
<g id="node9" class="node">
<title>cbf_plot</title>
<ellipse fill="none" stroke="#000000" cx="1085" cy="-306" rx="40.8928" ry="18"/>
<text text-anchor="middle" x="1085" y="-302.3" font-family="Times,serif" font-size="14.00" fill="#000000">cbf_plot</text>
</g>
<!-- bold_reference_wf&#45;&gt;cbf_plot -->
<g id="edge9" class="edge">
<title>bold_reference_wf&#45;&gt;cbf_plot</title>
<path fill="none" stroke="#000000" d="M761.1726,-650.8019C844.0552,-618.8854 1022.9265,-536.0359 1087,-396 1095.8472,-376.6641 1094.7255,-352.46 1091.7323,-334.0238"/>
<polygon fill="#000000" stroke="#000000" points="1095.1681,-333.3557 1089.8718,-324.1796 1088.2898,-334.6556 1095.1681,-333.3557"/>
</g>
<!-- ds_report_validation -->
<g id="node10" class="node">
<title>ds_report_validation</title>
<ellipse fill="none" stroke="#000000" cx="478" cy="-594" rx="85.5853" ry="18"/>
<text text-anchor="middle" x="478" y="-590.3" font-family="Times,serif" font-size="14.00" fill="#000000">ds_report_validation</text>
</g>
<!-- bold_reference_wf&#45;&gt;ds_report_validation -->
<g id="edge10" class="edge">
<title>bold_reference_wf&#45;&gt;ds_report_validation</title>
<path fill="none" stroke="#000000" d="M670.0092,-651.6028C631.8445,-640.1533 578.2592,-624.0777 537.3914,-611.8174"/>
<polygon fill="#000000" stroke="#000000" points="538.1416,-608.3884 527.5576,-608.8673 536.1301,-615.0932 538.1416,-608.3884"/>
</g>
<!-- bold_split (fsl) -->
<g id="node11" class="node">
<title>bold_split (fsl)</title>
<ellipse fill="none" stroke="#000000" cx="541" cy="-522" rx="64.189" ry="18"/>
<text text-anchor="middle" x="541" y="-518.3" font-family="Times,serif" font-size="14.00" fill="#000000">bold_split (fsl)</text>
</g>
<!-- boldbuffer (utility)&#45;&gt;bold_split (fsl) -->
<g id="edge11" class="edge">
<title>boldbuffer (utility)&#45;&gt;bold_split (fsl)</title>
<path fill="none" stroke="#000000" d="M663.5417,-577.8418C639.984,-567.1067 608.9142,-552.9482 583.9547,-541.5743"/>
<polygon fill="#000000" stroke="#000000" points="585.2674,-538.3262 574.7163,-537.3644 582.3647,-544.6961 585.2674,-538.3262"/>
</g>
<!-- bold_hmc_wf&#45;&gt;bold_confounds_wf -->
<g id="edge13" class="edge">
<title>bold_hmc_wf&#45;&gt;bold_confounds_wf</title>
<path fill="none" stroke="#000000" d="M802.3217,-510.2351C832.2076,-501.3847 871.1202,-487.4304 902,-468 917.0353,-458.5394 948.9784,-426.4289 971.2059,-403.2585"/>
<polygon fill="#000000" stroke="#000000" points="973.9618,-405.4402 978.333,-395.789 968.8974,-400.6078 973.9618,-405.4402"/>
</g>
<!-- bold_t1_trans_wf -->
<g id="node15" class="node">
<title>bold_t1_trans_wf</title>
<ellipse fill="none" stroke="#000000" cx="179" cy="-378" rx="74.9875" ry="18"/>
<text text-anchor="middle" x="179" y="-374.3" font-family="Times,serif" font-size="14.00" fill="#000000">bold_t1_trans_wf</text>
</g>
<!-- bold_hmc_wf&#45;&gt;bold_t1_trans_wf -->
<g id="edge12" class="edge">
<title>bold_hmc_wf&#45;&gt;bold_t1_trans_wf</title>
<path fill="none" stroke="#000000" d="M699.8302,-514.7525C602.9518,-502.1241 411.9058,-476.6109 382,-468 350.503,-458.9309 271.2861,-422.2023 221.6388,-398.5596"/>
<polygon fill="#000000" stroke="#000000" points="222.961,-395.3125 212.4288,-394.1623 219.945,-401.6294 222.961,-395.3125"/>
</g>
<!-- bold_std_trans_wf -->
<g id="node18" class="node">
<title>bold_std_trans_wf</title>
<ellipse fill="none" stroke="#000000" cx="396" cy="-306" rx="78.7863" ry="18"/>
<text text-anchor="middle" x="396" y="-302.3" font-family="Times,serif" font-size="14.00" fill="#000000">bold_std_trans_wf</text>
</g>
<!-- bold_hmc_wf&#45;&gt;bold_std_trans_wf -->
<g id="edge15" class="edge">
<title>bold_hmc_wf&#45;&gt;bold_std_trans_wf</title>
<path fill="none" stroke="#000000" d="M698.9877,-515.4164C629.755,-506.6287 517.7892,-489.6302 482,-468 433.5503,-438.7181 410.9174,-371.9757 401.6101,-333.9259"/>
<polygon fill="#000000" stroke="#000000" points="404.9817,-332.97 399.328,-324.0097 398.1601,-334.54 404.9817,-332.97"/>
</g>
<!-- bold_bold_trans_wf -->
<g id="node22" class="node">
<title>bold_bold_trans_wf</title>
<ellipse fill="none" stroke="#000000" cx="809" cy="-450" rx="83.6854" ry="18"/>
<text text-anchor="middle" x="809" y="-446.3" font-family="Times,serif" font-size="14.00" fill="#000000">bold_bold_trans_wf</text>
</g>
<!-- bold_hmc_wf&#45;&gt;bold_bold_trans_wf -->
<g id="edge14" class="edge">
<title>bold_hmc_wf&#45;&gt;bold_bold_trans_wf</title>
<path fill="none" stroke="#000000" d="M769.1011,-504.2022C775.344,-495.7214 782.9332,-485.4115 789.8099,-476.0696"/>
<polygon fill="#000000" stroke="#000000" points="792.7564,-477.9708 795.8659,-467.8425 787.119,-473.8211 792.7564,-477.9708"/>
</g>
<!-- sdc_bypass_wf&#45;&gt;summary (reports) -->
<g id="edge19" class="edge">
<title>sdc_bypass_wf&#45;&gt;summary (reports)</title>
<path fill="none" stroke="#000000" d="M245.1149,-507.129C201.785,-488.0878 132.0651,-450.8581 95,-396 72.1126,-362.1256 76,-346.8816 76,-306 76,-306 76,-306 76,-234 76,-162.2884 159.886,-123.8717 222.3711,-105.2031"/>
<polygon fill="#000000" stroke="#000000" points="223.5578,-108.5037 232.1997,-102.3744 221.6217,-101.7768 223.5578,-108.5037"/>
</g>
<!-- bold_reg_wf -->
<g id="node14" class="node">
<title>bold_reg_wf</title>
<ellipse fill="none" stroke="#000000" cx="548" cy="-450" rx="57.3905" ry="18"/>
<text text-anchor="middle" x="548" y="-446.3" font-family="Times,serif" font-size="14.00" fill="#000000">bold_reg_wf</text>
</g>
<!-- sdc_bypass_wf&#45;&gt;bold_reg_wf -->
<g id="edge18" class="edge">
<title>sdc_bypass_wf&#45;&gt;bold_reg_wf</title>
<path fill="none" stroke="#000000" d="M330.0713,-509.2108C376.1711,-496.6856 446.3222,-477.6257 494.5097,-464.5332"/>
<polygon fill="#000000" stroke="#000000" points="495.71,-467.8341 504.4424,-461.8345 493.8746,-461.079 495.71,-467.8341"/>
</g>
<!-- sdc_bypass_wf&#45;&gt;bold_t1_trans_wf -->
<g id="edge16" class="edge">
<title>sdc_bypass_wf&#45;&gt;bold_t1_trans_wf</title>
<path fill="none" stroke="#000000" d="M263.5852,-504.5932C252.9561,-494.5062 239.9613,-481.2183 230,-468 215.0892,-448.2139 201.4387,-423.6172 192.0202,-405.1404"/>
<polygon fill="#000000" stroke="#000000" points="195.0994,-403.4725 187.4964,-396.0939 188.8386,-406.6034 195.0994,-403.4725"/>
</g>
<!-- sdc_bypass_wf&#45;&gt;bold_std_trans_wf -->
<g id="edge20" class="edge">
<title>sdc_bypass_wf&#45;&gt;bold_std_trans_wf</title>
<path fill="none" stroke="#000000" d="M280.8258,-503.9658C277.9374,-472.073 276.2427,-404.8589 306,-360 315.5093,-345.6648 330.2445,-334.5588 345.0581,-326.2498"/>
<polygon fill="#000000" stroke="#000000" points="347.0137,-329.1765 354.2458,-321.4339 343.7638,-322.9766 347.0137,-329.1765"/>
</g>
<!-- sdc_bypass_wf&#45;&gt;bold_bold_trans_wf -->
<g id="edge17" class="edge">
<title>sdc_bypass_wf&#45;&gt;bold_bold_trans_wf</title>
<path fill="none" stroke="#000000" d="M342.3164,-513.8806C436.7982,-500.9478 621.6447,-475.6456 728.1555,-461.0662"/>
<polygon fill="#000000" stroke="#000000" points="728.7799,-464.5134 738.2128,-459.6895 727.8305,-457.5781 728.7799,-464.5134"/>
</g>
<!-- bold_confounds_wf&#45;&gt;outputnode (utility) -->
<g id="edge21" class="edge">
<title>bold_confounds_wf&#45;&gt;outputnode (utility)</title>
<path fill="none" stroke="#000000" d="M979.7027,-359.9165C957.93,-334.2751 920.1616,-290.1926 916,-288 797.1916,-225.4034 733.9955,-316.1159 616,-252 589.5352,-237.6196 568.5918,-209.7607 555.6376,-188.8288"/>
<polygon fill="#000000" stroke="#000000" points="558.5402,-186.8621 550.4195,-180.0573 552.5242,-190.441 558.5402,-186.8621"/>
</g>
<!-- bold_confounds_wf&#45;&gt;cbf_plot -->
<g id="edge23" class="edge">
<title>bold_confounds_wf&#45;&gt;cbf_plot</title>
<path fill="none" stroke="#000000" d="M1016.7865,-360.5708C1028.9062,-350.875 1044.1195,-338.7044 1057.1019,-328.3185"/>
<polygon fill="#000000" stroke="#000000" points="1059.6338,-330.7752 1065.2561,-321.7951 1055.2609,-325.3091 1059.6338,-330.7752"/>
</g>
<!-- compt_qccbf_wf -->
<g id="node19" class="node">
<title>compt_qccbf_wf</title>
<ellipse fill="none" stroke="#000000" cx="697" cy="-234" rx="72.2875" ry="18"/>
<text text-anchor="middle" x="697" y="-230.3" font-family="Times,serif" font-size="14.00" fill="#000000">compt_qccbf_wf</text>
</g>
<!-- bold_confounds_wf&#45;&gt;compt_qccbf_wf -->
<g id="edge22" class="edge">
<title>bold_confounds_wf&#45;&gt;compt_qccbf_wf</title>
<path fill="none" stroke="#000000" d="M990.7199,-359.7706C984.8874,-339.101 972.3845,-305.9509 949,-288 921.7537,-267.0846 836.5448,-251.8334 772.7,-242.9755"/>
<polygon fill="#000000" stroke="#000000" points="773.0293,-239.4881 762.6489,-241.6088 772.0861,-246.4243 773.0293,-239.4881"/>
</g>
<!-- carpetplot_wf -->
<g id="node24" class="node">
<title>carpetplot_wf</title>
<ellipse fill="none" stroke="#000000" cx="846" cy="-306" rx="61.1893" ry="18"/>
<text text-anchor="middle" x="846" y="-302.3" font-family="Times,serif" font-size="14.00" fill="#000000">carpetplot_wf</text>
</g>
<!-- bold_confounds_wf&#45;&gt;carpetplot_wf -->
<g id="edge24" class="edge">
<title>bold_confounds_wf&#45;&gt;carpetplot_wf</title>
<path fill="none" stroke="#000000" d="M960.8164,-361.4817C938.9174,-350.8997 910.3677,-337.1039 887.2161,-325.9165"/>
<polygon fill="#000000" stroke="#000000" points="888.5124,-322.6557 877.9857,-321.4562 885.4667,-328.9585 888.5124,-322.6557"/>
</g>
<!-- bold_split (fsl)&#45;&gt;bold_t1_trans_wf -->
<g id="edge26" class="edge">
<title>bold_split (fsl)&#45;&gt;bold_t1_trans_wf</title>
<path fill="none" stroke="#000000" d="M481.4975,-514.876C432.7212,-507.5159 362.7319,-493.416 306,-468 268.5543,-451.2243 230.8515,-422.6882 206.3692,-402.2434"/>
<polygon fill="#000000" stroke="#000000" points="208.4834,-399.4472 198.5928,-395.6488 203.9559,-404.786 208.4834,-399.4472"/>
</g>
<!-- bold_split (fsl)&#45;&gt;bold_std_trans_wf -->
<g id="edge27" class="edge">
<title>bold_split (fsl)&#45;&gt;bold_std_trans_wf</title>
<path fill="none" stroke="#000000" d="M489.1667,-511.2288C447.8343,-501.4644 394.8192,-485.892 382,-468 353.5677,-428.3165 369.9362,-368.3239 383.5529,-333.5679"/>
<polygon fill="#000000" stroke="#000000" points="386.8975,-334.6369 387.4591,-324.0569 380.4223,-331.9774 386.8975,-334.6369"/>
</g>
<!-- bold_split (fsl)&#45;&gt;bold_bold_trans_wf -->
<g id="edge25" class="edge">
<title>bold_split (fsl)&#45;&gt;bold_bold_trans_wf</title>
<path fill="none" stroke="#000000" d="M587.682,-509.4586C631.737,-497.6229 698.0949,-479.7954 746.6604,-466.748"/>
<polygon fill="#000000" stroke="#000000" points="747.682,-470.0977 756.4315,-464.1229 745.8658,-463.3374 747.682,-470.0977"/>
</g>
<!-- inputnode (utility) -->
<g id="node12" class="node">
<title>inputnode (utility)</title>
<ellipse fill="none" stroke="#000000" cx="991" cy="-738" rx="77.1866" ry="18"/>
<text text-anchor="middle" x="991" y="-734.3" font-family="Times,serif" font-size="14.00" fill="#000000">inputnode (utility)</text>
</g>
<!-- inputnode (utility)&#45;&gt;func_derivatives_wf -->
<g id="edge33" class="edge">
<title>inputnode (utility)&#45;&gt;func_derivatives_wf</title>
<path fill="none" stroke="#000000" d="M1067.9403,-735.6651C1184.9252,-731.0598 1401.2055,-718.1005 1470,-684 1519.5701,-659.4288 1556,-649.3257 1556,-594 1556,-594 1556,-594 1556,-234 1556,-141.4307 1258.8588,-107.0729 1102.9839,-95.4179"/>
<polygon fill="#000000" stroke="#000000" points="1103.1542,-91.9211 1092.9256,-94.6826 1102.6438,-98.9025 1103.1542,-91.9211"/>
</g>
<!-- inputnode (utility)&#45;&gt;bold_reference_wf -->
<g id="edge29" class="edge">
<title>inputnode (utility)&#45;&gt;bold_reference_wf</title>
<path fill="none" stroke="#000000" d="M939.6508,-724.4574C894.2775,-712.4908 828.0045,-695.0122 779.7509,-682.286"/>
<polygon fill="#000000" stroke="#000000" points="780.6091,-678.8927 770.0472,-679.7267 778.8239,-685.6612 780.6091,-678.8927"/>
</g>
<!-- inputnode (utility)&#45;&gt;bold_confounds_wf -->
<g id="edge32" class="edge">
<title>inputnode (utility)&#45;&gt;bold_confounds_wf</title>
<path fill="none" stroke="#000000" d="M991.2039,-719.6526C991.8552,-661.0336 993.8894,-477.9552 994.6806,-406.7429"/>
<polygon fill="#000000" stroke="#000000" points="998.1851,-406.3487 994.7966,-396.3104 991.1856,-406.2709 998.1851,-406.3487"/>
</g>
<!-- inputnode (utility)&#45;&gt;cbf_plot -->
<g id="edge38" class="edge">
<title>inputnode (utility)&#45;&gt;cbf_plot</title>
<path fill="none" stroke="#000000" d="M1062.5167,-731.0895C1143.6897,-722.3648 1270.3617,-705.8208 1313,-684 1363.6378,-658.0854 1404,-650.8837 1404,-594 1404,-594 1404,-594 1404,-450 1404,-391.8389 1360.1116,-387.7546 1309,-360 1253.978,-330.122 1182.5052,-316.5931 1135.2644,-310.5904"/>
<polygon fill="#000000" stroke="#000000" points="1135.6197,-307.1079 1125.2729,-309.3871 1134.7827,-314.0577 1135.6197,-307.1079"/>
</g>
<!-- t1w_brain (interfaces) -->
<g id="node13" class="node">
<title>t1w_brain (interfaces)</title>
<ellipse fill="none" stroke="#000000" cx="283" cy="-594" rx="90.9839" ry="18"/>
<text text-anchor="middle" x="283" y="-590.3" font-family="Times,serif" font-size="14.00" fill="#000000">t1w_brain (interfaces)</text>
</g>
<!-- inputnode (utility)&#45;&gt;t1w_brain (interfaces) -->
<g id="edge28" class="edge">
<title>inputnode (utility)&#45;&gt;t1w_brain (interfaces)</title>
<path fill="none" stroke="#000000" d="M921.7513,-729.8425C848.7986,-720.7357 730.7466,-704.5408 630,-684 528.5749,-663.3209 412.4722,-631.5232 343.5747,-611.7827"/>
<polygon fill="#000000" stroke="#000000" points="344.3372,-608.3601 333.7593,-608.9604 342.4027,-615.0876 344.3372,-608.3601"/>
</g>
<!-- inputnode (utility)&#45;&gt;bold_reg_wf -->
<g id="edge30" class="edge">
<title>inputnode (utility)&#45;&gt;bold_reg_wf</title>
<path fill="none" stroke="#000000" d="M956.5648,-721.8169C939.8848,-712.6117 920.5791,-699.7614 907,-684 849.7398,-617.5375 894.7677,-558.4702 826,-504 809.2406,-490.7251 686.9146,-470.56 610.2145,-458.9964"/>
<polygon fill="#000000" stroke="#000000" points="610.5813,-455.5123 600.1731,-457.4922 609.5443,-462.4351 610.5813,-455.5123"/>
</g>
<!-- inputnode (utility)&#45;&gt;bold_t1_trans_wf -->
<g id="edge31" class="edge">
<title>inputnode (utility)&#45;&gt;bold_t1_trans_wf</title>
<path fill="none" stroke="#000000" d="M915.5127,-733.8303C699.1109,-720.8781 92,-677.1328 92,-594 92,-594 92,-594 92,-522 92,-474.68 126.8427,-429.5816 152.4281,-402.8442"/>
<polygon fill="#000000" stroke="#000000" points="155.1623,-405.0563 159.6919,-395.4786 150.1781,-400.1412 155.1623,-405.0563"/>
</g>
<!-- compt_cbf_wf -->
<g id="node16" class="node">
<title>compt_cbf_wf</title>
<ellipse fill="none" stroke="#000000" cx="1236" cy="-378" rx="63.8893" ry="18"/>
<text text-anchor="middle" x="1236" y="-374.3" font-family="Times,serif" font-size="14.00" fill="#000000">compt_cbf_wf</text>
</g>
<!-- inputnode (utility)&#45;&gt;compt_cbf_wf -->
<g id="edge34" class="edge">
<title>inputnode (utility)&#45;&gt;compt_cbf_wf</title>
<path fill="none" stroke="#000000" d="M1066.3578,-733.8195C1144.2905,-727.903 1258.8738,-714.2249 1290,-684 1319.3292,-655.5201 1309,-634.8816 1309,-594 1309,-594 1309,-594 1309,-522 1309,-476.5318 1279.688,-430.8661 1258.2121,-403.5103"/>
<polygon fill="#000000" stroke="#000000" points="1260.8489,-401.2046 1251.8399,-395.6288 1255.4055,-405.6057 1260.8489,-401.2046"/>
</g>
<!-- refinemask (cbf_computation) -->
<g id="node17" class="node">
<title>refinemask (cbf_computation)</title>
<ellipse fill="none" stroke="#000000" cx="697" cy="-378" rx="120.7786" ry="18"/>
<text text-anchor="middle" x="697" y="-374.3" font-family="Times,serif" font-size="14.00" fill="#000000">refinemask (cbf_computation)</text>
</g>
<!-- inputnode (utility)&#45;&gt;refinemask (cbf_computation) -->
<g id="edge35" class="edge">
<title>inputnode (utility)&#45;&gt;refinemask (cbf_computation)</title>
<path fill="none" stroke="#000000" d="M985.7994,-719.8029C972.1872,-675.5646 931.1873,-561.7823 855,-504 804.1535,-465.4367 760.0897,-514.1367 716,-468 700.4538,-451.732 696.2651,-426.1062 695.6411,-406.3524"/>
<polygon fill="#000000" stroke="#000000" points="699.1404,-406.0689 695.6117,-396.079 692.1404,-406.089 699.1404,-406.0689"/>
</g>
<!-- inputnode (utility)&#45;&gt;bold_std_trans_wf -->
<g id="edge36" class="edge">
<title>inputnode (utility)&#45;&gt;bold_std_trans_wf</title>
<path fill="none" stroke="#000000" d="M913.74,-736.5026C741.9808,-732.5622 333.1314,-719.6352 200,-684 112.0596,-660.461 16,-685.0363 16,-594 16,-594 16,-594 16,-522 16,-441.8951 31.0989,-408.3056 95,-360 128.287,-334.837 234.1832,-320.2158 310.9695,-312.6778"/>
<polygon fill="#000000" stroke="#000000" points="311.5061,-316.1425 321.1269,-311.705 310.8387,-309.1744 311.5061,-316.1425"/>
</g>
<!-- inputnode (utility)&#45;&gt;compt_qccbf_wf -->
<g id="edge37" class="edge">
<title>inputnode (utility)&#45;&gt;compt_qccbf_wf</title>
<path fill="none" stroke="#000000" d="M1066.6561,-734.0059C1172.5537,-727.4821 1358.8747,-712.333 1420,-684 1473.6526,-659.1307 1518,-653.1362 1518,-594 1518,-594 1518,-594 1518,-450 1518,-356.8436 1469.6035,-326.9919 1385,-288 1331.1169,-263.1665 948.7252,-244.4338 778.447,-237.2283"/>
<polygon fill="#000000" stroke="#000000" points="778.4198,-233.7242 768.2816,-236.8012 778.1259,-240.718 778.4198,-233.7242"/>
</g>
<!-- carpetplot_select_std (interfaces) -->
<g id="node20" class="node">
<title>carpetplot_select_std (interfaces)</title>
<ellipse fill="none" stroke="#000000" cx="1150" cy="-666" rx="131.077" ry="18"/>
<text text-anchor="middle" x="1150" y="-662.3" font-family="Times,serif" font-size="14.00" fill="#000000">carpetplot_select_std (interfaces)</text>
</g>
<!-- inputnode (utility)&#45;&gt;carpetplot_select_std (interfaces) -->
<g id="edge39" class="edge">
<title>inputnode (utility)&#45;&gt;carpetplot_select_std (interfaces)</title>
<path fill="none" stroke="#000000" d="M1026.6827,-721.8418C1049.0726,-711.703 1078.2057,-698.5106 1102.5331,-687.4944"/>
<polygon fill="#000000" stroke="#000000" points="1104.2743,-690.5482 1111.94,-683.2347 1101.3867,-684.1715 1104.2743,-690.5482"/>
</g>
<!-- cbf_roiquant -->
<g id="node21" class="node">
<title>cbf_roiquant</title>
<ellipse fill="none" stroke="#000000" cx="1319" cy="-306" rx="57.3905" ry="18"/>
<text text-anchor="middle" x="1319" y="-302.3" font-family="Times,serif" font-size="14.00" fill="#000000">cbf_roiquant</text>
</g>
<!-- inputnode (utility)&#45;&gt;cbf_roiquant -->
<g id="edge40" class="edge">
<title>inputnode (utility)&#45;&gt;cbf_roiquant</title>
<path fill="none" stroke="#000000" d="M1063.5272,-731.6658C1155.3434,-722.9113 1307.8471,-705.7068 1360,-684 1421.5483,-658.3827 1480,-660.6667 1480,-594 1480,-594 1480,-594 1480,-450 1480,-387.9486 1412.7367,-345.9516 1365.1631,-324.0083"/>
<polygon fill="#000000" stroke="#000000" points="1366.4947,-320.7699 1355.9367,-319.8871 1363.6397,-327.1612 1366.4947,-320.7699"/>
</g>
<!-- t1w_brain (interfaces)&#45;&gt;sdc_bypass_wf -->
<g id="edge43" class="edge">
<title>t1w_brain (interfaces)&#45;&gt;sdc_bypass_wf</title>
<path fill="none" stroke="#000000" d="M283,-575.8314C283,-568.131 283,-558.9743 283,-550.4166"/>
<polygon fill="#000000" stroke="#000000" points="286.5001,-550.4132 283,-540.4133 279.5001,-550.4133 286.5001,-550.4132"/>
</g>
<!-- t1w_brain (interfaces)&#45;&gt;bold_reg_wf -->
<g id="edge41" class="edge">
<title>t1w_brain (interfaces)&#45;&gt;bold_reg_wf</title>
<path fill="none" stroke="#000000" d="M314.1781,-577.0579C362.9659,-550.5468 457.2141,-499.3327 509.9344,-470.6847"/>
<polygon fill="#000000" stroke="#000000" points="511.8472,-473.6287 518.9626,-465.7788 508.505,-467.4781 511.8472,-473.6287"/>
</g>
<!-- t1w_brain (interfaces)&#45;&gt;bold_t1_trans_wf -->
<g id="edge42" class="edge">
<title>t1w_brain (interfaces)&#45;&gt;bold_t1_trans_wf</title>
<path fill="none" stroke="#000000" d="M248.7544,-577.1107C233.965,-568.0967 217.8317,-555.6139 208,-540 182.0359,-498.7659 177.7953,-440.5751 177.8574,-406.3198"/>
<polygon fill="#000000" stroke="#000000" points="181.3603,-406.1409 178.0067,-396.0909 174.361,-406.0387 181.3603,-406.1409"/>
</g>
<!-- bold_reg_wf&#45;&gt;summary (reports) -->
<g id="edge45" class="edge">
<title>bold_reg_wf&#45;&gt;summary (reports)</title>
<path fill="none" stroke="#000000" d="M499.8128,-440.2039C442.6598,-425.731 349.8743,-392.5814 308,-324 268.3926,-259.1312 276.4053,-164.6072 283.6789,-118.0495"/>
<polygon fill="#000000" stroke="#000000" points="287.1489,-118.5191 285.3424,-108.0795 280.2443,-117.3671 287.1489,-118.5191"/>
</g>
<!-- bold_reg_wf&#45;&gt;bold_confounds_wf -->
<g id="edge46" class="edge">
<title>bold_reg_wf&#45;&gt;bold_confounds_wf</title>
<path fill="none" stroke="#000000" d="M600.2618,-442.4432C668.7426,-432.4252 792.531,-413.9177 898,-396 905.9231,-394.654 914.2005,-393.1967 922.4361,-391.7141"/>
<polygon fill="#000000" stroke="#000000" points="923.2205,-395.129 932.4344,-389.8989 921.97,-388.2416 923.2205,-395.129"/>
</g>
<!-- bold_reg_wf&#45;&gt;cbf_plot -->
<g id="edge51" class="edge">
<title>bold_reg_wf&#45;&gt;cbf_plot</title>
<path fill="none" stroke="#000000" d="M601.7163,-443.6813C658.6515,-436.0471 750.7002,-421.0125 827,-396 862.516,-384.3572 868.0919,-373.3552 903,-360 948.4419,-342.6147 1001.9946,-327.3237 1039.1937,-317.4925"/>
<polygon fill="#000000" stroke="#000000" points="1040.4428,-320.7837 1049.2318,-314.8672 1038.6716,-314.0114 1040.4428,-320.7837"/>
</g>
<!-- bold_reg_wf&#45;&gt;bold_t1_trans_wf -->
<g id="edge44" class="edge">
<title>bold_reg_wf&#45;&gt;bold_t1_trans_wf</title>
<path fill="none" stroke="#000000" d="M499.3802,-440.5132C434.8026,-427.9127 320.3884,-405.588 247.1996,-391.3072"/>
<polygon fill="#000000" stroke="#000000" points="247.6407,-387.8274 237.1555,-389.3474 246.3001,-394.6978 247.6407,-387.8274"/>
</g>
<!-- bold_reg_wf&#45;&gt;compt_cbf_wf -->
<g id="edge47" class="edge">
<title>bold_reg_wf&#45;&gt;compt_cbf_wf</title>
<path fill="none" stroke="#000000" d="M602.0824,-444.0666C635.0047,-440.4893 677.9176,-435.8877 716,-432 880.8068,-415.1755 922.3104,-413.9355 1087,-396 1113.2951,-393.1363 1142.1652,-389.7134 1167.4336,-386.6251"/>
<polygon fill="#000000" stroke="#000000" points="1168.1576,-390.0625 1177.6566,-385.3699 1167.3045,-383.1147 1168.1576,-390.0625"/>
</g>
<!-- bold_reg_wf&#45;&gt;refinemask (cbf_computation) -->
<g id="edge48" class="edge">
<title>bold_reg_wf&#45;&gt;refinemask (cbf_computation)</title>
<path fill="none" stroke="#000000" d="M579.2353,-434.9064C600.4044,-424.6771 628.7056,-411.0013 652.2583,-399.6201"/>
<polygon fill="#000000" stroke="#000000" points="653.8778,-402.7248 661.3589,-395.2226 650.8322,-396.4221 653.8778,-402.7248"/>
</g>
<!-- bold_reg_wf&#45;&gt;bold_std_trans_wf -->
<g id="edge49" class="edge">
<title>bold_reg_wf&#45;&gt;bold_std_trans_wf</title>
<path fill="none" stroke="#000000" d="M515.7516,-434.9748C497.5022,-425.4664 475.0022,-411.9664 458,-396 438.3879,-377.5826 421.4804,-351.9559 410.2982,-332.7567"/>
<polygon fill="#000000" stroke="#000000" points="413.2583,-330.8812 405.282,-323.9078 407.1687,-334.3333 413.2583,-330.8812"/>
</g>
<!-- bold_reg_wf&#45;&gt;compt_qccbf_wf -->
<g id="edge50" class="edge">
<title>bold_reg_wf&#45;&gt;compt_qccbf_wf</title>
<path fill="none" stroke="#000000" d="M542.7265,-431.7793C538.2906,-412.8736 534.2279,-382.9215 545,-360 567.5118,-312.0981 618.1679,-276.1411 654.8256,-255.147"/>
<polygon fill="#000000" stroke="#000000" points="656.7881,-258.0602 663.8182,-250.1338 653.3795,-251.9461 656.7881,-258.0602"/>
</g>
<!-- bold_reg_wf&#45;&gt;cbf_roiquant -->
<g id="edge53" class="edge">
<title>bold_reg_wf&#45;&gt;cbf_roiquant</title>
<path fill="none" stroke="#000000" d="M601.6585,-443.6138C634.6131,-439.8501 677.7075,-435.212 716,-432 781.7792,-426.4824 1261.171,-441.4943 1309,-396 1325.2216,-380.5702 1326.4903,-354.4571 1324.4223,-334.321"/>
<polygon fill="#000000" stroke="#000000" points="1327.8547,-333.5836 1323.0514,-324.1401 1320.9173,-334.5178 1327.8547,-333.5836"/>
</g>
<!-- bold_reg_wf&#45;&gt;carpetplot_wf -->
<g id="edge52" class="edge">
<title>bold_reg_wf&#45;&gt;carpetplot_wf</title>
<path fill="none" stroke="#000000" d="M546.3974,-431.7098C545.6923,-411.3007 547.9838,-378.698 567,-360 596.021,-331.4645 703.5224,-317.2809 776.2899,-310.8025"/>
<polygon fill="#000000" stroke="#000000" points="776.6527,-314.2843 786.3154,-309.9388 776.0518,-307.3102 776.6527,-314.2843"/>
</g>
<!-- bold_t1_trans_wf&#45;&gt;outputnode (utility) -->
<g id="edge54" class="edge">
<title>bold_t1_trans_wf&#45;&gt;outputnode (utility)</title>
<path fill="none" stroke="#000000" d="M202.2359,-360.5896C227.6577,-341.8279 269.8773,-311.5018 308,-288 372.775,-248.0677 451.1575,-207.116 498.4947,-183.1459"/>
<polygon fill="#000000" stroke="#000000" points="500.1844,-186.2137 507.535,-178.5836 497.0306,-179.9644 500.1844,-186.2137"/>
</g>
<!-- compt_cbf_wf&#45;&gt;func_derivatives_wf -->
<g id="edge55" class="edge">
<title>compt_cbf_wf&#45;&gt;func_derivatives_wf</title>
<path fill="none" stroke="#000000" d="M1224.335,-360.0827C1212.1979,-341.6804 1192.4259,-312.3648 1174,-288 1125.8166,-224.2865 1064.8522,-152.8893 1032.5247,-115.6892"/>
<polygon fill="#000000" stroke="#000000" points="1034.9067,-113.0952 1025.6992,-107.8538 1029.6285,-117.6931 1034.9067,-113.0952"/>
</g>
<!-- compt_cbf_wf&#45;&gt;cbf_plot -->
<g id="edge58" class="edge">
<title>compt_cbf_wf&#45;&gt;cbf_plot</title>
<path fill="none" stroke="#000000" d="M1203.2352,-362.3771C1179.3922,-351.0082 1147.0707,-335.5966 1122.2471,-323.7602"/>
<polygon fill="#000000" stroke="#000000" points="1123.6664,-320.5595 1113.1336,-319.4147 1120.6536,-326.878 1123.6664,-320.5595"/>
</g>
<!-- compt_cbf_wf&#45;&gt;bold_std_trans_wf -->
<g id="edge56" class="edge">
<title>compt_cbf_wf&#45;&gt;bold_std_trans_wf</title>
<path fill="none" stroke="#000000" d="M1178.0395,-370.4213C1150.4895,-366.9668 1117.0768,-362.9906 1087,-360 869.572,-338.3808 612.9371,-320.2626 482.1063,-311.5558"/>
<polygon fill="#000000" stroke="#000000" points="481.9669,-308.039 471.7572,-310.8693 481.5035,-315.0236 481.9669,-308.039"/>
</g>
<!-- compt_cbf_wf&#45;&gt;compt_qccbf_wf -->
<g id="edge57" class="edge">
<title>compt_cbf_wf&#45;&gt;compt_qccbf_wf</title>
<path fill="none" stroke="#000000" d="M1222.0897,-360.3028C1204.3587,-339.1595 1171.5843,-304.5693 1135,-288 1073.1351,-259.9809 886.9051,-244.8721 778.225,-238.2297"/>
<polygon fill="#000000" stroke="#000000" points="778.1483,-234.7189 767.9564,-237.6131 777.7287,-241.7063 778.1483,-234.7189"/>
</g>
<!-- compt_cbf_wf&#45;&gt;cbf_roiquant -->
<g id="edge59" class="edge">
<title>compt_cbf_wf&#45;&gt;cbf_roiquant</title>
<path fill="none" stroke="#000000" d="M1256.092,-360.5708C1266.7728,-351.3055 1280.0589,-339.7802 1291.6653,-329.7121"/>
<polygon fill="#000000" stroke="#000000" points="1294.119,-332.2169 1299.3794,-323.0202 1289.5321,-326.9292 1294.119,-332.2169"/>
</g>
<!-- refinemask (cbf_computation)&#45;&gt;func_derivatives_wf -->
<g id="edge60" class="edge">
<title>refinemask (cbf_computation)&#45;&gt;func_derivatives_wf</title>
<path fill="none" stroke="#000000" d="M711.4118,-360.0533C726.7166,-341.3711 751.969,-311.5989 776,-288 844.6304,-220.6036 932.9993,-149.6727 979.0206,-113.7964"/>
<polygon fill="#000000" stroke="#000000" points="981.3571,-116.4133 987.1066,-107.5142 977.0625,-110.8855 981.3571,-116.4133"/>
</g>
<!-- refinemask (cbf_computation)&#45;&gt;cbf_plot -->
<g id="edge63" class="edge">
<title>refinemask (cbf_computation)&#45;&gt;cbf_plot</title>
<path fill="none" stroke="#000000" d="M772.7314,-363.9468C851.0238,-349.4183 970.8732,-327.1782 1037.0099,-314.9054"/>
<polygon fill="#000000" stroke="#000000" points="1037.9551,-318.2898 1047.1486,-313.024 1036.6779,-311.4073 1037.9551,-318.2898"/>
</g>
<!-- refinemask (cbf_computation)&#45;&gt;bold_std_trans_wf -->
<g id="edge61" class="edge">
<title>refinemask (cbf_computation)&#45;&gt;bold_std_trans_wf</title>
<path fill="none" stroke="#000000" d="M632.7971,-362.6425C581.9712,-350.4848 511.3124,-333.583 460.428,-321.4114"/>
<polygon fill="#000000" stroke="#000000" points="461.0664,-317.9654 450.5265,-319.0429 459.4379,-324.7733 461.0664,-317.9654"/>
</g>
<!-- refinemask (cbf_computation)&#45;&gt;compt_qccbf_wf -->
<g id="edge62" class="edge">
<title>refinemask (cbf_computation)&#45;&gt;compt_qccbf_wf</title>
<path fill="none" stroke="#000000" d="M697,-359.7623C697,-335.201 697,-291.2474 697,-262.3541"/>
<polygon fill="#000000" stroke="#000000" points="700.5001,-262.0896 697,-252.0896 693.5001,-262.0897 700.5001,-262.0896"/>
</g>
<!-- refinemask (cbf_computation)&#45;&gt;carpetplot_wf -->
<g id="edge64" class="edge">
<title>refinemask (cbf_computation)&#45;&gt;carpetplot_wf</title>
<path fill="none" stroke="#000000" d="M732.6892,-360.7542C754.4819,-350.2235 782.4216,-336.7224 805.1039,-325.7619"/>
<polygon fill="#000000" stroke="#000000" points="806.669,-328.8929 814.15,-321.3906 803.6233,-322.5902 806.669,-328.8929"/>
</g>
<!-- bold_std_trans_wf&#45;&gt;outputnode (utility) -->
<g id="edge65" class="edge">
<title>bold_std_trans_wf&#45;&gt;outputnode (utility)</title>
<path fill="none" stroke="#000000" d="M413.7798,-288.3428C439.3264,-262.9724 486.5441,-216.0804 515.7151,-187.1105"/>
<polygon fill="#000000" stroke="#000000" points="518.4455,-189.3317 523.0747,-179.8017 513.5129,-184.3648 518.4455,-189.3317"/>
</g>
<!-- bold_std_trans_wf&#45;&gt;func_derivatives_wf -->
<g id="edge66" class="edge">
<title>bold_std_trans_wf&#45;&gt;func_derivatives_wf</title>
<path fill="none" stroke="#000000" d="M396.0699,-287.8723C397.2793,-253.6218 405.2438,-179.6472 450,-144 485.5221,-115.7075 764.979,-100.0233 915.1999,-93.5599"/>
<polygon fill="#000000" stroke="#000000" points="915.5032,-97.0503 925.3456,-93.129 915.206,-90.0566 915.5032,-97.0503"/>
</g>
<!-- bold_std_trans_wf&#45;&gt;compt_qccbf_wf -->
<g id="edge67" class="edge">
<title>bold_std_trans_wf&#45;&gt;compt_qccbf_wf</title>
<path fill="none" stroke="#000000" d="M450.5088,-292.9613C502.5017,-280.5245 580.7271,-261.8128 635.0561,-248.8171"/>
<polygon fill="#000000" stroke="#000000" points="635.9994,-252.1903 644.9108,-246.4599 634.3709,-245.3824 635.9994,-252.1903"/>
</g>
<!-- compt_qccbf_wf&#45;&gt;outputnode (utility) -->
<g id="edge68" class="edge">
<title>compt_qccbf_wf&#45;&gt;outputnode (utility)</title>
<path fill="none" stroke="#000000" d="M662.3785,-218.0209C639.7939,-207.5972 610.095,-193.89 585.7277,-182.6436"/>
<polygon fill="#000000" stroke="#000000" points="586.8812,-179.3212 576.3348,-178.3084 583.9477,-185.6769 586.8812,-179.3212"/>
</g>
<!-- compt_qccbf_wf&#45;&gt;func_derivatives_wf -->
<g id="edge69" class="edge">
<title>compt_qccbf_wf&#45;&gt;func_derivatives_wf</title>
<path fill="none" stroke="#000000" d="M709.0696,-216.1787C723.9876,-195.5754 751.3192,-162.1743 783,-144 825.134,-119.8291 877.6,-106.4539 921.475,-99.0642"/>
<polygon fill="#000000" stroke="#000000" points="922.2441,-102.4856 931.5625,-97.444 921.134,-95.5742 922.2441,-102.4856"/>
</g>
<!-- compt_qccbf_wf&#45;&gt;summary (reports) -->
<g id="edge70" class="edge">
<title>compt_qccbf_wf&#45;&gt;summary (reports)</title>
<path fill="none" stroke="#000000" d="M689.1984,-215.7877C679.1934,-194.8084 659.7568,-161.0458 632,-144 589.9377,-118.169 461.3251,-103.2883 374.1096,-95.9187"/>
<polygon fill="#000000" stroke="#000000" points="374.2071,-92.4149 363.9526,-95.0784 373.6299,-99.3911 374.2071,-92.4149"/>
</g>
<!-- carpetplot_select_std (interfaces)&#45;&gt;carpetplot_wf -->
<g id="edge71" class="edge">
<title>carpetplot_select_std (interfaces)&#45;&gt;carpetplot_wf</title>
<path fill="none" stroke="#000000" d="M1148.7568,-647.8247C1146.9994,-620.5213 1144,-567.2893 1144,-522 1144,-522 1144,-522 1144,-450 1144,-402.6526 1125.7178,-387.2527 1087,-360 1059.142,-340.3913 973.0128,-324.3198 911.6858,-314.9494"/>
<polygon fill="#000000" stroke="#000000" points="912.0976,-311.4721 901.6885,-313.4473 911.0575,-318.3944 912.0976,-311.4721"/>
</g>
<!-- cbf_roiquant&#45;&gt;func_derivatives_wf -->
<g id="edge72" class="edge">
<title>cbf_roiquant&#45;&gt;func_derivatives_wf</title>
<path fill="none" stroke="#000000" d="M1315.2799,-287.9795C1307.3403,-254.2444 1285.4511,-181.582 1238,-144 1215.2504,-125.982 1147.0328,-111.274 1091.0981,-101.7835"/>
<polygon fill="#000000" stroke="#000000" points="1091.6071,-98.3202 1081.1682,-100.1309 1090.4579,-105.2252 1091.6071,-98.3202"/>
</g>
<!-- bold_bold_trans_wf&#45;&gt;outputnode (utility) -->
<g id="edge76" class="edge">
<title>bold_bold_trans_wf&#45;&gt;outputnode (utility)</title>
<path fill="none" stroke="#000000" d="M732.446,-442.5649C670.0598,-434.8281 588.8405,-420.3582 567,-396 515.5015,-338.5649 525.8032,-238.6386 534.7738,-190.0862"/>
<polygon fill="#000000" stroke="#000000" points="538.2634,-190.4797 536.759,-179.9923 531.3949,-189.1289 538.2634,-190.4797"/>
</g>
<!-- bold_bold_trans_wf&#45;&gt;func_derivatives_wf -->
<g id="edge77" class="edge">
<title>bold_bold_trans_wf&#45;&gt;func_derivatives_wf</title>
<path fill="none" stroke="#000000" d="M890.1544,-445.2681C1033.1979,-436.454 1319.0261,-416.5452 1360,-396 1408.3724,-371.745 1442,-360.1128 1442,-306 1442,-306 1442,-306 1442,-234 1442,-161.4535 1219.9673,-118.9152 1094.2583,-100.6449"/>
<polygon fill="#000000" stroke="#000000" points="1094.6586,-97.1666 1084.2634,-99.2138 1093.6664,-104.0959 1094.6586,-97.1666"/>
</g>
<!-- bold_bold_trans_wf&#45;&gt;bold_confounds_wf -->
<g id="edge73" class="edge">
<title>bold_bold_trans_wf&#45;&gt;bold_confounds_wf</title>
<path fill="none" stroke="#000000" d="M849.8185,-434.1993C877.8019,-423.367 915.1049,-408.9272 944.8913,-397.3969"/>
<polygon fill="#000000" stroke="#000000" points="946.2145,-400.6378 954.2767,-393.7638 943.6875,-394.1099 946.2145,-400.6378"/>
</g>
<!-- bold_bold_trans_wf&#45;&gt;compt_cbf_wf -->
<g id="edge74" class="edge">
<title>bold_bold_trans_wf&#45;&gt;compt_cbf_wf</title>
<path fill="none" stroke="#000000" d="M875.2502,-438.829C955.897,-425.2305 1091.197,-402.4164 1171.1876,-388.9286"/>
<polygon fill="#000000" stroke="#000000" points="1171.8602,-392.3646 1181.139,-387.2506 1170.6962,-385.4621 1171.8602,-392.3646"/>
</g>
<!-- bold_bold_trans_wf&#45;&gt;refinemask (cbf_computation) -->
<g id="edge75" class="edge">
<title>bold_bold_trans_wf&#45;&gt;refinemask (cbf_computation)</title>
<path fill="none" stroke="#000000" d="M782.1732,-432.7542C767.4303,-423.2766 748.9446,-411.393 732.9656,-401.1207"/>
<polygon fill="#000000" stroke="#000000" points="734.6904,-398.0688 724.386,-395.6053 730.9051,-403.957 734.6904,-398.0688"/>
</g>
<!-- bold_bold_trans_wf&#45;&gt;cbf_roiquant -->
<g id="edge79" class="edge">
<title>bold_bold_trans_wf&#45;&gt;cbf_roiquant</title>
<path fill="none" stroke="#000000" d="M892.2313,-447.5791C1034.5947,-442.5724 1312.4549,-428.6896 1342,-396 1357.5898,-378.7509 1348.3263,-352.3867 1337.2578,-332.6442"/>
<polygon fill="#000000" stroke="#000000" points="1340.1075,-330.5914 1331.9548,-323.8251 1334.1085,-334.1987 1340.1075,-330.5914"/>
</g>
<!-- bold_bold_trans_wf&#45;&gt;carpetplot_wf -->
<g id="edge78" class="edge">
<title>bold_bold_trans_wf&#45;&gt;carpetplot_wf</title>
<path fill="none" stroke="#000000" d="M815.6889,-431.6639C819.3286,-421.2863 823.74,-408.0171 827,-396 832.566,-375.4823 837.4811,-351.966 840.9172,-334.1181"/>
<polygon fill="#000000" stroke="#000000" points="844.3976,-334.5485 842.8105,-324.0732 837.5187,-333.2519 844.3976,-334.5485"/>
</g>
</g>
</svg>
