<?xml version="1.0" encoding="UTF-8" standalone="no"?>
<!DOCTYPE svg PUBLIC "-//W3C//DTD SVG 1.1//EN"
 "http://www.w3.org/Graphics/SVG/1.1/DTD/svg11.dtd">
<!-- Generated by graphviz version 2.40.1 (20161225.0304)
 -->
<!-- Title: %3 Pages: 1 -->
<svg width="335pt" height="404pt"
 viewBox="0.00 0.00 334.65 404.00" xmlns="http://www.w3.org/2000/svg" xmlns:xlink="http://www.w3.org/1999/xlink">
<g id="graph0" class="graph" transform="scale(1 1) rotate(0) translate(4 400)">
<title>%3</title>
<polygon fill="#ffffff" stroke="transparent" points="-4,4 -4,-400 330.6456,-400 330.6456,4 -4,4"/>
<!-- inputnode (utility) -->
<g id="node1" class="node">
<title>inputnode (utility)</title>
<ellipse fill="none" stroke="#000000" cx="219.4913" cy="-378" rx="77.1866" ry="18"/>
<text text-anchor="middle" x="219.4913" y="-374.3" font-family="Times,serif" font-size="14.00" fill="#000000">inputnode (utility)</text>
</g>
<!-- merge_ltas (utility) -->
<g id="node2" class="node">
<title>merge_ltas (utility)</title>
<ellipse fill="none" stroke="#000000" cx="99.4913" cy="-162" rx="80.6858" ry="18"/>
<text text-anchor="middle" x="99.4913" y="-158.3" font-family="Times,serif" font-size="14.00" fill="#000000">merge_ltas (utility)</text>
</g>
<!-- inputnode (utility)&#45;&gt;merge_ltas (utility) -->
<g id="edge1" class="edge">
<title>inputnode (utility)&#45;&gt;merge_ltas (utility)</title>
<path fill="none" stroke="#000000" d="M172.0009,-363.6547C152.3079,-355.2628 131.1461,-342.5658 118.4913,-324 91.2191,-283.9889 91.9027,-225.1517 95.3638,-190.4891"/>
<polygon fill="#000000" stroke="#000000" points="98.8886,-190.4732 96.5532,-180.1389 91.9343,-189.674 98.8886,-190.4732"/>
</g>
<!-- mri_coreg (interfaces) -->
<g id="node3" class="node">
<title>mri_coreg (interfaces)</title>
<ellipse fill="none" stroke="#000000" cx="219.4913" cy="-306" rx="91.784" ry="18"/>
<text text-anchor="middle" x="219.4913" y="-302.3" font-family="Times,serif" font-size="14.00" fill="#000000">mri_coreg (interfaces)</text>
</g>
<!-- inputnode (utility)&#45;&gt;mri_coreg (interfaces) -->
<g id="edge2" class="edge">
<title>inputnode (utility)&#45;&gt;mri_coreg (interfaces)</title>
<path fill="none" stroke="#000000" d="M219.4913,-359.8314C219.4913,-352.131 219.4913,-342.9743 219.4913,-334.4166"/>
<polygon fill="#000000" stroke="#000000" points="222.9914,-334.4132 219.4913,-324.4133 215.9914,-334.4133 222.9914,-334.4132"/>
</g>
<!-- bbregister (interfaces) -->
<g id="node4" class="node">
<title>bbregister (interfaces)</title>
<ellipse fill="none" stroke="#000000" cx="221.4913" cy="-234" rx="90.9839" ry="18"/>
<text text-anchor="middle" x="221.4913" y="-230.3" font-family="Times,serif" font-size="14.00" fill="#000000">bbregister (interfaces)</text>
</g>
<!-- inputnode (utility)&#45;&gt;bbregister (interfaces) -->
<g id="edge3" class="edge">
<title>inputnode (utility)&#45;&gt;bbregister (interfaces)</title>
<path fill="none" stroke="#000000" d="M268.8087,-363.9847C288.4657,-355.7119 309.0946,-343.0166 320.4913,-324 328.7162,-310.2759 328.6588,-301.7584 320.4913,-288 311.4687,-272.801 296.4973,-261.6062 280.8951,-253.4817"/>
<polygon fill="#000000" stroke="#000000" points="282.2048,-250.2278 271.6761,-249.0458 279.1697,-256.5356 282.2048,-250.2278"/>
</g>
<!-- concat_xfm (interfaces) -->
<g id="node5" class="node">
<title>concat_xfm (interfaces)</title>
<ellipse fill="none" stroke="#000000" cx="97.4913" cy="-90" rx="97.4827" ry="18"/>
<text text-anchor="middle" x="97.4913" y="-86.3" font-family="Times,serif" font-size="14.00" fill="#000000">concat_xfm (interfaces)</text>
</g>
<!-- merge_ltas (utility)&#45;&gt;concat_xfm (interfaces) -->
<g id="edge4" class="edge">
<title>merge_ltas (utility)&#45;&gt;concat_xfm (interfaces)</title>
<path fill="none" stroke="#000000" d="M98.9867,-143.8314C98.7728,-136.131 98.5184,-126.9743 98.2807,-118.4166"/>
<polygon fill="#000000" stroke="#000000" points="101.7792,-118.3122 98.0028,-108.4133 94.7819,-118.5066 101.7792,-118.3122"/>
</g>
<!-- mri_coreg (interfaces)&#45;&gt;bbregister (interfaces) -->
<g id="edge5" class="edge">
<title>mri_coreg (interfaces)&#45;&gt;bbregister (interfaces)</title>
<path fill="none" stroke="#000000" d="M219.996,-287.8314C220.2099,-280.131 220.4643,-270.9743 220.702,-262.4166"/>
<polygon fill="#000000" stroke="#000000" points="224.2008,-262.5066 220.9799,-252.4133 217.2035,-262.3122 224.2008,-262.5066"/>
</g>
<!-- bbregister (interfaces)&#45;&gt;merge_ltas (utility) -->
<g id="edge7" class="edge">
<title>bbregister (interfaces)&#45;&gt;merge_ltas (utility)</title>
<path fill="none" stroke="#000000" d="M192.2693,-216.7542C175.7012,-206.9763 154.7937,-194.6374 137.022,-184.1492"/>
<polygon fill="#000000" stroke="#000000" points="138.445,-180.925 128.054,-178.8566 134.8872,-186.9535 138.445,-180.925"/>
</g>
<!-- outputnode (utility) -->
<g id="node6" class="node">
<title>outputnode (utility)</title>
<ellipse fill="none" stroke="#000000" cx="159.4913" cy="-18" rx="81.7856" ry="18"/>
<text text-anchor="middle" x="159.4913" y="-14.3" font-family="Times,serif" font-size="14.00" fill="#000000">outputnode (utility)</text>
</g>
<!-- bbregister (interfaces)&#45;&gt;outputnode (utility) -->
<g id="edge6" class="edge">
<title>bbregister (interfaces)&#45;&gt;outputnode (utility)</title>
<path fill="none" stroke="#000000" d="M222.7345,-215.6727C224.1303,-184.7459 223.961,-120.798 203.4913,-72 199.1665,-61.6899 192.2267,-51.7837 185.1248,-43.3343"/>
<polygon fill="#000000" stroke="#000000" points="187.6077,-40.8595 178.3461,-35.7142 182.3776,-45.5121 187.6077,-40.8595"/>
</g>
<!-- concat_xfm (interfaces)&#45;&gt;outputnode (utility) -->
<g id="edge8" class="edge">
<title>concat_xfm (interfaces)&#45;&gt;outputnode (utility)</title>
<path fill="none" stroke="#000000" d="M112.8172,-72.2022C120.2692,-63.5483 129.3611,-52.99 137.534,-43.4988"/>
<polygon fill="#000000" stroke="#000000" points="140.2539,-45.7041 144.1269,-35.8425 134.9495,-41.1364 140.2539,-45.7041"/>
</g>
</g>
</svg>
