<?xml version="1.0" encoding="UTF-8" standalone="no"?>
<!DOCTYPE svg PUBLIC "-//W3C//DTD SVG 1.1//EN"
 "http://www.w3.org/Graphics/SVG/1.1/DTD/svg11.dtd">
<!-- Generated by graphviz version 2.40.1 (20161225.0304)
 -->
<!-- Title: %3 Pages: 1 -->
<svg width="312pt" height="188pt"
 viewBox="0.00 0.00 311.99 188.00" xmlns="http://www.w3.org/2000/svg" xmlns:xlink="http://www.w3.org/1999/xlink">
<g id="graph0" class="graph" transform="scale(1 1) rotate(0) translate(4 184)">
<title>%3</title>
<polygon fill="#ffffff" stroke="transparent" points="-4,4 -4,-184 307.9873,-184 307.9873,4 -4,4"/>
<!-- inputnode (utility) -->
<g id="node1" class="node">
<title>inputnode (utility)</title>
<ellipse fill="none" stroke="#000000" cx="161.8927" cy="-162" rx="77.1866" ry="18"/>
<text text-anchor="middle" x="161.8927" y="-158.3" font-family="Times,serif" font-size="14.00" fill="#000000">inputnode (utility)</text>
</g>
<!-- bbreg_wf -->
<g id="node2" class="node">
<title>bbreg_wf</title>
<ellipse fill="none" stroke="#000000" cx="161.8927" cy="-90" rx="45.4919" ry="18"/>
<text text-anchor="middle" x="161.8927" y="-86.3" font-family="Times,serif" font-size="14.00" fill="#000000">bbreg_wf</text>
</g>
<!-- inputnode (utility)&#45;&gt;bbreg_wf -->
<g id="edge1" class="edge">
<title>inputnode (utility)&#45;&gt;bbreg_wf</title>
<path fill="none" stroke="#000000" d="M161.8927,-143.8314C161.8927,-136.131 161.8927,-126.9743 161.8927,-118.4166"/>
<polygon fill="#000000" stroke="#000000" points="165.3928,-118.4132 161.8927,-108.4133 158.3928,-118.4133 165.3928,-118.4132"/>
</g>
<!-- outputnode (utility) -->
<g id="node3" class="node">
<title>outputnode (utility)</title>
<ellipse fill="none" stroke="#000000" cx="81.8927" cy="-18" rx="81.7856" ry="18"/>
<text text-anchor="middle" x="81.8927" y="-14.3" font-family="Times,serif" font-size="14.00" fill="#000000">outputnode (utility)</text>
</g>
<!-- bbreg_wf&#45;&gt;outputnode (utility) -->
<g id="edge2" class="edge">
<title>bbreg_wf&#45;&gt;outputnode (utility)</title>
<path fill="none" stroke="#000000" d="M143.338,-73.3008C133.1372,-64.12 120.2944,-52.5615 108.991,-42.3885"/>
<polygon fill="#000000" stroke="#000000" points="111.2373,-39.7013 101.4629,-35.6132 106.5545,-44.9044 111.2373,-39.7013"/>
</g>
<!-- ds_report_reg -->
<g id="node4" class="node">
<title>ds_report_reg</title>
<ellipse fill="none" stroke="#000000" cx="242.8927" cy="-18" rx="61.1893" ry="18"/>
<text text-anchor="middle" x="242.8927" y="-14.3" font-family="Times,serif" font-size="14.00" fill="#000000">ds_report_reg</text>
</g>
<!-- bbreg_wf&#45;&gt;ds_report_reg -->
<g id="edge3" class="edge">
<title>bbreg_wf&#45;&gt;ds_report_reg</title>
<path fill="none" stroke="#000000" d="M180.6794,-73.3008C191.1596,-63.985 204.3941,-52.221 215.9596,-41.9406"/>
<polygon fill="#000000" stroke="#000000" points="218.4967,-44.3683 223.6455,-35.1086 213.8461,-39.1364 218.4967,-44.3683"/>
</g>
</g>
</svg>
