<?xml version="1.0" encoding="UTF-8" standalone="no"?>
<!DOCTYPE svg PUBLIC "-//W3C//DTD SVG 1.1//EN"
 "http://www.w3.org/Graphics/SVG/1.1/DTD/svg11.dtd">
<!-- Generated by graphviz version 2.40.1 (20161225.0304)
 -->
<!-- Title: %3 Pages: 1 -->
<svg width="844pt" height="332pt"
 viewBox="0.00 0.00 844.46 332.00" xmlns="http://www.w3.org/2000/svg" xmlns:xlink="http://www.w3.org/1999/xlink">
<g id="graph0" class="graph" transform="scale(1 1) rotate(0) translate(4 328)">
<title>%3</title>
<polygon fill="#ffffff" stroke="transparent" points="-4,4 -4,-328 840.46,-328 840.46,4 -4,4"/>
<!-- inputnode (utility) -->
<g id="node1" class="node">
<title>inputnode (utility)</title>
<ellipse fill="none" stroke="#000000" cx="513.9406" cy="-306" rx="77.1866" ry="18"/>
<text text-anchor="middle" x="513.9406" y="-302.3" font-family="Times,serif" font-size="14.00" fill="#000000">inputnode (utility)</text>
</g>
<!-- gen_ref (interfaces) -->
<g id="node2" class="node">
<title>gen_ref (interfaces)</title>
<ellipse fill="none" stroke="#000000" cx="403.9406" cy="-234" rx="81.7856" ry="18"/>
<text text-anchor="middle" x="403.9406" y="-230.3" font-family="Times,serif" font-size="14.00" fill="#000000">gen_ref (interfaces)</text>
</g>
<!-- inputnode (utility)&#45;&gt;gen_ref (interfaces) -->
<g id="edge1" class="edge">
<title>inputnode (utility)&#45;&gt;gen_ref (interfaces)</title>
<path fill="none" stroke="#000000" d="M487.8721,-288.937C473.1843,-279.3231 454.6482,-267.1904 438.7337,-256.7737"/>
<polygon fill="#000000" stroke="#000000" points="440.487,-253.7382 430.2032,-251.19 436.6534,-259.5951 440.487,-253.7382"/>
</g>
<!-- mask_t1w_tfm (interfaces) -->
<g id="node3" class="node">
<title>mask_t1w_tfm (interfaces)</title>
<ellipse fill="none" stroke="#000000" cx="475.9406" cy="-90" rx="109.381" ry="18"/>
<text text-anchor="middle" x="475.9406" y="-86.3" font-family="Times,serif" font-size="14.00" fill="#000000">mask_t1w_tfm (interfaces)</text>
</g>
<!-- inputnode (utility)&#45;&gt;mask_t1w_tfm (interfaces) -->
<g id="edge2" class="edge">
<title>inputnode (utility)&#45;&gt;mask_t1w_tfm (interfaces)</title>
<path fill="none" stroke="#000000" d="M510.7661,-287.9555C504.1441,-250.3144 488.816,-163.1867 480.8884,-118.1246"/>
<polygon fill="#000000" stroke="#000000" points="484.3126,-117.3874 479.1328,-108.1451 477.4185,-118.6003 484.3126,-117.3874"/>
</g>
<!-- aseg_t1w_tfm (interfaces) -->
<g id="node4" class="node">
<title>aseg_t1w_tfm (interfaces)</title>
<ellipse fill="none" stroke="#000000" cx="105.9406" cy="-162" rx="105.8812" ry="18"/>
<text text-anchor="middle" x="105.9406" y="-158.3" font-family="Times,serif" font-size="14.00" fill="#000000">aseg_t1w_tfm (interfaces)</text>
</g>
<!-- inputnode (utility)&#45;&gt;aseg_t1w_tfm (interfaces) -->
<g id="edge3" class="edge">
<title>inputnode (utility)&#45;&gt;aseg_t1w_tfm (interfaces)</title>
<path fill="none" stroke="#000000" d="M455.5109,-294.1101C412.4535,-284.6305 352.787,-269.9828 301.9406,-252 247.0365,-232.5822 186.5003,-203.5388 147.441,-183.7332"/>
<polygon fill="#000000" stroke="#000000" points="148.9732,-180.5857 138.4751,-179.1576 145.7913,-186.8207 148.9732,-180.5857"/>
</g>
<!-- aparc_t1w_tfm (interfaces) -->
<g id="node5" class="node">
<title>aparc_t1w_tfm (interfaces)</title>
<ellipse fill="none" stroke="#000000" cx="338.9406" cy="-162" rx="109.381" ry="18"/>
<text text-anchor="middle" x="338.9406" y="-158.3" font-family="Times,serif" font-size="14.00" fill="#000000">aparc_t1w_tfm (interfaces)</text>
</g>
<!-- inputnode (utility)&#45;&gt;aparc_t1w_tfm (interfaces) -->
<g id="edge4" class="edge">
<title>inputnode (utility)&#45;&gt;aparc_t1w_tfm (interfaces)</title>
<path fill="none" stroke="#000000" d="M447.0571,-296.8672C395.1639,-288.2494 329.3759,-273.4336 312.9406,-252 298.8437,-233.6161 308.4836,-207.8267 319.8098,-188.5645"/>
<polygon fill="#000000" stroke="#000000" points="322.8619,-190.2859 325.2303,-179.9592 316.939,-186.555 322.8619,-190.2859"/>
</g>
<!-- merge_xforms (utility) -->
<g id="node6" class="node">
<title>merge_xforms (utility)</title>
<ellipse fill="none" stroke="#000000" cx="677.9406" cy="-234" rx="93.6835" ry="18"/>
<text text-anchor="middle" x="677.9406" y="-230.3" font-family="Times,serif" font-size="14.00" fill="#000000">merge_xforms (utility)</text>
</g>
<!-- inputnode (utility)&#45;&gt;merge_xforms (utility) -->
<g id="edge5" class="edge">
<title>inputnode (utility)&#45;&gt;merge_xforms (utility)</title>
<path fill="none" stroke="#000000" d="M550.3375,-290.0209C574.1223,-279.5787 605.4128,-265.8415 631.0551,-254.5839"/>
<polygon fill="#000000" stroke="#000000" points="632.473,-257.7839 640.2224,-250.5592 629.659,-251.3744 632.473,-257.7839"/>
</g>
<!-- bold_to_t1w_transform (interfaces) -->
<g id="node7" class="node">
<title>bold_to_t1w_transform (interfaces)</title>
<ellipse fill="none" stroke="#000000" cx="681.9406" cy="-162" rx="140.2752" ry="18"/>
<text text-anchor="middle" x="681.9406" y="-158.3" font-family="Times,serif" font-size="14.00" fill="#000000">bold_to_t1w_transform (interfaces)</text>
</g>
<!-- inputnode (utility)&#45;&gt;bold_to_t1w_transform (interfaces) -->
<g id="edge6" class="edge">
<title>inputnode (utility)&#45;&gt;bold_to_t1w_transform (interfaces)</title>
<path fill="none" stroke="#000000" d="M522.7181,-287.7643C532.9718,-268.009 551.5515,-236.566 574.9406,-216 590.0438,-202.7198 608.9946,-191.7701 626.735,-183.2842"/>
<polygon fill="#000000" stroke="#000000" points="628.258,-186.4362 635.8749,-179.0719 625.328,-180.0789 628.258,-186.4362"/>
</g>
<!-- merge (interfaces) -->
<g id="node8" class="node">
<title>merge (interfaces)</title>
<ellipse fill="none" stroke="#000000" cx="680.9406" cy="-90" rx="77.1866" ry="18"/>
<text text-anchor="middle" x="680.9406" y="-86.3" font-family="Times,serif" font-size="14.00" fill="#000000">merge (interfaces)</text>
</g>
<!-- inputnode (utility)&#45;&gt;merge (interfaces) -->
<g id="edge7" class="edge">
<title>inputnode (utility)&#45;&gt;merge (interfaces)</title>
<path fill="none" stroke="#000000" d="M583.1841,-297.935C651.1217,-288.9818 749.0323,-272.9821 780.9406,-252 813.4926,-230.5946 819.2974,-217.1788 830.9406,-180 835.7223,-164.7312 840.1408,-157.0903 830.9406,-144 820.5029,-129.1489 781.382,-115.3399 745.7112,-105.404"/>
<polygon fill="#000000" stroke="#000000" points="746.336,-101.9471 735.7684,-102.7067 744.5032,-108.7029 746.336,-101.9471"/>
</g>
<!-- gen_ref (interfaces)&#45;&gt;mask_t1w_tfm (interfaces) -->
<g id="edge8" class="edge">
<title>gen_ref (interfaces)&#45;&gt;mask_t1w_tfm (interfaces)</title>
<path fill="none" stroke="#000000" d="M426.3475,-216.4747C437.1803,-206.8389 449.4314,-194.009 456.9406,-180 467.1576,-160.9396 471.882,-136.8599 474.0658,-118.4049"/>
<polygon fill="#000000" stroke="#000000" points="477.5669,-118.5683 475.0804,-108.2693 470.6017,-117.871 477.5669,-118.5683"/>
</g>
<!-- gen_ref (interfaces)&#45;&gt;aseg_t1w_tfm (interfaces) -->
<g id="edge9" class="edge">
<title>gen_ref (interfaces)&#45;&gt;aseg_t1w_tfm (interfaces)</title>
<path fill="none" stroke="#000000" d="M348.5875,-220.6261C300.1213,-208.9161 229.4244,-191.835 176.8302,-179.1277"/>
<polygon fill="#000000" stroke="#000000" points="177.4399,-175.6744 166.8976,-176.7279 175.7959,-182.4786 177.4399,-175.6744"/>
</g>
<!-- gen_ref (interfaces)&#45;&gt;aparc_t1w_tfm (interfaces) -->
<g id="edge10" class="edge">
<title>gen_ref (interfaces)&#45;&gt;aparc_t1w_tfm (interfaces)</title>
<path fill="none" stroke="#000000" d="M387.8732,-216.2022C380.0606,-207.5483 370.5288,-196.99 361.9604,-187.4988"/>
<polygon fill="#000000" stroke="#000000" points="364.3475,-184.9199 355.0485,-179.8425 359.1516,-189.6106 364.3475,-184.9199"/>
</g>
<!-- gen_ref (interfaces)&#45;&gt;bold_to_t1w_transform (interfaces) -->
<g id="edge11" class="edge">
<title>gen_ref (interfaces)&#45;&gt;bold_to_t1w_transform (interfaces)</title>
<path fill="none" stroke="#000000" d="M457.2129,-220.2029C500.4869,-208.9952 561.948,-193.0772 609.6599,-180.7202"/>
<polygon fill="#000000" stroke="#000000" points="610.8179,-184.0358 619.621,-178.1403 609.0628,-177.2594 610.8179,-184.0358"/>
</g>
<!-- outputnode (utility) -->
<g id="node9" class="node">
<title>outputnode (utility)</title>
<ellipse fill="none" stroke="#000000" cx="406.9406" cy="-18" rx="81.7856" ry="18"/>
<text text-anchor="middle" x="406.9406" y="-14.3" font-family="Times,serif" font-size="14.00" fill="#000000">outputnode (utility)</text>
</g>
<!-- mask_t1w_tfm (interfaces)&#45;&gt;outputnode (utility) -->
<g id="edge12" class="edge">
<title>mask_t1w_tfm (interfaces)&#45;&gt;outputnode (utility)</title>
<path fill="none" stroke="#000000" d="M458.8844,-72.2022C450.5081,-63.4617 440.2701,-52.7786 431.1044,-43.2144"/>
<polygon fill="#000000" stroke="#000000" points="433.4858,-40.6408 424.0397,-35.8425 428.4318,-45.4841 433.4858,-40.6408"/>
</g>
<!-- bold_reference_wf -->
<g id="node10" class="node">
<title>bold_reference_wf</title>
<ellipse fill="none" stroke="#000000" cx="632.9406" cy="-18" rx="79.0865" ry="18"/>
<text text-anchor="middle" x="632.9406" y="-14.3" font-family="Times,serif" font-size="14.00" fill="#000000">bold_reference_wf</text>
</g>
<!-- mask_t1w_tfm (interfaces)&#45;&gt;bold_reference_wf -->
<g id="edge13" class="edge">
<title>mask_t1w_tfm (interfaces)&#45;&gt;bold_reference_wf</title>
<path fill="none" stroke="#000000" d="M513.1474,-72.937C535.7219,-62.5844 564.6656,-49.3108 588.4473,-38.4046"/>
<polygon fill="#000000" stroke="#000000" points="589.9873,-41.5489 597.6181,-34.1989 587.0693,-35.1861 589.9873,-41.5489"/>
</g>
<!-- aseg_t1w_tfm (interfaces)&#45;&gt;outputnode (utility) -->
<g id="edge14" class="edge">
<title>aseg_t1w_tfm (interfaces)&#45;&gt;outputnode (utility)</title>
<path fill="none" stroke="#000000" d="M141.6513,-144.9158C197.0831,-118.397 303.665,-67.4076 363.4824,-38.7906"/>
<polygon fill="#000000" stroke="#000000" points="365.1559,-41.87 372.6663,-34.397 362.1349,-35.5554 365.1559,-41.87"/>
</g>
<!-- aparc_t1w_tfm (interfaces)&#45;&gt;outputnode (utility) -->
<g id="edge15" class="edge">
<title>aparc_t1w_tfm (interfaces)&#45;&gt;outputnode (utility)</title>
<path fill="none" stroke="#000000" d="M339.9824,-143.8257C341.6859,-124.9578 346.1672,-95.0362 357.9406,-72 363.3219,-61.4708 371.2995,-51.4362 379.2625,-42.937"/>
<polygon fill="#000000" stroke="#000000" points="381.9724,-45.1735 386.4964,-35.5931 376.9854,-40.2612 381.9724,-45.1735"/>
</g>
<!-- merge_xforms (utility)&#45;&gt;bold_to_t1w_transform (interfaces) -->
<g id="edge16" class="edge">
<title>merge_xforms (utility)&#45;&gt;bold_to_t1w_transform (interfaces)</title>
<path fill="none" stroke="#000000" d="M678.95,-215.8314C679.3778,-208.131 679.8865,-198.9743 680.3619,-190.4166"/>
<polygon fill="#000000" stroke="#000000" points="683.8575,-190.592 680.9176,-180.4133 676.8682,-190.2037 683.8575,-190.592"/>
</g>
<!-- bold_to_t1w_transform (interfaces)&#45;&gt;merge (interfaces) -->
<g id="edge17" class="edge">
<title>bold_to_t1w_transform (interfaces)&#45;&gt;merge (interfaces)</title>
<path fill="none" stroke="#000000" d="M681.6883,-143.8314C681.5813,-136.131 681.4541,-126.9743 681.3353,-118.4166"/>
<polygon fill="#000000" stroke="#000000" points="684.835,-118.3637 681.1963,-108.4133 677.8357,-118.4609 684.835,-118.3637"/>
</g>
<!-- merge (interfaces)&#45;&gt;outputnode (utility) -->
<g id="edge19" class="edge">
<title>merge (interfaces)&#45;&gt;outputnode (utility)</title>
<path fill="none" stroke="#000000" d="M629.4033,-76.4574C584.0089,-64.5289 517.7715,-47.1235 469.381,-34.4077"/>
<polygon fill="#000000" stroke="#000000" points="470.2076,-31.0061 459.6464,-31.8497 468.4285,-37.7763 470.2076,-31.0061"/>
</g>
<!-- merge (interfaces)&#45;&gt;bold_reference_wf -->
<g id="edge18" class="edge">
<title>merge (interfaces)&#45;&gt;bold_reference_wf</title>
<path fill="none" stroke="#000000" d="M669.0754,-72.2022C663.4792,-63.8079 656.6884,-53.6218 650.5112,-44.3558"/>
<polygon fill="#000000" stroke="#000000" points="653.2949,-42.2216 644.8356,-35.8425 647.4705,-46.1045 653.2949,-42.2216"/>
</g>
</g>
</svg>
