<?xml version="1.0" encoding="UTF-8" standalone="no"?>
<!DOCTYPE svg PUBLIC "-//W3C//DTD SVG 1.1//EN"
 "http://www.w3.org/Graphics/SVG/1.1/DTD/svg11.dtd">
<!-- Generated by graphviz version 2.40.1 (20161225.0304)
 -->
<!-- Title: %3 Pages: 1 -->
<svg width="866pt" height="332pt"
 viewBox="0.00 0.00 865.88 332.00" xmlns="http://www.w3.org/2000/svg" xmlns:xlink="http://www.w3.org/1999/xlink">
<g id="graph0" class="graph" transform="scale(1 1) rotate(0) translate(4 328)">
<title>%3</title>
<polygon fill="#ffffff" stroke="transparent" points="-4,4 -4,-328 861.8777,-328 861.8777,4 -4,4"/>
<!-- inputnode (utility) -->
<g id="node1" class="node">
<title>inputnode (utility)</title>
<ellipse fill="none" stroke="#000000" cx="569.8893" cy="-306" rx="77.1866" ry="18"/>
<text text-anchor="middle" x="569.8893" y="-302.3" font-family="Times,serif" font-size="14.00" fill="#000000">inputnode (utility)</text>
</g>
<!-- dvars (confounds) -->
<g id="node2" class="node">
<title>dvars (confounds)</title>
<ellipse fill="none" stroke="#000000" cx="395.8893" cy="-234" rx="76.8869" ry="18"/>
<text text-anchor="middle" x="395.8893" y="-230.3" font-family="Times,serif" font-size="14.00" fill="#000000">dvars (confounds)</text>
</g>
<!-- inputnode (utility)&#45;&gt;dvars (confounds) -->
<g id="edge1" class="edge">
<title>inputnode (utility)&#45;&gt;dvars (confounds)</title>
<path fill="none" stroke="#000000" d="M531.7042,-290.1993C505.7528,-279.4608 471.2335,-265.1769 443.4905,-253.6971"/>
<polygon fill="#000000" stroke="#000000" points="444.5637,-250.3534 433.9852,-249.7638 441.8872,-256.8215 444.5637,-250.3534"/>
</g>
<!-- fdisp (confounds) -->
<g id="node3" class="node">
<title>fdisp (confounds)</title>
<ellipse fill="none" stroke="#000000" cx="624.8893" cy="-162" rx="75.2868" ry="18"/>
<text text-anchor="middle" x="624.8893" y="-158.3" font-family="Times,serif" font-size="14.00" fill="#000000">fdisp (confounds)</text>
</g>
<!-- inputnode (utility)&#45;&gt;fdisp (confounds) -->
<g id="edge2" class="edge">
<title>inputnode (utility)&#45;&gt;fdisp (confounds)</title>
<path fill="none" stroke="#000000" d="M571.6798,-287.8083C573.978,-269.1875 578.9237,-239.7008 588.8893,-216 592.9085,-206.4411 598.6905,-196.7762 604.4484,-188.3168"/>
<polygon fill="#000000" stroke="#000000" points="607.4244,-190.1711 610.3652,-179.9926 601.7188,-186.1157 607.4244,-190.1711"/>
</g>
<!-- add_motion_headers (interfaces) -->
<g id="node4" class="node">
<title>add_motion_headers (interfaces)</title>
<ellipse fill="none" stroke="#000000" cx="727.8893" cy="-234" rx="129.9769" ry="18"/>
<text text-anchor="middle" x="727.8893" y="-230.3" font-family="Times,serif" font-size="14.00" fill="#000000">add_motion_headers (interfaces)</text>
</g>
<!-- inputnode (utility)&#45;&gt;add_motion_headers (interfaces) -->
<g id="edge3" class="edge">
<title>inputnode (utility)&#45;&gt;add_motion_headers (interfaces)</title>
<path fill="none" stroke="#000000" d="M605.3476,-289.8418C627.5966,-279.703 656.5465,-266.5106 680.7209,-255.4944"/>
<polygon fill="#000000" stroke="#000000" points="682.4203,-258.5664 690.0687,-251.2347 679.5176,-252.1966 682.4203,-258.5664"/>
</g>
<!-- add_dvars_header (interfaces) -->
<g id="node5" class="node">
<title>add_dvars_header (interfaces)</title>
<ellipse fill="none" stroke="#000000" cx="120.8893" cy="-162" rx="120.7786" ry="18"/>
<text text-anchor="middle" x="120.8893" y="-158.3" font-family="Times,serif" font-size="14.00" fill="#000000">add_dvars_header (interfaces)</text>
</g>
<!-- dvars (confounds)&#45;&gt;add_dvars_header (interfaces) -->
<g id="edge4" class="edge">
<title>dvars (confounds)&#45;&gt;add_dvars_header (interfaces)</title>
<path fill="none" stroke="#000000" d="M344.4865,-220.5418C301.1456,-209.1944 238.7081,-192.8471 190.8213,-180.3095"/>
<polygon fill="#000000" stroke="#000000" points="191.7027,-176.9223 181.1422,-177.7753 189.9296,-183.6941 191.7027,-176.9223"/>
</g>
<!-- add_std_dvars_header (interfaces) -->
<g id="node6" class="node">
<title>add_std_dvars_header (interfaces)</title>
<ellipse fill="none" stroke="#000000" cx="395.8893" cy="-162" rx="135.6761" ry="18"/>
<text text-anchor="middle" x="395.8893" y="-158.3" font-family="Times,serif" font-size="14.00" fill="#000000">add_std_dvars_header (interfaces)</text>
</g>
<!-- dvars (confounds)&#45;&gt;add_std_dvars_header (interfaces) -->
<g id="edge5" class="edge">
<title>dvars (confounds)&#45;&gt;add_std_dvars_header (interfaces)</title>
<path fill="none" stroke="#000000" d="M395.8893,-215.8314C395.8893,-208.131 395.8893,-198.9743 395.8893,-190.4166"/>
<polygon fill="#000000" stroke="#000000" points="399.3894,-190.4132 395.8893,-180.4133 392.3894,-190.4133 399.3894,-190.4132"/>
</g>
<!-- concat (confounds) -->
<g id="node7" class="node">
<title>concat (confounds)</title>
<ellipse fill="none" stroke="#000000" cx="509.8893" cy="-90" rx="80.6858" ry="18"/>
<text text-anchor="middle" x="509.8893" y="-86.3" font-family="Times,serif" font-size="14.00" fill="#000000">concat (confounds)</text>
</g>
<!-- fdisp (confounds)&#45;&gt;concat (confounds) -->
<g id="edge6" class="edge">
<title>fdisp (confounds)&#45;&gt;concat (confounds)</title>
<path fill="none" stroke="#000000" d="M597.9269,-145.1192C582.3237,-135.3502 562.4941,-122.9352 545.6063,-112.362"/>
<polygon fill="#000000" stroke="#000000" points="547.4144,-109.3646 537.0812,-107.0245 543.6997,-115.2977 547.4144,-109.3646"/>
</g>
<!-- add_motion_headers (interfaces)&#45;&gt;concat (confounds) -->
<g id="edge7" class="edge">
<title>add_motion_headers (interfaces)&#45;&gt;concat (confounds)</title>
<path fill="none" stroke="#000000" d="M729.2371,-215.9595C729.7084,-195.7795 727.2028,-163.3867 708.8893,-144 691.8132,-125.9232 634.6632,-111.563 585.9637,-102.2092"/>
<polygon fill="#000000" stroke="#000000" points="586.5084,-98.7504 576.0347,-100.3477 585.2185,-105.6305 586.5084,-98.7504"/>
</g>
<!-- add_dvars_header (interfaces)&#45;&gt;concat (confounds) -->
<g id="edge8" class="edge">
<title>add_dvars_header (interfaces)&#45;&gt;concat (confounds)</title>
<path fill="none" stroke="#000000" d="M196.8158,-147.9468C266.5712,-135.0357 369.23,-116.0346 437.7587,-103.3506"/>
<polygon fill="#000000" stroke="#000000" points="438.4179,-106.7882 447.6139,-101.5266 437.1439,-99.9051 438.4179,-106.7882"/>
</g>
<!-- add_std_dvars_header (interfaces)&#45;&gt;concat (confounds) -->
<g id="edge9" class="edge">
<title>add_std_dvars_header (interfaces)&#45;&gt;concat (confounds)</title>
<path fill="none" stroke="#000000" d="M424.0691,-144.2022C439.2011,-134.6452 458.0106,-122.7655 474.1604,-112.5656"/>
<polygon fill="#000000" stroke="#000000" points="476.2328,-115.3964 482.8187,-107.0972 472.4948,-109.478 476.2328,-115.3964"/>
</g>
<!-- outputnode (utility) -->
<g id="node8" class="node">
<title>outputnode (utility)</title>
<ellipse fill="none" stroke="#000000" cx="509.8893" cy="-18" rx="81.7856" ry="18"/>
<text text-anchor="middle" x="509.8893" y="-14.3" font-family="Times,serif" font-size="14.00" fill="#000000">outputnode (utility)</text>
</g>
<!-- concat (confounds)&#45;&gt;outputnode (utility) -->
<g id="edge10" class="edge">
<title>concat (confounds)&#45;&gt;outputnode (utility)</title>
<path fill="none" stroke="#000000" d="M509.8893,-71.8314C509.8893,-64.131 509.8893,-54.9743 509.8893,-46.4166"/>
<polygon fill="#000000" stroke="#000000" points="513.3894,-46.4132 509.8893,-36.4133 506.3894,-46.4133 513.3894,-46.4132"/>
</g>
</g>
</svg>
