<?xml version="1.0" encoding="UTF-8" standalone="no"?>
<!DOCTYPE svg PUBLIC "-//W3C//DTD SVG 1.1//EN"
 "http://www.w3.org/Graphics/SVG/1.1/DTD/svg11.dtd">
<!-- Generated by graphviz version 2.40.1 (20161225.0304)
 -->
<!-- Title: %3 Pages: 1 -->
<svg width="760pt" height="764pt"
 viewBox="0.00 0.00 760.38 764.00" xmlns="http://www.w3.org/2000/svg" xmlns:xlink="http://www.w3.org/1999/xlink">
<g id="graph0" class="graph" transform="scale(1 1) rotate(0) translate(4 760)">
<title>%3</title>
<polygon fill="#ffffff" stroke="transparent" points="-4,4 -4,-760 756.376,-760 756.376,4 -4,4"/>
<!-- inputnode (utility) -->
<g id="node1" class="node">
<title>inputnode (utility)</title>
<ellipse fill="none" stroke="#000000" cx="232.5415" cy="-738" rx="77.1866" ry="18"/>
<text text-anchor="middle" x="232.5415" y="-734.3" font-family="Times,serif" font-size="14.00" fill="#000000">inputnode (utility)</text>
</g>
<!-- select_std (interfaces) -->
<g id="node2" class="node">
<title>select_std (interfaces)</title>
<ellipse fill="none" stroke="#000000" cx="232.5415" cy="-666" rx="90.1842" ry="18"/>
<text text-anchor="middle" x="232.5415" y="-662.3" font-family="Times,serif" font-size="14.00" fill="#000000">select_std (interfaces)</text>
</g>
<!-- inputnode (utility)&#45;&gt;select_std (interfaces) -->
<g id="edge1" class="edge">
<title>inputnode (utility)&#45;&gt;select_std (interfaces)</title>
<path fill="none" stroke="#000000" d="M232.5415,-719.8314C232.5415,-712.131 232.5415,-702.9743 232.5415,-694.4166"/>
<polygon fill="#000000" stroke="#000000" points="236.0416,-694.4132 232.5415,-684.4133 229.0416,-694.4133 236.0416,-694.4132"/>
</g>
<!-- ica_aroma (interfaces) -->
<g id="node3" class="node">
<title>ica_aroma (interfaces)</title>
<ellipse fill="none" stroke="#000000" cx="275.5415" cy="-234" rx="92.0841" ry="18"/>
<text text-anchor="middle" x="275.5415" y="-230.3" font-family="Times,serif" font-size="14.00" fill="#000000">ica_aroma (interfaces)</text>
</g>
<!-- inputnode (utility)&#45;&gt;ica_aroma (interfaces) -->
<g id="edge2" class="edge">
<title>inputnode (utility)&#45;&gt;ica_aroma (interfaces)</title>
<path fill="none" stroke="#000000" d="M187.5055,-723.2273C168.1404,-714.683 146.9243,-701.9838 133.5415,-684 109.1353,-651.203 114.5415,-634.8816 114.5415,-594 114.5415,-594 114.5415,-594 114.5415,-450 114.5415,-370.4705 137.997,-347.6993 190.5415,-288 201.829,-275.1756 216.8842,-264.2736 231.1862,-255.695"/>
<polygon fill="#000000" stroke="#000000" points="233.0266,-258.6742 239.9534,-250.6574 229.5391,-252.6048 233.0266,-258.6742"/>
</g>
<!-- rm_nonsteady (utility) -->
<g id="node4" class="node">
<title>rm_nonsteady (utility)</title>
<ellipse fill="none" stroke="#000000" cx="386.5415" cy="-594" rx="92.0841" ry="18"/>
<text text-anchor="middle" x="386.5415" y="-590.3" font-family="Times,serif" font-size="14.00" fill="#000000">rm_nonsteady (utility)</text>
</g>
<!-- inputnode (utility)&#45;&gt;rm_nonsteady (utility) -->
<g id="edge3" class="edge">
<title>inputnode (utility)&#45;&gt;rm_nonsteady (utility)</title>
<path fill="none" stroke="#000000" d="M271.7836,-722.4143C291.3282,-713.2909 314.3836,-700.3339 331.5415,-684 350.2624,-666.1783 365.0597,-640.6481 374.5686,-621.328"/>
<polygon fill="#000000" stroke="#000000" points="377.8059,-622.6698 378.9288,-612.1346 371.4812,-619.6701 377.8059,-622.6698"/>
</g>
<!-- ica_aroma_confound_extraction (confounds) -->
<g id="node5" class="node">
<title>ica_aroma_confound_extraction (confounds)</title>
<ellipse fill="none" stroke="#000000" cx="577.5415" cy="-162" rx="174.6691" ry="18"/>
<text text-anchor="middle" x="577.5415" y="-158.3" font-family="Times,serif" font-size="14.00" fill="#000000">ica_aroma_confound_extraction (confounds)</text>
</g>
<!-- inputnode (utility)&#45;&gt;ica_aroma_confound_extraction (confounds) -->
<g id="edge4" class="edge">
<title>inputnode (utility)&#45;&gt;ica_aroma_confound_extraction (confounds)</title>
<path fill="none" stroke="#000000" d="M303.6178,-730.8005C433.4057,-715.6702 695.5415,-675.0758 695.5415,-594 695.5415,-594 695.5415,-594 695.5415,-306 695.5415,-254.3032 649.4793,-210.9938 614.9129,-185.7713"/>
<polygon fill="#000000" stroke="#000000" points="616.5927,-182.6724 606.4076,-179.7544 612.55,-188.387 616.5927,-182.6724"/>
</g>
<!-- add_nonsteady (utility) -->
<g id="node6" class="node">
<title>add_nonsteady (utility)</title>
<ellipse fill="none" stroke="#000000" cx="95.5415" cy="-162" rx="95.5831" ry="18"/>
<text text-anchor="middle" x="95.5415" y="-158.3" font-family="Times,serif" font-size="14.00" fill="#000000">add_nonsteady (utility)</text>
</g>
<!-- inputnode (utility)&#45;&gt;add_nonsteady (utility) -->
<g id="edge5" class="edge">
<title>inputnode (utility)&#45;&gt;add_nonsteady (utility)</title>
<path fill="none" stroke="#000000" d="M180.8836,-724.4872C157.4647,-716.1234 130.9585,-703.2139 112.5415,-684 82.7302,-652.8988 76.5415,-637.0813 76.5415,-594 76.5415,-594 76.5415,-594 76.5415,-306 76.5415,-265.5282 84.0095,-219.2037 89.5815,-190.2725"/>
<polygon fill="#000000" stroke="#000000" points="93.0898,-190.5746 91.6047,-180.0844 86.2239,-189.2111 93.0898,-190.5746"/>
</g>
<!-- select_std (interfaces)&#45;&gt;ica_aroma (interfaces) -->
<g id="edge9" class="edge">
<title>select_std (interfaces)&#45;&gt;ica_aroma (interfaces)</title>
<path fill="none" stroke="#000000" d="M223.6344,-647.8553C211.3057,-621.0234 190.5415,-568.875 190.5415,-522 190.5415,-522 190.5415,-522 190.5415,-378 190.5415,-337.1184 188.2932,-322.9259 209.5415,-288 216.7771,-276.1069 227.6018,-265.6652 238.4027,-257.2133"/>
<polygon fill="#000000" stroke="#000000" points="240.6428,-259.9097 246.5978,-251.1468 236.4779,-254.2835 240.6428,-259.9097"/>
</g>
<!-- select_std (interfaces)&#45;&gt;rm_nonsteady (utility) -->
<g id="edge6" class="edge">
<title>select_std (interfaces)&#45;&gt;rm_nonsteady (utility)</title>
<path fill="none" stroke="#000000" d="M268.2593,-649.3008C290.0476,-639.1141 318.097,-626.0001 341.4123,-615.0994"/>
<polygon fill="#000000" stroke="#000000" points="343.1746,-618.1392 350.751,-610.7332 340.2098,-611.798 343.1746,-618.1392"/>
</g>
<!-- select_std (interfaces)&#45;&gt;add_nonsteady (utility) -->
<g id="edge10" class="edge">
<title>select_std (interfaces)&#45;&gt;add_nonsteady (utility)</title>
<path fill="none" stroke="#000000" d="M214.7869,-648.2193C191.2183,-622.6391 152.5415,-572.9062 152.5415,-522 152.5415,-522 152.5415,-522 152.5415,-450 152.5415,-352.9616 121.0165,-240.9714 104.856,-189.9373"/>
<polygon fill="#000000" stroke="#000000" points="108.1443,-188.73 101.75,-180.2824 101.4807,-190.8738 108.1443,-188.73"/>
</g>
<!-- calc_median_val (fsl) -->
<g id="node7" class="node">
<title>calc_median_val (fsl)</title>
<ellipse fill="none" stroke="#000000" cx="346.5415" cy="-522" rx="89.8845" ry="18"/>
<text text-anchor="middle" x="346.5415" y="-518.3" font-family="Times,serif" font-size="14.00" fill="#000000">calc_median_val (fsl)</text>
</g>
<!-- select_std (interfaces)&#45;&gt;calc_median_val (fsl) -->
<g id="edge7" class="edge">
<title>select_std (interfaces)&#45;&gt;calc_median_val (fsl)</title>
<path fill="none" stroke="#000000" d="M241.0016,-648.0282C250.3984,-629.0603 266.7457,-598.8106 285.5415,-576 294.3419,-565.3199 305.326,-554.9155 315.539,-546.1361"/>
<polygon fill="#000000" stroke="#000000" points="318.0838,-548.5705 323.5079,-539.4694 313.5922,-543.2016 318.0838,-548.5705"/>
</g>
<!-- melodic (fsl) -->
<g id="node8" class="node">
<title>melodic (fsl)</title>
<ellipse fill="none" stroke="#000000" cx="275.5415" cy="-306" rx="57.3905" ry="18"/>
<text text-anchor="middle" x="275.5415" y="-302.3" font-family="Times,serif" font-size="14.00" fill="#000000">melodic (fsl)</text>
</g>
<!-- select_std (interfaces)&#45;&gt;melodic (fsl) -->
<g id="edge8" class="edge">
<title>select_std (interfaces)&#45;&gt;melodic (fsl)</title>
<path fill="none" stroke="#000000" d="M231.7127,-647.8191C230.5411,-620.5085 228.5415,-567.2675 228.5415,-522 228.5415,-522 228.5415,-522 228.5415,-450 228.5415,-407.6562 247.1347,-361.6118 260.9321,-333.273"/>
<polygon fill="#000000" stroke="#000000" points="264.2171,-334.5304 265.574,-324.0228 257.9606,-331.3907 264.2171,-334.5304"/>
</g>
<!-- ica_aroma (interfaces)&#45;&gt;ica_aroma_confound_extraction (confounds) -->
<g id="edge11" class="edge">
<title>ica_aroma (interfaces)&#45;&gt;ica_aroma_confound_extraction (confounds)</title>
<path fill="none" stroke="#000000" d="M334.1282,-220.0323C380.8601,-208.8909 446.7796,-193.175 498.235,-180.9075"/>
<polygon fill="#000000" stroke="#000000" points="499.0789,-184.3045 507.9945,-178.5807 497.4554,-177.4953 499.0789,-184.3045"/>
</g>
<!-- ica_aroma (interfaces)&#45;&gt;add_nonsteady (utility) -->
<g id="edge12" class="edge">
<title>ica_aroma (interfaces)&#45;&gt;add_nonsteady (utility)</title>
<path fill="none" stroke="#000000" d="M234.6967,-217.6621C208.4383,-207.1587 174.1271,-193.4342 146.1456,-182.2417"/>
<polygon fill="#000000" stroke="#000000" points="147.1205,-178.862 136.5358,-178.3977 144.5207,-185.3614 147.1205,-178.862"/>
</g>
<!-- ds_report_ica_aroma -->
<g id="node9" class="node">
<title>ds_report_ica_aroma</title>
<ellipse fill="none" stroke="#000000" cx="296.5415" cy="-162" rx="87.9851" ry="18"/>
<text text-anchor="middle" x="296.5415" y="-158.3" font-family="Times,serif" font-size="14.00" fill="#000000">ds_report_ica_aroma</text>
</g>
<!-- ica_aroma (interfaces)&#45;&gt;ds_report_ica_aroma -->
<g id="edge13" class="edge">
<title>ica_aroma (interfaces)&#45;&gt;ds_report_ica_aroma</title>
<path fill="none" stroke="#000000" d="M280.8407,-215.8314C283.1113,-208.0463 285.8161,-198.7729 288.3356,-190.1347"/>
<polygon fill="#000000" stroke="#000000" points="291.7309,-190.9933 291.171,-180.4133 285.0109,-189.0332 291.7309,-190.9933"/>
</g>
<!-- rm_nonsteady (utility)&#45;&gt;calc_median_val (fsl) -->
<g id="edge14" class="edge">
<title>rm_nonsteady (utility)&#45;&gt;calc_median_val (fsl)</title>
<path fill="none" stroke="#000000" d="M376.4478,-575.8314C371.9131,-567.6688 366.4693,-557.87 361.4764,-548.8827"/>
<polygon fill="#000000" stroke="#000000" points="364.4095,-546.9552 356.4934,-539.9134 358.2903,-550.3548 364.4095,-546.9552"/>
</g>
<!-- calc_bold_mean (fsl) -->
<g id="node10" class="node">
<title>calc_bold_mean (fsl)</title>
<ellipse fill="none" stroke="#000000" cx="541.5415" cy="-522" rx="87.9851" ry="18"/>
<text text-anchor="middle" x="541.5415" y="-518.3" font-family="Times,serif" font-size="14.00" fill="#000000">calc_bold_mean (fsl)</text>
</g>
<!-- rm_nonsteady (utility)&#45;&gt;calc_bold_mean (fsl) -->
<g id="edge15" class="edge">
<title>rm_nonsteady (utility)&#45;&gt;calc_bold_mean (fsl)</title>
<path fill="none" stroke="#000000" d="M422.4912,-577.3008C444.6764,-566.9954 473.3109,-553.6942 496.9371,-542.7195"/>
<polygon fill="#000000" stroke="#000000" points="498.4595,-545.8715 506.0543,-538.4844 495.5105,-539.523 498.4595,-545.8715"/>
</g>
<!-- smooth (fsl) -->
<g id="node11" class="node">
<title>smooth (fsl)</title>
<ellipse fill="none" stroke="#000000" cx="360.5415" cy="-378" rx="55.4913" ry="18"/>
<text text-anchor="middle" x="360.5415" y="-374.3" font-family="Times,serif" font-size="14.00" fill="#000000">smooth (fsl)</text>
</g>
<!-- rm_nonsteady (utility)&#45;&gt;smooth (fsl) -->
<g id="edge16" class="edge">
<title>rm_nonsteady (utility)&#45;&gt;smooth (fsl)</title>
<path fill="none" stroke="#000000" d="M471.8092,-587.0613C536.4791,-579.821 617.6909,-565.792 638.5415,-540 648.6004,-527.5573 646.1798,-518.059 638.5415,-504 596.4936,-426.6066 491.8507,-396.596 423.6233,-385.0651"/>
<polygon fill="#000000" stroke="#000000" points="423.8448,-381.5561 413.4173,-383.4315 422.7384,-388.4681 423.8448,-381.5561"/>
</g>
<!-- ica_aroma_metadata_fmt (interfaces) -->
<g id="node13" class="node">
<title>ica_aroma_metadata_fmt (interfaces)</title>
<ellipse fill="none" stroke="#000000" cx="577.5415" cy="-90" rx="146.774" ry="18"/>
<text text-anchor="middle" x="577.5415" y="-86.3" font-family="Times,serif" font-size="14.00" fill="#000000">ica_aroma_metadata_fmt (interfaces)</text>
</g>
<!-- ica_aroma_confound_extraction (confounds)&#45;&gt;ica_aroma_metadata_fmt (interfaces) -->
<g id="edge17" class="edge">
<title>ica_aroma_confound_extraction (confounds)&#45;&gt;ica_aroma_metadata_fmt (interfaces)</title>
<path fill="none" stroke="#000000" d="M577.5415,-143.8314C577.5415,-136.131 577.5415,-126.9743 577.5415,-118.4166"/>
<polygon fill="#000000" stroke="#000000" points="581.0416,-118.4132 577.5415,-108.4133 574.0416,-118.4133 581.0416,-118.4132"/>
</g>
<!-- outputnode (utility) -->
<g id="node14" class="node">
<title>outputnode (utility)</title>
<ellipse fill="none" stroke="#000000" cx="402.5415" cy="-18" rx="81.7856" ry="18"/>
<text text-anchor="middle" x="402.5415" y="-14.3" font-family="Times,serif" font-size="14.00" fill="#000000">outputnode (utility)</text>
</g>
<!-- ica_aroma_confound_extraction (confounds)&#45;&gt;outputnode (utility) -->
<g id="edge18" class="edge">
<title>ica_aroma_confound_extraction (confounds)&#45;&gt;outputnode (utility)</title>
<path fill="none" stroke="#000000" d="M509.0629,-145.4347C472.98,-135.3614 433.7223,-121.8097 421.5415,-108 406.7459,-91.2257 402.4528,-65.8659 401.5988,-46.3365"/>
<polygon fill="#000000" stroke="#000000" points="405.0958,-46.1198 401.4333,-36.1781 398.0968,-46.2338 405.0958,-46.1198"/>
</g>
<!-- add_nonsteady (utility)&#45;&gt;outputnode (utility) -->
<g id="edge19" class="edge">
<title>add_nonsteady (utility)&#45;&gt;outputnode (utility)</title>
<path fill="none" stroke="#000000" d="M131.3592,-145.1995C187.661,-118.7909 296.7516,-67.6213 358.0173,-38.8843"/>
<polygon fill="#000000" stroke="#000000" points="359.8569,-41.8874 367.4241,-34.472 356.8842,-35.55 359.8569,-41.8874"/>
</g>
<!-- calc_median_val (fsl)&#45;&gt;smooth (fsl) -->
<g id="edge21" class="edge">
<title>calc_median_val (fsl)&#45;&gt;smooth (fsl)</title>
<path fill="none" stroke="#000000" d="M348.3146,-503.7623C350.7025,-479.201 354.9758,-435.2474 357.7849,-406.3541"/>
<polygon fill="#000000" stroke="#000000" points="361.2986,-406.3814 358.7828,-396.0896 354.3315,-405.704 361.2986,-406.3814"/>
</g>
<!-- getusans (utility) -->
<g id="node12" class="node">
<title>getusans (utility)</title>
<ellipse fill="none" stroke="#000000" cx="446.5415" cy="-450" rx="72.2875" ry="18"/>
<text text-anchor="middle" x="446.5415" y="-446.3" font-family="Times,serif" font-size="14.00" fill="#000000">getusans (utility)</text>
</g>
<!-- calc_median_val (fsl)&#45;&gt;getusans (utility) -->
<g id="edge20" class="edge">
<title>calc_median_val (fsl)&#45;&gt;getusans (utility)</title>
<path fill="none" stroke="#000000" d="M370.7487,-504.5708C383.8647,-495.1273 400.2413,-483.3361 414.4126,-473.1328"/>
<polygon fill="#000000" stroke="#000000" points="416.832,-475.7037 422.9023,-467.0202 412.7419,-470.0229 416.832,-475.7037"/>
</g>
<!-- melodic (fsl)&#45;&gt;ica_aroma (interfaces) -->
<g id="edge22" class="edge">
<title>melodic (fsl)&#45;&gt;ica_aroma (interfaces)</title>
<path fill="none" stroke="#000000" d="M275.5415,-287.8314C275.5415,-280.131 275.5415,-270.9743 275.5415,-262.4166"/>
<polygon fill="#000000" stroke="#000000" points="279.0416,-262.4132 275.5415,-252.4133 272.0416,-262.4133 279.0416,-262.4132"/>
</g>
<!-- calc_bold_mean (fsl)&#45;&gt;getusans (utility) -->
<g id="edge23" class="edge">
<title>calc_bold_mean (fsl)&#45;&gt;getusans (utility)</title>
<path fill="none" stroke="#000000" d="M518.5447,-504.5708C506.1755,-495.1963 490.7536,-483.5081 477.3592,-473.3565"/>
<polygon fill="#000000" stroke="#000000" points="479.4104,-470.5195 469.3266,-467.2687 475.1822,-476.0983 479.4104,-470.5195"/>
</g>
<!-- smooth (fsl)&#45;&gt;ica_aroma (interfaces) -->
<g id="edge25" class="edge">
<title>smooth (fsl)&#45;&gt;ica_aroma (interfaces)</title>
<path fill="none" stroke="#000000" d="M360.1974,-359.8015C359.0742,-340.6442 355.0707,-310.238 341.5415,-288 334.3059,-276.1069 323.4813,-265.6652 312.6803,-257.2133"/>
<polygon fill="#000000" stroke="#000000" points="314.6051,-254.2835 304.4853,-251.1468 310.4403,-259.9097 314.6051,-254.2835"/>
</g>
<!-- smooth (fsl)&#45;&gt;melodic (fsl) -->
<g id="edge24" class="edge">
<title>smooth (fsl)&#45;&gt;melodic (fsl)</title>
<path fill="none" stroke="#000000" d="M340.3977,-360.937C329.2827,-351.522 315.3158,-339.6912 303.1926,-329.4221"/>
<polygon fill="#000000" stroke="#000000" points="305.4334,-326.7333 295.5407,-322.9405 300.909,-332.0747 305.4334,-326.7333"/>
</g>
<!-- getusans (utility)&#45;&gt;smooth (fsl) -->
<g id="edge26" class="edge">
<title>getusans (utility)&#45;&gt;smooth (fsl)</title>
<path fill="none" stroke="#000000" d="M425.7233,-432.5708C414.6564,-423.3055 400.8901,-411.7802 388.8643,-401.7121"/>
<polygon fill="#000000" stroke="#000000" points="390.7856,-398.756 380.8713,-395.0202 386.2921,-404.1233 390.7856,-398.756"/>
</g>
<!-- ica_aroma_metadata_fmt (interfaces)&#45;&gt;outputnode (utility) -->
<g id="edge27" class="edge">
<title>ica_aroma_metadata_fmt (interfaces)&#45;&gt;outputnode (utility)</title>
<path fill="none" stroke="#000000" d="M535.1789,-72.5708C509.6829,-62.081 477.146,-48.6944 450.6791,-37.8052"/>
<polygon fill="#000000" stroke="#000000" points="451.8066,-34.4845 441.227,-33.9163 449.1432,-40.958 451.8066,-34.4845"/>
</g>
</g>
</svg>
