<?xml version="1.0" encoding="UTF-8" standalone="no"?>
<!DOCTYPE svg PUBLIC "-//W3C//DTD SVG 1.1//EN"
 "http://www.w3.org/Graphics/SVG/1.1/DTD/svg11.dtd">
<!-- Generated by graphviz version 2.40.1 (20161225.0304)
 -->
<!-- Title: %3 Pages: 1 -->
<svg width="804pt" height="548pt"
 viewBox="0.00 0.00 804.21 548.00" xmlns="http://www.w3.org/2000/svg" xmlns:xlink="http://www.w3.org/1999/xlink">
<g id="graph0" class="graph" transform="scale(1 1) rotate(0) translate(4 544)">
<title>%3</title>
<polygon fill="#ffffff" stroke="transparent" points="-4,4 -4,-544 800.2077,-544 800.2077,4 -4,4"/>
<!-- inputnode (utility) -->
<g id="node1" class="node">
<title>inputnode (utility)</title>
<ellipse fill="none" stroke="#000000" cx="509.9283" cy="-522" rx="77.1866" ry="18"/>
<text text-anchor="middle" x="509.9283" y="-518.3" font-family="Times,serif" font-size="14.00" fill="#000000">inputnode (utility)</text>
</g>
<!-- recon_config (interfaces) -->
<g id="node2" class="node">
<title>recon_config (interfaces)</title>
<ellipse fill="none" stroke="#000000" cx="444.9283" cy="-450" rx="102.0819" ry="18"/>
<text text-anchor="middle" x="444.9283" y="-446.3" font-family="Times,serif" font-size="14.00" fill="#000000">recon_config (interfaces)</text>
</g>
<!-- inputnode (utility)&#45;&gt;recon_config (interfaces) -->
<g id="edge1" class="edge">
<title>inputnode (utility)&#45;&gt;recon_config (interfaces)</title>
<path fill="none" stroke="#000000" d="M493.8608,-504.2022C486.0482,-495.5483 476.5164,-484.99 467.948,-475.4988"/>
<polygon fill="#000000" stroke="#000000" points="470.3351,-472.9199 461.0361,-467.8425 465.1392,-477.6106 470.3351,-472.9199"/>
</g>
<!-- autorecon1 (interfaces) -->
<g id="node3" class="node">
<title>autorecon1 (interfaces)</title>
<ellipse fill="none" stroke="#000000" cx="223.9283" cy="-378" rx="94.7833" ry="18"/>
<text text-anchor="middle" x="223.9283" y="-374.3" font-family="Times,serif" font-size="14.00" fill="#000000">autorecon1 (interfaces)</text>
</g>
<!-- inputnode (utility)&#45;&gt;autorecon1 (interfaces) -->
<g id="edge2" class="edge">
<title>inputnode (utility)&#45;&gt;autorecon1 (interfaces)</title>
<path fill="none" stroke="#000000" d="M437.2101,-515.8679C339.4839,-506.8793 175.8722,-488.9066 157.9283,-468 139.4475,-446.468 163.7088,-420.1189 187.8584,-401.5102"/>
<polygon fill="#000000" stroke="#000000" points="190.0147,-404.2688 195.9821,-395.5143 185.8578,-398.6367 190.0147,-404.2688"/>
</g>
<!-- fov_check (utility) -->
<g id="node4" class="node">
<title>fov_check (utility)</title>
<ellipse fill="none" stroke="#000000" cx="245.9283" cy="-450" rx="78.7863" ry="18"/>
<text text-anchor="middle" x="245.9283" y="-446.3" font-family="Times,serif" font-size="14.00" fill="#000000">fov_check (utility)</text>
</g>
<!-- inputnode (utility)&#45;&gt;fov_check (utility) -->
<g id="edge3" class="edge">
<title>inputnode (utility)&#45;&gt;fov_check (utility)</title>
<path fill="none" stroke="#000000" d="M459.6505,-508.2879C416.1648,-496.4282 353.1708,-479.248 306.8345,-466.6108"/>
<polygon fill="#000000" stroke="#000000" points="307.4867,-463.1609 296.9181,-463.9063 305.6448,-469.9142 307.4867,-463.1609"/>
</g>
<!-- skull_strip_extern (interfaces) -->
<g id="node5" class="node">
<title>skull_strip_extern (interfaces)</title>
<ellipse fill="none" stroke="#000000" cx="494.9283" cy="-306" rx="120.4791" ry="18"/>
<text text-anchor="middle" x="494.9283" y="-302.3" font-family="Times,serif" font-size="14.00" fill="#000000">skull_strip_extern (interfaces)</text>
</g>
<!-- inputnode (utility)&#45;&gt;skull_strip_extern (interfaces) -->
<g id="edge4" class="edge">
<title>inputnode (utility)&#45;&gt;skull_strip_extern (interfaces)</title>
<path fill="none" stroke="#000000" d="M530.7584,-504.2141C540.3956,-494.6003 550.8221,-481.8683 555.9283,-468 561.4564,-452.9854 559.5047,-447.5952 555.9283,-432 547.5945,-395.6609 527.3449,-357.6293 512.4524,-332.982"/>
<polygon fill="#000000" stroke="#000000" points="515.2753,-330.8918 507.0431,-324.2224 509.3194,-334.5698 515.2753,-330.8918"/>
</g>
<!-- fsnative2t1w_xfm (interfaces) -->
<g id="node6" class="node">
<title>fsnative2t1w_xfm (interfaces)</title>
<ellipse fill="none" stroke="#000000" cx="130.9283" cy="-234" rx="120.7786" ry="18"/>
<text text-anchor="middle" x="130.9283" y="-230.3" font-family="Times,serif" font-size="14.00" fill="#000000">fsnative2t1w_xfm (interfaces)</text>
</g>
<!-- inputnode (utility)&#45;&gt;fsnative2t1w_xfm (interfaces) -->
<g id="edge5" class="edge">
<title>inputnode (utility)&#45;&gt;fsnative2t1w_xfm (interfaces)</title>
<path fill="none" stroke="#000000" d="M432.9041,-519.5393C339.6246,-515.0556 189.6638,-502.5481 146.9283,-468 86.3442,-419.0229 107.3778,-312.5576 121.8739,-261.8853"/>
<polygon fill="#000000" stroke="#000000" points="125.2453,-262.827 124.748,-252.2438 118.537,-260.8272 125.2453,-262.827"/>
</g>
<!-- refine (interfaces) -->
<g id="node7" class="node">
<title>refine (interfaces)</title>
<ellipse fill="none" stroke="#000000" cx="680.9283" cy="-90" rx="75.2868" ry="18"/>
<text text-anchor="middle" x="680.9283" y="-86.3" font-family="Times,serif" font-size="14.00" fill="#000000">refine (interfaces)</text>
</g>
<!-- inputnode (utility)&#45;&gt;refine (interfaces) -->
<g id="edge6" class="edge">
<title>inputnode (utility)&#45;&gt;refine (interfaces)</title>
<path fill="none" stroke="#000000" d="M583.3228,-516.2688C667.7663,-505.2008 794.9283,-472.7961 794.9283,-378 794.9283,-378 794.9283,-378 794.9283,-234 794.9283,-193.1184 800.0461,-177.0097 775.9283,-144 765.1691,-129.2741 749.0941,-117.9931 733.2128,-109.6464"/>
<polygon fill="#000000" stroke="#000000" points="734.4431,-106.3506 723.9262,-105.0671 731.3472,-112.6289 734.4431,-106.3506"/>
</g>
<!-- segs_to_native_aseg -->
<g id="node8" class="node">
<title>segs_to_native_aseg</title>
<ellipse fill="none" stroke="#000000" cx="680.9283" cy="-162" rx="85.5853" ry="18"/>
<text text-anchor="middle" x="680.9283" y="-158.3" font-family="Times,serif" font-size="14.00" fill="#000000">segs_to_native_aseg</text>
</g>
<!-- inputnode (utility)&#45;&gt;segs_to_native_aseg -->
<g id="edge7" class="edge">
<title>inputnode (utility)&#45;&gt;segs_to_native_aseg</title>
<path fill="none" stroke="#000000" d="M553.5212,-507.0463C604.1843,-486.5679 680.9283,-444.5621 680.9283,-378 680.9283,-378 680.9283,-378 680.9283,-306 680.9283,-265.876 680.9283,-219.4631 680.9283,-190.4177"/>
<polygon fill="#000000" stroke="#000000" points="684.4284,-190.1853 680.9283,-180.1854 677.4284,-190.1854 684.4284,-190.1853"/>
</g>
<!-- segs_to_native_aparc_aseg -->
<g id="node9" class="node">
<title>segs_to_native_aparc_aseg</title>
<ellipse fill="none" stroke="#000000" cx="466.9283" cy="-162" rx="109.6807" ry="18"/>
<text text-anchor="middle" x="466.9283" y="-158.3" font-family="Times,serif" font-size="14.00" fill="#000000">segs_to_native_aparc_aseg</text>
</g>
<!-- inputnode (utility)&#45;&gt;segs_to_native_aparc_aseg -->
<g id="edge8" class="edge">
<title>inputnode (utility)&#45;&gt;segs_to_native_aparc_aseg</title>
<path fill="none" stroke="#000000" d="M541.7851,-505.565C581.1319,-482.7191 642.9283,-437.3854 642.9283,-378 642.9283,-378 642.9283,-378 642.9283,-306 642.9283,-243.9321 576.5509,-203.7898 525.3236,-182.0517"/>
<polygon fill="#000000" stroke="#000000" points="526.5341,-178.7653 515.9541,-178.2058 523.876,-185.241 526.5341,-178.7653"/>
</g>
<!-- recon_config (interfaces)&#45;&gt;autorecon1 (interfaces) -->
<g id="edge9" class="edge">
<title>recon_config (interfaces)&#45;&gt;autorecon1 (interfaces)</title>
<path fill="none" stroke="#000000" d="M396.1553,-434.1102C362.3441,-423.0947 317.1802,-408.3807 281.5851,-396.7841"/>
<polygon fill="#000000" stroke="#000000" points="282.4089,-393.3715 271.8166,-393.6016 280.2405,-400.0272 282.4089,-393.3715"/>
</g>
<!-- autorecon_resume_wf -->
<g id="node10" class="node">
<title>autorecon_resume_wf</title>
<ellipse fill="none" stroke="#000000" cx="413.9283" cy="-234" rx="91.784" ry="18"/>
<text text-anchor="middle" x="413.9283" y="-230.3" font-family="Times,serif" font-size="14.00" fill="#000000">autorecon_resume_wf</text>
</g>
<!-- recon_config (interfaces)&#45;&gt;autorecon_resume_wf -->
<g id="edge10" class="edge">
<title>recon_config (interfaces)&#45;&gt;autorecon_resume_wf</title>
<path fill="none" stroke="#000000" d="M428.9574,-431.9902C409.6444,-408.8866 378.2014,-366.6792 365.9283,-324 361.5064,-308.6232 360.2422,-302.9555 365.9283,-288 370.0237,-277.2281 377.362,-267.2328 385.0879,-258.8441"/>
<polygon fill="#000000" stroke="#000000" points="387.6847,-261.1954 392.2102,-251.6157 382.6985,-256.2823 387.6847,-261.1954"/>
</g>
<!-- autorecon1 (interfaces)&#45;&gt;skull_strip_extern (interfaces) -->
<g id="edge11" class="edge">
<title>autorecon1 (interfaces)&#45;&gt;skull_strip_extern (interfaces)</title>
<path fill="none" stroke="#000000" d="M279.0958,-363.3429C321.4845,-352.081 380.2889,-336.4577 425.8142,-324.3624"/>
<polygon fill="#000000" stroke="#000000" points="426.8433,-327.7105 435.6093,-321.76 425.0458,-320.9452 426.8433,-327.7105"/>
</g>
<!-- autorecon1 (interfaces)&#45;&gt;fsnative2t1w_xfm (interfaces) -->
<g id="edge12" class="edge">
<title>autorecon1 (interfaces)&#45;&gt;fsnative2t1w_xfm (interfaces)</title>
<path fill="none" stroke="#000000" d="M212.3378,-360.0535C196.1873,-335.0462 166.7963,-289.5376 148.098,-260.5853"/>
<polygon fill="#000000" stroke="#000000" points="151.0302,-258.6743 142.6648,-252.1727 145.15,-262.472 151.0302,-258.6743"/>
</g>
<!-- fov_check (utility)&#45;&gt;autorecon1 (interfaces) -->
<g id="edge13" class="edge">
<title>fov_check (utility)&#45;&gt;autorecon1 (interfaces)</title>
<path fill="none" stroke="#000000" d="M240.3767,-431.8314C237.998,-424.0463 235.1644,-414.7729 232.525,-406.1347"/>
<polygon fill="#000000" stroke="#000000" points="235.824,-404.954 229.5545,-396.4133 229.1296,-406.9996 235.824,-404.954"/>
</g>
<!-- skull_strip_extern (interfaces)&#45;&gt;autorecon_resume_wf -->
<g id="edge14" class="edge">
<title>skull_strip_extern (interfaces)&#45;&gt;autorecon_resume_wf</title>
<path fill="none" stroke="#000000" d="M474.9058,-288.2022C464.8026,-279.2217 452.3923,-268.1902 441.4107,-258.4289"/>
<polygon fill="#000000" stroke="#000000" points="443.5198,-255.6208 433.7204,-251.593 438.8692,-260.8526 443.5198,-255.6208"/>
</g>
<!-- gifti_surface_wf -->
<g id="node11" class="node">
<title>gifti_surface_wf</title>
<ellipse fill="none" stroke="#000000" cx="229.9283" cy="-162" rx="70.6878" ry="18"/>
<text text-anchor="middle" x="229.9283" y="-158.3" font-family="Times,serif" font-size="14.00" fill="#000000">gifti_surface_wf</text>
</g>
<!-- fsnative2t1w_xfm (interfaces)&#45;&gt;gifti_surface_wf -->
<g id="edge15" class="edge">
<title>fsnative2t1w_xfm (interfaces)&#45;&gt;gifti_surface_wf</title>
<path fill="none" stroke="#000000" d="M155.4002,-216.2022C168.2978,-206.8221 184.2718,-195.2047 198.1191,-185.134"/>
<polygon fill="#000000" stroke="#000000" points="200.3908,-187.8096 206.4196,-179.0972 196.2736,-182.1484 200.3908,-187.8096"/>
</g>
<!-- outputnode (utility) -->
<g id="node12" class="node">
<title>outputnode (utility)</title>
<ellipse fill="none" stroke="#000000" cx="328.9283" cy="-18" rx="81.7856" ry="18"/>
<text text-anchor="middle" x="328.9283" y="-14.3" font-family="Times,serif" font-size="14.00" fill="#000000">outputnode (utility)</text>
</g>
<!-- fsnative2t1w_xfm (interfaces)&#45;&gt;outputnode (utility) -->
<g id="edge17" class="edge">
<title>fsnative2t1w_xfm (interfaces)&#45;&gt;outputnode (utility)</title>
<path fill="none" stroke="#000000" d="M101.2427,-216.3939C53.6247,-186.0022 -30.3891,-122.1356 11.9283,-72 26.881,-54.2847 155.8782,-36.8252 244.6359,-26.7471"/>
<polygon fill="#000000" stroke="#000000" points="245.1632,-30.21 254.7098,-25.6152 244.3815,-23.2538 245.1632,-30.21"/>
</g>
<!-- t1w2fsnative_xfm (interfaces) -->
<g id="node13" class="node">
<title>t1w2fsnative_xfm (interfaces)</title>
<ellipse fill="none" stroke="#000000" cx="141.9283" cy="-90" rx="120.7786" ry="18"/>
<text text-anchor="middle" x="141.9283" y="-86.3" font-family="Times,serif" font-size="14.00" fill="#000000">t1w2fsnative_xfm (interfaces)</text>
</g>
<!-- fsnative2t1w_xfm (interfaces)&#45;&gt;t1w2fsnative_xfm (interfaces) -->
<g id="edge16" class="edge">
<title>fsnative2t1w_xfm (interfaces)&#45;&gt;t1w2fsnative_xfm (interfaces)</title>
<path fill="none" stroke="#000000" d="M132.3214,-215.7623C134.1976,-191.201 137.5552,-147.2474 139.7623,-118.3541"/>
<polygon fill="#000000" stroke="#000000" points="143.2745,-118.3272 140.5464,-108.0896 136.2948,-117.794 143.2745,-118.3272"/>
</g>
<!-- refine (interfaces)&#45;&gt;outputnode (utility) -->
<g id="edge18" class="edge">
<title>refine (interfaces)&#45;&gt;outputnode (utility)</title>
<path fill="none" stroke="#000000" d="M623.59,-78.2717C562.1633,-65.7072 464.64,-45.7592 398.7771,-32.2873"/>
<polygon fill="#000000" stroke="#000000" points="399.392,-28.8406 388.8934,-30.2656 397.9892,-35.6986 399.392,-28.8406"/>
</g>
<!-- segs_to_native_aseg&#45;&gt;refine (interfaces) -->
<g id="edge19" class="edge">
<title>segs_to_native_aseg&#45;&gt;refine (interfaces)</title>
<path fill="none" stroke="#000000" d="M680.9283,-143.8314C680.9283,-136.131 680.9283,-126.9743 680.9283,-118.4166"/>
<polygon fill="#000000" stroke="#000000" points="684.4284,-118.4132 680.9283,-108.4133 677.4284,-118.4133 684.4284,-118.4132"/>
</g>
<!-- segs_to_native_aseg&#45;&gt;outputnode (utility) -->
<g id="edge20" class="edge">
<title>segs_to_native_aseg&#45;&gt;outputnode (utility)</title>
<path fill="none" stroke="#000000" d="M641.574,-145.9005C576.7212,-119.3698 447.5914,-66.544 377.2795,-37.78"/>
<polygon fill="#000000" stroke="#000000" points="378.342,-34.4332 367.7613,-33.8862 375.6916,-40.9121 378.342,-34.4332"/>
</g>
<!-- segs_to_native_aparc_aseg&#45;&gt;outputnode (utility) -->
<g id="edge21" class="edge">
<title>segs_to_native_aparc_aseg&#45;&gt;outputnode (utility)</title>
<path fill="none" stroke="#000000" d="M449.7295,-144.0535C425.3217,-118.5844 380.5344,-71.8499 352.8852,-42.9986"/>
<polygon fill="#000000" stroke="#000000" points="355.3563,-40.5186 345.9103,-35.7204 350.3024,-45.3619 355.3563,-40.5186"/>
</g>
<!-- autorecon_resume_wf&#45;&gt;segs_to_native_aseg -->
<g id="edge23" class="edge">
<title>autorecon_resume_wf&#45;&gt;segs_to_native_aseg</title>
<path fill="none" stroke="#000000" d="M467.9597,-219.4297C511.4003,-207.7154 572.4914,-191.2414 618.1096,-178.9399"/>
<polygon fill="#000000" stroke="#000000" points="619.1446,-182.2859 627.8884,-176.3029 617.322,-175.5273 619.1446,-182.2859"/>
</g>
<!-- autorecon_resume_wf&#45;&gt;segs_to_native_aparc_aseg -->
<g id="edge24" class="edge">
<title>autorecon_resume_wf&#45;&gt;segs_to_native_aparc_aseg</title>
<path fill="none" stroke="#000000" d="M427.3024,-215.8314C433.5007,-207.411 440.9807,-197.2495 447.7645,-188.0338"/>
<polygon fill="#000000" stroke="#000000" points="450.6325,-190.0417 453.742,-179.9134 444.9951,-185.8919 450.6325,-190.0417"/>
</g>
<!-- autorecon_resume_wf&#45;&gt;gifti_surface_wf -->
<g id="edge22" class="edge">
<title>autorecon_resume_wf&#45;&gt;gifti_surface_wf</title>
<path fill="none" stroke="#000000" d="M372.6351,-217.8418C344.6479,-206.8903 307.5561,-192.3761 278.2027,-180.89"/>
<polygon fill="#000000" stroke="#000000" points="279.1569,-177.505 268.569,-177.1203 276.606,-184.0237 279.1569,-177.505"/>
</g>
<!-- autorecon_resume_wf&#45;&gt;outputnode (utility) -->
<g id="edge25" class="edge">
<title>autorecon_resume_wf&#45;&gt;outputnode (utility)</title>
<path fill="none" stroke="#000000" d="M384.0419,-216.9661C370.7473,-207.7788 356.2465,-195.1937 347.9283,-180 324.8591,-137.8632 324.0207,-80.4342 326.0803,-46.4829"/>
<polygon fill="#000000" stroke="#000000" points="329.5837,-46.5636 326.8263,-36.3339 322.6025,-46.0504 329.5837,-46.5636"/>
</g>
<!-- gifti_surface_wf&#45;&gt;outputnode (utility) -->
<g id="edge26" class="edge">
<title>gifti_surface_wf&#45;&gt;outputnode (utility)</title>
<path fill="none" stroke="#000000" d="M244.3704,-144.3271C252.6844,-133.9361 263.1844,-120.4361 271.9283,-108 286.5128,-87.257 301.8243,-62.9184 312.901,-44.7849"/>
<polygon fill="#000000" stroke="#000000" points="316.085,-46.2846 318.2812,-35.9198 310.1008,-42.6528 316.085,-46.2846"/>
</g>
<!-- t1w2fsnative_xfm (interfaces)&#45;&gt;outputnode (utility) -->
<g id="edge27" class="edge">
<title>t1w2fsnative_xfm (interfaces)&#45;&gt;outputnode (utility)</title>
<path fill="none" stroke="#000000" d="M185.7714,-73.1192C213.6071,-62.4017 249.7146,-48.4994 278.7022,-37.3384"/>
<polygon fill="#000000" stroke="#000000" points="280.1631,-40.5264 288.2377,-33.667 277.6479,-33.9939 280.1631,-40.5264"/>
</g>
</g>
</svg>
