<?xml version="1.0" encoding="UTF-8" standalone="no"?>
<!DOCTYPE svg PUBLIC "-//W3C//DTD SVG 1.1//EN"
 "http://www.w3.org/Graphics/SVG/1.1/DTD/svg11.dtd">
<!-- Generated by graphviz version 2.40.1 (20161225.0304)
 -->
<!-- Title: %3 Pages: 1 -->
<svg width="770pt" height="692pt"
 viewBox="0.00 0.00 770.00 692.00" xmlns="http://www.w3.org/2000/svg" xmlns:xlink="http://www.w3.org/1999/xlink">
<g id="graph0" class="graph" transform="scale(1 1) rotate(0) translate(4 688)">
<title>%3</title>
<polygon fill="#ffffff" stroke="transparent" points="-4,4 -4,-688 766,-688 766,4 -4,4"/>
<!-- outputnode (utility) -->
<g id="node1" class="node">
<title>outputnode (utility)</title>
<ellipse fill="none" stroke="#000000" cx="228" cy="-90" rx="81.7856" ry="18"/>
<text text-anchor="middle" x="228" y="-86.3" font-family="Times,serif" font-size="14.00" fill="#000000">outputnode (utility)</text>
</g>
<!-- anat_reports_wf -->
<g id="node2" class="node">
<title>anat_reports_wf</title>
<ellipse fill="none" stroke="#000000" cx="76" cy="-18" rx="69.5877" ry="18"/>
<text text-anchor="middle" x="76" y="-14.3" font-family="Times,serif" font-size="14.00" fill="#000000">anat_reports_wf</text>
</g>
<!-- outputnode (utility)&#45;&gt;anat_reports_wf -->
<g id="edge1" class="edge">
<title>outputnode (utility)&#45;&gt;anat_reports_wf</title>
<path fill="none" stroke="#000000" d="M193.5088,-73.6621C171.3163,-63.1498 142.312,-49.4109 118.6722,-38.2132"/>
<polygon fill="#000000" stroke="#000000" points="120.1059,-35.0195 109.5702,-33.9017 117.1093,-41.3457 120.1059,-35.0195"/>
</g>
<!-- anat_derivatives_wf -->
<g id="node3" class="node">
<title>anat_derivatives_wf</title>
<ellipse fill="none" stroke="#000000" cx="636" cy="-18" rx="84.485" ry="18"/>
<text text-anchor="middle" x="636" y="-14.3" font-family="Times,serif" font-size="14.00" fill="#000000">anat_derivatives_wf</text>
</g>
<!-- outputnode (utility)&#45;&gt;anat_derivatives_wf -->
<g id="edge2" class="edge">
<title>outputnode (utility)&#45;&gt;anat_derivatives_wf</title>
<path fill="none" stroke="#000000" d="M292.1988,-78.6708C365.0053,-65.8226 483.5873,-44.8964 560.699,-31.2884"/>
<polygon fill="#000000" stroke="#000000" points="561.5872,-34.6858 570.8268,-29.5012 560.3707,-27.7923 561.5872,-34.6858"/>
</g>
<!-- inputnode (utility) -->
<g id="node4" class="node">
<title>inputnode (utility)</title>
<ellipse fill="none" stroke="#000000" cx="372" cy="-666" rx="77.1866" ry="18"/>
<text text-anchor="middle" x="372" y="-662.3" font-family="Times,serif" font-size="14.00" fill="#000000">inputnode (utility)</text>
</g>
<!-- inputnode (utility)&#45;&gt;anat_reports_wf -->
<g id="edge5" class="edge">
<title>inputnode (utility)&#45;&gt;anat_reports_wf</title>
<path fill="none" stroke="#000000" d="M309.7356,-655.1809C203.8363,-634.9947 0,-587.6174 0,-522 0,-522 0,-522 0,-162 0,-116.1436 30.5166,-70.5817 52.875,-43.354"/>
<polygon fill="#000000" stroke="#000000" points="55.7222,-45.4075 59.5091,-35.5126 50.3782,-40.8863 55.7222,-45.4075"/>
</g>
<!-- anat_template_wf -->
<g id="node5" class="node">
<title>anat_template_wf</title>
<ellipse fill="none" stroke="#000000" cx="288" cy="-594" rx="76.0865" ry="18"/>
<text text-anchor="middle" x="288" y="-590.3" font-family="Times,serif" font-size="14.00" fill="#000000">anat_template_wf</text>
</g>
<!-- inputnode (utility)&#45;&gt;anat_template_wf -->
<g id="edge3" class="edge">
<title>inputnode (utility)&#45;&gt;anat_template_wf</title>
<path fill="none" stroke="#000000" d="M351.6659,-648.5708C341.0142,-639.4408 327.8023,-628.1163 316.1796,-618.1539"/>
<polygon fill="#000000" stroke="#000000" points="318.3083,-615.3688 308.4379,-611.5182 313.7528,-620.6836 318.3083,-615.3688"/>
</g>
<!-- anat_norm_wf -->
<g id="node6" class="node">
<title>anat_norm_wf</title>
<ellipse fill="none" stroke="#000000" cx="457" cy="-162" rx="63.8893" ry="18"/>
<text text-anchor="middle" x="457" y="-158.3" font-family="Times,serif" font-size="14.00" fill="#000000">anat_norm_wf</text>
</g>
<!-- inputnode (utility)&#45;&gt;anat_norm_wf -->
<g id="edge4" class="edge">
<title>inputnode (utility)&#45;&gt;anat_norm_wf</title>
<path fill="none" stroke="#000000" d="M425.9785,-653.0348C515.7558,-629.8817 686,-578.5246 686,-522 686,-522 686,-522 686,-306 686,-262.9187 682.0584,-244.7795 650,-216 630.8642,-198.8214 569.4805,-183.4773 521.0174,-173.5766"/>
<polygon fill="#000000" stroke="#000000" points="521.6959,-170.1431 511.203,-171.609 520.3199,-177.0065 521.6959,-170.1431"/>
</g>
<!-- surface_recon_wf -->
<g id="node7" class="node">
<title>surface_recon_wf</title>
<ellipse fill="none" stroke="#000000" cx="424" cy="-378" rx="76.0865" ry="18"/>
<text text-anchor="middle" x="424" y="-374.3" font-family="Times,serif" font-size="14.00" fill="#000000">surface_recon_wf</text>
</g>
<!-- inputnode (utility)&#45;&gt;surface_recon_wf -->
<g id="edge6" class="edge">
<title>inputnode (utility)&#45;&gt;surface_recon_wf</title>
<path fill="none" stroke="#000000" d="M376.4937,-647.7212C382.4027,-623.2818 392.8685,-578.5612 400,-540 408.6404,-493.2798 416.2271,-438.525 420.4539,-406.133"/>
<polygon fill="#000000" stroke="#000000" points="423.9465,-406.4149 421.7552,-396.0491 417.004,-405.5189 423.9465,-406.4149"/>
</g>
<!-- anat_template_wf&#45;&gt;outputnode (utility) -->
<g id="edge8" class="edge">
<title>anat_template_wf&#45;&gt;outputnode (utility)</title>
<path fill="none" stroke="#000000" d="M232.0222,-581.6969C169.2128,-564.2068 76,-525.5273 76,-450 76,-450 76,-450 76,-378 76,-267.3512 96.6707,-234.0272 161,-144 169.3056,-132.3765 180.7548,-121.902 191.8402,-113.3399"/>
<polygon fill="#000000" stroke="#000000" points="194.2212,-115.9327 200.1882,-107.1779 190.064,-110.3008 194.2212,-115.9327"/>
</g>
<!-- anat_template_wf&#45;&gt;anat_reports_wf -->
<g id="edge9" class="edge">
<title>anat_template_wf&#45;&gt;anat_reports_wf</title>
<path fill="none" stroke="#000000" d="M217.84,-586.8541C178.6081,-579.9739 130.5953,-566.4758 95,-540 57.0093,-511.7425 38,-497.3474 38,-450 38,-450 38,-450 38,-162 38,-120.3681 53.0328,-74.14 64.1881,-45.567"/>
<polygon fill="#000000" stroke="#000000" points="67.4578,-46.817 67.9412,-36.2332 60.9632,-44.2055 67.4578,-46.817"/>
</g>
<!-- anat_template_wf&#45;&gt;anat_derivatives_wf -->
<g id="edge10" class="edge">
<title>anat_template_wf&#45;&gt;anat_derivatives_wf</title>
<path fill="none" stroke="#000000" d="M351.5385,-584.09C425.4888,-569.7367 547.8127,-536.9329 629,-468 720.1892,-390.5749 762,-353.6249 762,-234 762,-234 762,-234 762,-162 762,-108.3348 711.8237,-65.0561 674.7987,-40.426"/>
<polygon fill="#000000" stroke="#000000" points="676.4807,-37.346 666.1801,-34.8661 672.686,-43.2282 676.4807,-37.346"/>
</g>
<!-- anat_validate (interfaces) -->
<g id="node8" class="node">
<title>anat_validate (interfaces)</title>
<ellipse fill="none" stroke="#000000" cx="288" cy="-522" rx="102.8821" ry="18"/>
<text text-anchor="middle" x="288" y="-518.3" font-family="Times,serif" font-size="14.00" fill="#000000">anat_validate (interfaces)</text>
</g>
<!-- anat_template_wf&#45;&gt;anat_validate (interfaces) -->
<g id="edge7" class="edge">
<title>anat_template_wf&#45;&gt;anat_validate (interfaces)</title>
<path fill="none" stroke="#000000" d="M288,-575.8314C288,-568.131 288,-558.9743 288,-550.4166"/>
<polygon fill="#000000" stroke="#000000" points="291.5001,-550.4132 288,-540.4133 284.5001,-550.4133 291.5001,-550.4132"/>
</g>
<!-- anat_norm_wf&#45;&gt;outputnode (utility) -->
<g id="edge11" class="edge">
<title>anat_norm_wf&#45;&gt;outputnode (utility)</title>
<path fill="none" stroke="#000000" d="M414.1955,-148.5418C377.5997,-137.0357 324.6537,-120.3889 284.5687,-107.7858"/>
<polygon fill="#000000" stroke="#000000" points="285.5214,-104.4165 274.932,-104.7559 283.4218,-111.0942 285.5214,-104.4165"/>
</g>
<!-- anat_norm_wf&#45;&gt;anat_reports_wf -->
<g id="edge12" class="edge">
<title>anat_norm_wf&#45;&gt;anat_reports_wf</title>
<path fill="none" stroke="#000000" d="M435.9163,-144.7384C409.9681,-124.3589 363.8194,-90.8588 319,-72 264.3114,-48.9885 198.3915,-35.1278 149.0159,-27.2213"/>
<polygon fill="#000000" stroke="#000000" points="149.475,-23.7507 139.0556,-25.6709 148.3983,-30.6674 149.475,-23.7507"/>
</g>
<!-- anat_norm_wf&#45;&gt;anat_derivatives_wf -->
<g id="edge13" class="edge">
<title>anat_norm_wf&#45;&gt;anat_derivatives_wf</title>
<path fill="none" stroke="#000000" d="M478.2366,-144.9158C509.9584,-119.3966 569.8484,-71.217 606.0179,-42.1197"/>
<polygon fill="#000000" stroke="#000000" points="608.635,-44.5063 614.2328,-35.511 604.2473,-39.0521 608.635,-44.5063"/>
</g>
<!-- surface_recon_wf&#45;&gt;outputnode (utility) -->
<g id="edge16" class="edge">
<title>surface_recon_wf&#45;&gt;outputnode (utility)</title>
<path fill="none" stroke="#000000" d="M357.8472,-369.1141C305.2932,-360.5486 237.9044,-345.6759 221,-324 173.9628,-263.6862 199.8647,-165.5936 216.8864,-117.8602"/>
<polygon fill="#000000" stroke="#000000" points="220.2726,-118.7943 220.4576,-108.2011 213.7069,-116.3668 220.2726,-118.7943"/>
</g>
<!-- surface_recon_wf&#45;&gt;anat_reports_wf -->
<g id="edge18" class="edge">
<title>surface_recon_wf&#45;&gt;anat_reports_wf</title>
<path fill="none" stroke="#000000" d="M358.129,-369.0031C300.5806,-359.9475 222.6441,-344.4081 199,-324 112.9299,-249.7095 86.3787,-106.5525 78.798,-46.0678"/>
<polygon fill="#000000" stroke="#000000" points="82.27,-45.6241 77.6289,-36.1 75.3177,-46.4396 82.27,-45.6241"/>
</g>
<!-- surface_recon_wf&#45;&gt;anat_derivatives_wf -->
<g id="edge19" class="edge">
<title>surface_recon_wf&#45;&gt;anat_derivatives_wf</title>
<path fill="none" stroke="#000000" d="M487.9541,-368.0359C527.8976,-360.0192 579.4473,-346.3156 621,-324 674.5568,-295.2377 724,-294.7915 724,-234 724,-234 724,-234 724,-162 724,-114.8006 689.1517,-69.9807 663.3144,-43.2367"/>
<polygon fill="#000000" stroke="#000000" points="665.505,-40.4764 655.9686,-35.8603 660.5449,-45.4158 665.505,-40.4764"/>
</g>
<!-- applyrefined (fsl) -->
<g id="node10" class="node">
<title>applyrefined (fsl)</title>
<ellipse fill="none" stroke="#000000" cx="539" cy="-306" rx="73.387" ry="18"/>
<text text-anchor="middle" x="539" y="-302.3" font-family="Times,serif" font-size="14.00" fill="#000000">applyrefined (fsl)</text>
</g>
<!-- surface_recon_wf&#45;&gt;applyrefined (fsl) -->
<g id="edge14" class="edge">
<title>surface_recon_wf&#45;&gt;applyrefined (fsl)</title>
<path fill="none" stroke="#000000" d="M450.9624,-361.1192C466.6787,-351.2794 486.6828,-338.7551 503.6496,-328.1324"/>
<polygon fill="#000000" stroke="#000000" points="505.588,-331.0482 512.2065,-322.775 501.8733,-325.1151 505.588,-331.0482"/>
</g>
<!-- buffernode (utility) -->
<g id="node11" class="node">
<title>buffernode (utility)</title>
<ellipse fill="none" stroke="#000000" cx="539" cy="-234" rx="80.6858" ry="18"/>
<text text-anchor="middle" x="539" y="-230.3" font-family="Times,serif" font-size="14.00" fill="#000000">buffernode (utility)</text>
</g>
<!-- surface_recon_wf&#45;&gt;buffernode (utility) -->
<g id="edge17" class="edge">
<title>surface_recon_wf&#45;&gt;buffernode (utility)</title>
<path fill="none" stroke="#000000" d="M427.1563,-359.7729C431.2757,-340.313 440.0525,-309.394 457,-288 467.2454,-275.0666 481.4664,-264.1934 495.1919,-255.6715"/>
<polygon fill="#000000" stroke="#000000" points="497.2635,-258.5128 504.0931,-250.413 493.703,-252.486 497.2635,-258.5128"/>
</g>
<!-- lut_t1w_dseg (utility) -->
<g id="node12" class="node">
<title>lut_t1w_dseg (utility)</title>
<ellipse fill="none" stroke="#000000" cx="320" cy="-306" rx="89.8845" ry="18"/>
<text text-anchor="middle" x="320" y="-302.3" font-family="Times,serif" font-size="14.00" fill="#000000">lut_t1w_dseg (utility)</text>
</g>
<!-- surface_recon_wf&#45;&gt;lut_t1w_dseg (utility) -->
<g id="edge15" class="edge">
<title>surface_recon_wf&#45;&gt;lut_t1w_dseg (utility)</title>
<path fill="none" stroke="#000000" d="M399.3535,-360.937C385.6958,-351.4817 368.5187,-339.5899 353.6417,-329.2904"/>
<polygon fill="#000000" stroke="#000000" points="355.4063,-326.2551 345.1921,-323.4407 351.4218,-332.0105 355.4063,-326.2551"/>
</g>
<!-- anat_validate (interfaces)&#45;&gt;surface_recon_wf -->
<g id="edge21" class="edge">
<title>anat_validate (interfaces)&#45;&gt;surface_recon_wf</title>
<path fill="none" stroke="#000000" d="M304.9495,-504.0535C329.0036,-478.5844 373.1418,-431.8499 400.3902,-402.9986"/>
<polygon fill="#000000" stroke="#000000" points="402.9424,-405.3937 407.2641,-395.7204 397.8533,-400.5873 402.9424,-405.3937"/>
</g>
<!-- brain_extraction_wf -->
<g id="node9" class="node">
<title>brain_extraction_wf</title>
<ellipse fill="none" stroke="#000000" cx="536" cy="-450" rx="84.485" ry="18"/>
<text text-anchor="middle" x="536" y="-446.3" font-family="Times,serif" font-size="14.00" fill="#000000">brain_extraction_wf</text>
</g>
<!-- anat_validate (interfaces)&#45;&gt;brain_extraction_wf -->
<g id="edge20" class="edge">
<title>anat_validate (interfaces)&#45;&gt;brain_extraction_wf</title>
<path fill="none" stroke="#000000" d="M341.2022,-506.5542C380.8626,-495.0399 435.0544,-479.3068 476.2119,-467.3578"/>
<polygon fill="#000000" stroke="#000000" points="477.2174,-470.7105 485.845,-464.5611 475.2657,-463.9881 477.2174,-470.7105"/>
</g>
<!-- brain_extraction_wf&#45;&gt;outputnode (utility) -->
<g id="edge22" class="edge">
<title>brain_extraction_wf&#45;&gt;outputnode (utility)</title>
<path fill="none" stroke="#000000" d="M468.6729,-439.0044C358.5433,-419.0925 152,-372.839 152,-306 152,-306 152,-306 152,-234 152,-188.3998 182.1766,-143.0908 204.4995,-115.812"/>
<polygon fill="#000000" stroke="#000000" points="207.3627,-117.8459 211.1331,-107.9447 202.0112,-113.3336 207.3627,-117.8459"/>
</g>
<!-- brain_extraction_wf&#45;&gt;anat_norm_wf -->
<g id="edge23" class="edge">
<title>brain_extraction_wf&#45;&gt;anat_norm_wf</title>
<path fill="none" stroke="#000000" d="M553.9383,-432.3537C593.5788,-391.2056 681.1305,-287.0058 629,-216 615.8114,-198.0361 564.0712,-183.348 520.7515,-173.85"/>
<polygon fill="#000000" stroke="#000000" points="521.3142,-170.3914 510.8038,-171.7259 519.8524,-177.237 521.3142,-170.3914"/>
</g>
<!-- brain_extraction_wf&#45;&gt;surface_recon_wf -->
<g id="edge24" class="edge">
<title>brain_extraction_wf&#45;&gt;surface_recon_wf</title>
<path fill="none" stroke="#000000" d="M509.1732,-432.7542C494.2119,-423.1362 475.3961,-411.0403 459.2571,-400.6653"/>
<polygon fill="#000000" stroke="#000000" points="460.9124,-397.5686 450.6079,-395.1051 457.127,-403.4568 460.9124,-397.5686"/>
</g>
<!-- brain_extraction_wf&#45;&gt;applyrefined (fsl) -->
<g id="edge25" class="edge">
<title>brain_extraction_wf&#45;&gt;applyrefined (fsl)</title>
<path fill="none" stroke="#000000" d="M536.38,-431.7623C536.8916,-407.201 537.8073,-363.2474 538.4093,-334.3541"/>
<polygon fill="#000000" stroke="#000000" points="541.914,-334.1604 538.6231,-324.0896 534.9155,-334.0145 541.914,-334.1604"/>
</g>
<!-- applyrefined (fsl)&#45;&gt;buffernode (utility) -->
<g id="edge26" class="edge">
<title>applyrefined (fsl)&#45;&gt;buffernode (utility)</title>
<path fill="none" stroke="#000000" d="M539,-287.8314C539,-280.131 539,-270.9743 539,-262.4166"/>
<polygon fill="#000000" stroke="#000000" points="542.5001,-262.4132 539,-252.4133 535.5001,-262.4133 542.5001,-262.4132"/>
</g>
<!-- buffernode (utility)&#45;&gt;outputnode (utility) -->
<g id="edge27" class="edge">
<title>buffernode (utility)&#45;&gt;outputnode (utility)</title>
<path fill="none" stroke="#000000" d="M490.2536,-219.6154C459.2561,-209.8378 418.5908,-195.833 384,-180 340.7866,-160.2202 293.8945,-132.2014 262.9257,-112.7"/>
<polygon fill="#000000" stroke="#000000" points="264.5583,-109.5908 254.239,-107.19 260.8088,-115.502 264.5583,-109.5908"/>
</g>
<!-- buffernode (utility)&#45;&gt;anat_norm_wf -->
<g id="edge28" class="edge">
<title>buffernode (utility)&#45;&gt;anat_norm_wf</title>
<path fill="none" stroke="#000000" d="M518.7303,-216.2022C508.4261,-207.1546 495.7512,-196.0255 484.5731,-186.2105"/>
<polygon fill="#000000" stroke="#000000" points="486.5773,-183.3126 476.7536,-179.3446 481.9587,-188.5727 486.5773,-183.3126"/>
</g>
<!-- lut_t1w_dseg (utility)&#45;&gt;outputnode (utility) -->
<g id="edge30" class="edge">
<title>lut_t1w_dseg (utility)&#45;&gt;outputnode (utility)</title>
<path fill="none" stroke="#000000" d="M286.2326,-289.1749C271.7461,-280.1744 256.0916,-267.6844 247,-252 222.9089,-210.439 222.403,-152.8227 224.8031,-118.6795"/>
<polygon fill="#000000" stroke="#000000" points="228.3114,-118.7262 225.6583,-108.469 221.3358,-118.1419 228.3114,-118.7262"/>
</g>
<!-- lut_t1w_dseg (utility)&#45;&gt;anat_norm_wf -->
<g id="edge29" class="edge">
<title>lut_t1w_dseg (utility)&#45;&gt;anat_norm_wf</title>
<path fill="none" stroke="#000000" d="M357.8864,-289.6197C375.6691,-280.5117 396.1625,-267.804 411,-252 427.876,-234.0248 440.0842,-208.6692 447.6647,-189.4497"/>
<polygon fill="#000000" stroke="#000000" points="450.9631,-190.6221 451.2073,-180.03 444.4111,-188.158 450.9631,-190.6221"/>
</g>
<!-- split_seg (utility) -->
<g id="node13" class="node">
<title>split_seg (utility)</title>
<ellipse fill="none" stroke="#000000" cx="329" cy="-234" rx="73.387" ry="18"/>
<text text-anchor="middle" x="329" y="-230.3" font-family="Times,serif" font-size="14.00" fill="#000000">split_seg (utility)</text>
</g>
<!-- lut_t1w_dseg (utility)&#45;&gt;split_seg (utility) -->
<g id="edge31" class="edge">
<title>lut_t1w_dseg (utility)&#45;&gt;split_seg (utility)</title>
<path fill="none" stroke="#000000" d="M322.2711,-287.8314C323.2336,-280.131 324.3782,-270.9743 325.4479,-262.4166"/>
<polygon fill="#000000" stroke="#000000" points="328.9309,-262.7702 326.6983,-252.4133 321.9849,-261.9019 328.9309,-262.7702"/>
</g>
<!-- split_seg (utility)&#45;&gt;outputnode (utility) -->
<g id="edge33" class="edge">
<title>split_seg (utility)&#45;&gt;outputnode (utility)</title>
<path fill="none" stroke="#000000" d="M316.4125,-216.0535C298.8727,-191.0462 266.9534,-145.5376 246.6467,-116.5853"/>
<polygon fill="#000000" stroke="#000000" points="249.3539,-114.3499 240.7461,-108.1727 243.623,-118.3695 249.3539,-114.3499"/>
</g>
<!-- split_seg (utility)&#45;&gt;anat_norm_wf -->
<g id="edge32" class="edge">
<title>split_seg (utility)&#45;&gt;anat_norm_wf</title>
<path fill="none" stroke="#000000" d="M358.3658,-217.4817C376.4616,-207.3029 399.8437,-194.1504 419.3,-183.2062"/>
<polygon fill="#000000" stroke="#000000" points="421.2122,-186.1464 428.212,-178.1933 417.7803,-180.0454 421.2122,-186.1464"/>
</g>
</g>
</svg>
