<?xml version="1.0" encoding="UTF-8" standalone="no"?>
<!DOCTYPE svg PUBLIC "-//W3C//DTD SVG 1.1//EN"
 "http://www.w3.org/Graphics/SVG/1.1/DTD/svg11.dtd">
<!-- Generated by graphviz version 2.40.1 (20161225.0304)
 -->
<!-- Title: %3 Pages: 1 -->
<svg width="320pt" height="332pt"
 viewBox="0.00 0.00 319.78 332.00" xmlns="http://www.w3.org/2000/svg" xmlns:xlink="http://www.w3.org/1999/xlink">
<g id="graph0" class="graph" transform="scale(1 1) rotate(0) translate(4 328)">
<title>%3</title>
<polygon fill="#ffffff" stroke="transparent" points="-4,4 -4,-328 315.7832,-328 315.7832,4 -4,4"/>
<!-- inputnode (utility) -->
<g id="node1" class="node">
<title>inputnode (utility)</title>
<ellipse fill="none" stroke="#000000" cx="132.293" cy="-306" rx="77.1866" ry="18"/>
<text text-anchor="middle" x="132.293" y="-302.3" font-family="Times,serif" font-size="14.00" fill="#000000">inputnode (utility)</text>
</g>
<!-- merge (interfaces) -->
<g id="node2" class="node">
<title>merge (interfaces)</title>
<ellipse fill="none" stroke="#000000" cx="132.293" cy="-162" rx="77.1866" ry="18"/>
<text text-anchor="middle" x="132.293" y="-158.3" font-family="Times,serif" font-size="14.00" fill="#000000">merge (interfaces)</text>
</g>
<!-- inputnode (utility)&#45;&gt;merge (interfaces) -->
<g id="edge1" class="edge">
<title>inputnode (utility)&#45;&gt;merge (interfaces)</title>
<path fill="none" stroke="#000000" d="M109.6886,-288.5584C99.2229,-279.0325 87.8869,-266.2751 82.293,-252 76.4553,-237.103 76.4553,-230.897 82.293,-216 86.5758,-205.0707 94.2246,-195.0309 102.2716,-186.65"/>
<polygon fill="#000000" stroke="#000000" points="104.9567,-188.921 109.6886,-179.4416 100.078,-183.9012 104.9567,-188.921"/>
</g>
<!-- bold_transform (interfaces) -->
<g id="node3" class="node">
<title>bold_transform (interfaces)</title>
<ellipse fill="none" stroke="#000000" cx="201.293" cy="-234" rx="110.4804" ry="18"/>
<text text-anchor="middle" x="201.293" y="-230.3" font-family="Times,serif" font-size="14.00" fill="#000000">bold_transform (interfaces)</text>
</g>
<!-- inputnode (utility)&#45;&gt;bold_transform (interfaces) -->
<g id="edge2" class="edge">
<title>inputnode (utility)&#45;&gt;bold_transform (interfaces)</title>
<path fill="none" stroke="#000000" d="M149.3491,-288.2022C157.7255,-279.4617 167.9635,-268.7786 177.1291,-259.2144"/>
<polygon fill="#000000" stroke="#000000" points="179.8017,-261.4841 184.1939,-251.8425 174.7478,-256.6408 179.8017,-261.4841"/>
</g>
<!-- bold_reference_wf -->
<g id="node4" class="node">
<title>bold_reference_wf</title>
<ellipse fill="none" stroke="#000000" cx="79.293" cy="-90" rx="79.0865" ry="18"/>
<text text-anchor="middle" x="79.293" y="-86.3" font-family="Times,serif" font-size="14.00" fill="#000000">bold_reference_wf</text>
</g>
<!-- merge (interfaces)&#45;&gt;bold_reference_wf -->
<g id="edge3" class="edge">
<title>merge (interfaces)&#45;&gt;bold_reference_wf</title>
<path fill="none" stroke="#000000" d="M119.1918,-144.2022C112.949,-135.7214 105.3598,-125.4115 98.4831,-116.0696"/>
<polygon fill="#000000" stroke="#000000" points="101.174,-113.8211 92.4271,-107.8425 95.5366,-117.9708 101.174,-113.8211"/>
</g>
<!-- outputnode (utility) -->
<g id="node5" class="node">
<title>outputnode (utility)</title>
<ellipse fill="none" stroke="#000000" cx="132.293" cy="-18" rx="81.7856" ry="18"/>
<text text-anchor="middle" x="132.293" y="-14.3" font-family="Times,serif" font-size="14.00" fill="#000000">outputnode (utility)</text>
</g>
<!-- merge (interfaces)&#45;&gt;outputnode (utility) -->
<g id="edge4" class="edge">
<title>merge (interfaces)&#45;&gt;outputnode (utility)</title>
<path fill="none" stroke="#000000" d="M147.4795,-144.3306C155.0299,-134.3691 163.3643,-121.2845 167.293,-108 171.8304,-92.6569 171.8304,-87.3431 167.293,-72 164.4242,-62.2994 159.2062,-52.7055 153.6597,-44.3563"/>
<polygon fill="#000000" stroke="#000000" points="156.4838,-42.2881 147.8454,-36.1538 150.773,-46.3362 156.4838,-42.2881"/>
</g>
<!-- bold_transform (interfaces)&#45;&gt;merge (interfaces) -->
<g id="edge5" class="edge">
<title>bold_transform (interfaces)&#45;&gt;merge (interfaces)</title>
<path fill="none" stroke="#000000" d="M184.2368,-216.2022C175.7975,-207.396 165.4684,-196.6179 156.2502,-186.9989"/>
<polygon fill="#000000" stroke="#000000" points="158.599,-184.3913 149.153,-179.593 153.5451,-189.2346 158.599,-184.3913"/>
</g>
<!-- bold_reference_wf&#45;&gt;outputnode (utility) -->
<g id="edge6" class="edge">
<title>bold_reference_wf&#45;&gt;outputnode (utility)</title>
<path fill="none" stroke="#000000" d="M92.3941,-72.2022C98.637,-63.7214 106.2261,-53.4115 113.1029,-44.0696"/>
<polygon fill="#000000" stroke="#000000" points="116.0493,-45.9708 119.1589,-35.8425 110.412,-41.8211 116.0493,-45.9708"/>
</g>
</g>
</svg>
