<?xml version="1.0" encoding="UTF-8" standalone="no"?>
<!DOCTYPE svg PUBLIC "-//W3C//DTD SVG 1.1//EN"
 "http://www.w3.org/Graphics/SVG/1.1/DTD/svg11.dtd">
<!-- Generated by graphviz version 2.40.1 (20161225.0304)
 -->
<!-- Title: bold_stc_wf Pages: 1 -->
<svg width="300pt" height="283pt"
 viewBox="0.00 0.00 300.38 283.00" xmlns="http://www.w3.org/2000/svg" xmlns:xlink="http://www.w3.org/1999/xlink">
<g id="graph0" class="graph" transform="scale(1 1) rotate(0) translate(4 279)">
<title>bold_stc_wf</title>
<polygon fill="#ffffff" stroke="transparent" points="-4,4 -4,-279 296.3806,-279 296.3806,4 -4,4"/>
<text text-anchor="middle" x="146.1903" y="-7.8" font-family="Times,serif" font-size="14.00" fill="#000000">bold_stc_wf</text>
<!-- bold_stc_wf_inputnode -->
<g id="node1" class="node">
<title>bold_stc_wf_inputnode</title>
<ellipse fill="#ffffc8" stroke="#000000" cx="119.5894" cy="-257" rx="77.1866" ry="18"/>
<text text-anchor="middle" x="119.5894" y="-253.3" font-family="Times,serif" font-size="14.00" fill="#000000">inputnode (utility)</text>
</g>
<!-- bold_stc_wf_slice_timing_correction -->
<g id="node2" class="node">
<title>bold_stc_wf_slice_timing_correction</title>
<ellipse fill="#ffffc8" stroke="#000000" cx="119.5894" cy="-185" rx="119.6788" ry="18"/>
<text text-anchor="middle" x="119.5894" y="-181.3" font-family="Times,serif" font-size="14.00" fill="#000000">slice_timing_correction (afni)</text>
</g>
<!-- bold_stc_wf_inputnode&#45;&gt;bold_stc_wf_slice_timing_correction -->
<g id="edge1" class="edge">
<title>bold_stc_wf_inputnode&#45;&gt;bold_stc_wf_slice_timing_correction</title>
<path fill="none" stroke="#000000" d="M113.637,-238.8314C112.8866,-231.131 112.6657,-221.9743 112.9743,-213.4166"/>
<polygon fill="#000000" stroke="#000000" points="116.4686,-213.6161 113.6134,-203.4133 109.4828,-213.1697 116.4686,-213.6161"/>
</g>
<!-- bold_stc_wf_inputnode&#45;&gt;bold_stc_wf_slice_timing_correction -->
<g id="edge2" class="edge">
<title>bold_stc_wf_inputnode&#45;&gt;bold_stc_wf_slice_timing_correction</title>
<path fill="none" stroke="#000000" d="M125.5418,-238.8314C126.2922,-231.131 126.5131,-221.9743 126.2045,-213.4166"/>
<polygon fill="#000000" stroke="#000000" points="129.6959,-213.1697 125.5654,-203.4133 122.7102,-213.6161 129.6959,-213.1697"/>
</g>
<!-- bold_stc_wf_copy_xform -->
<g id="node3" class="node">
<title>bold_stc_wf_copy_xform</title>
<ellipse fill="#ffffc8" stroke="#000000" cx="193.5894" cy="-113" rx="98.5829" ry="18"/>
<text text-anchor="middle" x="193.5894" y="-109.3" font-family="Times,serif" font-size="14.00" fill="#000000">copy_xform (interfaces)</text>
</g>
<!-- bold_stc_wf_inputnode&#45;&gt;bold_stc_wf_copy_xform -->
<g id="edge3" class="edge">
<title>bold_stc_wf_inputnode&#45;&gt;bold_stc_wf_copy_xform</title>
<path fill="none" stroke="#000000" d="M182.1569,-246.3494C207.187,-238.6858 233.5917,-225.5368 248.5894,-203 257.4536,-189.6799 254.7801,-181.7538 248.5894,-167 243.8641,-155.7384 235.5176,-145.6433 226.7326,-137.3142"/>
<polygon fill="#000000" stroke="#000000" points="228.791,-134.4624 218.9794,-130.4644 224.1562,-139.7084 228.791,-134.4624"/>
</g>
<!-- bold_stc_wf_slice_timing_correction&#45;&gt;bold_stc_wf_copy_xform -->
<g id="edge4" class="edge">
<title>bold_stc_wf_slice_timing_correction&#45;&gt;bold_stc_wf_copy_xform</title>
<path fill="none" stroke="#000000" d="M137.8815,-167.2022C146.9538,-158.3752 158.0623,-147.5669 167.9662,-137.9307"/>
<polygon fill="#000000" stroke="#000000" points="170.5247,-140.3247 175.2512,-130.8425 165.6432,-135.3076 170.5247,-140.3247"/>
</g>
<!-- bold_stc_wf_outputnode -->
<g id="node4" class="node">
<title>bold_stc_wf_outputnode</title>
<ellipse fill="#ffffc8" stroke="#000000" cx="193.5894" cy="-41" rx="81.7856" ry="18"/>
<text text-anchor="middle" x="193.5894" y="-37.3" font-family="Times,serif" font-size="14.00" fill="#000000">outputnode (utility)</text>
</g>
<!-- bold_stc_wf_copy_xform&#45;&gt;bold_stc_wf_outputnode -->
<g id="edge5" class="edge">
<title>bold_stc_wf_copy_xform&#45;&gt;bold_stc_wf_outputnode</title>
<path fill="none" stroke="#000000" d="M193.5894,-94.8314C193.5894,-87.131 193.5894,-77.9743 193.5894,-69.4166"/>
<polygon fill="#000000" stroke="#000000" points="197.0895,-69.4132 193.5894,-59.4133 190.0895,-69.4133 197.0895,-69.4132"/>
</g>
</g>
</svg>
