<?xml version="1.0" encoding="UTF-8" standalone="no"?>
<!DOCTYPE svg PUBLIC "-//W3C//DTD SVG 1.1//EN"
 "http://www.w3.org/Graphics/SVG/1.1/DTD/svg11.dtd">
<!-- Generated by graphviz version 2.40.1 (20161225.0304)
 -->
<!-- Title: %3 Pages: 1 -->
<svg width="750pt" height="332pt"
 viewBox="0.00 0.00 749.93 332.00" xmlns="http://www.w3.org/2000/svg" xmlns:xlink="http://www.w3.org/1999/xlink">
<g id="graph0" class="graph" transform="scale(1 1) rotate(0) translate(4 328)">
<title>%3</title>
<polygon fill="#ffffff" stroke="transparent" points="-4,4 -4,-328 745.9337,-328 745.9337,4 -4,4"/>
<!-- inputnode (utility) -->
<g id="node1" class="node">
<title>inputnode (utility)</title>
<ellipse fill="none" stroke="#000000" cx="331.1436" cy="-306" rx="77.1866" ry="18"/>
<text text-anchor="middle" x="331.1436" y="-302.3" font-family="Times,serif" font-size="14.00" fill="#000000">inputnode (utility)</text>
</g>
<!-- val_bold (interfaces) -->
<g id="node2" class="node">
<title>val_bold (interfaces)</title>
<ellipse fill="none" stroke="#000000" cx="209.1436" cy="-234" rx="86.3847" ry="18"/>
<text text-anchor="middle" x="209.1436" y="-230.3" font-family="Times,serif" font-size="14.00" fill="#000000">val_bold (interfaces)</text>
</g>
<!-- inputnode (utility)&#45;&gt;val_bold (interfaces) -->
<g id="edge1" class="edge">
<title>inputnode (utility)&#45;&gt;val_bold (interfaces)</title>
<path fill="none" stroke="#000000" d="M302.54,-289.1192C285.9871,-279.3502 264.9505,-266.9352 247.0347,-256.362"/>
<polygon fill="#000000" stroke="#000000" points="248.3817,-253.0929 237.9907,-251.0245 244.8239,-259.1213 248.3817,-253.0929"/>
</g>
<!-- enhance_and_skullstrip_bold_wf -->
<g id="node3" class="node">
<title>enhance_and_skullstrip_bold_wf</title>
<ellipse fill="none" stroke="#000000" cx="331.1436" cy="-90" rx="131.077" ry="18"/>
<text text-anchor="middle" x="331.1436" y="-86.3" font-family="Times,serif" font-size="14.00" fill="#000000">enhance_and_skullstrip_bold_wf</text>
</g>
<!-- inputnode (utility)&#45;&gt;enhance_and_skullstrip_bold_wf -->
<g id="edge2" class="edge">
<title>inputnode (utility)&#45;&gt;enhance_and_skullstrip_bold_wf</title>
<path fill="none" stroke="#000000" d="M331.1436,-287.9555C331.1436,-250.3938 331.1436,-163.5541 331.1436,-118.4103"/>
<polygon fill="#000000" stroke="#000000" points="334.6437,-118.145 331.1436,-108.1451 327.6437,-118.1451 334.6437,-118.145"/>
</g>
<!-- calc_dummy_scans (utility) -->
<g id="node4" class="node">
<title>calc_dummy_scans (utility)</title>
<ellipse fill="none" stroke="#000000" cx="630.1436" cy="-90" rx="111.5806" ry="18"/>
<text text-anchor="middle" x="630.1436" y="-86.3" font-family="Times,serif" font-size="14.00" fill="#000000">calc_dummy_scans (utility)</text>
</g>
<!-- inputnode (utility)&#45;&gt;calc_dummy_scans (utility) -->
<g id="edge3" class="edge">
<title>inputnode (utility)&#45;&gt;calc_dummy_scans (utility)</title>
<path fill="none" stroke="#000000" d="M368.8422,-290.1629C415.8125,-269.301 497.077,-229.4058 556.1436,-180 578.3451,-161.4297 598.8462,-135.5022 612.6119,-116.2432"/>
<polygon fill="#000000" stroke="#000000" points="615.5754,-118.113 618.4447,-107.9141 609.8415,-114.0977 615.5754,-118.113"/>
</g>
<!-- gen_ref (interfaces) -->
<g id="node5" class="node">
<title>gen_ref (interfaces)</title>
<ellipse fill="none" stroke="#000000" cx="465.1436" cy="-162" rx="81.7856" ry="18"/>
<text text-anchor="middle" x="465.1436" y="-158.3" font-family="Times,serif" font-size="14.00" fill="#000000">gen_ref (interfaces)</text>
</g>
<!-- val_bold (interfaces)&#45;&gt;gen_ref (interfaces) -->
<g id="edge4" class="edge">
<title>val_bold (interfaces)&#45;&gt;gen_ref (interfaces)</title>
<path fill="none" stroke="#000000" d="M260.6411,-219.5163C302.3139,-207.7959 361.0748,-191.2693 404.9226,-178.9372"/>
<polygon fill="#000000" stroke="#000000" points="405.9226,-182.2918 414.6015,-176.215 404.0273,-175.5532 405.9226,-182.2918"/>
</g>
<!-- bold_1st (utility) -->
<g id="node6" class="node">
<title>bold_1st (utility)</title>
<ellipse fill="none" stroke="#000000" cx="72.1436" cy="-90" rx="72.2875" ry="18"/>
<text text-anchor="middle" x="72.1436" y="-86.3" font-family="Times,serif" font-size="14.00" fill="#000000">bold_1st (utility)</text>
</g>
<!-- val_bold (interfaces)&#45;&gt;bold_1st (utility) -->
<g id="edge5" class="edge">
<title>val_bold (interfaces)&#45;&gt;bold_1st (utility)</title>
<path fill="none" stroke="#000000" d="M159.3265,-219.1586C138.479,-210.6931 115.5619,-198.0758 100.1436,-180 85.3593,-162.6675 78.3743,-137.5697 75.078,-118.2785"/>
<polygon fill="#000000" stroke="#000000" points="78.5201,-117.6279 73.6002,-108.2447 71.5948,-118.648 78.5201,-117.6279"/>
</g>
<!-- validate_1st (utility) -->
<g id="node7" class="node">
<title>validate_1st (utility)</title>
<ellipse fill="none" stroke="#000000" cx="193.1436" cy="-162" rx="84.485" ry="18"/>
<text text-anchor="middle" x="193.1436" y="-158.3" font-family="Times,serif" font-size="14.00" fill="#000000">validate_1st (utility)</text>
</g>
<!-- val_bold (interfaces)&#45;&gt;validate_1st (utility) -->
<g id="edge6" class="edge">
<title>val_bold (interfaces)&#45;&gt;validate_1st (utility)</title>
<path fill="none" stroke="#000000" d="M205.1061,-215.8314C203.3949,-208.131 201.3601,-198.9743 199.4584,-190.4166"/>
<polygon fill="#000000" stroke="#000000" points="202.8215,-189.4159 197.2354,-180.4133 195.9882,-190.9344 202.8215,-189.4159"/>
</g>
<!-- outputnode (utility) -->
<g id="node8" class="node">
<title>outputnode (utility)</title>
<ellipse fill="none" stroke="#000000" cx="331.1436" cy="-18" rx="81.7856" ry="18"/>
<text text-anchor="middle" x="331.1436" y="-14.3" font-family="Times,serif" font-size="14.00" fill="#000000">outputnode (utility)</text>
</g>
<!-- enhance_and_skullstrip_bold_wf&#45;&gt;outputnode (utility) -->
<g id="edge7" class="edge">
<title>enhance_and_skullstrip_bold_wf&#45;&gt;outputnode (utility)</title>
<path fill="none" stroke="#000000" d="M331.1436,-71.8314C331.1436,-64.131 331.1436,-54.9743 331.1436,-46.4166"/>
<polygon fill="#000000" stroke="#000000" points="334.6437,-46.4132 331.1436,-36.4133 327.6437,-46.4133 334.6437,-46.4132"/>
</g>
<!-- calc_dummy_scans (utility)&#45;&gt;outputnode (utility) -->
<g id="edge8" class="edge">
<title>calc_dummy_scans (utility)&#45;&gt;outputnode (utility)</title>
<path fill="none" stroke="#000000" d="M567.8274,-74.9941C517.7663,-62.9392 447.6571,-46.0568 396.7449,-33.797"/>
<polygon fill="#000000" stroke="#000000" points="397.3715,-30.3479 386.83,-31.4094 395.7327,-37.1534 397.3715,-30.3479"/>
</g>
<!-- gen_ref (interfaces)&#45;&gt;enhance_and_skullstrip_bold_wf -->
<g id="edge9" class="edge">
<title>gen_ref (interfaces)&#45;&gt;enhance_and_skullstrip_bold_wf</title>
<path fill="none" stroke="#000000" d="M434.0645,-145.3008C415.828,-135.502 392.5506,-122.9948 372.7474,-112.3543"/>
<polygon fill="#000000" stroke="#000000" points="374.3893,-109.2633 363.9237,-107.6132 371.076,-115.4295 374.3893,-109.2633"/>
</g>
<!-- gen_ref (interfaces)&#45;&gt;calc_dummy_scans (utility) -->
<g id="edge10" class="edge">
<title>gen_ref (interfaces)&#45;&gt;calc_dummy_scans (utility)</title>
<path fill="none" stroke="#000000" d="M502.1728,-145.8418C525.6789,-135.5846 556.347,-122.2021 581.7678,-111.1094"/>
<polygon fill="#000000" stroke="#000000" points="583.4622,-114.1888 591.2278,-106.9814 580.6626,-107.773 583.4622,-114.1888"/>
</g>
<!-- gen_ref (interfaces)&#45;&gt;outputnode (utility) -->
<g id="edge11" class="edge">
<title>gen_ref (interfaces)&#45;&gt;outputnode (utility)</title>
<path fill="none" stroke="#000000" d="M472.4203,-144.0448C479.0435,-124.535 485.7615,-93.306 471.1436,-72 461.6867,-58.2164 426.5295,-44.682 393.8153,-34.6108"/>
<polygon fill="#000000" stroke="#000000" points="394.81,-31.2552 384.226,-31.7327 392.7977,-37.9597 394.81,-31.2552"/>
</g>
<!-- bold_1st (utility)&#45;&gt;outputnode (utility) -->
<g id="edge12" class="edge">
<title>bold_1st (utility)&#45;&gt;outputnode (utility)</title>
<path fill="none" stroke="#000000" d="M120.5557,-76.5418C162.9777,-64.7488 224.8256,-47.5556 270.5279,-34.8507"/>
<polygon fill="#000000" stroke="#000000" points="271.6161,-38.181 280.3133,-32.1304 269.7412,-31.4367 271.6161,-38.181"/>
</g>
<!-- validate_1st (utility)&#45;&gt;outputnode (utility) -->
<g id="edge13" class="edge">
<title>validate_1st (utility)&#45;&gt;outputnode (utility)</title>
<path fill="none" stroke="#000000" d="M187.0348,-144.0289C181.6025,-124.5052 176.5545,-93.264 191.1436,-72 200.6005,-58.2164 235.7577,-44.682 268.4719,-34.6108"/>
<polygon fill="#000000" stroke="#000000" points="269.4895,-37.9597 278.0612,-31.7327 267.4772,-31.2552 269.4895,-37.9597"/>
</g>
</g>
</svg>
