<?xml version="1.0" encoding="UTF-8" standalone="no"?>
<!DOCTYPE svg PUBLIC "-//W3C//DTD SVG 1.1//EN"
 "http://www.w3.org/Graphics/SVG/1.1/DTD/svg11.dtd">
<!-- Generated by graphviz version 2.40.1 (20161225.0304)
 -->
<!-- Title: bold_hmc_wf Pages: 1 -->
<svg width="462pt" height="283pt"
 viewBox="0.00 0.00 461.88 283.00" xmlns="http://www.w3.org/2000/svg" xmlns:xlink="http://www.w3.org/1999/xlink">
<g id="graph0" class="graph" transform="scale(1 1) rotate(0) translate(4 279)">
<title>bold_hmc_wf</title>
<polygon fill="#ffffff" stroke="transparent" points="-4,4 -4,-279 457.8824,-279 457.8824,4 -4,4"/>
<text text-anchor="middle" x="226.9412" y="-7.8" font-family="Times,serif" font-size="14.00" fill="#000000">bold_hmc_wf</text>
<!-- bold_hmc_wf_inputnode -->
<g id="node1" class="node">
<title>bold_hmc_wf_inputnode</title>
<ellipse fill="#ffffc8" stroke="#000000" cx="330.8893" cy="-257" rx="77.1866" ry="18"/>
<text text-anchor="middle" x="330.8893" y="-253.3" font-family="Times,serif" font-size="14.00" fill="#000000">inputnode (utility)</text>
</g>
<!-- bold_hmc_wf_mcflirt -->
<g id="node2" class="node">
<title>bold_hmc_wf_mcflirt</title>
<ellipse fill="#ffffc8" stroke="#000000" cx="285.8893" cy="-185" rx="52.7911" ry="18"/>
<text text-anchor="middle" x="285.8893" y="-181.3" font-family="Times,serif" font-size="14.00" fill="#000000">mcflirt (fsl)</text>
</g>
<!-- bold_hmc_wf_inputnode&#45;&gt;bold_hmc_wf_mcflirt -->
<g id="edge1" class="edge">
<title>bold_hmc_wf_inputnode&#45;&gt;bold_hmc_wf_mcflirt</title>
<path fill="none" stroke="#000000" d="M313.8499,-239.2022C307.8697,-230.9569 301.4237,-220.9828 296.1182,-211.8501"/>
<polygon fill="#000000" stroke="#000000" points="299.169,-210.1344 291.2525,-203.0931 293.0501,-213.5344 299.169,-210.1344"/>
</g>
<!-- bold_hmc_wf_inputnode&#45;&gt;bold_hmc_wf_mcflirt -->
<g id="edge2" class="edge">
<title>bold_hmc_wf_inputnode&#45;&gt;bold_hmc_wf_mcflirt</title>
<path fill="none" stroke="#000000" d="M325.4863,-238.8314C320.9768,-230.2835 314.6934,-219.9412 308.393,-210.6156"/>
<polygon fill="#000000" stroke="#000000" points="311.2554,-208.6015 302.6524,-202.4177 305.5215,-212.6167 311.2554,-208.6015"/>
</g>
<!-- bold_hmc_wf_fsl2itk -->
<g id="node4" class="node">
<title>bold_hmc_wf_fsl2itk</title>
<ellipse fill="#ffffc8" stroke="#000000" cx="375.8893" cy="-113" rx="77.9862" ry="18"/>
<text text-anchor="middle" x="375.8893" y="-109.3" font-family="Times,serif" font-size="14.00" fill="#000000">fsl2itk (interfaces)</text>
</g>
<!-- bold_hmc_wf_inputnode&#45;&gt;bold_hmc_wf_fsl2itk -->
<g id="edge3" class="edge">
<title>bold_hmc_wf_inputnode&#45;&gt;bold_hmc_wf_fsl2itk</title>
<path fill="none" stroke="#000000" d="M328.6961,-239.0048C330.8817,-228.5064 335.1317,-215.0064 338.8893,-203 345.4568,-182.015 352.8443,-158.2631 359.6831,-140.4309"/>
<polygon fill="#000000" stroke="#000000" points="363.0189,-141.5179 363.5262,-130.9352 356.5302,-138.8918 363.0189,-141.5179"/>
</g>
<!-- bold_hmc_wf_inputnode&#45;&gt;bold_hmc_wf_fsl2itk -->
<g id="edge4" class="edge">
<title>bold_hmc_wf_inputnode&#45;&gt;bold_hmc_wf_fsl2itk</title>
<path fill="none" stroke="#000000" d="M344.4461,-239.0048C348.8817,-228.5064 353.1317,-215.0064 356.8893,-203 363.3247,-182.4371 370.5474,-159.2176 374.8205,-141.5141"/>
<polygon fill="#000000" stroke="#000000" points="378.3421,-141.7949 377.0665,-131.2771 371.5047,-140.2947 378.3421,-141.7949"/>
</g>
<!-- bold_hmc_wf_normalize_motion -->
<g id="node3" class="node">
<title>bold_hmc_wf_normalize_motion</title>
<ellipse fill="#ffffc8" stroke="#000000" cx="120.8893" cy="-113" rx="120.7786" ry="18"/>
<text text-anchor="middle" x="120.8893" y="-109.3" font-family="Times,serif" font-size="14.00" fill="#000000">normalize_motion (interfaces)</text>
</g>
<!-- bold_hmc_wf_mcflirt&#45;&gt;bold_hmc_wf_normalize_motion -->
<g id="edge6" class="edge">
<title>bold_hmc_wf_mcflirt&#45;&gt;bold_hmc_wf_normalize_motion</title>
<path fill="none" stroke="#000000" d="M253.2906,-170.7751C229.347,-160.327 196.4208,-145.9592 169.394,-134.1657"/>
<polygon fill="#000000" stroke="#000000" points="170.67,-130.9038 160.1047,-130.1122 167.8703,-137.3196 170.67,-130.9038"/>
</g>
<!-- bold_hmc_wf_mcflirt&#45;&gt;bold_hmc_wf_fsl2itk -->
<g id="edge5" class="edge">
<title>bold_hmc_wf_mcflirt&#45;&gt;bold_hmc_wf_fsl2itk</title>
<path fill="none" stroke="#000000" d="M306.7633,-168.3008C318.4348,-158.9636 333.1806,-147.1669 346.0522,-136.8697"/>
<polygon fill="#000000" stroke="#000000" points="348.5666,-139.3404 354.1888,-130.3603 344.1937,-133.8743 348.5666,-139.3404"/>
</g>
<!-- bold_hmc_wf_outputnode -->
<g id="node5" class="node">
<title>bold_hmc_wf_outputnode</title>
<ellipse fill="#ffffc8" stroke="#000000" cx="269.8893" cy="-41" rx="81.7856" ry="18"/>
<text text-anchor="middle" x="269.8893" y="-37.3" font-family="Times,serif" font-size="14.00" fill="#000000">outputnode (utility)</text>
</g>
<!-- bold_hmc_wf_mcflirt&#45;&gt;bold_hmc_wf_outputnode -->
<g id="edge7" class="edge">
<title>bold_hmc_wf_mcflirt&#45;&gt;bold_hmc_wf_outputnode</title>
<path fill="none" stroke="#000000" d="M283.8629,-166.7623C281.1338,-142.201 276.2501,-98.2474 273.0397,-69.3541"/>
<polygon fill="#000000" stroke="#000000" points="276.4822,-68.6419 271.8992,-59.0896 269.525,-69.415 276.4822,-68.6419"/>
</g>
<!-- bold_hmc_wf_normalize_motion&#45;&gt;bold_hmc_wf_outputnode -->
<g id="edge8" class="edge">
<title>bold_hmc_wf_normalize_motion&#45;&gt;bold_hmc_wf_outputnode</title>
<path fill="none" stroke="#000000" d="M156.5785,-95.7542C177.5963,-85.598 204.3318,-72.6788 226.5543,-61.9404"/>
<polygon fill="#000000" stroke="#000000" points="228.291,-64.9884 235.7721,-57.4862 225.2454,-58.6857 228.291,-64.9884"/>
</g>
<!-- bold_hmc_wf_fsl2itk&#45;&gt;bold_hmc_wf_outputnode -->
<g id="edge9" class="edge">
<title>bold_hmc_wf_fsl2itk&#45;&gt;bold_hmc_wf_outputnode</title>
<path fill="none" stroke="#000000" d="M350.7688,-95.937C336.7461,-86.4122 319.0834,-74.4149 303.8438,-64.0635"/>
<polygon fill="#000000" stroke="#000000" points="305.4356,-60.9136 295.1968,-58.19 301.5024,-66.7042 305.4356,-60.9136"/>
</g>
</g>
</svg>
