<?xml version="1.0" encoding="UTF-8" standalone="no"?>
<!DOCTYPE svg PUBLIC "-//W3C//DTD SVG 1.1//EN"
 "http://www.w3.org/Graphics/SVG/1.1/DTD/svg11.dtd">
<!-- Generated by graphviz version 2.40.1 (20161225.0304)
 -->
<!-- Title: structs Pages: 1 -->
<svg width="867pt" height="497pt"
 viewBox="0.00 0.00 867.00 497.00" xmlns="http://www.w3.org/2000/svg" xmlns:xlink="http://www.w3.org/1999/xlink">
<g id="graph0" class="graph" transform="scale(1 1) rotate(0) translate(4 493)">
<title>structs</title>
<polygon fill="#ffffff" stroke="transparent" points="-4,4 -4,-493 863,-493 863,4 -4,4"/>
<!-- bold_reg_wfinputnode -->
<g id="node1" class="node">
<title>bold_reg_wfinputnode</title>
<polygon fill="none" stroke="#000000" points="0,-327.5 0,-488.5 221,-488.5 221,-327.5 0,-327.5"/>
<text text-anchor="middle" x="15.5" y="-404.3" font-family="Times,serif" font-size="14.00" fill="#000000">IN</text>
<polyline fill="none" stroke="#000000" points="31,-327.5 31,-488.5 "/>
<text text-anchor="middle" x="67" y="-458.3" font-family="Times,serif" font-size="14.00" fill="#000000">inputnode</text>
<polyline fill="none" stroke="#000000" points="31,-435.5 103,-435.5 "/>
<text text-anchor="middle" x="67" y="-404.8" font-family="Times,serif" font-size="14.00" fill="#000000">utility</text>
<polyline fill="none" stroke="#000000" points="31,-381.5 103,-381.5 "/>
<text text-anchor="middle" x="67" y="-350.8" font-family="Times,serif" font-size="14.00" fill="#000000"> </text>
<polyline fill="none" stroke="#000000" points="103,-327.5 103,-488.5 "/>
<text text-anchor="middle" x="162" y="-473.3" font-family="Times,serif" font-size="14.00" fill="#000000">OUT</text>
<polyline fill="none" stroke="#000000" points="103,-465.5 221,-465.5 "/>
<text text-anchor="middle" x="162" y="-450.3" font-family="Times,serif" font-size="14.00" fill="#000000">fsnative2t1w_xfm</text>
<polyline fill="none" stroke="#000000" points="103,-442.5 221,-442.5 "/>
<text text-anchor="middle" x="162" y="-427.3" font-family="Times,serif" font-size="14.00" fill="#000000">ref_bold_brain</text>
<polyline fill="none" stroke="#000000" points="103,-419.5 221,-419.5 "/>
<text text-anchor="middle" x="162" y="-404.3" font-family="Times,serif" font-size="14.00" fill="#000000">subject_id</text>
<polyline fill="none" stroke="#000000" points="103,-396.5 221,-396.5 "/>
<text text-anchor="middle" x="162" y="-381.3" font-family="Times,serif" font-size="14.00" fill="#000000">subjects_dir</text>
<polyline fill="none" stroke="#000000" points="103,-373.5 221,-373.5 "/>
<text text-anchor="middle" x="162" y="-358.3" font-family="Times,serif" font-size="14.00" fill="#000000">t1w_brain</text>
<polyline fill="none" stroke="#000000" points="103,-350.5 221,-350.5 "/>
<text text-anchor="middle" x="162" y="-335.3" font-family="Times,serif" font-size="14.00" fill="#000000">t1w_dseg</text>
</g>
<!-- bold_reg_wfbbreg_wf -->
<g id="node2" class="node">
<title>bold_reg_wfbbreg_wf</title>
<polygon fill="none" stroke="#000000" points="222,-129.5 222,-290.5 635,-290.5 635,-129.5 222,-129.5"/>
<text text-anchor="middle" x="311" y="-275.3" font-family="Times,serif" font-size="14.00" fill="#000000">IN</text>
<polyline fill="none" stroke="#000000" points="222,-267.5 400,-267.5 "/>
<text text-anchor="middle" x="311" y="-252.3" font-family="Times,serif" font-size="14.00" fill="#000000">inputnode.fsnative2t1w_xfm</text>
<polyline fill="none" stroke="#000000" points="222,-244.5 400,-244.5 "/>
<text text-anchor="middle" x="311" y="-229.3" font-family="Times,serif" font-size="14.00" fill="#000000">inputnode.in_file</text>
<polyline fill="none" stroke="#000000" points="222,-221.5 400,-221.5 "/>
<text text-anchor="middle" x="311" y="-206.3" font-family="Times,serif" font-size="14.00" fill="#000000">inputnode.subject_id</text>
<polyline fill="none" stroke="#000000" points="222,-198.5 400,-198.5 "/>
<text text-anchor="middle" x="311" y="-183.3" font-family="Times,serif" font-size="14.00" fill="#000000">inputnode.subjects_dir</text>
<polyline fill="none" stroke="#000000" points="222,-175.5 400,-175.5 "/>
<text text-anchor="middle" x="311" y="-160.3" font-family="Times,serif" font-size="14.00" fill="#000000">inputnode.t1w_brain</text>
<polyline fill="none" stroke="#000000" points="222,-152.5 400,-152.5 "/>
<text text-anchor="middle" x="311" y="-137.3" font-family="Times,serif" font-size="14.00" fill="#000000">inputnode.t1w_dseg</text>
<polyline fill="none" stroke="#000000" points="400,-129.5 400,-290.5 "/>
<text text-anchor="middle" x="435" y="-260.3" font-family="Times,serif" font-size="14.00" fill="#000000">bbreg_wf</text>
<polyline fill="none" stroke="#000000" points="400,-237.5 470,-237.5 "/>
<text text-anchor="middle" x="435" y="-206.8" font-family="Times,serif" font-size="14.00" fill="#000000"> </text>
<polyline fill="none" stroke="#000000" points="400,-183.5 470,-183.5 "/>
<text text-anchor="middle" x="435" y="-152.8" font-family="Times,serif" font-size="14.00" fill="#000000"> </text>
<polyline fill="none" stroke="#000000" points="470,-129.5 470,-290.5 "/>
<text text-anchor="middle" x="552.5" y="-270.8" font-family="Times,serif" font-size="14.00" fill="#000000">OUT</text>
<polyline fill="none" stroke="#000000" points="470,-258.5 635,-258.5 "/>
<text text-anchor="middle" x="552.5" y="-238.8" font-family="Times,serif" font-size="14.00" fill="#000000">outputnode.fallback</text>
<polyline fill="none" stroke="#000000" points="470,-226.5 635,-226.5 "/>
<text text-anchor="middle" x="552.5" y="-206.8" font-family="Times,serif" font-size="14.00" fill="#000000">outputnode.itk_bold_to_t1</text>
<polyline fill="none" stroke="#000000" points="470,-194.5 635,-194.5 "/>
<text text-anchor="middle" x="552.5" y="-174.8" font-family="Times,serif" font-size="14.00" fill="#000000">outputnode.itk_t1_to_bold</text>
<polyline fill="none" stroke="#000000" points="470,-162.5 635,-162.5 "/>
<text text-anchor="middle" x="552.5" y="-142.3" font-family="Times,serif" font-size="14.00" fill="#000000">outputnode.out_report</text>
</g>
<!-- bold_reg_wfinputnode&#45;&gt;bold_reg_wfbbreg_wf -->
<g id="edge6" class="edge">
<title>bold_reg_wfinputnode:e&#45;&gt;bold_reg_wfbbreg_wf:w</title>
<path fill="none" stroke="#000000" d="M221.5,-454C221.5,-454 221.5,-306.4396 221.5,-266.0911"/>
<polygon fill="#000000" stroke="#000000" points="225.0001,-266 221.5,-256 218.0001,-266 225.0001,-266"/>
</g>
<!-- bold_reg_wfinputnode&#45;&gt;bold_reg_wfbbreg_wf -->
<g id="edge7" class="edge">
<title>bold_reg_wfinputnode:e&#45;&gt;bold_reg_wfbbreg_wf:w</title>
<path fill="none" stroke="#000000" d="M221.5,-431C221.5,-431 221.5,-283.4396 221.5,-243.0911"/>
<polygon fill="#000000" stroke="#000000" points="225.0001,-243 221.5,-233 218.0001,-243 225.0001,-243"/>
</g>
<!-- bold_reg_wfinputnode&#45;&gt;bold_reg_wfbbreg_wf -->
<g id="edge8" class="edge">
<title>bold_reg_wfinputnode:e&#45;&gt;bold_reg_wfbbreg_wf:w</title>
<path fill="none" stroke="#000000" d="M221.5,-408C305.5469,-408 148.7798,-227.3895 211.191,-211.1628"/>
<polygon fill="#000000" stroke="#000000" points="211.9553,-214.5989 221.5,-210 211.1707,-207.643 211.9553,-214.5989"/>
</g>
<!-- bold_reg_wfinputnode&#45;&gt;bold_reg_wfbbreg_wf -->
<g id="edge9" class="edge">
<title>bold_reg_wfinputnode:e&#45;&gt;bold_reg_wfbbreg_wf:w</title>
<path fill="none" stroke="#000000" d="M221.5,-385C221.5,-385 221.5,-237.4396 221.5,-197.0911"/>
<polygon fill="#000000" stroke="#000000" points="225.0001,-197 221.5,-187 218.0001,-197 225.0001,-197"/>
</g>
<!-- bold_reg_wfinputnode&#45;&gt;bold_reg_wfbbreg_wf -->
<g id="edge10" class="edge">
<title>bold_reg_wfinputnode:e&#45;&gt;bold_reg_wfbbreg_wf:w</title>
<path fill="none" stroke="#000000" d="M221.5,-362C221.5,-362 221.5,-214.4396 221.5,-174.0911"/>
<polygon fill="#000000" stroke="#000000" points="225.0001,-174 221.5,-164 218.0001,-174 225.0001,-174"/>
</g>
<!-- bold_reg_wfinputnode&#45;&gt;bold_reg_wfbbreg_wf -->
<g id="edge11" class="edge">
<title>bold_reg_wfinputnode:e&#45;&gt;bold_reg_wfbbreg_wf:w</title>
<path fill="none" stroke="#000000" d="M221.5,-339C221.5,-339 221.5,-191.4396 221.5,-151.0911"/>
<polygon fill="#000000" stroke="#000000" points="225.0001,-151 221.5,-141 218.0001,-151 225.0001,-151"/>
</g>
<!-- bold_reg_wfds_report_reg -->
<g id="node3" class="node">
<title>bold_reg_wfds_report_reg</title>
<polygon fill="none" stroke="#000000" points="427,-12 427,-81 618,-81 618,-12 427,-12"/>
<text text-anchor="middle" x="453" y="-65.8" font-family="Times,serif" font-size="14.00" fill="#000000">IN</text>
<polyline fill="none" stroke="#000000" points="427,-58 479,-58 "/>
<text text-anchor="middle" x="453" y="-42.8" font-family="Times,serif" font-size="14.00" fill="#000000">desc</text>
<polyline fill="none" stroke="#000000" points="427,-35 479,-35 "/>
<text text-anchor="middle" x="453" y="-19.8" font-family="Times,serif" font-size="14.00" fill="#000000">in_file</text>
<polyline fill="none" stroke="#000000" points="479,-12 479,-81 "/>
<text text-anchor="middle" x="526" y="-65.8" font-family="Times,serif" font-size="14.00" fill="#000000">ds_report_reg</text>
<polyline fill="none" stroke="#000000" points="479,-58 573,-58 "/>
<text text-anchor="middle" x="526" y="-42.8" font-family="Times,serif" font-size="14.00" fill="#000000"> </text>
<polyline fill="none" stroke="#000000" points="479,-35 573,-35 "/>
<text text-anchor="middle" x="526" y="-19.8" font-family="Times,serif" font-size="14.00" fill="#000000"> </text>
<polyline fill="none" stroke="#000000" points="573,-12 573,-81 "/>
<text text-anchor="middle" x="595.5" y="-42.8" font-family="Times,serif" font-size="14.00" fill="#000000">OUT</text>
</g>
<!-- bold_reg_wfbbreg_wf&#45;&gt;bold_reg_wfds_report_reg -->
<g id="edge1" class="edge">
<title>bold_reg_wfbbreg_wf:e&#45;&gt;bold_reg_wfds_report_reg:w</title>
<path fill="none" stroke="#000000" d="M635.5,-243C686.1667,-243 667.1084,-168.5982 635.5,-129 576.0735,-54.552 485.9265,-155.948 426.5,-81.5 419.6766,-72.9519 414.7582,-59.1211 417.8466,-51.6624"/>
<polygon fill="#000000" stroke="#000000" points="419.7053,-54.6291 426.5,-46.5 416.1189,-48.6176 419.7053,-54.6291"/>
</g>
<!-- bold_reg_wfbbreg_wf&#45;&gt;bold_reg_wfds_report_reg -->
<g id="edge5" class="edge">
<title>bold_reg_wfbbreg_wf:e&#45;&gt;bold_reg_wfds_report_reg:w</title>
<path fill="none" stroke="#000000" d="M635.5,-146C643.0556,-146 640.2135,-134.905 635.5,-129 576.0735,-54.552 485.9265,-155.948 426.5,-81.5 413.0569,-64.6588 404.0757,-35.4441 416.5486,-26.3113"/>
<polygon fill="#000000" stroke="#000000" points="417.8282,-29.5869 426.5,-23.5 415.9251,-22.8505 417.8282,-29.5869"/>
</g>
<!-- bold_reg_wfoutputnode -->
<g id="node4" class="node">
<title>bold_reg_wfoutputnode</title>
<polygon fill="none" stroke="#000000" points="636,-.5 636,-92.5 859,-92.5 859,-.5 636,-.5"/>
<text text-anchor="middle" x="685.5" y="-77.3" font-family="Times,serif" font-size="14.00" fill="#000000">IN</text>
<polyline fill="none" stroke="#000000" points="636,-69.5 735,-69.5 "/>
<text text-anchor="middle" x="685.5" y="-54.3" font-family="Times,serif" font-size="14.00" fill="#000000">fallback</text>
<polyline fill="none" stroke="#000000" points="636,-46.5 735,-46.5 "/>
<text text-anchor="middle" x="685.5" y="-31.3" font-family="Times,serif" font-size="14.00" fill="#000000">itk_bold_to_t1</text>
<polyline fill="none" stroke="#000000" points="636,-23.5 735,-23.5 "/>
<text text-anchor="middle" x="685.5" y="-8.3" font-family="Times,serif" font-size="14.00" fill="#000000">itk_t1_to_bold</text>
<polyline fill="none" stroke="#000000" points="735,-.5 735,-92.5 "/>
<text text-anchor="middle" x="774.5" y="-73.8" font-family="Times,serif" font-size="14.00" fill="#000000">outputnode</text>
<polyline fill="none" stroke="#000000" points="735,-62.5 814,-62.5 "/>
<text text-anchor="middle" x="774.5" y="-43.3" font-family="Times,serif" font-size="14.00" fill="#000000">utility</text>
<polyline fill="none" stroke="#000000" points="735,-31.5 814,-31.5 "/>
<text text-anchor="middle" x="774.5" y="-12.3" font-family="Times,serif" font-size="14.00" fill="#000000"> </text>
<polyline fill="none" stroke="#000000" points="814,-.5 814,-92.5 "/>
<text text-anchor="middle" x="836.5" y="-42.8" font-family="Times,serif" font-size="14.00" fill="#000000">OUT</text>
</g>
<!-- bold_reg_wfbbreg_wf&#45;&gt;bold_reg_wfoutputnode -->
<g id="edge2" class="edge">
<title>bold_reg_wfbbreg_wf:e&#45;&gt;bold_reg_wfoutputnode:w</title>
<path fill="none" stroke="#000000" d="M635.5,-243C635.5,-243 635.5,-107.3607 635.5,-68.6823"/>
<polygon fill="#000000" stroke="#000000" points="639.0001,-68.5 635.5,-58.5 632.0001,-68.5 639.0001,-68.5"/>
</g>
<!-- bold_reg_wfbbreg_wf&#45;&gt;bold_reg_wfoutputnode -->
<g id="edge3" class="edge">
<title>bold_reg_wfbbreg_wf:e&#45;&gt;bold_reg_wfoutputnode:w</title>
<path fill="none" stroke="#000000" d="M635.5,-211C652.4299,-211 625.514,-79.4626 630.4548,-43.4953"/>
<polygon fill="#000000" stroke="#000000" points="633.6608,-44.934 635.5,-34.5 627.5555,-41.5097 633.6608,-44.934"/>
</g>
<!-- bold_reg_wfbbreg_wf&#45;&gt;bold_reg_wfoutputnode -->
<g id="edge4" class="edge">
<title>bold_reg_wfbbreg_wf:e&#45;&gt;bold_reg_wfoutputnode:w</title>
<path fill="none" stroke="#000000" d="M635.5,-178C651.3984,-178 626.3087,-55.0355 630.6792,-20.4518"/>
<polygon fill="#000000" stroke="#000000" points="633.8401,-21.964 635.5,-11.5 627.6769,-18.645 633.8401,-21.964"/>
</g>
</g>
</svg>
