<?xml version="1.0" encoding="UTF-8" standalone="no"?>
<!DOCTYPE svg PUBLIC "-//W3C//DTD SVG 1.1//EN"
 "http://www.w3.org/Graphics/SVG/1.1/DTD/svg11.dtd">
<!-- Generated by graphviz version 2.40.1 (20161225.0304)
 -->
<!-- Title: structs Pages: 1 -->
<svg width="1915pt" height="879pt"
 viewBox="0.00 0.00 1914.53 879.00" xmlns="http://www.w3.org/2000/svg" xmlns:xlink="http://www.w3.org/1999/xlink">
<g id="graph0" class="graph" transform="scale(1 1) rotate(0) translate(4 875)">
<title>structs</title>
<polygon fill="#ffffff" stroke="transparent" points="-4,4 -4,-875 1910.5323,-875 1910.5323,4 -4,4"/>
<!-- cbfqc_compt_wfinputnode -->
<g id="node1" class="node">
<title>cbfqc_compt_wfinputnode</title>
<polygon fill="none" stroke="#000000" points="905.0323,-594.5 905.0323,-870.5 1109.0323,-870.5 1109.0323,-594.5 905.0323,-594.5"/>
<text text-anchor="middle" x="920.5323" y="-728.8" font-family="Times,serif" font-size="14.00" fill="#000000">IN</text>
<polyline fill="none" stroke="#000000" points="936.0323,-594.5 936.0323,-870.5 "/>
<text text-anchor="middle" x="972.0323" y="-820.8" font-family="Times,serif" font-size="14.00" fill="#000000">inputnode</text>
<polyline fill="none" stroke="#000000" points="936.0323,-778.5 1008.0323,-778.5 "/>
<text text-anchor="middle" x="972.0323" y="-728.8" font-family="Times,serif" font-size="14.00" fill="#000000">utility</text>
<polyline fill="none" stroke="#000000" points="936.0323,-686.5 1008.0323,-686.5 "/>
<text text-anchor="middle" x="972.0323" y="-636.8" font-family="Times,serif" font-size="14.00" fill="#000000"> </text>
<polyline fill="none" stroke="#000000" points="1008.0323,-594.5 1008.0323,-870.5 "/>
<text text-anchor="middle" x="1058.5323" y="-855.3" font-family="Times,serif" font-size="14.00" fill="#000000">OUT</text>
<polyline fill="none" stroke="#000000" points="1008.0323,-847.5 1109.0323,-847.5 "/>
<text text-anchor="middle" x="1058.5323" y="-832.3" font-family="Times,serif" font-size="14.00" fill="#000000">avgscore</text>
<polyline fill="none" stroke="#000000" points="1008.0323,-824.5 1109.0323,-824.5 "/>
<text text-anchor="middle" x="1058.5323" y="-809.3" font-family="Times,serif" font-size="14.00" fill="#000000">basil</text>
<polyline fill="none" stroke="#000000" points="1008.0323,-801.5 1109.0323,-801.5 "/>
<text text-anchor="middle" x="1058.5323" y="-786.3" font-family="Times,serif" font-size="14.00" fill="#000000">bold_mask</text>
<polyline fill="none" stroke="#000000" points="1008.0323,-778.5 1109.0323,-778.5 "/>
<text text-anchor="middle" x="1058.5323" y="-763.3" font-family="Times,serif" font-size="14.00" fill="#000000">bold_mask_std</text>
<polyline fill="none" stroke="#000000" points="1008.0323,-755.5 1109.0323,-755.5 "/>
<text text-anchor="middle" x="1058.5323" y="-740.3" font-family="Times,serif" font-size="14.00" fill="#000000">confmat</text>
<polyline fill="none" stroke="#000000" points="1008.0323,-732.5 1109.0323,-732.5 "/>
<text text-anchor="middle" x="1058.5323" y="-717.3" font-family="Times,serif" font-size="14.00" fill="#000000">meancbf</text>
<polyline fill="none" stroke="#000000" points="1008.0323,-709.5 1109.0323,-709.5 "/>
<text text-anchor="middle" x="1058.5323" y="-694.3" font-family="Times,serif" font-size="14.00" fill="#000000">pv</text>
<polyline fill="none" stroke="#000000" points="1008.0323,-686.5 1109.0323,-686.5 "/>
<text text-anchor="middle" x="1058.5323" y="-671.3" font-family="Times,serif" font-size="14.00" fill="#000000">scrub</text>
<polyline fill="none" stroke="#000000" points="1008.0323,-663.5 1109.0323,-663.5 "/>
<text text-anchor="middle" x="1058.5323" y="-648.3" font-family="Times,serif" font-size="14.00" fill="#000000">t1_bold_xform</text>
<polyline fill="none" stroke="#000000" points="1008.0323,-640.5 1109.0323,-640.5 "/>
<text text-anchor="middle" x="1058.5323" y="-625.3" font-family="Times,serif" font-size="14.00" fill="#000000">t1w_mask</text>
<polyline fill="none" stroke="#000000" points="1008.0323,-617.5 1109.0323,-617.5 "/>
<text text-anchor="middle" x="1058.5323" y="-602.3" font-family="Times,serif" font-size="14.00" fill="#000000">t1w_tpms</text>
</g>
<!-- cbfqc_compt_wfresample -->
<g id="node2" class="node">
<title>cbfqc_compt_wfresample</title>
<polygon fill="none" stroke="#000000" points="15.0323,-477 15.0323,-546 195.0323,-546 195.0323,-477 15.0323,-477"/>
<text text-anchor="middle" x="42.0323" y="-525.3" font-family="Times,serif" font-size="14.00" fill="#000000">IN</text>
<polyline fill="none" stroke="#000000" points="15.0323,-512 69.0323,-512 "/>
<text text-anchor="middle" x="42.0323" y="-490.8" font-family="Times,serif" font-size="14.00" fill="#000000">master</text>
<polyline fill="none" stroke="#000000" points="69.0323,-477 69.0323,-546 "/>
<text text-anchor="middle" x="102.5323" y="-530.8" font-family="Times,serif" font-size="14.00" fill="#000000">resample</text>
<polyline fill="none" stroke="#000000" points="69.0323,-523 136.0323,-523 "/>
<text text-anchor="middle" x="102.5323" y="-507.8" font-family="Times,serif" font-size="14.00" fill="#000000">afni</text>
<polyline fill="none" stroke="#000000" points="69.0323,-500 136.0323,-500 "/>
<text text-anchor="middle" x="102.5323" y="-484.8" font-family="Times,serif" font-size="14.00" fill="#000000"> </text>
<polyline fill="none" stroke="#000000" points="136.0323,-477 136.0323,-546 "/>
<text text-anchor="middle" x="165.5323" y="-525.3" font-family="Times,serif" font-size="14.00" fill="#000000">OUT</text>
<polyline fill="none" stroke="#000000" points="136.0323,-512 195.0323,-512 "/>
<text text-anchor="middle" x="165.5323" y="-490.8" font-family="Times,serif" font-size="14.00" fill="#000000">out_file</text>
</g>
<!-- cbfqc_compt_wfinputnode&#45;&gt;cbfqc_compt_wfresample -->
<g id="edge11" class="edge">
<title>cbfqc_compt_wfinputnode:e&#45;&gt;cbfqc_compt_wfresample:w</title>
<path fill="none" stroke="#000000" d="M1109.0323,-767.5C1186.1434,-767.5 1162.4634,-649.5989 1109.0323,-594 1074.1667,-557.7199 254.2863,-560.5281 204.0323,-558 119.9832,-553.7717 72.7037,-607.7872 15.0323,-546.5 2.0402,-532.6933 -5.1885,-506.5468 5.3905,-497.5961"/>
<polygon fill="#000000" stroke="#000000" points="6.5812,-500.8899 15.0323,-494.5 4.441,-494.2251 6.5812,-500.8899"/>
</g>
<!-- cbfqc_compt_wfmasktonative -->
<g id="node3" class="node">
<title>cbfqc_compt_wfmasktonative</title>
<polygon fill="none" stroke="#000000" points="213.0323,-465.5 213.0323,-557.5 507.0323,-557.5 507.0323,-465.5 213.0323,-465.5"/>
<text text-anchor="middle" x="268.0323" y="-542.3" font-family="Times,serif" font-size="14.00" fill="#000000">IN</text>
<polyline fill="none" stroke="#000000" points="213.0323,-534.5 323.0323,-534.5 "/>
<text text-anchor="middle" x="268.0323" y="-519.3" font-family="Times,serif" font-size="14.00" fill="#000000">input_image</text>
<polyline fill="none" stroke="#000000" points="213.0323,-511.5 323.0323,-511.5 "/>
<text text-anchor="middle" x="268.0323" y="-496.3" font-family="Times,serif" font-size="14.00" fill="#000000">reference_image</text>
<polyline fill="none" stroke="#000000" points="213.0323,-488.5 323.0323,-488.5 "/>
<text text-anchor="middle" x="268.0323" y="-473.3" font-family="Times,serif" font-size="14.00" fill="#000000">transforms</text>
<polyline fill="none" stroke="#000000" points="323.0323,-465.5 323.0323,-557.5 "/>
<text text-anchor="middle" x="368.5323" y="-538.8" font-family="Times,serif" font-size="14.00" fill="#000000">masktonative</text>
<polyline fill="none" stroke="#000000" points="323.0323,-527.5 414.0323,-527.5 "/>
<text text-anchor="middle" x="368.5323" y="-508.3" font-family="Times,serif" font-size="14.00" fill="#000000">interfaces</text>
<polyline fill="none" stroke="#000000" points="323.0323,-496.5 414.0323,-496.5 "/>
<text text-anchor="middle" x="368.5323" y="-477.3" font-family="Times,serif" font-size="14.00" fill="#000000"> </text>
<polyline fill="none" stroke="#000000" points="414.0323,-465.5 414.0323,-557.5 "/>
<text text-anchor="middle" x="460.5323" y="-530.8" font-family="Times,serif" font-size="14.00" fill="#000000">OUT</text>
<polyline fill="none" stroke="#000000" points="414.0323,-511.5 507.0323,-511.5 "/>
<text text-anchor="middle" x="460.5323" y="-484.8" font-family="Times,serif" font-size="14.00" fill="#000000">output_image</text>
</g>
<!-- cbfqc_compt_wfinputnode&#45;&gt;cbfqc_compt_wfmasktonative -->
<g id="edge7" class="edge">
<title>cbfqc_compt_wfinputnode:e&#45;&gt;cbfqc_compt_wfmasktonative:w</title>
<path fill="none" stroke="#000000" d="M1109.0323,-790.5C1196.3656,-790.5 1169.534,-656.9814 1109.0323,-594 1040.0078,-522.1465 282.0568,-629.8535 213.0323,-558 206.2778,-550.9687 202.3425,-521.5781 206.2814,-507.3223"/>
<polygon fill="#000000" stroke="#000000" points="209.1484,-509.3573 213.0323,-499.5 203.849,-504.7838 209.1484,-509.3573"/>
</g>
<!-- cbfqc_compt_wfinputnode&#45;&gt;cbfqc_compt_wfmasktonative -->
<g id="edge18" class="edge">
<title>cbfqc_compt_wfinputnode:e&#45;&gt;cbfqc_compt_wfmasktonative:w</title>
<path fill="none" stroke="#000000" d="M1109.0323,-651.5C1134.5878,-651.5 1126.7363,-612.4297 1109.0323,-594 1040.0078,-522.1465 282.0568,-629.8535 213.0323,-558 208.1312,-552.898 205.361,-506.0242 208.7016,-485.7611"/>
<polygon fill="#000000" stroke="#000000" points="211.9667,-487.0411 213.0323,-476.5 205.6258,-484.0759 211.9667,-487.0411"/>
</g>
<!-- cbfqc_compt_wfinputnode&#45;&gt;cbfqc_compt_wfmasktonative -->
<g id="edge20" class="edge">
<title>cbfqc_compt_wfinputnode:e&#45;&gt;cbfqc_compt_wfmasktonative:w</title>
<path fill="none" stroke="#000000" d="M1109.0323,-628.5C1124.3656,-628.5 1119.6547,-605.0578 1109.0323,-594 1040.0078,-522.1465 282.0568,-629.8535 213.0323,-558 209.6713,-554.5012 207.4939,-541.615 208.2909,-532.6234"/>
<polygon fill="#000000" stroke="#000000" points="211.5265,-533.9873 213.0323,-523.5 205.3152,-530.7593 211.5265,-533.9873"/>
</g>
<!-- cbfqc_compt_wfgm_tfm -->
<g id="node4" class="node">
<title>cbfqc_compt_wfgm_tfm</title>
<polygon fill="none" stroke="#000000" points="525.0323,-465.5 525.0323,-557.5 799.0323,-557.5 799.0323,-465.5 525.0323,-465.5"/>
<text text-anchor="middle" x="580.0323" y="-542.3" font-family="Times,serif" font-size="14.00" fill="#000000">IN</text>
<polyline fill="none" stroke="#000000" points="525.0323,-534.5 635.0323,-534.5 "/>
<text text-anchor="middle" x="580.0323" y="-519.3" font-family="Times,serif" font-size="14.00" fill="#000000">input_image</text>
<polyline fill="none" stroke="#000000" points="525.0323,-511.5 635.0323,-511.5 "/>
<text text-anchor="middle" x="580.0323" y="-496.3" font-family="Times,serif" font-size="14.00" fill="#000000">reference_image</text>
<polyline fill="none" stroke="#000000" points="525.0323,-488.5 635.0323,-488.5 "/>
<text text-anchor="middle" x="580.0323" y="-473.3" font-family="Times,serif" font-size="14.00" fill="#000000">transforms</text>
<polyline fill="none" stroke="#000000" points="635.0323,-465.5 635.0323,-557.5 "/>
<text text-anchor="middle" x="670.5323" y="-538.8" font-family="Times,serif" font-size="14.00" fill="#000000">gm_tfm</text>
<polyline fill="none" stroke="#000000" points="635.0323,-527.5 706.0323,-527.5 "/>
<text text-anchor="middle" x="670.5323" y="-508.3" font-family="Times,serif" font-size="14.00" fill="#000000">interfaces</text>
<polyline fill="none" stroke="#000000" points="635.0323,-496.5 706.0323,-496.5 "/>
<text text-anchor="middle" x="670.5323" y="-477.3" font-family="Times,serif" font-size="14.00" fill="#000000"> </text>
<polyline fill="none" stroke="#000000" points="706.0323,-465.5 706.0323,-557.5 "/>
<text text-anchor="middle" x="752.5323" y="-530.8" font-family="Times,serif" font-size="14.00" fill="#000000">OUT</text>
<polyline fill="none" stroke="#000000" points="706.0323,-511.5 799.0323,-511.5 "/>
<text text-anchor="middle" x="752.5323" y="-484.8" font-family="Times,serif" font-size="14.00" fill="#000000">output_image</text>
</g>
<!-- cbfqc_compt_wfinputnode&#45;&gt;cbfqc_compt_wfgm_tfm -->
<g id="edge6" class="edge">
<title>cbfqc_compt_wfinputnode:e&#45;&gt;cbfqc_compt_wfgm_tfm:w</title>
<path fill="none" stroke="#000000" d="M1109.0323,-790.5C1196.3656,-790.5 1168.8563,-657.6254 1109.0323,-594 1019.9647,-499.2729 614.0999,-652.7271 525.0323,-558 518.3534,-550.8968 514.3804,-521.5421 518.2956,-507.3088"/>
<polygon fill="#000000" stroke="#000000" points="521.1502,-509.358 525.0323,-499.5 515.85,-504.7855 521.1502,-509.358"/>
</g>
<!-- cbfqc_compt_wfinputnode&#45;&gt;cbfqc_compt_wfgm_tfm -->
<g id="edge17" class="edge">
<title>cbfqc_compt_wfinputnode:e&#45;&gt;cbfqc_compt_wfgm_tfm:w</title>
<path fill="none" stroke="#000000" d="M1109.0323,-651.5C1134.5878,-651.5 1126.5381,-612.6181 1109.0323,-594 1019.9647,-499.2729 614.0999,-652.7271 525.0323,-558 520.1861,-552.8459 517.385,-506.0014 520.7094,-485.7536"/>
<polygon fill="#000000" stroke="#000000" points="523.9708,-487.0415 525.0323,-476.5 517.6287,-484.0788 523.9708,-487.0415"/>
</g>
<!-- cbfqc_compt_wfinputnode&#45;&gt;cbfqc_compt_wfgm_tfm -->
<g id="edge22" class="edge">
<title>cbfqc_compt_wfinputnode:e&#45;&gt;cbfqc_compt_wfgm_tfm:w</title>
<path fill="none" stroke="#000000" d="M1109.0323,-605.5C1114.1434,-605.5 1112.5334,-597.7236 1109.0323,-594 1019.9647,-499.2729 614.0999,-652.7271 525.0323,-558 521.7089,-554.4655 519.5216,-541.5887 520.3061,-532.609"/>
<polygon fill="#000000" stroke="#000000" points="523.5335,-533.9883 525.0323,-523.5 517.32,-530.7644 523.5335,-533.9883"/>
</g>
<!-- cbfqc_compt_wfwm_tfm -->
<g id="node5" class="node">
<title>cbfqc_compt_wfwm_tfm</title>
<polygon fill="none" stroke="#000000" points="817.0323,-465.5 817.0323,-557.5 1091.0323,-557.5 1091.0323,-465.5 817.0323,-465.5"/>
<text text-anchor="middle" x="872.0323" y="-542.3" font-family="Times,serif" font-size="14.00" fill="#000000">IN</text>
<polyline fill="none" stroke="#000000" points="817.0323,-534.5 927.0323,-534.5 "/>
<text text-anchor="middle" x="872.0323" y="-519.3" font-family="Times,serif" font-size="14.00" fill="#000000">input_image</text>
<polyline fill="none" stroke="#000000" points="817.0323,-511.5 927.0323,-511.5 "/>
<text text-anchor="middle" x="872.0323" y="-496.3" font-family="Times,serif" font-size="14.00" fill="#000000">reference_image</text>
<polyline fill="none" stroke="#000000" points="817.0323,-488.5 927.0323,-488.5 "/>
<text text-anchor="middle" x="872.0323" y="-473.3" font-family="Times,serif" font-size="14.00" fill="#000000">transforms</text>
<polyline fill="none" stroke="#000000" points="927.0323,-465.5 927.0323,-557.5 "/>
<text text-anchor="middle" x="962.5323" y="-538.8" font-family="Times,serif" font-size="14.00" fill="#000000">wm_tfm</text>
<polyline fill="none" stroke="#000000" points="927.0323,-527.5 998.0323,-527.5 "/>
<text text-anchor="middle" x="962.5323" y="-508.3" font-family="Times,serif" font-size="14.00" fill="#000000">interfaces</text>
<polyline fill="none" stroke="#000000" points="927.0323,-496.5 998.0323,-496.5 "/>
<text text-anchor="middle" x="962.5323" y="-477.3" font-family="Times,serif" font-size="14.00" fill="#000000"> </text>
<polyline fill="none" stroke="#000000" points="998.0323,-465.5 998.0323,-557.5 "/>
<text text-anchor="middle" x="1044.5323" y="-530.8" font-family="Times,serif" font-size="14.00" fill="#000000">OUT</text>
<polyline fill="none" stroke="#000000" points="998.0323,-511.5 1091.0323,-511.5 "/>
<text text-anchor="middle" x="1044.5323" y="-484.8" font-family="Times,serif" font-size="14.00" fill="#000000">output_image</text>
</g>
<!-- cbfqc_compt_wfinputnode&#45;&gt;cbfqc_compt_wfwm_tfm -->
<g id="edge9" class="edge">
<title>cbfqc_compt_wfinputnode:e&#45;&gt;cbfqc_compt_wfwm_tfm:w</title>
<path fill="none" stroke="#000000" d="M1109.0323,-790.5C1196.3656,-790.5 1166.8849,-659.4231 1109.0323,-594 1022.4121,-496.0448 903.6524,-655.9552 817.0323,-558 810.5735,-550.6961 806.4904,-521.4418 810.3369,-507.2711"/>
<polygon fill="#000000" stroke="#000000" points="813.1566,-509.3605 817.0323,-499.5 807.8534,-504.7914 813.1566,-509.3605"/>
</g>
<!-- cbfqc_compt_wfinputnode&#45;&gt;cbfqc_compt_wfwm_tfm -->
<g id="edge19" class="edge">
<title>cbfqc_compt_wfinputnode:e&#45;&gt;cbfqc_compt_wfwm_tfm:w</title>
<path fill="none" stroke="#000000" d="M1109.0323,-651.5C1134.5878,-651.5 1125.9612,-613.1442 1109.0323,-594 1022.4121,-496.0448 903.6524,-655.9552 817.0323,-558 812.3458,-552.7002 809.4549,-505.9377 812.7324,-485.7327"/>
<polygon fill="#000000" stroke="#000000" points="815.9832,-487.0428 817.0323,-476.5 809.6376,-484.0874 815.9832,-487.0428"/>
</g>
<!-- cbfqc_compt_wfinputnode&#45;&gt;cbfqc_compt_wfwm_tfm -->
<g id="edge23" class="edge">
<title>cbfqc_compt_wfinputnode:e&#45;&gt;cbfqc_compt_wfwm_tfm:w</title>
<path fill="none" stroke="#000000" d="M1109.0323,-605.5C1114.1434,-605.5 1112.4181,-597.8288 1109.0323,-594 1022.4121,-496.0448 903.6524,-655.9552 817.0323,-558 813.8184,-554.3656 811.602,-541.5154 812.3504,-532.5686"/>
<polygon fill="#000000" stroke="#000000" points="815.5548,-533.9913 817.0323,-523.5 809.3348,-530.7801 815.5548,-533.9913"/>
</g>
<!-- cbfqc_compt_wfcsf_tfm -->
<g id="node6" class="node">
<title>cbfqc_compt_wfcsf_tfm</title>
<polygon fill="none" stroke="#000000" points="1109.0323,-465.5 1109.0323,-557.5 1383.0323,-557.5 1383.0323,-465.5 1109.0323,-465.5"/>
<text text-anchor="middle" x="1164.0323" y="-542.3" font-family="Times,serif" font-size="14.00" fill="#000000">IN</text>
<polyline fill="none" stroke="#000000" points="1109.0323,-534.5 1219.0323,-534.5 "/>
<text text-anchor="middle" x="1164.0323" y="-519.3" font-family="Times,serif" font-size="14.00" fill="#000000">input_image</text>
<polyline fill="none" stroke="#000000" points="1109.0323,-511.5 1219.0323,-511.5 "/>
<text text-anchor="middle" x="1164.0323" y="-496.3" font-family="Times,serif" font-size="14.00" fill="#000000">reference_image</text>
<polyline fill="none" stroke="#000000" points="1109.0323,-488.5 1219.0323,-488.5 "/>
<text text-anchor="middle" x="1164.0323" y="-473.3" font-family="Times,serif" font-size="14.00" fill="#000000">transforms</text>
<polyline fill="none" stroke="#000000" points="1219.0323,-465.5 1219.0323,-557.5 "/>
<text text-anchor="middle" x="1254.5323" y="-538.8" font-family="Times,serif" font-size="14.00" fill="#000000">csf_tfm</text>
<polyline fill="none" stroke="#000000" points="1219.0323,-527.5 1290.0323,-527.5 "/>
<text text-anchor="middle" x="1254.5323" y="-508.3" font-family="Times,serif" font-size="14.00" fill="#000000">interfaces</text>
<polyline fill="none" stroke="#000000" points="1219.0323,-496.5 1290.0323,-496.5 "/>
<text text-anchor="middle" x="1254.5323" y="-477.3" font-family="Times,serif" font-size="14.00" fill="#000000"> </text>
<polyline fill="none" stroke="#000000" points="1290.0323,-465.5 1290.0323,-557.5 "/>
<text text-anchor="middle" x="1336.5323" y="-530.8" font-family="Times,serif" font-size="14.00" fill="#000000">OUT</text>
<polyline fill="none" stroke="#000000" points="1290.0323,-511.5 1383.0323,-511.5 "/>
<text text-anchor="middle" x="1336.5323" y="-484.8" font-family="Times,serif" font-size="14.00" fill="#000000">output_image</text>
</g>
<!-- cbfqc_compt_wfinputnode&#45;&gt;cbfqc_compt_wfcsf_tfm -->
<g id="edge5" class="edge">
<title>cbfqc_compt_wfinputnode:e&#45;&gt;cbfqc_compt_wfcsf_tfm:w</title>
<path fill="none" stroke="#000000" d="M1109.0323,-790.5C1109.0323,-790.5 1109.0323,-560.6863 1109.0323,-509.5169"/>
<polygon fill="#000000" stroke="#000000" points="1112.5324,-509.5 1109.0323,-499.5 1105.5324,-509.5 1112.5324,-509.5"/>
</g>
<!-- cbfqc_compt_wfinputnode&#45;&gt;cbfqc_compt_wfcsf_tfm -->
<g id="edge16" class="edge">
<title>cbfqc_compt_wfinputnode:e&#45;&gt;cbfqc_compt_wfcsf_tfm:w</title>
<path fill="none" stroke="#000000" d="M1109.0323,-651.5C1125.8183,-651.5 1099.1312,-521.0805 1104.03,-485.4189"/>
<polygon fill="#000000" stroke="#000000" points="1107.1931,-486.934 1109.0323,-476.5 1101.0878,-483.5097 1107.1931,-486.934"/>
</g>
<!-- cbfqc_compt_wfinputnode&#45;&gt;cbfqc_compt_wfcsf_tfm -->
<g id="edge21" class="edge">
<title>cbfqc_compt_wfinputnode:e&#45;&gt;cbfqc_compt_wfcsf_tfm:w</title>
<path fill="none" stroke="#000000" d="M1109.0323,-605.5C1123.5531,-605.5 1103.3601,-553.4292 1103.7784,-532.2754"/>
<polygon fill="#000000" stroke="#000000" points="1106.8984,-533.8777 1109.0323,-523.5 1100.8925,-530.282 1106.8984,-533.8777"/>
</g>
<!-- cbfqc_compt_wfqccompute -->
<g id="node7" class="node">
<title>cbfqc_compt_wfqccompute</title>
<polygon fill="none" stroke="#000000" points="1449.0323,-106.5 1449.0323,-428.5 1727.0323,-428.5 1727.0323,-106.5 1449.0323,-106.5"/>
<text text-anchor="middle" x="1505.0323" y="-413.3" font-family="Times,serif" font-size="14.00" fill="#000000">IN</text>
<polyline fill="none" stroke="#000000" points="1449.0323,-405.5 1561.0323,-405.5 "/>
<text text-anchor="middle" x="1505.0323" y="-390.3" font-family="Times,serif" font-size="14.00" fill="#000000">in_avgscore</text>
<polyline fill="none" stroke="#000000" points="1449.0323,-382.5 1561.0323,-382.5 "/>
<text text-anchor="middle" x="1505.0323" y="-367.3" font-family="Times,serif" font-size="14.00" fill="#000000">in_basil</text>
<polyline fill="none" stroke="#000000" points="1449.0323,-359.5 1561.0323,-359.5 "/>
<text text-anchor="middle" x="1505.0323" y="-344.3" font-family="Times,serif" font-size="14.00" fill="#000000">in_boldmask</text>
<polyline fill="none" stroke="#000000" points="1449.0323,-336.5 1561.0323,-336.5 "/>
<text text-anchor="middle" x="1505.0323" y="-321.3" font-family="Times,serif" font-size="14.00" fill="#000000">in_boldmaskstd</text>
<polyline fill="none" stroke="#000000" points="1449.0323,-313.5 1561.0323,-313.5 "/>
<text text-anchor="middle" x="1505.0323" y="-298.3" font-family="Times,serif" font-size="14.00" fill="#000000">in_confmat</text>
<polyline fill="none" stroke="#000000" points="1449.0323,-290.5 1561.0323,-290.5 "/>
<text text-anchor="middle" x="1505.0323" y="-275.3" font-family="Times,serif" font-size="14.00" fill="#000000">in_csf</text>
<polyline fill="none" stroke="#000000" points="1449.0323,-267.5 1561.0323,-267.5 "/>
<text text-anchor="middle" x="1505.0323" y="-252.3" font-family="Times,serif" font-size="14.00" fill="#000000">in_greyM</text>
<polyline fill="none" stroke="#000000" points="1449.0323,-244.5 1561.0323,-244.5 "/>
<text text-anchor="middle" x="1505.0323" y="-229.3" font-family="Times,serif" font-size="14.00" fill="#000000">in_meancbf</text>
<polyline fill="none" stroke="#000000" points="1449.0323,-221.5 1561.0323,-221.5 "/>
<text text-anchor="middle" x="1505.0323" y="-206.3" font-family="Times,serif" font-size="14.00" fill="#000000">in_pvc</text>
<polyline fill="none" stroke="#000000" points="1449.0323,-198.5 1561.0323,-198.5 "/>
<text text-anchor="middle" x="1505.0323" y="-183.3" font-family="Times,serif" font-size="14.00" fill="#000000">in_scrub</text>
<polyline fill="none" stroke="#000000" points="1449.0323,-175.5 1561.0323,-175.5 "/>
<text text-anchor="middle" x="1505.0323" y="-160.3" font-family="Times,serif" font-size="14.00" fill="#000000">in_t1mask</text>
<polyline fill="none" stroke="#000000" points="1449.0323,-152.5 1561.0323,-152.5 "/>
<text text-anchor="middle" x="1505.0323" y="-137.3" font-family="Times,serif" font-size="14.00" fill="#000000">in_templatemask</text>
<polyline fill="none" stroke="#000000" points="1449.0323,-129.5 1561.0323,-129.5 "/>
<text text-anchor="middle" x="1505.0323" y="-114.3" font-family="Times,serif" font-size="14.00" fill="#000000">in_whiteM</text>
<polyline fill="none" stroke="#000000" points="1561.0323,-106.5 1561.0323,-428.5 "/>
<text text-anchor="middle" x="1616.5323" y="-371.3" font-family="Times,serif" font-size="14.00" fill="#000000">qccompute</text>
<polyline fill="none" stroke="#000000" points="1561.0323,-321.5 1672.0323,-321.5 "/>
<text text-anchor="middle" x="1616.5323" y="-264.3" font-family="Times,serif" font-size="14.00" fill="#000000">cbf_computation</text>
<polyline fill="none" stroke="#000000" points="1561.0323,-214.5 1672.0323,-214.5 "/>
<text text-anchor="middle" x="1616.5323" y="-156.8" font-family="Times,serif" font-size="14.00" fill="#000000"> </text>
<polyline fill="none" stroke="#000000" points="1672.0323,-106.5 1672.0323,-428.5 "/>
<text text-anchor="middle" x="1699.5323" y="-344.3" font-family="Times,serif" font-size="14.00" fill="#000000">OUT</text>
<polyline fill="none" stroke="#000000" points="1672.0323,-267.5 1727.0323,-267.5 "/>
<text text-anchor="middle" x="1699.5323" y="-183.3" font-family="Times,serif" font-size="14.00" fill="#000000">qc_file</text>
</g>
<!-- cbfqc_compt_wfinputnode&#45;&gt;cbfqc_compt_wfqccompute -->
<g id="edge3" class="edge">
<title>cbfqc_compt_wfinputnode:e&#45;&gt;cbfqc_compt_wfqccompute:w</title>
<path fill="none" stroke="#000000" d="M1109.0323,-836.5C1285.5004,-836.5 1297.6334,-707.0967 1392.0323,-558 1431.1886,-496.1552 1377.8014,-404.0374 1438.7191,-395.189"/>
<polygon fill="#000000" stroke="#000000" points="1439.2879,-398.6589 1449.0323,-394.5 1438.8212,-391.6745 1439.2879,-398.6589"/>
</g>
<!-- cbfqc_compt_wfinputnode&#45;&gt;cbfqc_compt_wfqccompute -->
<g id="edge4" class="edge">
<title>cbfqc_compt_wfinputnode:e&#45;&gt;cbfqc_compt_wfqccompute:w</title>
<path fill="none" stroke="#000000" d="M1109.0323,-813.5C1285.866,-813.5 1324.7137,-710.6184 1414.0323,-558 1454.7167,-488.4827 1372.6846,-381.6338 1438.7057,-372.1744"/>
<polygon fill="#000000" stroke="#000000" points="1439.2817,-375.6443 1449.0323,-371.5 1438.8254,-368.6592 1439.2817,-375.6443"/>
</g>
<!-- cbfqc_compt_wfinputnode&#45;&gt;cbfqc_compt_wfqccompute -->
<g id="edge8" class="edge">
<title>cbfqc_compt_wfinputnode:e&#45;&gt;cbfqc_compt_wfqccompute:w</title>
<path fill="none" stroke="#000000" d="M1109.0323,-790.5C1286.6329,-790.5 1347.2312,-712.9437 1434.0323,-558 1477.7849,-479.8997 1365.5672,-358.9264 1438.616,-349.1342"/>
<polygon fill="#000000" stroke="#000000" points="1439.2635,-352.6014 1449.0323,-348.5 1438.838,-345.6143 1439.2635,-352.6014"/>
</g>
<!-- cbfqc_compt_wfinputnode&#45;&gt;cbfqc_compt_wfqccompute -->
<g id="edge10" class="edge">
<title>cbfqc_compt_wfinputnode:e&#45;&gt;cbfqc_compt_wfqccompute:w</title>
<path fill="none" stroke="#000000" d="M1109.0323,-767.5C1288.4223,-767.5 1366.0619,-714.3394 1454.0323,-558 1502.8363,-471.2663 1357.1902,-335.9984 1438.5856,-326.0784"/>
<polygon fill="#000000" stroke="#000000" points="1439.2411,-329.5476 1449.0323,-325.5 1438.854,-322.5583 1439.2411,-329.5476"/>
</g>
<!-- cbfqc_compt_wfinputnode&#45;&gt;cbfqc_compt_wfqccompute -->
<g id="edge12" class="edge">
<title>cbfqc_compt_wfinputnode:e&#45;&gt;cbfqc_compt_wfqccompute:w</title>
<path fill="none" stroke="#000000" d="M1109.0323,-744.5C1291.2042,-744.5 1378.936,-713.3812 1474.0323,-558 1495.6088,-522.7453 1486.385,-504.4443 1474.0323,-465 1468.2107,-446.4106 1454.8539,-447.5894 1449.0323,-429 1433.3457,-378.9101 1397.9458,-312.0904 1439.0624,-303.4368"/>
<polygon fill="#000000" stroke="#000000" points="1439.4036,-306.9202 1449.0323,-302.5 1438.7487,-299.9509 1439.4036,-306.9202"/>
</g>
<!-- cbfqc_compt_wfinputnode&#45;&gt;cbfqc_compt_wfqccompute -->
<g id="edge13" class="edge">
<title>cbfqc_compt_wfinputnode:e&#45;&gt;cbfqc_compt_wfqccompute:w</title>
<path fill="none" stroke="#000000" d="M1109.0323,-720.5C1295.1703,-720.5 1392.0661,-713.0656 1495.0323,-558 1517.8967,-523.5665 1513.1364,-502.1576 1495.0323,-465 1483.6613,-441.6617 1460.4033,-452.3383 1449.0323,-429 1412.349,-353.7098 1365.7069,-242.1124 1438.9645,-233.0846"/>
<polygon fill="#000000" stroke="#000000" points="1439.252,-236.5739 1449.0323,-232.5 1438.8462,-229.5857 1439.252,-236.5739"/>
</g>
<!-- cbfqc_compt_wfinputnode&#45;&gt;cbfqc_compt_wfqccompute -->
<g id="edge14" class="edge">
<title>cbfqc_compt_wfinputnode:e&#45;&gt;cbfqc_compt_wfqccompute:w</title>
<path fill="none" stroke="#000000" d="M1109.0323,-697.5C1204.8521,-697.5 1461.3051,-635.9483 1517.0323,-558 1541.071,-524.3759 1538.3523,-500.4105 1517.0323,-465 1499.3936,-435.7039 1466.6709,-458.2961 1449.0323,-429 1400.5307,-348.4435 1354.8943,-219.2543 1439.0178,-210.0235"/>
<polygon fill="#000000" stroke="#000000" points="1439.2287,-213.5174 1449.0323,-209.5 1438.8632,-206.5269 1439.2287,-213.5174"/>
</g>
<!-- cbfqc_compt_wfinputnode&#45;&gt;cbfqc_compt_wfqccompute -->
<g id="edge15" class="edge">
<title>cbfqc_compt_wfinputnode:e&#45;&gt;cbfqc_compt_wfqccompute:w</title>
<path fill="none" stroke="#000000" d="M1109.0323,-674.5C1208.2473,-674.5 1479.7204,-636.7788 1540.0323,-558 1565.1584,-525.1805 1563.2698,-499.1827 1540.0323,-465 1515.5798,-429.0301 1473.4847,-464.9699 1449.0323,-429 1390.4516,-342.827 1344.4027,-196.6137 1438.8039,-186.9993"/>
<polygon fill="#000000" stroke="#000000" points="1439.2148,-190.4835 1449.0323,-186.5 1438.8735,-183.4918 1439.2148,-190.4835"/>
</g>
<!-- cbfqc_compt_wfresample&#45;&gt;cbfqc_compt_wfqccompute -->
<g id="edge26" class="edge">
<title>cbfqc_compt_wfresample:e&#45;&gt;cbfqc_compt_wfqccompute:w</title>
<path fill="none" stroke="#000000" d="M195.0323,-494.5C208.74,-494.5 194.1421,-474.4914 204.0323,-465 407.8998,-269.3528 1145.5536,-143.4754 1438.79,-140.552"/>
<polygon fill="#000000" stroke="#000000" points="1439.0502,-144.0509 1449.0323,-140.5 1439.0146,-137.051 1439.0502,-144.0509"/>
</g>
<!-- cbfqc_compt_wfmasktonative&#45;&gt;cbfqc_compt_wfqccompute -->
<g id="edge24" class="edge">
<title>cbfqc_compt_wfmasktonative:e&#45;&gt;cbfqc_compt_wfqccompute:w</title>
<path fill="none" stroke="#000000" d="M507.0323,-488.5C518.2165,-488.5 507.9164,-472.6953 516.0323,-465 829.7899,-167.5022 1010.4158,-163.5441 1438.8651,-163.5004"/>
<polygon fill="#000000" stroke="#000000" points="1439.0325,-167.0005 1449.0323,-163.5 1439.0321,-160.0005 1439.0325,-167.0005"/>
</g>
<!-- cbfqc_compt_wfgm_tfm&#45;&gt;cbfqc_compt_wfqccompute -->
<g id="edge2" class="edge">
<title>cbfqc_compt_wfgm_tfm:e&#45;&gt;cbfqc_compt_wfqccompute:w</title>
<path fill="none" stroke="#000000" d="M799.0323,-488.5C810.2165,-488.5 799.9292,-472.7088 808.0323,-465 1022.7437,-260.7355 1146.5137,-255.5912 1439.0004,-255.5014"/>
<polygon fill="#000000" stroke="#000000" points="1439.0328,-259.0015 1449.0323,-255.5 1439.0318,-252.0015 1439.0328,-259.0015"/>
</g>
<!-- cbfqc_compt_wfwm_tfm&#45;&gt;cbfqc_compt_wfqccompute -->
<g id="edge27" class="edge">
<title>cbfqc_compt_wfwm_tfm:e&#45;&gt;cbfqc_compt_wfqccompute:w</title>
<path fill="none" stroke="#000000" d="M1091.0323,-488.5C1102.2165,-488.5 1093.9344,-474.3757 1100.0323,-465 1217.51,-284.3734 1229.7799,-122.63 1438.9231,-117.6196"/>
<polygon fill="#000000" stroke="#000000" points="1439.0744,-121.1181 1449.0323,-117.5 1438.9916,-114.1186 1439.0744,-121.1181"/>
</g>
<!-- cbfqc_compt_wfcsf_tfm&#45;&gt;cbfqc_compt_wfqccompute -->
<g id="edge1" class="edge">
<title>cbfqc_compt_wfcsf_tfm:e&#45;&gt;cbfqc_compt_wfqccompute:w</title>
<path fill="none" stroke="#000000" d="M1383.0323,-488.5C1393.7341,-488.5 1427.2017,-327.0525 1443.4171,-287.9519"/>
<polygon fill="#000000" stroke="#000000" points="1446.4137,-289.7662 1449.0323,-279.5 1440.5832,-285.8925 1446.4137,-289.7662"/>
</g>
<!-- cbfqc_compt_wfoutputnode -->
<g id="node8" class="node">
<title>cbfqc_compt_wfoutputnode</title>
<polygon fill="none" stroke="#000000" points="1727.5323,-.5 1727.5323,-69.5 1906.5323,-69.5 1906.5323,-.5 1727.5323,-.5"/>
<text text-anchor="middle" x="1755.0323" y="-48.8" font-family="Times,serif" font-size="14.00" fill="#000000">IN</text>
<polyline fill="none" stroke="#000000" points="1727.5323,-35.5 1782.5323,-35.5 "/>
<text text-anchor="middle" x="1755.0323" y="-14.3" font-family="Times,serif" font-size="14.00" fill="#000000">qc_file</text>
<polyline fill="none" stroke="#000000" points="1782.5323,-.5 1782.5323,-69.5 "/>
<text text-anchor="middle" x="1822.0323" y="-54.3" font-family="Times,serif" font-size="14.00" fill="#000000">outputnode</text>
<polyline fill="none" stroke="#000000" points="1782.5323,-46.5 1861.5323,-46.5 "/>
<text text-anchor="middle" x="1822.0323" y="-31.3" font-family="Times,serif" font-size="14.00" fill="#000000">utility</text>
<polyline fill="none" stroke="#000000" points="1782.5323,-23.5 1861.5323,-23.5 "/>
<text text-anchor="middle" x="1822.0323" y="-8.3" font-family="Times,serif" font-size="14.00" fill="#000000"> </text>
<polyline fill="none" stroke="#000000" points="1861.5323,-.5 1861.5323,-69.5 "/>
<text text-anchor="middle" x="1884.0323" y="-31.3" font-family="Times,serif" font-size="14.00" fill="#000000">OUT</text>
</g>
<!-- cbfqc_compt_wfqccompute&#45;&gt;cbfqc_compt_wfoutputnode -->
<g id="edge25" class="edge">
<title>cbfqc_compt_wfqccompute:e&#45;&gt;cbfqc_compt_wfoutputnode:w</title>
<path fill="none" stroke="#000000" d="M1727.0323,-186.5C1797.972,-186.5 1667.3155,-35.3029 1716.9931,-19.3563"/>
<polygon fill="#000000" stroke="#000000" points="1717.5909,-22.8074 1727.0323,-18 1716.6537,-15.8705 1717.5909,-22.8074"/>
</g>
</g>
</svg>
