<?xml version="1.0" encoding="UTF-8" standalone="no"?>
<!DOCTYPE svg PUBLIC "-//W3C//DTD SVG 1.1//EN"
 "http://www.w3.org/Graphics/SVG/1.1/DTD/svg11.dtd">
<!-- Generated by graphviz version 2.40.1 (20161225.0304)
 -->
<!-- Title: structs Pages: 1 -->
<svg width="1074pt" height="1437pt"
 viewBox="0.00 0.00 1074.44 1437.00" xmlns="http://www.w3.org/2000/svg" xmlns:xlink="http://www.w3.org/1999/xlink">
<g id="graph0" class="graph" transform="scale(1 1) rotate(0) translate(4 1433)">
<title>structs</title>
<polygon fill="#ffffff" stroke="transparent" points="-4,4 -4,-1433 1070.4386,-1433 1070.4386,4 -4,4"/>
<!-- ica_aroma_wfinputnode -->
<g id="node1" class="node">
<title>ica_aroma_wfinputnode</title>
<polygon fill="none" stroke="#000000" points="86.9386,-1290.5 86.9386,-1428.5 301.9386,-1428.5 301.9386,-1290.5 86.9386,-1290.5"/>
<text text-anchor="middle" x="102.4386" y="-1355.8" font-family="Times,serif" font-size="14.00" fill="#000000">IN</text>
<polyline fill="none" stroke="#000000" points="117.9386,-1290.5 117.9386,-1428.5 "/>
<text text-anchor="middle" x="153.9386" y="-1401.8" font-family="Times,serif" font-size="14.00" fill="#000000">inputnode</text>
<polyline fill="none" stroke="#000000" points="117.9386,-1382.5 189.9386,-1382.5 "/>
<text text-anchor="middle" x="153.9386" y="-1355.8" font-family="Times,serif" font-size="14.00" fill="#000000">utility</text>
<polyline fill="none" stroke="#000000" points="117.9386,-1336.5 189.9386,-1336.5 "/>
<text text-anchor="middle" x="153.9386" y="-1309.8" font-family="Times,serif" font-size="14.00" fill="#000000"> </text>
<polyline fill="none" stroke="#000000" points="189.9386,-1290.5 189.9386,-1428.5 "/>
<text text-anchor="middle" x="245.9386" y="-1413.3" font-family="Times,serif" font-size="14.00" fill="#000000">OUT</text>
<polyline fill="none" stroke="#000000" points="189.9386,-1405.5 301.9386,-1405.5 "/>
<text text-anchor="middle" x="245.9386" y="-1390.3" font-family="Times,serif" font-size="14.00" fill="#000000">bold_mask_std</text>
<polyline fill="none" stroke="#000000" points="189.9386,-1382.5 301.9386,-1382.5 "/>
<text text-anchor="middle" x="245.9386" y="-1367.3" font-family="Times,serif" font-size="14.00" fill="#000000">bold_std</text>
<polyline fill="none" stroke="#000000" points="189.9386,-1359.5 301.9386,-1359.5 "/>
<text text-anchor="middle" x="245.9386" y="-1344.3" font-family="Times,serif" font-size="14.00" fill="#000000">movpar_file</text>
<polyline fill="none" stroke="#000000" points="189.9386,-1336.5 301.9386,-1336.5 "/>
<text text-anchor="middle" x="245.9386" y="-1321.3" font-family="Times,serif" font-size="14.00" fill="#000000">skip_vols</text>
<polyline fill="none" stroke="#000000" points="189.9386,-1313.5 301.9386,-1313.5 "/>
<text text-anchor="middle" x="245.9386" y="-1298.3" font-family="Times,serif" font-size="14.00" fill="#000000">spatial_reference</text>
</g>
<!-- ica_aroma_wfselect_std -->
<g id="node2" class="node">
<title>ica_aroma_wfselect_std</title>
<polygon fill="none" stroke="#000000" points="302.4386,-1161.5 302.4386,-1253.5 576.4386,-1253.5 576.4386,-1161.5 302.4386,-1161.5"/>
<text text-anchor="middle" x="352.9386" y="-1238.3" font-family="Times,serif" font-size="14.00" fill="#000000">IN</text>
<polyline fill="none" stroke="#000000" points="302.4386,-1230.5 403.4386,-1230.5 "/>
<text text-anchor="middle" x="352.9386" y="-1215.3" font-family="Times,serif" font-size="14.00" fill="#000000">bold_mask_std</text>
<polyline fill="none" stroke="#000000" points="302.4386,-1207.5 403.4386,-1207.5 "/>
<text text-anchor="middle" x="352.9386" y="-1192.3" font-family="Times,serif" font-size="14.00" fill="#000000">bold_std</text>
<polyline fill="none" stroke="#000000" points="302.4386,-1184.5 403.4386,-1184.5 "/>
<text text-anchor="middle" x="352.9386" y="-1169.3" font-family="Times,serif" font-size="14.00" fill="#000000">keys</text>
<polyline fill="none" stroke="#000000" points="403.4386,-1161.5 403.4386,-1253.5 "/>
<text text-anchor="middle" x="439.4386" y="-1234.8" font-family="Times,serif" font-size="14.00" fill="#000000">select_std</text>
<polyline fill="none" stroke="#000000" points="403.4386,-1223.5 475.4386,-1223.5 "/>
<text text-anchor="middle" x="439.4386" y="-1204.3" font-family="Times,serif" font-size="14.00" fill="#000000">interfaces</text>
<polyline fill="none" stroke="#000000" points="403.4386,-1192.5 475.4386,-1192.5 "/>
<text text-anchor="middle" x="439.4386" y="-1173.3" font-family="Times,serif" font-size="14.00" fill="#000000"> </text>
<polyline fill="none" stroke="#000000" points="475.4386,-1161.5 475.4386,-1253.5 "/>
<text text-anchor="middle" x="525.9386" y="-1234.8" font-family="Times,serif" font-size="14.00" fill="#000000">OUT</text>
<polyline fill="none" stroke="#000000" points="475.4386,-1223.5 576.4386,-1223.5 "/>
<text text-anchor="middle" x="525.9386" y="-1204.3" font-family="Times,serif" font-size="14.00" fill="#000000">bold_mask_std</text>
<polyline fill="none" stroke="#000000" points="475.4386,-1192.5 576.4386,-1192.5 "/>
<text text-anchor="middle" x="525.9386" y="-1173.3" font-family="Times,serif" font-size="14.00" fill="#000000">bold_std</text>
</g>
<!-- ica_aroma_wfinputnode&#45;&gt;ica_aroma_wfselect_std -->
<g id="edge14" class="edge">
<title>ica_aroma_wfinputnode:e&#45;&gt;ica_aroma_wfselect_std:w</title>
<path fill="none" stroke="#000000" d="M302.4386,-1394.5C302.4386,-1394.5 302.4386,-1267.0144 302.4386,-1229.6652"/>
<polygon fill="#000000" stroke="#000000" points="305.9387,-1229.5 302.4386,-1219.5 298.9387,-1229.5 305.9387,-1229.5"/>
</g>
<!-- ica_aroma_wfinputnode&#45;&gt;ica_aroma_wfselect_std -->
<g id="edge15" class="edge">
<title>ica_aroma_wfinputnode:e&#45;&gt;ica_aroma_wfselect_std:w</title>
<path fill="none" stroke="#000000" d="M302.4386,-1371.5C376.6886,-1371.5 239.5002,-1212.9211 292.2759,-1196.8155"/>
<polygon fill="#000000" stroke="#000000" points="292.9707,-1200.2548 302.4386,-1195.5 292.072,-1193.3128 292.9707,-1200.2548"/>
</g>
<!-- ica_aroma_wfinputnode&#45;&gt;ica_aroma_wfselect_std -->
<g id="edge20" class="edge">
<title>ica_aroma_wfinputnode:e&#45;&gt;ica_aroma_wfselect_std:w</title>
<path fill="none" stroke="#000000" d="M302.4386,-1301.5C302.4386,-1301.5 302.4386,-1213.033 302.4386,-1182.6224"/>
<polygon fill="#000000" stroke="#000000" points="305.9387,-1182.5 302.4386,-1172.5 298.9387,-1182.5 305.9387,-1182.5"/>
</g>
<!-- ica_aroma_wfrm_nonsteady -->
<g id="node3" class="node">
<title>ica_aroma_wfrm_nonsteady</title>
<polygon fill="none" stroke="#000000" points="122.9386,-1055.5 122.9386,-1124.5 353.9386,-1124.5 353.9386,-1055.5 122.9386,-1055.5"/>
<text text-anchor="middle" x="157.9386" y="-1109.3" font-family="Times,serif" font-size="14.00" fill="#000000">IN</text>
<polyline fill="none" stroke="#000000" points="122.9386,-1101.5 192.9386,-1101.5 "/>
<text text-anchor="middle" x="157.9386" y="-1086.3" font-family="Times,serif" font-size="14.00" fill="#000000">bold_file</text>
<polyline fill="none" stroke="#000000" points="122.9386,-1078.5 192.9386,-1078.5 "/>
<text text-anchor="middle" x="157.9386" y="-1063.3" font-family="Times,serif" font-size="14.00" fill="#000000">skip_vols</text>
<polyline fill="none" stroke="#000000" points="192.9386,-1055.5 192.9386,-1124.5 "/>
<text text-anchor="middle" x="240.9386" y="-1109.3" font-family="Times,serif" font-size="14.00" fill="#000000">rm_nonsteady</text>
<polyline fill="none" stroke="#000000" points="192.9386,-1101.5 288.9386,-1101.5 "/>
<text text-anchor="middle" x="240.9386" y="-1086.3" font-family="Times,serif" font-size="14.00" fill="#000000">utility</text>
<polyline fill="none" stroke="#000000" points="192.9386,-1078.5 288.9386,-1078.5 "/>
<text text-anchor="middle" x="240.9386" y="-1063.3" font-family="Times,serif" font-size="14.00" fill="#000000"> </text>
<polyline fill="none" stroke="#000000" points="288.9386,-1055.5 288.9386,-1124.5 "/>
<text text-anchor="middle" x="321.4386" y="-1103.8" font-family="Times,serif" font-size="14.00" fill="#000000">OUT</text>
<polyline fill="none" stroke="#000000" points="288.9386,-1090.5 353.9386,-1090.5 "/>
<text text-anchor="middle" x="321.4386" y="-1069.3" font-family="Times,serif" font-size="14.00" fill="#000000">bold_cut</text>
</g>
<!-- ica_aroma_wfinputnode&#45;&gt;ica_aroma_wfrm_nonsteady -->
<g id="edge19" class="edge">
<title>ica_aroma_wfinputnode:e&#45;&gt;ica_aroma_wfrm_nonsteady:w</title>
<path fill="none" stroke="#000000" d="M302.4386,-1324.5C317.772,-1324.5 308.6128,-1304.0353 302.4386,-1290 258.7394,-1190.6614 166.1379,-1224.3386 122.4386,-1125 113.8429,-1105.4599 101.8057,-1078.5072 112.5616,-1069.8195"/>
<polygon fill="#000000" stroke="#000000" points="113.7835,-1073.1105 122.4386,-1067 111.862,-1066.3794 113.7835,-1073.1105"/>
</g>
<!-- ica_aroma_wfica_aroma -->
<g id="node9" class="node">
<title>ica_aroma_wfica_aroma</title>
<polygon fill="none" stroke="#000000" points="383.4386,-433.5 383.4386,-571.5 727.4386,-571.5 727.4386,-433.5 383.4386,-433.5"/>
<text text-anchor="middle" x="445.9386" y="-556.3" font-family="Times,serif" font-size="14.00" fill="#000000">IN</text>
<polyline fill="none" stroke="#000000" points="383.4386,-548.5 508.4386,-548.5 "/>
<text text-anchor="middle" x="445.9386" y="-533.3" font-family="Times,serif" font-size="14.00" fill="#000000">in_file</text>
<polyline fill="none" stroke="#000000" points="383.4386,-525.5 508.4386,-525.5 "/>
<text text-anchor="middle" x="445.9386" y="-510.3" font-family="Times,serif" font-size="14.00" fill="#000000">mask</text>
<polyline fill="none" stroke="#000000" points="383.4386,-502.5 508.4386,-502.5 "/>
<text text-anchor="middle" x="445.9386" y="-487.3" font-family="Times,serif" font-size="14.00" fill="#000000">melodic_dir</text>
<polyline fill="none" stroke="#000000" points="383.4386,-479.5 508.4386,-479.5 "/>
<text text-anchor="middle" x="445.9386" y="-464.3" font-family="Times,serif" font-size="14.00" fill="#000000">motion_parameters</text>
<polyline fill="none" stroke="#000000" points="383.4386,-456.5 508.4386,-456.5 "/>
<text text-anchor="middle" x="445.9386" y="-441.3" font-family="Times,serif" font-size="14.00" fill="#000000">report_mask</text>
<polyline fill="none" stroke="#000000" points="508.4386,-433.5 508.4386,-571.5 "/>
<text text-anchor="middle" x="545.9386" y="-544.8" font-family="Times,serif" font-size="14.00" fill="#000000">ica_aroma</text>
<polyline fill="none" stroke="#000000" points="508.4386,-525.5 583.4386,-525.5 "/>
<text text-anchor="middle" x="545.9386" y="-498.8" font-family="Times,serif" font-size="14.00" fill="#000000">interfaces</text>
<polyline fill="none" stroke="#000000" points="508.4386,-479.5 583.4386,-479.5 "/>
<text text-anchor="middle" x="545.9386" y="-452.8" font-family="Times,serif" font-size="14.00" fill="#000000"> </text>
<polyline fill="none" stroke="#000000" points="583.4386,-433.5 583.4386,-571.5 "/>
<text text-anchor="middle" x="655.4386" y="-550.8" font-family="Times,serif" font-size="14.00" fill="#000000">OUT</text>
<polyline fill="none" stroke="#000000" points="583.4386,-537.5 727.4386,-537.5 "/>
<text text-anchor="middle" x="655.4386" y="-516.3" font-family="Times,serif" font-size="14.00" fill="#000000">nonaggr_denoised_file</text>
<polyline fill="none" stroke="#000000" points="583.4386,-502.5 727.4386,-502.5 "/>
<text text-anchor="middle" x="655.4386" y="-481.8" font-family="Times,serif" font-size="14.00" fill="#000000">out_dir</text>
<polyline fill="none" stroke="#000000" points="583.4386,-468.5 727.4386,-468.5 "/>
<text text-anchor="middle" x="655.4386" y="-447.3" font-family="Times,serif" font-size="14.00" fill="#000000">out_report</text>
</g>
<!-- ica_aroma_wfinputnode&#45;&gt;ica_aroma_wfica_aroma -->
<g id="edge16" class="edge">
<title>ica_aroma_wfinputnode:e&#45;&gt;ica_aroma_wfica_aroma:w</title>
<path fill="none" stroke="#000000" d="M302.4386,-1347.5C528.2541,-1347.5 740.4386,-1315.8155 740.4386,-1090 740.4386,-1090 740.4386,-1090 740.4386,-878 740.4386,-753.6913 761.188,-689.6315 667.4386,-608 571.4844,-524.4486 467.5586,-667.4562 383.4386,-572 355.2507,-540.0134 339.6769,-478.6935 373.2382,-468.8485"/>
<polygon fill="#000000" stroke="#000000" points="373.9836,-472.2805 383.4386,-467.5 373.0662,-465.3409 373.9836,-472.2805"/>
</g>
<!-- ica_aroma_wfadd_nonsteady -->
<g id="node11" class="node">
<title>ica_aroma_wfadd_nonsteady</title>
<polygon fill="none" stroke="#000000" points="774.9386,-293 774.9386,-385 1033.9386,-385 1033.9386,-293 774.9386,-293"/>
<text text-anchor="middle" x="819.9386" y="-369.8" font-family="Times,serif" font-size="14.00" fill="#000000">IN</text>
<polyline fill="none" stroke="#000000" points="774.9386,-362 864.9386,-362 "/>
<text text-anchor="middle" x="819.9386" y="-346.8" font-family="Times,serif" font-size="14.00" fill="#000000">bold_cut_file</text>
<polyline fill="none" stroke="#000000" points="774.9386,-339 864.9386,-339 "/>
<text text-anchor="middle" x="819.9386" y="-323.8" font-family="Times,serif" font-size="14.00" fill="#000000">bold_file</text>
<polyline fill="none" stroke="#000000" points="774.9386,-316 864.9386,-316 "/>
<text text-anchor="middle" x="819.9386" y="-300.8" font-family="Times,serif" font-size="14.00" fill="#000000">skip_vols</text>
<polyline fill="none" stroke="#000000" points="864.9386,-293 864.9386,-385 "/>
<text text-anchor="middle" x="914.9386" y="-366.3" font-family="Times,serif" font-size="14.00" fill="#000000">add_nonsteady</text>
<polyline fill="none" stroke="#000000" points="864.9386,-355 964.9386,-355 "/>
<text text-anchor="middle" x="914.9386" y="-335.8" font-family="Times,serif" font-size="14.00" fill="#000000">utility</text>
<polyline fill="none" stroke="#000000" points="864.9386,-324 964.9386,-324 "/>
<text text-anchor="middle" x="914.9386" y="-304.8" font-family="Times,serif" font-size="14.00" fill="#000000"> </text>
<polyline fill="none" stroke="#000000" points="964.9386,-293 964.9386,-385 "/>
<text text-anchor="middle" x="999.4386" y="-358.3" font-family="Times,serif" font-size="14.00" fill="#000000">OUT</text>
<polyline fill="none" stroke="#000000" points="964.9386,-339 1033.9386,-339 "/>
<text text-anchor="middle" x="999.4386" y="-312.3" font-family="Times,serif" font-size="14.00" fill="#000000">bold_add</text>
</g>
<!-- ica_aroma_wfinputnode&#45;&gt;ica_aroma_wfadd_nonsteady -->
<g id="edge17" class="edge">
<title>ica_aroma_wfinputnode:e&#45;&gt;ica_aroma_wfadd_nonsteady:w</title>
<path fill="none" stroke="#000000" d="M302.4386,-1324.5C396.6394,-1324.5 645.9946,-1311.7224 720.4386,-1254 783.4893,-1205.1118 793.4386,-1169.7837 793.4386,-1090 793.4386,-1090 793.4386,-1090 793.4386,-643 793.4386,-626.0529 762.8761,-365.9202 770.3476,-313.2556"/>
<polygon fill="#000000" stroke="#000000" points="773.5971,-314.5614 774.4386,-304 767.1946,-311.7314 773.5971,-314.5614"/>
</g>
<!-- ica_aroma_wfica_aroma_confound_extraction -->
<g id="node12" class="node">
<title>ica_aroma_wfica_aroma_confound_extraction</title>
<polygon fill="none" stroke="#000000" points="106.4386,-281.5 106.4386,-396.5 506.4386,-396.5 506.4386,-281.5 106.4386,-281.5"/>
<text text-anchor="middle" x="148.9386" y="-373.8" font-family="Times,serif" font-size="14.00" fill="#000000">IN</text>
<polyline fill="none" stroke="#000000" points="106.4386,-358.5 191.4386,-358.5 "/>
<text text-anchor="middle" x="148.9386" y="-335.8" font-family="Times,serif" font-size="14.00" fill="#000000">in_directory</text>
<polyline fill="none" stroke="#000000" points="106.4386,-320.5 191.4386,-320.5 "/>
<text text-anchor="middle" x="148.9386" y="-297.3" font-family="Times,serif" font-size="14.00" fill="#000000">skip_vols</text>
<polyline fill="none" stroke="#000000" points="191.4386,-281.5 191.4386,-396.5 "/>
<text text-anchor="middle" x="290.4386" y="-373.8" font-family="Times,serif" font-size="14.00" fill="#000000">ica_aroma_confound_extraction</text>
<polyline fill="none" stroke="#000000" points="191.4386,-358.5 389.4386,-358.5 "/>
<text text-anchor="middle" x="290.4386" y="-335.8" font-family="Times,serif" font-size="14.00" fill="#000000">confounds</text>
<polyline fill="none" stroke="#000000" points="191.4386,-320.5 389.4386,-320.5 "/>
<text text-anchor="middle" x="290.4386" y="-297.3" font-family="Times,serif" font-size="14.00" fill="#000000"> </text>
<polyline fill="none" stroke="#000000" points="389.4386,-281.5 389.4386,-396.5 "/>
<text text-anchor="middle" x="447.9386" y="-381.3" font-family="Times,serif" font-size="14.00" fill="#000000">OUT</text>
<polyline fill="none" stroke="#000000" points="389.4386,-373.5 506.4386,-373.5 "/>
<text text-anchor="middle" x="447.9386" y="-358.3" font-family="Times,serif" font-size="14.00" fill="#000000">aroma_confounds</text>
<polyline fill="none" stroke="#000000" points="389.4386,-350.5 506.4386,-350.5 "/>
<text text-anchor="middle" x="447.9386" y="-335.3" font-family="Times,serif" font-size="14.00" fill="#000000">aroma_metadata</text>
<polyline fill="none" stroke="#000000" points="389.4386,-327.5 506.4386,-327.5 "/>
<text text-anchor="middle" x="447.9386" y="-312.3" font-family="Times,serif" font-size="14.00" fill="#000000">aroma_noise_ics</text>
<polyline fill="none" stroke="#000000" points="389.4386,-304.5 506.4386,-304.5 "/>
<text text-anchor="middle" x="447.9386" y="-289.3" font-family="Times,serif" font-size="14.00" fill="#000000">melodic_mix</text>
</g>
<!-- ica_aroma_wfinputnode&#45;&gt;ica_aroma_wfica_aroma_confound_extraction -->
<g id="edge18" class="edge">
<title>ica_aroma_wfinputnode:e&#45;&gt;ica_aroma_wfica_aroma_confound_extraction:w</title>
<path fill="none" stroke="#000000" d="M302.4386,-1324.5C317.772,-1324.5 312.0092,-1301.9798 302.4386,-1290 257.2142,-1233.3914 204.7653,-1292.5853 143.4386,-1254 64.7135,-1204.468 13.4386,-1183.0111 13.4386,-1090 13.4386,-1090 13.4386,-1090 13.4386,-643 13.4386,-489.0184 -48.2152,-309.2736 96.1573,-301.2768"/>
<polygon fill="#000000" stroke="#000000" points="96.5365,-304.768 106.4386,-301 96.348,-297.7705 96.5365,-304.768"/>
</g>
<!-- ica_aroma_wfselect_std&#45;&gt;ica_aroma_wfrm_nonsteady -->
<g id="edge30" class="edge">
<title>ica_aroma_wfselect_std:e&#45;&gt;ica_aroma_wfrm_nonsteady:w</title>
<path fill="none" stroke="#000000" d="M576.4386,-1176.5C583.3275,-1176.5 581.1133,-1166.06 576.4386,-1161 507.7621,-1086.6622 191.1151,-1199.3378 122.4386,-1125 115.0166,-1116.9662 110.3414,-1102.9264 113.6269,-1095.2984"/>
<polygon fill="#000000" stroke="#000000" points="115.6722,-1098.1527 122.4386,-1090 112.065,-1092.1536 115.6722,-1098.1527"/>
</g>
<!-- ica_aroma_wfcalc_median_val -->
<g id="node5" class="node">
<title>ica_aroma_wfcalc_median_val</title>
<polygon fill="none" stroke="#000000" points="354.9386,-949.5 354.9386,-1018.5 597.9386,-1018.5 597.9386,-949.5 354.9386,-949.5"/>
<text text-anchor="middle" x="390.4386" y="-1003.3" font-family="Times,serif" font-size="14.00" fill="#000000">IN</text>
<polyline fill="none" stroke="#000000" points="354.9386,-995.5 425.9386,-995.5 "/>
<text text-anchor="middle" x="390.4386" y="-980.3" font-family="Times,serif" font-size="14.00" fill="#000000">in_file</text>
<polyline fill="none" stroke="#000000" points="354.9386,-972.5 425.9386,-972.5 "/>
<text text-anchor="middle" x="390.4386" y="-957.3" font-family="Times,serif" font-size="14.00" fill="#000000">mask_file</text>
<polyline fill="none" stroke="#000000" points="425.9386,-949.5 425.9386,-1018.5 "/>
<text text-anchor="middle" x="481.4386" y="-1003.3" font-family="Times,serif" font-size="14.00" fill="#000000">calc_median_val</text>
<polyline fill="none" stroke="#000000" points="425.9386,-995.5 536.9386,-995.5 "/>
<text text-anchor="middle" x="481.4386" y="-980.3" font-family="Times,serif" font-size="14.00" fill="#000000">fsl</text>
<polyline fill="none" stroke="#000000" points="425.9386,-972.5 536.9386,-972.5 "/>
<text text-anchor="middle" x="481.4386" y="-957.3" font-family="Times,serif" font-size="14.00" fill="#000000"> </text>
<polyline fill="none" stroke="#000000" points="536.9386,-949.5 536.9386,-1018.5 "/>
<text text-anchor="middle" x="567.4386" y="-997.8" font-family="Times,serif" font-size="14.00" fill="#000000">OUT</text>
<polyline fill="none" stroke="#000000" points="536.9386,-984.5 597.9386,-984.5 "/>
<text text-anchor="middle" x="567.4386" y="-963.3" font-family="Times,serif" font-size="14.00" fill="#000000">out_stat</text>
</g>
<!-- ica_aroma_wfselect_std&#45;&gt;ica_aroma_wfcalc_median_val -->
<g id="edge25" class="edge">
<title>ica_aroma_wfselect_std:e&#45;&gt;ica_aroma_wfcalc_median_val:w</title>
<path fill="none" stroke="#000000" d="M576.4386,-1208.5C597.5498,-1208.5 586.5759,-1179.5179 576.4386,-1161 520.1969,-1058.2625 410.6804,-1121.7375 354.4386,-1019 349.8452,-1010.6091 344.9704,-982.7246 348.0315,-968.9044"/>
<polygon fill="#000000" stroke="#000000" points="350.8606,-970.9724 354.4386,-961 345.4227,-966.5645 350.8606,-970.9724"/>
</g>
<!-- ica_aroma_wfmelodic -->
<g id="node8" class="node">
<title>ica_aroma_wfmelodic</title>
<polygon fill="none" stroke="#000000" points="450.9386,-608.5 450.9386,-677.5 627.9386,-677.5 627.9386,-608.5 450.9386,-608.5"/>
<text text-anchor="middle" x="479.9386" y="-662.3" font-family="Times,serif" font-size="14.00" fill="#000000">IN</text>
<polyline fill="none" stroke="#000000" points="450.9386,-654.5 508.9386,-654.5 "/>
<text text-anchor="middle" x="479.9386" y="-639.3" font-family="Times,serif" font-size="14.00" fill="#000000">in_files</text>
<polyline fill="none" stroke="#000000" points="450.9386,-631.5 508.9386,-631.5 "/>
<text text-anchor="middle" x="479.9386" y="-616.3" font-family="Times,serif" font-size="14.00" fill="#000000">mask</text>
<polyline fill="none" stroke="#000000" points="508.9386,-608.5 508.9386,-677.5 "/>
<text text-anchor="middle" x="539.9386" y="-662.3" font-family="Times,serif" font-size="14.00" fill="#000000">melodic</text>
<polyline fill="none" stroke="#000000" points="508.9386,-654.5 570.9386,-654.5 "/>
<text text-anchor="middle" x="539.9386" y="-639.3" font-family="Times,serif" font-size="14.00" fill="#000000">fsl</text>
<polyline fill="none" stroke="#000000" points="508.9386,-631.5 570.9386,-631.5 "/>
<text text-anchor="middle" x="539.9386" y="-616.3" font-family="Times,serif" font-size="14.00" fill="#000000"> </text>
<polyline fill="none" stroke="#000000" points="570.9386,-608.5 570.9386,-677.5 "/>
<text text-anchor="middle" x="599.4386" y="-656.8" font-family="Times,serif" font-size="14.00" fill="#000000">OUT</text>
<polyline fill="none" stroke="#000000" points="570.9386,-643.5 627.9386,-643.5 "/>
<text text-anchor="middle" x="599.4386" y="-622.3" font-family="Times,serif" font-size="14.00" fill="#000000">out_dir</text>
</g>
<!-- ica_aroma_wfselect_std&#45;&gt;ica_aroma_wfmelodic -->
<g id="edge28" class="edge">
<title>ica_aroma_wfselect_std:e&#45;&gt;ica_aroma_wfmelodic:w</title>
<path fill="none" stroke="#000000" d="M576.4386,-1208.5C678.6611,-1208.5 626.4386,-1086.2225 626.4386,-984 626.4386,-984 626.4386,-984 626.4386,-878 626.4386,-759.5941 492.2417,-788.7811 450.4386,-678 442.902,-658.0274 430.1698,-631.3586 440.6554,-622.7811"/>
<polygon fill="#000000" stroke="#000000" points="441.7768,-626.1011 450.4386,-620 439.8627,-619.3679 441.7768,-626.1011"/>
</g>
<!-- ica_aroma_wfselect_std&#45;&gt;ica_aroma_wfica_aroma -->
<g id="edge26" class="edge">
<title>ica_aroma_wfselect_std:e&#45;&gt;ica_aroma_wfica_aroma:w</title>
<path fill="none" stroke="#000000" d="M576.4386,-1208.5C597.5498,-1208.5 590.7762,-1176.4956 576.4386,-1161 506.3511,-1085.2513 197.6062,-1184.7155 113.4386,-1125 57.606,-1085.3877 51.4386,-1052.4574 51.4386,-984 51.4386,-984 51.4386,-984 51.4386,-760.5 51.4386,-580.26 194.3369,-516.8556 373.2532,-514.5648"/>
<polygon fill="#000000" stroke="#000000" points="373.4611,-518.0636 383.4386,-514.5 373.4166,-511.0638 373.4611,-518.0636"/>
</g>
<!-- ica_aroma_wfselect_std&#45;&gt;ica_aroma_wfica_aroma -->
<g id="edge27" class="edge">
<title>ica_aroma_wfselect_std:e&#45;&gt;ica_aroma_wfica_aroma:w</title>
<path fill="none" stroke="#000000" d="M576.4386,-1208.5C683.6081,-1208.5 664.4386,-1091.1694 664.4386,-984 664.4386,-984 664.4386,-984 664.4386,-760.5 664.4386,-691.6681 686.941,-655.8262 637.4386,-608 555.4401,-528.7779 458.1903,-658.0935 383.4386,-572 348.6815,-531.9693 329.3608,-455.2457 373.4154,-445.5218"/>
<polygon fill="#000000" stroke="#000000" points="373.8452,-448.9962 383.4386,-444.5 373.1352,-442.0323 373.8452,-448.9962"/>
</g>
<!-- ica_aroma_wfselect_std&#45;&gt;ica_aroma_wfadd_nonsteady -->
<g id="edge29" class="edge">
<title>ica_aroma_wfselect_std:e&#45;&gt;ica_aroma_wfadd_nonsteady:w</title>
<path fill="none" stroke="#000000" d="M576.4386,-1176.5C627.2226,-1176.5 648.2773,-1165.8571 678.4386,-1125 716.1926,-1073.8578 702.4386,-1047.568 702.4386,-984 702.4386,-984 702.4386,-984 702.4386,-878 702.4386,-770.1982 751.5651,-503.9054 765.4386,-397 766.2074,-391.0764 766.477,-353.562 770.0276,-336.0203"/>
<polygon fill="#000000" stroke="#000000" points="773.1898,-337.521 774.4386,-327 766.9014,-334.4459 773.1898,-337.521"/>
</g>
<!-- ica_aroma_wfcalc_bold_mean -->
<g id="node4" class="node">
<title>ica_aroma_wfcalc_bold_mean</title>
<polygon fill="none" stroke="#000000" points="117.9386,-949.5 117.9386,-1018.5 336.9386,-1018.5 336.9386,-949.5 117.9386,-949.5"/>
<text text-anchor="middle" x="143.9386" y="-997.8" font-family="Times,serif" font-size="14.00" fill="#000000">IN</text>
<polyline fill="none" stroke="#000000" points="117.9386,-984.5 169.9386,-984.5 "/>
<text text-anchor="middle" x="143.9386" y="-963.3" font-family="Times,serif" font-size="14.00" fill="#000000">in_file</text>
<polyline fill="none" stroke="#000000" points="169.9386,-949.5 169.9386,-1018.5 "/>
<text text-anchor="middle" x="223.9386" y="-1003.3" font-family="Times,serif" font-size="14.00" fill="#000000">calc_bold_mean</text>
<polyline fill="none" stroke="#000000" points="169.9386,-995.5 277.9386,-995.5 "/>
<text text-anchor="middle" x="223.9386" y="-980.3" font-family="Times,serif" font-size="14.00" fill="#000000">fsl</text>
<polyline fill="none" stroke="#000000" points="169.9386,-972.5 277.9386,-972.5 "/>
<text text-anchor="middle" x="223.9386" y="-957.3" font-family="Times,serif" font-size="14.00" fill="#000000"> </text>
<polyline fill="none" stroke="#000000" points="277.9386,-949.5 277.9386,-1018.5 "/>
<text text-anchor="middle" x="307.4386" y="-997.8" font-family="Times,serif" font-size="14.00" fill="#000000">OUT</text>
<polyline fill="none" stroke="#000000" points="277.9386,-984.5 336.9386,-984.5 "/>
<text text-anchor="middle" x="307.4386" y="-963.3" font-family="Times,serif" font-size="14.00" fill="#000000">out_file</text>
</g>
<!-- ica_aroma_wfrm_nonsteady&#45;&gt;ica_aroma_wfcalc_bold_mean -->
<g id="edge22" class="edge">
<title>ica_aroma_wfrm_nonsteady:e&#45;&gt;ica_aroma_wfcalc_bold_mean:w</title>
<path fill="none" stroke="#000000" d="M354.4386,-1073C362.4386,-1073 359.6535,-1061.0668 354.4386,-1055 284.9892,-974.2047 186.8881,-1099.7953 117.4386,-1019 111.9658,-1012.6331 108.3456,-988.0676 111.2071,-975.1095"/>
<polygon fill="#000000" stroke="#000000" points="114.1207,-977.0619 117.4386,-967 108.5702,-972.7967 114.1207,-977.0619"/>
</g>
<!-- ica_aroma_wfrm_nonsteady&#45;&gt;ica_aroma_wfcalc_median_val -->
<g id="edge23" class="edge">
<title>ica_aroma_wfrm_nonsteady:e&#45;&gt;ica_aroma_wfcalc_median_val:w</title>
<path fill="none" stroke="#000000" d="M354.4386,-1073C370.4308,-1073 347.6295,-1014.8097 348.771,-992.5337"/>
<polygon fill="#000000" stroke="#000000" points="351.8217,-994.2666 354.4386,-984 345.9906,-990.3938 351.8217,-994.2666"/>
</g>
<!-- ica_aroma_wfsmooth -->
<g id="node7" class="node">
<title>ica_aroma_wfsmooth</title>
<polygon fill="none" stroke="#000000" points="162.9386,-714.5 162.9386,-806.5 449.9386,-806.5 449.9386,-714.5 162.9386,-714.5"/>
<text text-anchor="middle" x="229.4386" y="-791.3" font-family="Times,serif" font-size="14.00" fill="#000000">IN</text>
<polyline fill="none" stroke="#000000" points="162.9386,-783.5 295.9386,-783.5 "/>
<text text-anchor="middle" x="229.4386" y="-768.3" font-family="Times,serif" font-size="14.00" fill="#000000">brightness_threshold</text>
<polyline fill="none" stroke="#000000" points="162.9386,-760.5 295.9386,-760.5 "/>
<text text-anchor="middle" x="229.4386" y="-745.3" font-family="Times,serif" font-size="14.00" fill="#000000">in_file</text>
<polyline fill="none" stroke="#000000" points="162.9386,-737.5 295.9386,-737.5 "/>
<text text-anchor="middle" x="229.4386" y="-722.3" font-family="Times,serif" font-size="14.00" fill="#000000">usans</text>
<polyline fill="none" stroke="#000000" points="295.9386,-714.5 295.9386,-806.5 "/>
<text text-anchor="middle" x="324.9386" y="-787.8" font-family="Times,serif" font-size="14.00" fill="#000000">smooth</text>
<polyline fill="none" stroke="#000000" points="295.9386,-776.5 353.9386,-776.5 "/>
<text text-anchor="middle" x="324.9386" y="-757.3" font-family="Times,serif" font-size="14.00" fill="#000000">fsl</text>
<polyline fill="none" stroke="#000000" points="295.9386,-745.5 353.9386,-745.5 "/>
<text text-anchor="middle" x="324.9386" y="-726.3" font-family="Times,serif" font-size="14.00" fill="#000000"> </text>
<polyline fill="none" stroke="#000000" points="353.9386,-714.5 353.9386,-806.5 "/>
<text text-anchor="middle" x="401.9386" y="-779.8" font-family="Times,serif" font-size="14.00" fill="#000000">OUT</text>
<polyline fill="none" stroke="#000000" points="353.9386,-760.5 449.9386,-760.5 "/>
<text text-anchor="middle" x="401.9386" y="-733.8" font-family="Times,serif" font-size="14.00" fill="#000000">smoothed_file</text>
</g>
<!-- ica_aroma_wfrm_nonsteady&#45;&gt;ica_aroma_wfsmooth -->
<g id="edge24" class="edge">
<title>ica_aroma_wfrm_nonsteady:e&#45;&gt;ica_aroma_wfsmooth:w</title>
<path fill="none" stroke="#000000" d="M354.4386,-1073C362.4386,-1073 359.6699,-1061.0526 354.4386,-1055 282.1828,-971.4005 180.6945,-1102.5995 108.4386,-1019 73.4188,-978.4823 91.0124,-771.16 152.2389,-750.2083"/>
<polygon fill="#000000" stroke="#000000" points="153.1542,-753.6039 162.4386,-748.5 151.9978,-746.7 153.1542,-753.6039"/>
</g>
<!-- ica_aroma_wfgetusans -->
<g id="node6" class="node">
<title>ica_aroma_wfgetusans</title>
<polygon fill="none" stroke="#000000" points="337.4386,-843.5 337.4386,-912.5 501.4386,-912.5 501.4386,-843.5 337.4386,-843.5"/>
<text text-anchor="middle" x="362.9386" y="-897.3" font-family="Times,serif" font-size="14.00" fill="#000000">IN</text>
<polyline fill="none" stroke="#000000" points="337.4386,-889.5 388.4386,-889.5 "/>
<text text-anchor="middle" x="362.9386" y="-874.3" font-family="Times,serif" font-size="14.00" fill="#000000">image</text>
<polyline fill="none" stroke="#000000" points="337.4386,-866.5 388.4386,-866.5 "/>
<text text-anchor="middle" x="362.9386" y="-851.3" font-family="Times,serif" font-size="14.00" fill="#000000">thresh</text>
<polyline fill="none" stroke="#000000" points="388.4386,-843.5 388.4386,-912.5 "/>
<text text-anchor="middle" x="420.9386" y="-897.3" font-family="Times,serif" font-size="14.00" fill="#000000">getusans</text>
<polyline fill="none" stroke="#000000" points="388.4386,-889.5 453.4386,-889.5 "/>
<text text-anchor="middle" x="420.9386" y="-874.3" font-family="Times,serif" font-size="14.00" fill="#000000">utility</text>
<polyline fill="none" stroke="#000000" points="388.4386,-866.5 453.4386,-866.5 "/>
<text text-anchor="middle" x="420.9386" y="-851.3" font-family="Times,serif" font-size="14.00" fill="#000000"> </text>
<polyline fill="none" stroke="#000000" points="453.4386,-843.5 453.4386,-912.5 "/>
<text text-anchor="middle" x="477.4386" y="-891.8" font-family="Times,serif" font-size="14.00" fill="#000000">OUT</text>
<polyline fill="none" stroke="#000000" points="453.4386,-878.5 501.4386,-878.5 "/>
<text text-anchor="middle" x="477.4386" y="-857.3" font-family="Times,serif" font-size="14.00" fill="#000000">usans</text>
</g>
<!-- ica_aroma_wfcalc_bold_mean&#45;&gt;ica_aroma_wfgetusans -->
<g id="edge2" class="edge">
<title>ica_aroma_wfcalc_bold_mean:e&#45;&gt;ica_aroma_wfgetusans:w</title>
<path fill="none" stroke="#000000" d="M337.4386,-967C353.4308,-967 330.6295,-908.8097 331.771,-886.5337"/>
<polygon fill="#000000" stroke="#000000" points="334.8217,-888.2666 337.4386,-878 328.9906,-884.3938 334.8217,-888.2666"/>
</g>
<!-- ica_aroma_wfcalc_median_val&#45;&gt;ica_aroma_wfgetusans -->
<g id="edge3" class="edge">
<title>ica_aroma_wfcalc_median_val:e&#45;&gt;ica_aroma_wfgetusans:w</title>
<path fill="none" stroke="#000000" d="M598.4386,-967C606.4386,-967 603.6948,-955.031 598.4386,-949 521.5022,-860.7232 414.3751,-1001.2768 337.4386,-913 323.2807,-896.7552 314.7798,-867.1398 327.4295,-857.8595"/>
<polygon fill="#000000" stroke="#000000" points="328.7848,-861.1124 337.4386,-855 326.8619,-854.3816 328.7848,-861.1124"/>
</g>
<!-- ica_aroma_wfcalc_median_val&#45;&gt;ica_aroma_wfsmooth -->
<g id="edge4" class="edge">
<title>ica_aroma_wfcalc_median_val:e&#45;&gt;ica_aroma_wfsmooth:w</title>
<path fill="none" stroke="#000000" d="M598.4386,-967C615.8776,-967 628.6072,-906.1055 510.4386,-843 441.859,-806.3765 214.5082,-864.7339 162.4386,-807 155.218,-798.9939 150.5708,-785.1901 153.778,-777.6997"/>
<polygon fill="#000000" stroke="#000000" points="155.6668,-780.6482 162.4386,-772.5 152.0636,-774.6467 155.6668,-780.6482"/>
</g>
<!-- ica_aroma_wfgetusans&#45;&gt;ica_aroma_wfsmooth -->
<g id="edge5" class="edge">
<title>ica_aroma_wfgetusans:e&#45;&gt;ica_aroma_wfsmooth:w</title>
<path fill="none" stroke="#000000" d="M501.4386,-861C509.4386,-861 506.7885,-848.948 501.4386,-843 450.7777,-786.6743 213.0996,-863.3257 162.4386,-807 140.7705,-782.909 128.8835,-736.7031 152.5447,-727.2246"/>
<polygon fill="#000000" stroke="#000000" points="153.1882,-730.6653 162.4386,-725.5 151.9861,-723.7692 153.1882,-730.6653"/>
</g>
<!-- ica_aroma_wfsmooth&#45;&gt;ica_aroma_wfmelodic -->
<g id="edge32" class="edge">
<title>ica_aroma_wfsmooth:e&#45;&gt;ica_aroma_wfmelodic:w</title>
<path fill="none" stroke="#000000" d="M450.4386,-737.5C487.8449,-737.5 425.3063,-662.5414 440.8496,-646.1442"/>
<polygon fill="#000000" stroke="#000000" points="442.0269,-649.4416 450.4386,-643 439.8459,-642.79 442.0269,-649.4416"/>
</g>
<!-- ica_aroma_wfsmooth&#45;&gt;ica_aroma_wfica_aroma -->
<g id="edge31" class="edge">
<title>ica_aroma_wfsmooth:e&#45;&gt;ica_aroma_wfica_aroma:w</title>
<path fill="none" stroke="#000000" d="M450.4386,-737.5C492.5502,-737.5 367.0762,-576.062 375.147,-543.2699"/>
<polygon fill="#000000" stroke="#000000" points="377.2296,-546.0848 383.4386,-537.5 373.2312,-540.339 377.2296,-546.0848"/>
</g>
<!-- ica_aroma_wfmelodic&#45;&gt;ica_aroma_wfica_aroma -->
<g id="edge21" class="edge">
<title>ica_aroma_wfmelodic:e&#45;&gt;ica_aroma_wfica_aroma:w</title>
<path fill="none" stroke="#000000" d="M628.4386,-626C636.4386,-626 633.6682,-614.0541 628.4386,-608 556.4947,-524.7122 455.3826,-655.2878 383.4386,-572 362.2578,-547.4795 349.9863,-501.6125 373.5609,-492.2102"/>
<polygon fill="#000000" stroke="#000000" points="374.1824,-495.6548 383.4386,-490.5 372.9881,-488.7574 374.1824,-495.6548"/>
</g>
<!-- ica_aroma_wfds_report_ica_aroma -->
<g id="node10" class="node">
<title>ica_aroma_wfds_report_ica_aroma</title>
<polygon fill="none" stroke="#000000" points="524.4386,-304.5 524.4386,-373.5 756.4386,-373.5 756.4386,-304.5 524.4386,-304.5"/>
<text text-anchor="middle" x="550.4386" y="-352.8" font-family="Times,serif" font-size="14.00" fill="#000000">IN</text>
<polyline fill="none" stroke="#000000" points="524.4386,-339.5 576.4386,-339.5 "/>
<text text-anchor="middle" x="550.4386" y="-318.3" font-family="Times,serif" font-size="14.00" fill="#000000">in_file</text>
<polyline fill="none" stroke="#000000" points="576.4386,-304.5 576.4386,-373.5 "/>
<text text-anchor="middle" x="643.9386" y="-358.3" font-family="Times,serif" font-size="14.00" fill="#000000">ds_report_ica_aroma</text>
<polyline fill="none" stroke="#000000" points="576.4386,-350.5 711.4386,-350.5 "/>
<text text-anchor="middle" x="643.9386" y="-335.3" font-family="Times,serif" font-size="14.00" fill="#000000"> </text>
<polyline fill="none" stroke="#000000" points="576.4386,-327.5 711.4386,-327.5 "/>
<text text-anchor="middle" x="643.9386" y="-312.3" font-family="Times,serif" font-size="14.00" fill="#000000"> </text>
<polyline fill="none" stroke="#000000" points="711.4386,-304.5 711.4386,-373.5 "/>
<text text-anchor="middle" x="733.9386" y="-335.3" font-family="Times,serif" font-size="14.00" fill="#000000">OUT</text>
</g>
<!-- ica_aroma_wfica_aroma&#45;&gt;ica_aroma_wfds_report_ica_aroma -->
<g id="edge8" class="edge">
<title>ica_aroma_wfica_aroma:e&#45;&gt;ica_aroma_wfds_report_ica_aroma:w</title>
<path fill="none" stroke="#000000" d="M727.4386,-450.5C735.2164,-450.5 732.1083,-439.22 727.4386,-433 671.0297,-357.8622 580.8475,-449.1378 524.4386,-374 519.398,-367.2857 515.5819,-342.8777 518.304,-330.0316"/>
<polygon fill="#000000" stroke="#000000" points="521.15,-332.0715 524.4386,-322 515.5871,-327.8225 521.15,-332.0715"/>
</g>
<!-- ica_aroma_wfica_aroma&#45;&gt;ica_aroma_wfadd_nonsteady -->
<g id="edge6" class="edge">
<title>ica_aroma_wfica_aroma:e&#45;&gt;ica_aroma_wfadd_nonsteady:w</title>
<path fill="none" stroke="#000000" d="M727.4386,-520.5C747.1304,-520.5 734.2567,-451.3354 741.4386,-433 748.452,-415.095 758.117,-414.7812 765.4386,-397 768.1962,-390.3031 766.4344,-370.6799 768.6063,-359.3438"/>
<polygon fill="#000000" stroke="#000000" points="771.5781,-361.2014 774.4386,-351 765.8408,-357.1909 771.5781,-361.2014"/>
</g>
<!-- ica_aroma_wfica_aroma&#45;&gt;ica_aroma_wfica_aroma_confound_extraction -->
<g id="edge7" class="edge">
<title>ica_aroma_wfica_aroma:e&#45;&gt;ica_aroma_wfica_aroma_confound_extraction:w</title>
<path fill="none" stroke="#000000" d="M727.4386,-485.5C739.1053,-485.5 735.4459,-441.4849 727.4386,-433 632.5647,-332.4668 201.3126,-497.5332 106.4386,-397 91.904,-381.5983 83.9667,-352.1152 96.5519,-342.8556"/>
<polygon fill="#000000" stroke="#000000" points="97.8026,-346.1375 106.4386,-340 95.8601,-339.4124 97.8026,-346.1375"/>
</g>
<!-- ica_aroma_wfoutputnode -->
<g id="node14" class="node">
<title>ica_aroma_wfoutputnode</title>
<polygon fill="none" stroke="#000000" points="798.4386,-.5 798.4386,-138.5 1066.4386,-138.5 1066.4386,-.5 798.4386,-.5"/>
<text text-anchor="middle" x="870.4386" y="-123.3" font-family="Times,serif" font-size="14.00" fill="#000000">IN</text>
<polyline fill="none" stroke="#000000" points="798.4386,-115.5 942.4386,-115.5 "/>
<text text-anchor="middle" x="870.4386" y="-100.3" font-family="Times,serif" font-size="14.00" fill="#000000">aroma_confounds</text>
<polyline fill="none" stroke="#000000" points="798.4386,-92.5 942.4386,-92.5 "/>
<text text-anchor="middle" x="870.4386" y="-77.3" font-family="Times,serif" font-size="14.00" fill="#000000">aroma_metadata</text>
<polyline fill="none" stroke="#000000" points="798.4386,-69.5 942.4386,-69.5 "/>
<text text-anchor="middle" x="870.4386" y="-54.3" font-family="Times,serif" font-size="14.00" fill="#000000">aroma_noise_ics</text>
<polyline fill="none" stroke="#000000" points="798.4386,-46.5 942.4386,-46.5 "/>
<text text-anchor="middle" x="870.4386" y="-31.3" font-family="Times,serif" font-size="14.00" fill="#000000">melodic_mix</text>
<polyline fill="none" stroke="#000000" points="798.4386,-23.5 942.4386,-23.5 "/>
<text text-anchor="middle" x="870.4386" y="-8.3" font-family="Times,serif" font-size="14.00" fill="#000000">nonaggr_denoised_file</text>
<polyline fill="none" stroke="#000000" points="942.4386,-.5 942.4386,-138.5 "/>
<text text-anchor="middle" x="981.9386" y="-111.8" font-family="Times,serif" font-size="14.00" fill="#000000">outputnode</text>
<polyline fill="none" stroke="#000000" points="942.4386,-92.5 1021.4386,-92.5 "/>
<text text-anchor="middle" x="981.9386" y="-65.8" font-family="Times,serif" font-size="14.00" fill="#000000">utility</text>
<polyline fill="none" stroke="#000000" points="942.4386,-46.5 1021.4386,-46.5 "/>
<text text-anchor="middle" x="981.9386" y="-19.8" font-family="Times,serif" font-size="14.00" fill="#000000"> </text>
<polyline fill="none" stroke="#000000" points="1021.4386,-.5 1021.4386,-138.5 "/>
<text text-anchor="middle" x="1043.9386" y="-65.8" font-family="Times,serif" font-size="14.00" fill="#000000">OUT</text>
</g>
<!-- ica_aroma_wfadd_nonsteady&#45;&gt;ica_aroma_wfoutputnode -->
<g id="edge1" class="edge">
<title>ica_aroma_wfadd_nonsteady:e&#45;&gt;ica_aroma_wfoutputnode:w</title>
<path fill="none" stroke="#000000" d="M1034.4386,-316C1044.8831,-316 1039.419,-301.6805 1034.4386,-292.5 1030.7096,-285.6261 802.1677,-145.8739 798.4386,-139 773.2118,-92.4984 745.6977,-21.6953 788.2654,-12.4969"/>
<polygon fill="#000000" stroke="#000000" points="788.8277,-15.9586 798.4386,-11.5 788.1449,-8.992 788.8277,-15.9586"/>
</g>
<!-- ica_aroma_wfica_aroma_metadata_fmt -->
<g id="node13" class="node">
<title>ica_aroma_wfica_aroma_metadata_fmt</title>
<polygon fill="none" stroke="#000000" points="506.9386,-175.5 506.9386,-244.5 769.9386,-244.5 769.9386,-175.5 506.9386,-175.5"/>
<text text-anchor="middle" x="532.9386" y="-223.8" font-family="Times,serif" font-size="14.00" fill="#000000">IN</text>
<polyline fill="none" stroke="#000000" points="506.9386,-210.5 558.9386,-210.5 "/>
<text text-anchor="middle" x="532.9386" y="-189.3" font-family="Times,serif" font-size="14.00" fill="#000000">in_file</text>
<polyline fill="none" stroke="#000000" points="558.9386,-175.5 558.9386,-244.5 "/>
<text text-anchor="middle" x="638.4386" y="-229.3" font-family="Times,serif" font-size="14.00" fill="#000000">ica_aroma_metadata_fmt</text>
<polyline fill="none" stroke="#000000" points="558.9386,-221.5 717.9386,-221.5 "/>
<text text-anchor="middle" x="638.4386" y="-206.3" font-family="Times,serif" font-size="14.00" fill="#000000">interfaces</text>
<polyline fill="none" stroke="#000000" points="558.9386,-198.5 717.9386,-198.5 "/>
<text text-anchor="middle" x="638.4386" y="-183.3" font-family="Times,serif" font-size="14.00" fill="#000000"> </text>
<polyline fill="none" stroke="#000000" points="717.9386,-175.5 717.9386,-244.5 "/>
<text text-anchor="middle" x="743.9386" y="-223.8" font-family="Times,serif" font-size="14.00" fill="#000000">OUT</text>
<polyline fill="none" stroke="#000000" points="717.9386,-210.5 769.9386,-210.5 "/>
<text text-anchor="middle" x="743.9386" y="-189.3" font-family="Times,serif" font-size="14.00" fill="#000000">output</text>
</g>
<!-- ica_aroma_wfica_aroma_confound_extraction&#45;&gt;ica_aroma_wfica_aroma_metadata_fmt -->
<g id="edge10" class="edge">
<title>ica_aroma_wfica_aroma_confound_extraction:e&#45;&gt;ica_aroma_wfica_aroma_metadata_fmt:w</title>
<path fill="none" stroke="#000000" d="M506.4386,-339C520.1895,-339 498.9723,-234.0959 502.0689,-202.133"/>
<polygon fill="#000000" stroke="#000000" points="505.2798,-203.5313 506.4386,-193 498.9653,-200.51 505.2798,-203.5313"/>
</g>
<!-- ica_aroma_wfica_aroma_confound_extraction&#45;&gt;ica_aroma_wfoutputnode -->
<g id="edge9" class="edge">
<title>ica_aroma_wfica_aroma_confound_extraction:e&#45;&gt;ica_aroma_wfoutputnode:w</title>
<path fill="none" stroke="#000000" d="M506.4386,-362C524.4386,-362 508.4027,-298.8925 506.4386,-281 501.2834,-234.037 469.1004,-212.032 498.4386,-175 538.9716,-123.8376 712.5598,-106.158 788.0414,-104.6129"/>
<polygon fill="#000000" stroke="#000000" points="788.4773,-108.1085 798.4386,-104.5 788.4012,-101.1089 788.4773,-108.1085"/>
</g>
<!-- ica_aroma_wfica_aroma_confound_extraction&#45;&gt;ica_aroma_wfoutputnode -->
<g id="edge11" class="edge">
<title>ica_aroma_wfica_aroma_confound_extraction:e&#45;&gt;ica_aroma_wfoutputnode:w</title>
<path fill="none" stroke="#000000" d="M506.4386,-316C522.5003,-316 503.4412,-291.6788 515.4386,-281 603.8932,-202.2669 697.1621,-330.1685 779.4386,-245 835.0201,-187.4649 725.3598,-68.7982 788.3669,-58.2528"/>
<polygon fill="#000000" stroke="#000000" points="788.7274,-61.7357 798.4386,-57.5 788.2055,-54.7552 788.7274,-61.7357"/>
</g>
<!-- ica_aroma_wfica_aroma_confound_extraction&#45;&gt;ica_aroma_wfoutputnode -->
<g id="edge12" class="edge">
<title>ica_aroma_wfica_aroma_confound_extraction:e&#45;&gt;ica_aroma_wfoutputnode:w</title>
<path fill="none" stroke="#000000" d="M506.4386,-293C513.1053,-293 509.674,-284.3487 515.4386,-281 570.8284,-248.8242 759.0662,-293.0404 801.4386,-245 829.7249,-212.93 764.7065,-63.6131 789.0508,-38.1861"/>
<polygon fill="#000000" stroke="#000000" points="790.4096,-41.4127 798.4386,-34.5 787.8512,-34.897 790.4096,-41.4127"/>
</g>
<!-- ica_aroma_wfica_aroma_metadata_fmt&#45;&gt;ica_aroma_wfoutputnode -->
<g id="edge13" class="edge">
<title>ica_aroma_wfica_aroma_metadata_fmt:e&#45;&gt;ica_aroma_wfoutputnode:w</title>
<path fill="none" stroke="#000000" d="M770.4386,-193C792.3932,-193 778.4249,-110.6544 790.2761,-87.4947"/>
<polygon fill="#000000" stroke="#000000" points="792.4505,-90.2403 798.4386,-81.5 788.307,-84.5984 792.4505,-90.2403"/>
</g>
</g>
</svg>
