<?xml version="1.0" encoding="UTF-8" standalone="no"?>
<!DOCTYPE svg PUBLIC "-//W3C//DTD SVG 1.1//EN"
 "http://www.w3.org/Graphics/SVG/1.1/DTD/svg11.dtd">
<!-- Generated by graphviz version 2.40.1 (20161225.0304)
 -->
<!-- Title: structs Pages: 1 -->
<svg width="1466pt" height="686pt"
 viewBox="0.00 0.00 1466.01 686.00" xmlns="http://www.w3.org/2000/svg" xmlns:xlink="http://www.w3.org/1999/xlink">
<g id="graph0" class="graph" transform="scale(1 1) rotate(0) translate(4 682)">
<title>structs</title>
<polygon fill="#ffffff" stroke="transparent" points="-4,4 -4,-682 1462.0059,-682 1462.0059,4 -4,4"/>
<!-- bold_reference_wfinputnode -->
<g id="node1" class="node">
<title>bold_reference_wfinputnode</title>
<polygon fill="none" stroke="#000000" points="394.0285,-585.5 394.0285,-677.5 594.0285,-677.5 594.0285,-585.5 394.0285,-585.5"/>
<text text-anchor="middle" x="409.5285" y="-627.8" font-family="Times,serif" font-size="14.00" fill="#000000">IN</text>
<polyline fill="none" stroke="#000000" points="425.0285,-585.5 425.0285,-677.5 "/>
<text text-anchor="middle" x="461.0285" y="-658.8" font-family="Times,serif" font-size="14.00" fill="#000000">inputnode</text>
<polyline fill="none" stroke="#000000" points="425.0285,-647.5 497.0285,-647.5 "/>
<text text-anchor="middle" x="461.0285" y="-628.3" font-family="Times,serif" font-size="14.00" fill="#000000">utility</text>
<polyline fill="none" stroke="#000000" points="425.0285,-616.5 497.0285,-616.5 "/>
<text text-anchor="middle" x="461.0285" y="-597.3" font-family="Times,serif" font-size="14.00" fill="#000000"> </text>
<polyline fill="none" stroke="#000000" points="497.0285,-585.5 497.0285,-677.5 "/>
<text text-anchor="middle" x="545.5285" y="-662.3" font-family="Times,serif" font-size="14.00" fill="#000000">OUT</text>
<polyline fill="none" stroke="#000000" points="497.0285,-654.5 594.0285,-654.5 "/>
<text text-anchor="middle" x="545.5285" y="-639.3" font-family="Times,serif" font-size="14.00" fill="#000000">bold_file</text>
<polyline fill="none" stroke="#000000" points="497.0285,-631.5 594.0285,-631.5 "/>
<text text-anchor="middle" x="545.5285" y="-616.3" font-family="Times,serif" font-size="14.00" fill="#000000">bold_mask</text>
<polyline fill="none" stroke="#000000" points="497.0285,-608.5 594.0285,-608.5 "/>
<text text-anchor="middle" x="545.5285" y="-593.3" font-family="Times,serif" font-size="14.00" fill="#000000">dummy_scans</text>
</g>
<!-- bold_reference_wfval_bold -->
<g id="node2" class="node">
<title>bold_reference_wfval_bold</title>
<polygon fill="none" stroke="#000000" points="15.0285,-479.5 15.0285,-548.5 213.0285,-548.5 213.0285,-479.5 15.0285,-479.5"/>
<text text-anchor="middle" x="41.0285" y="-527.8" font-family="Times,serif" font-size="14.00" fill="#000000">IN</text>
<polyline fill="none" stroke="#000000" points="15.0285,-514.5 67.0285,-514.5 "/>
<text text-anchor="middle" x="41.0285" y="-493.3" font-family="Times,serif" font-size="14.00" fill="#000000">in_file</text>
<polyline fill="none" stroke="#000000" points="67.0285,-479.5 67.0285,-548.5 "/>
<text text-anchor="middle" x="102.5285" y="-533.3" font-family="Times,serif" font-size="14.00" fill="#000000">val_bold</text>
<polyline fill="none" stroke="#000000" points="67.0285,-525.5 138.0285,-525.5 "/>
<text text-anchor="middle" x="102.5285" y="-510.3" font-family="Times,serif" font-size="14.00" fill="#000000">interfaces</text>
<polyline fill="none" stroke="#000000" points="67.0285,-502.5 138.0285,-502.5 "/>
<text text-anchor="middle" x="102.5285" y="-487.3" font-family="Times,serif" font-size="14.00" fill="#000000"> </text>
<polyline fill="none" stroke="#000000" points="138.0285,-479.5 138.0285,-548.5 "/>
<text text-anchor="middle" x="175.5285" y="-533.3" font-family="Times,serif" font-size="14.00" fill="#000000">OUT</text>
<polyline fill="none" stroke="#000000" points="138.0285,-525.5 213.0285,-525.5 "/>
<text text-anchor="middle" x="175.5285" y="-510.3" font-family="Times,serif" font-size="14.00" fill="#000000">out_file</text>
<polyline fill="none" stroke="#000000" points="138.0285,-502.5 213.0285,-502.5 "/>
<text text-anchor="middle" x="175.5285" y="-487.3" font-family="Times,serif" font-size="14.00" fill="#000000">out_report</text>
</g>
<!-- bold_reference_wfinputnode&#45;&gt;bold_reference_wfval_bold -->
<g id="edge10" class="edge">
<title>bold_reference_wfinputnode:e&#45;&gt;bold_reference_wfval_bold:w</title>
<path fill="none" stroke="#000000" d="M594.0285,-643.5C620.0285,-643.5 611.8337,-603.9466 594.0285,-585 505.7455,-491.0574 103.3115,-642.9426 15.0285,-549 2.0455,-535.1847 -5.189,-509.0437 5.3876,-500.0953"/>
<polygon fill="#000000" stroke="#000000" points="6.5771,-503.3894 15.0285,-497 4.4372,-496.7245 6.5771,-503.3894"/>
</g>
<!-- bold_reference_wfcalc_dummy_scans -->
<g id="node6" class="node">
<title>bold_reference_wfcalc_dummy_scans</title>
<polygon fill="none" stroke="#000000" points="545.0285,-256 545.0285,-325 901.0285,-325 901.0285,-256 545.0285,-256"/>
<text text-anchor="middle" x="609.0285" y="-309.8" font-family="Times,serif" font-size="14.00" fill="#000000">IN</text>
<polyline fill="none" stroke="#000000" points="545.0285,-302 673.0285,-302 "/>
<text text-anchor="middle" x="609.0285" y="-286.8" font-family="Times,serif" font-size="14.00" fill="#000000">algo_dummy_scans</text>
<polyline fill="none" stroke="#000000" points="545.0285,-279 673.0285,-279 "/>
<text text-anchor="middle" x="609.0285" y="-263.8" font-family="Times,serif" font-size="14.00" fill="#000000">dummy_scans</text>
<polyline fill="none" stroke="#000000" points="673.0285,-256 673.0285,-325 "/>
<text text-anchor="middle" x="736.0285" y="-309.8" font-family="Times,serif" font-size="14.00" fill="#000000">calc_dummy_scans</text>
<polyline fill="none" stroke="#000000" points="673.0285,-302 799.0285,-302 "/>
<text text-anchor="middle" x="736.0285" y="-286.8" font-family="Times,serif" font-size="14.00" fill="#000000">utility</text>
<polyline fill="none" stroke="#000000" points="673.0285,-279 799.0285,-279 "/>
<text text-anchor="middle" x="736.0285" y="-263.8" font-family="Times,serif" font-size="14.00" fill="#000000"> </text>
<polyline fill="none" stroke="#000000" points="799.0285,-256 799.0285,-325 "/>
<text text-anchor="middle" x="850.0285" y="-304.3" font-family="Times,serif" font-size="14.00" fill="#000000">OUT</text>
<polyline fill="none" stroke="#000000" points="799.0285,-291 901.0285,-291 "/>
<text text-anchor="middle" x="850.0285" y="-269.8" font-family="Times,serif" font-size="14.00" fill="#000000">skip_vols_num</text>
</g>
<!-- bold_reference_wfinputnode&#45;&gt;bold_reference_wfcalc_dummy_scans -->
<g id="edge12" class="edge">
<title>bold_reference_wfinputnode:e&#45;&gt;bold_reference_wfcalc_dummy_scans:w</title>
<path fill="none" stroke="#000000" d="M594.0285,-596.5C693.7201,-596.5 606.9884,-467.4298 575.0285,-373 567.0237,-349.3488 551.9686,-349.4852 545.0285,-325.5 543.7271,-321.0022 540.9148,-292.4225 541.9459,-277.1292"/>
<polygon fill="#000000" stroke="#000000" points="545.3129,-278.091 545.0285,-267.5 538.6462,-275.9568 545.3129,-278.091"/>
</g>
<!-- bold_reference_wfenhance_and_skullstrip_bold_wf -->
<g id="node7" class="node">
<title>bold_reference_wfenhance_and_skullstrip_bold_wf</title>
<polygon fill="none" stroke="#000000" points="919.0285,-244.5 919.0285,-336.5 1441.0285,-336.5 1441.0285,-244.5 919.0285,-244.5"/>
<text text-anchor="middle" x="984.0285" y="-317.8" font-family="Times,serif" font-size="14.00" fill="#000000">IN</text>
<polyline fill="none" stroke="#000000" points="919.0285,-306.5 1049.0285,-306.5 "/>
<text text-anchor="middle" x="984.0285" y="-287.3" font-family="Times,serif" font-size="14.00" fill="#000000">inputnode.in_file</text>
<polyline fill="none" stroke="#000000" points="919.0285,-275.5 1049.0285,-275.5 "/>
<text text-anchor="middle" x="984.0285" y="-256.3" font-family="Times,serif" font-size="14.00" fill="#000000">inputnode.pre_mask</text>
<polyline fill="none" stroke="#000000" points="1049.0285,-244.5 1049.0285,-336.5 "/>
<text text-anchor="middle" x="1150.0285" y="-317.8" font-family="Times,serif" font-size="14.00" fill="#000000">enhance_and_skullstrip_bold_wf</text>
<polyline fill="none" stroke="#000000" points="1049.0285,-306.5 1251.0285,-306.5 "/>
<text text-anchor="middle" x="1150.0285" y="-287.3" font-family="Times,serif" font-size="14.00" fill="#000000"> </text>
<polyline fill="none" stroke="#000000" points="1049.0285,-275.5 1251.0285,-275.5 "/>
<text text-anchor="middle" x="1150.0285" y="-256.3" font-family="Times,serif" font-size="14.00" fill="#000000"> </text>
<polyline fill="none" stroke="#000000" points="1251.0285,-244.5 1251.0285,-336.5 "/>
<text text-anchor="middle" x="1346.0285" y="-321.3" font-family="Times,serif" font-size="14.00" fill="#000000">OUT</text>
<polyline fill="none" stroke="#000000" points="1251.0285,-313.5 1441.0285,-313.5 "/>
<text text-anchor="middle" x="1346.0285" y="-298.3" font-family="Times,serif" font-size="14.00" fill="#000000">outputnode.bias_corrected_file</text>
<polyline fill="none" stroke="#000000" points="1251.0285,-290.5 1441.0285,-290.5 "/>
<text text-anchor="middle" x="1346.0285" y="-275.3" font-family="Times,serif" font-size="14.00" fill="#000000">outputnode.mask_file</text>
<polyline fill="none" stroke="#000000" points="1251.0285,-267.5 1441.0285,-267.5 "/>
<text text-anchor="middle" x="1346.0285" y="-252.3" font-family="Times,serif" font-size="14.00" fill="#000000">outputnode.skull_stripped_file</text>
</g>
<!-- bold_reference_wfinputnode&#45;&gt;bold_reference_wfenhance_and_skullstrip_bold_wf -->
<g id="edge11" class="edge">
<title>bold_reference_wfinputnode:e&#45;&gt;bold_reference_wfenhance_and_skullstrip_bold_wf:w</title>
<path fill="none" stroke="#000000" d="M594.0285,-619.5C782.4133,-619.5 823.2934,-504.23 910.0285,-337 916.3273,-324.8556 907.4944,-283.6235 912.0057,-266.7691"/>
<polygon fill="#000000" stroke="#000000" points="914.5975,-269.1238 919.0285,-259.5 909.5631,-264.26 914.5975,-269.1238"/>
</g>
<!-- bold_reference_wfvalidate_1st -->
<g id="node3" class="node">
<title>bold_reference_wfvalidate_1st</title>
<polygon fill="none" stroke="#000000" points="179.0285,-256 179.0285,-325 353.0285,-325 353.0285,-256 179.0285,-256"/>
<text text-anchor="middle" x="201.5285" y="-304.3" font-family="Times,serif" font-size="14.00" fill="#000000">IN</text>
<polyline fill="none" stroke="#000000" points="179.0285,-291 224.0285,-291 "/>
<text text-anchor="middle" x="201.5285" y="-269.8" font-family="Times,serif" font-size="14.00" fill="#000000">inlist</text>
<polyline fill="none" stroke="#000000" points="224.0285,-256 224.0285,-325 "/>
<text text-anchor="middle" x="266.0285" y="-309.8" font-family="Times,serif" font-size="14.00" fill="#000000">validate_1st</text>
<polyline fill="none" stroke="#000000" points="224.0285,-302 308.0285,-302 "/>
<text text-anchor="middle" x="266.0285" y="-286.8" font-family="Times,serif" font-size="14.00" fill="#000000">utility</text>
<polyline fill="none" stroke="#000000" points="224.0285,-279 308.0285,-279 "/>
<text text-anchor="middle" x="266.0285" y="-263.8" font-family="Times,serif" font-size="14.00" fill="#000000"> </text>
<polyline fill="none" stroke="#000000" points="308.0285,-256 308.0285,-325 "/>
<text text-anchor="middle" x="330.5285" y="-304.3" font-family="Times,serif" font-size="14.00" fill="#000000">OUT</text>
<polyline fill="none" stroke="#000000" points="308.0285,-291 353.0285,-291 "/>
<text text-anchor="middle" x="330.5285" y="-269.8" font-family="Times,serif" font-size="14.00" fill="#000000">out</text>
</g>
<!-- bold_reference_wfval_bold&#45;&gt;bold_reference_wfvalidate_1st -->
<g id="edge15" class="edge">
<title>bold_reference_wfval_bold:e&#45;&gt;bold_reference_wfvalidate_1st:w</title>
<path fill="none" stroke="#000000" d="M213.0285,-491C218.3618,-491 216.0663,-483.3836 213.0285,-479 187.0732,-441.5465 142.9838,-480.4535 117.0285,-443 73.3018,-379.9023 96.5876,-282.331 168.982,-274.0625"/>
<polygon fill="#000000" stroke="#000000" points="169.2398,-277.5536 179.0285,-273.5 168.8484,-270.5646 169.2398,-277.5536"/>
</g>
<!-- bold_reference_wfbold_1st -->
<g id="node4" class="node">
<title>bold_reference_wfbold_1st</title>
<polygon fill="none" stroke="#000000" points="126.5285,-373.5 126.5285,-442.5 281.5285,-442.5 281.5285,-373.5 126.5285,-373.5"/>
<text text-anchor="middle" x="149.0285" y="-421.8" font-family="Times,serif" font-size="14.00" fill="#000000">IN</text>
<polyline fill="none" stroke="#000000" points="126.5285,-408.5 171.5285,-408.5 "/>
<text text-anchor="middle" x="149.0285" y="-387.3" font-family="Times,serif" font-size="14.00" fill="#000000">inlist</text>
<polyline fill="none" stroke="#000000" points="171.5285,-373.5 171.5285,-442.5 "/>
<text text-anchor="middle" x="204.0285" y="-427.3" font-family="Times,serif" font-size="14.00" fill="#000000">bold_1st</text>
<polyline fill="none" stroke="#000000" points="171.5285,-419.5 236.5285,-419.5 "/>
<text text-anchor="middle" x="204.0285" y="-404.3" font-family="Times,serif" font-size="14.00" fill="#000000">utility</text>
<polyline fill="none" stroke="#000000" points="171.5285,-396.5 236.5285,-396.5 "/>
<text text-anchor="middle" x="204.0285" y="-381.3" font-family="Times,serif" font-size="14.00" fill="#000000"> </text>
<polyline fill="none" stroke="#000000" points="236.5285,-373.5 236.5285,-442.5 "/>
<text text-anchor="middle" x="259.0285" y="-421.8" font-family="Times,serif" font-size="14.00" fill="#000000">OUT</text>
<polyline fill="none" stroke="#000000" points="236.5285,-408.5 281.5285,-408.5 "/>
<text text-anchor="middle" x="259.0285" y="-387.3" font-family="Times,serif" font-size="14.00" fill="#000000">out</text>
</g>
<!-- bold_reference_wfval_bold&#45;&gt;bold_reference_wfbold_1st -->
<g id="edge13" class="edge">
<title>bold_reference_wfval_bold:e&#45;&gt;bold_reference_wfbold_1st:w</title>
<path fill="none" stroke="#000000" d="M213.0285,-514C228.584,-514 221.673,-491.9324 213.0285,-479 189.7737,-444.2103 149.2833,-477.7897 126.0285,-443 115.5933,-427.3887 106.8584,-402.8176 116.3459,-394.1523"/>
<polygon fill="#000000" stroke="#000000" points="117.6033,-397.4239 126.0285,-391 115.4362,-390.7677 117.6033,-397.4239"/>
</g>
<!-- bold_reference_wfgen_ref -->
<g id="node5" class="node">
<title>bold_reference_wfgen_ref</title>
<polygon fill="none" stroke="#000000" points="300.0285,-373.5 300.0285,-442.5 566.0285,-442.5 566.0285,-373.5 300.0285,-373.5"/>
<text text-anchor="middle" x="326.0285" y="-421.8" font-family="Times,serif" font-size="14.00" fill="#000000">IN</text>
<polyline fill="none" stroke="#000000" points="300.0285,-408.5 352.0285,-408.5 "/>
<text text-anchor="middle" x="326.0285" y="-387.3" font-family="Times,serif" font-size="14.00" fill="#000000">in_file</text>
<polyline fill="none" stroke="#000000" points="352.0285,-373.5 352.0285,-442.5 "/>
<text text-anchor="middle" x="387.5285" y="-427.3" font-family="Times,serif" font-size="14.00" fill="#000000">gen_ref</text>
<polyline fill="none" stroke="#000000" points="352.0285,-419.5 423.0285,-419.5 "/>
<text text-anchor="middle" x="387.5285" y="-404.3" font-family="Times,serif" font-size="14.00" fill="#000000">interfaces</text>
<polyline fill="none" stroke="#000000" points="352.0285,-396.5 423.0285,-396.5 "/>
<text text-anchor="middle" x="387.5285" y="-381.3" font-family="Times,serif" font-size="14.00" fill="#000000"> </text>
<polyline fill="none" stroke="#000000" points="423.0285,-373.5 423.0285,-442.5 "/>
<text text-anchor="middle" x="494.5285" y="-427.3" font-family="Times,serif" font-size="14.00" fill="#000000">OUT</text>
<polyline fill="none" stroke="#000000" points="423.0285,-419.5 566.0285,-419.5 "/>
<text text-anchor="middle" x="494.5285" y="-404.3" font-family="Times,serif" font-size="14.00" fill="#000000">n_volumes_to_discard</text>
<polyline fill="none" stroke="#000000" points="423.0285,-396.5 566.0285,-396.5 "/>
<text text-anchor="middle" x="494.5285" y="-381.3" font-family="Times,serif" font-size="14.00" fill="#000000">ref_image</text>
</g>
<!-- bold_reference_wfval_bold&#45;&gt;bold_reference_wfgen_ref -->
<g id="edge14" class="edge">
<title>bold_reference_wfval_bold:e&#45;&gt;bold_reference_wfgen_ref:w</title>
<path fill="none" stroke="#000000" d="M213.0285,-514C259.5786,-514 267.387,-483.6728 290.0285,-443 294.1422,-435.6101 291.4295,-411.9799 293.9474,-399.2725"/>
<polygon fill="#000000" stroke="#000000" points="296.9256,-401.1303 300.0285,-391 291.2855,-396.9843 296.9256,-401.1303"/>
</g>
<!-- bold_reference_wfoutputnode -->
<g id="node8" class="node">
<title>bold_reference_wfoutputnode</title>
<polygon fill="none" stroke="#000000" points="709.0285,-.5 709.0285,-207.5 961.0285,-207.5 961.0285,-.5 709.0285,-.5"/>
<text text-anchor="middle" x="773.0285" y="-192.3" font-family="Times,serif" font-size="14.00" fill="#000000">IN</text>
<polyline fill="none" stroke="#000000" points="709.0285,-184.5 837.0285,-184.5 "/>
<text text-anchor="middle" x="773.0285" y="-169.3" font-family="Times,serif" font-size="14.00" fill="#000000">algo_dummy_scans</text>
<polyline fill="none" stroke="#000000" points="709.0285,-161.5 837.0285,-161.5 "/>
<text text-anchor="middle" x="773.0285" y="-146.3" font-family="Times,serif" font-size="14.00" fill="#000000">bold_file</text>
<polyline fill="none" stroke="#000000" points="709.0285,-138.5 837.0285,-138.5 "/>
<text text-anchor="middle" x="773.0285" y="-123.3" font-family="Times,serif" font-size="14.00" fill="#000000">bold_mask</text>
<polyline fill="none" stroke="#000000" points="709.0285,-115.5 837.0285,-115.5 "/>
<text text-anchor="middle" x="773.0285" y="-100.3" font-family="Times,serif" font-size="14.00" fill="#000000">raw_ref_image</text>
<polyline fill="none" stroke="#000000" points="709.0285,-92.5 837.0285,-92.5 "/>
<text text-anchor="middle" x="773.0285" y="-77.3" font-family="Times,serif" font-size="14.00" fill="#000000">ref_image</text>
<polyline fill="none" stroke="#000000" points="709.0285,-69.5 837.0285,-69.5 "/>
<text text-anchor="middle" x="773.0285" y="-54.3" font-family="Times,serif" font-size="14.00" fill="#000000">ref_image_brain</text>
<polyline fill="none" stroke="#000000" points="709.0285,-46.5 837.0285,-46.5 "/>
<text text-anchor="middle" x="773.0285" y="-31.3" font-family="Times,serif" font-size="14.00" fill="#000000">skip_vols</text>
<polyline fill="none" stroke="#000000" points="709.0285,-23.5 837.0285,-23.5 "/>
<text text-anchor="middle" x="773.0285" y="-8.3" font-family="Times,serif" font-size="14.00" fill="#000000">validation_report</text>
<polyline fill="none" stroke="#000000" points="837.0285,-.5 837.0285,-207.5 "/>
<text text-anchor="middle" x="876.5285" y="-169.3" font-family="Times,serif" font-size="14.00" fill="#000000">outputnode</text>
<polyline fill="none" stroke="#000000" points="837.0285,-138.5 916.0285,-138.5 "/>
<text text-anchor="middle" x="876.5285" y="-100.3" font-family="Times,serif" font-size="14.00" fill="#000000">utility</text>
<polyline fill="none" stroke="#000000" points="837.0285,-69.5 916.0285,-69.5 "/>
<text text-anchor="middle" x="876.5285" y="-31.3" font-family="Times,serif" font-size="14.00" fill="#000000"> </text>
<polyline fill="none" stroke="#000000" points="916.0285,-.5 916.0285,-207.5 "/>
<text text-anchor="middle" x="938.5285" y="-100.3" font-family="Times,serif" font-size="14.00" fill="#000000">OUT</text>
</g>
<!-- bold_reference_wfvalidate_1st&#45;&gt;bold_reference_wfoutputnode -->
<g id="edge16" class="edge">
<title>bold_reference_wfvalidate_1st:e&#45;&gt;bold_reference_wfoutputnode:w</title>
<path fill="none" stroke="#000000" d="M353.0285,-273.5C375.7952,-273.5 641.6036,-48.4293 699.4974,-15.8995"/>
<polygon fill="#000000" stroke="#000000" points="701.0985,-19.0261 709.0285,-12 698.4478,-12.5474 701.0985,-19.0261"/>
</g>
<!-- bold_reference_wfbold_1st&#45;&gt;bold_reference_wfoutputnode -->
<g id="edge1" class="edge">
<title>bold_reference_wfbold_1st:e&#45;&gt;bold_reference_wfoutputnode:w</title>
<path fill="none" stroke="#000000" d="M282.0285,-391C290.9728,-391 284.7217,-379.3423 291.0285,-373 315.9756,-347.9123 332.1334,-355.9218 362.0285,-337 419.0429,-300.9134 423.673,-277.8751 482.0285,-244 573.4234,-190.9456 598.2519,-152.5414 698.7335,-150.1213"/>
<polygon fill="#000000" stroke="#000000" points="699.0704,-153.6177 709.0285,-150 698.9879,-146.6181 699.0704,-153.6177"/>
</g>
<!-- bold_reference_wfgen_ref&#45;&gt;bold_reference_wfcalc_dummy_scans -->
<g id="edge6" class="edge">
<title>bold_reference_wfgen_ref:e&#45;&gt;bold_reference_wfcalc_dummy_scans:w</title>
<path fill="none" stroke="#000000" d="M566.0285,-408C614.5192,-408 512.4935,-309.8275 535.1143,-292.9542"/>
<polygon fill="#000000" stroke="#000000" points="536.1625,-296.3004 545.0285,-290.5 534.4804,-289.5055 536.1625,-296.3004"/>
</g>
<!-- bold_reference_wfgen_ref&#45;&gt;bold_reference_wfenhance_and_skullstrip_bold_wf -->
<g id="edge8" class="edge">
<title>bold_reference_wfgen_ref:e&#45;&gt;bold_reference_wfenhance_and_skullstrip_bold_wf:w</title>
<path fill="none" stroke="#000000" d="M566.0285,-385C604.621,-385 881.9777,-363.5053 910.0285,-337 920.9147,-326.7135 909.8509,-307.3555 910.8929,-297.5381"/>
<polygon fill="#000000" stroke="#000000" points="913.0844,-300.2703 919.0285,-291.5 908.9125,-294.6493 913.0844,-300.2703"/>
</g>
<!-- bold_reference_wfgen_ref&#45;&gt;bold_reference_wfoutputnode -->
<g id="edge7" class="edge">
<title>bold_reference_wfgen_ref:e&#45;&gt;bold_reference_wfoutputnode:w</title>
<path fill="none" stroke="#000000" d="M566.0285,-408C581.584,-408 573.8362,-386.4542 566.0285,-373 549.8418,-345.1075 519.2151,-364.8925 503.0285,-337 482.2822,-301.2504 479.0311,-277.6537 503.0285,-244 529.3286,-207.117 644.3399,-177.1029 698.7047,-173.3872"/>
<polygon fill="#000000" stroke="#000000" points="699.1667,-176.8724 709.0285,-173 698.9043,-169.8773 699.1667,-176.8724"/>
</g>
<!-- bold_reference_wfgen_ref&#45;&gt;bold_reference_wfoutputnode -->
<g id="edge9" class="edge">
<title>bold_reference_wfgen_ref:e&#45;&gt;bold_reference_wfoutputnode:w</title>
<path fill="none" stroke="#000000" d="M566.0285,-385C571.3618,-385 567.8441,-378.0148 566.0285,-373 558.9383,-353.4167 543.1186,-356.5833 536.0285,-337 521.9576,-298.1354 518.228,-281.304 536.0285,-244 577.1279,-157.8691 607.8889,-107.6146 698.843,-104.1876"/>
<polygon fill="#000000" stroke="#000000" points="699.0947,-107.6836 709.0285,-104 698.9657,-100.6848 699.0947,-107.6836"/>
</g>
<!-- bold_reference_wfcalc_dummy_scans&#45;&gt;bold_reference_wfoutputnode -->
<g id="edge2" class="edge">
<title>bold_reference_wfcalc_dummy_scans:e&#45;&gt;bold_reference_wfoutputnode:w</title>
<path fill="none" stroke="#000000" d="M901.0285,-273.5C909.0285,-273.5 905.9595,-261.7996 901.0285,-255.5 846.8452,-186.2784 763.2118,-277.2216 709.0285,-208 663.8574,-150.2919 634.9442,-45.4285 698.9081,-35.7243"/>
<polygon fill="#000000" stroke="#000000" points="699.3039,-39.2051 709.0285,-35 698.8041,-32.2229 699.3039,-39.2051"/>
</g>
<!-- bold_reference_wfenhance_and_skullstrip_bold_wf&#45;&gt;bold_reference_wfoutputnode -->
<g id="edge3" class="edge">
<title>bold_reference_wfenhance_and_skullstrip_bold_wf:e&#45;&gt;bold_reference_wfoutputnode:w</title>
<path fill="none" stroke="#000000" d="M1441.0285,-302.5C1467.0285,-302.5 1458.956,-262.8309 1441.0285,-244 1384.8797,-185.0219 765.1773,-266.9781 709.0285,-208 672.6173,-169.7541 654.932,-91.9134 699.0222,-82.0381"/>
<polygon fill="#000000" stroke="#000000" points="699.4431,-85.5133 709.0285,-81 698.7207,-78.5507 699.4431,-85.5133"/>
</g>
<!-- bold_reference_wfenhance_and_skullstrip_bold_wf&#45;&gt;bold_reference_wfoutputnode -->
<g id="edge4" class="edge">
<title>bold_reference_wfenhance_and_skullstrip_bold_wf:e&#45;&gt;bold_reference_wfoutputnode:w</title>
<path fill="none" stroke="#000000" d="M1441.0285,-278.5C1456.3618,-278.5 1451.6011,-255.1054 1441.0285,-244 1384.8797,-185.0219 765.1773,-266.9781 709.0285,-208 686.8238,-184.6764 675.538,-138.2651 699.1729,-128.7347"/>
<polygon fill="#000000" stroke="#000000" points="699.7866,-132.1805 709.0285,-127 698.5731,-125.2865 699.7866,-132.1805"/>
</g>
<!-- bold_reference_wfenhance_and_skullstrip_bold_wf&#45;&gt;bold_reference_wfoutputnode -->
<g id="edge5" class="edge">
<title>bold_reference_wfenhance_and_skullstrip_bold_wf:e&#45;&gt;bold_reference_wfoutputnode:w</title>
<path fill="none" stroke="#000000" d="M1441.0285,-255.5C1446.1396,-255.5 1444.5527,-247.7018 1441.0285,-244 1384.8797,-185.0219 765.1773,-266.9781 709.0285,-208 665.5743,-162.3562 644.7013,-68.9653 698.8647,-58.8872"/>
<polygon fill="#000000" stroke="#000000" points="699.3708,-62.3565 709.0285,-58 698.762,-55.383 699.3708,-62.3565"/>
</g>
</g>
</svg>
