<?xml version="1.0" encoding="UTF-8" standalone="no"?>
<!DOCTYPE svg PUBLIC "-//W3C//DTD SVG 1.1//EN"
 "http://www.w3.org/Graphics/SVG/1.1/DTD/svg11.dtd">
<!-- Generated by graphviz version 2.40.1 (20161225.0304)
 -->
<!-- Title: structs Pages: 1 -->
<svg width="1531pt" height="1045pt"
 viewBox="0.00 0.00 1530.86 1045.00" xmlns="http://www.w3.org/2000/svg" xmlns:xlink="http://www.w3.org/1999/xlink">
<g id="graph0" class="graph" transform="scale(1 1) rotate(0) translate(4 1041)">
<title>structs</title>
<polygon fill="#ffffff" stroke="transparent" points="-4,4 -4,-1041 1526.8552,-1041 1526.8552,4 -4,4"/>
<!-- cbf_compt_wfinputnode -->
<g id="node1" class="node">
<title>cbf_compt_wfinputnode</title>
<polygon fill="none" stroke="#000000" points="404.0236,-875.5 404.0236,-1036.5 607.0236,-1036.5 607.0236,-875.5 404.0236,-875.5"/>
<text text-anchor="middle" x="419.5236" y="-952.3" font-family="Times,serif" font-size="14.00" fill="#000000">IN</text>
<polyline fill="none" stroke="#000000" points="435.0236,-875.5 435.0236,-1036.5 "/>
<text text-anchor="middle" x="471.0236" y="-1006.3" font-family="Times,serif" font-size="14.00" fill="#000000">inputnode</text>
<polyline fill="none" stroke="#000000" points="435.0236,-983.5 507.0236,-983.5 "/>
<text text-anchor="middle" x="471.0236" y="-952.8" font-family="Times,serif" font-size="14.00" fill="#000000">utility</text>
<polyline fill="none" stroke="#000000" points="435.0236,-929.5 507.0236,-929.5 "/>
<text text-anchor="middle" x="471.0236" y="-898.8" font-family="Times,serif" font-size="14.00" fill="#000000"> </text>
<polyline fill="none" stroke="#000000" points="507.0236,-875.5 507.0236,-1036.5 "/>
<text text-anchor="middle" x="557.0236" y="-1021.3" font-family="Times,serif" font-size="14.00" fill="#000000">OUT</text>
<polyline fill="none" stroke="#000000" points="507.0236,-1013.5 607.0236,-1013.5 "/>
<text text-anchor="middle" x="557.0236" y="-998.3" font-family="Times,serif" font-size="14.00" fill="#000000">bold</text>
<polyline fill="none" stroke="#000000" points="507.0236,-990.5 607.0236,-990.5 "/>
<text text-anchor="middle" x="557.0236" y="-975.3" font-family="Times,serif" font-size="14.00" fill="#000000">bold_file</text>
<polyline fill="none" stroke="#000000" points="507.0236,-967.5 607.0236,-967.5 "/>
<text text-anchor="middle" x="557.0236" y="-952.3" font-family="Times,serif" font-size="14.00" fill="#000000">bold_mask</text>
<polyline fill="none" stroke="#000000" points="507.0236,-944.5 607.0236,-944.5 "/>
<text text-anchor="middle" x="557.0236" y="-929.3" font-family="Times,serif" font-size="14.00" fill="#000000">t1_bold_xform</text>
<polyline fill="none" stroke="#000000" points="507.0236,-921.5 607.0236,-921.5 "/>
<text text-anchor="middle" x="557.0236" y="-906.3" font-family="Times,serif" font-size="14.00" fill="#000000">t1w_mask</text>
<polyline fill="none" stroke="#000000" points="507.0236,-898.5 607.0236,-898.5 "/>
<text text-anchor="middle" x="557.0236" y="-883.3" font-family="Times,serif" font-size="14.00" fill="#000000">t1w_tpms</text>
</g>
<!-- cbf_compt_wfgm_tfm -->
<g id="node2" class="node">
<title>cbf_compt_wfgm_tfm</title>
<polygon fill="none" stroke="#000000" points="23.5236,-746.5 23.5236,-838.5 297.5236,-838.5 297.5236,-746.5 23.5236,-746.5"/>
<text text-anchor="middle" x="78.5236" y="-823.3" font-family="Times,serif" font-size="14.00" fill="#000000">IN</text>
<polyline fill="none" stroke="#000000" points="23.5236,-815.5 133.5236,-815.5 "/>
<text text-anchor="middle" x="78.5236" y="-800.3" font-family="Times,serif" font-size="14.00" fill="#000000">input_image</text>
<polyline fill="none" stroke="#000000" points="23.5236,-792.5 133.5236,-792.5 "/>
<text text-anchor="middle" x="78.5236" y="-777.3" font-family="Times,serif" font-size="14.00" fill="#000000">reference_image</text>
<polyline fill="none" stroke="#000000" points="23.5236,-769.5 133.5236,-769.5 "/>
<text text-anchor="middle" x="78.5236" y="-754.3" font-family="Times,serif" font-size="14.00" fill="#000000">transforms</text>
<polyline fill="none" stroke="#000000" points="133.5236,-746.5 133.5236,-838.5 "/>
<text text-anchor="middle" x="169.0236" y="-819.8" font-family="Times,serif" font-size="14.00" fill="#000000">gm_tfm</text>
<polyline fill="none" stroke="#000000" points="133.5236,-808.5 204.5236,-808.5 "/>
<text text-anchor="middle" x="169.0236" y="-789.3" font-family="Times,serif" font-size="14.00" fill="#000000">interfaces</text>
<polyline fill="none" stroke="#000000" points="133.5236,-777.5 204.5236,-777.5 "/>
<text text-anchor="middle" x="169.0236" y="-758.3" font-family="Times,serif" font-size="14.00" fill="#000000"> </text>
<polyline fill="none" stroke="#000000" points="204.5236,-746.5 204.5236,-838.5 "/>
<text text-anchor="middle" x="251.0236" y="-811.8" font-family="Times,serif" font-size="14.00" fill="#000000">OUT</text>
<polyline fill="none" stroke="#000000" points="204.5236,-792.5 297.5236,-792.5 "/>
<text text-anchor="middle" x="251.0236" y="-765.8" font-family="Times,serif" font-size="14.00" fill="#000000">output_image</text>
</g>
<!-- cbf_compt_wfinputnode&#45;&gt;cbf_compt_wfgm_tfm -->
<g id="edge17" class="edge">
<title>cbf_compt_wfinputnode:e&#45;&gt;cbf_compt_wfgm_tfm:w</title>
<path fill="none" stroke="#000000" d="M607.5236,-956C643.5236,-956 632.1839,-901.2273 607.5236,-875 518.456,-780.2729 112.5912,-933.7271 23.5236,-839 8.4962,-823.0178 .3178,-792.3586 13.7465,-783.1678"/>
<polygon fill="#000000" stroke="#000000" points="14.7976,-786.509 23.5236,-780.5 12.9549,-779.7559 14.7976,-786.509"/>
</g>
<!-- cbf_compt_wfinputnode&#45;&gt;cbf_compt_wfgm_tfm -->
<g id="edge21" class="edge">
<title>cbf_compt_wfinputnode:e&#45;&gt;cbf_compt_wfgm_tfm:w</title>
<path fill="none" stroke="#000000" d="M607.5236,-933C633.3014,-933 625.1816,-893.78 607.5236,-875 518.456,-780.2729 112.5912,-933.7271 23.5236,-839 1.328,-815.3941 -10.1428,-768.8055 13.612,-759.2408"/>
<polygon fill="#000000" stroke="#000000" points="14.2798,-762.6771 23.5236,-757.5 13.0689,-755.7826 14.2798,-762.6771"/>
</g>
<!-- cbf_compt_wfinputnode&#45;&gt;cbf_compt_wfgm_tfm -->
<g id="edge26" class="edge">
<title>cbf_compt_wfinputnode:e&#45;&gt;cbf_compt_wfgm_tfm:w</title>
<path fill="none" stroke="#000000" d="M607.5236,-887C612.8569,-887 611.177,-878.8855 607.5236,-875 518.456,-780.2729 112.5912,-933.7271 23.5236,-839 16.1383,-831.1455 11.558,-817.2801 14.8195,-809.7398"/>
<polygon fill="#000000" stroke="#000000" points="16.7613,-812.6561 23.5236,-804.5 13.151,-806.6589 16.7613,-812.6561"/>
</g>
<!-- cbf_compt_wfwm_tfm -->
<g id="node3" class="node">
<title>cbf_compt_wfwm_tfm</title>
<polygon fill="none" stroke="#000000" points="607.5236,-746.5 607.5236,-838.5 881.5236,-838.5 881.5236,-746.5 607.5236,-746.5"/>
<text text-anchor="middle" x="662.5236" y="-823.3" font-family="Times,serif" font-size="14.00" fill="#000000">IN</text>
<polyline fill="none" stroke="#000000" points="607.5236,-815.5 717.5236,-815.5 "/>
<text text-anchor="middle" x="662.5236" y="-800.3" font-family="Times,serif" font-size="14.00" fill="#000000">input_image</text>
<polyline fill="none" stroke="#000000" points="607.5236,-792.5 717.5236,-792.5 "/>
<text text-anchor="middle" x="662.5236" y="-777.3" font-family="Times,serif" font-size="14.00" fill="#000000">reference_image</text>
<polyline fill="none" stroke="#000000" points="607.5236,-769.5 717.5236,-769.5 "/>
<text text-anchor="middle" x="662.5236" y="-754.3" font-family="Times,serif" font-size="14.00" fill="#000000">transforms</text>
<polyline fill="none" stroke="#000000" points="717.5236,-746.5 717.5236,-838.5 "/>
<text text-anchor="middle" x="753.0236" y="-819.8" font-family="Times,serif" font-size="14.00" fill="#000000">wm_tfm</text>
<polyline fill="none" stroke="#000000" points="717.5236,-808.5 788.5236,-808.5 "/>
<text text-anchor="middle" x="753.0236" y="-789.3" font-family="Times,serif" font-size="14.00" fill="#000000">interfaces</text>
<polyline fill="none" stroke="#000000" points="717.5236,-777.5 788.5236,-777.5 "/>
<text text-anchor="middle" x="753.0236" y="-758.3" font-family="Times,serif" font-size="14.00" fill="#000000"> </text>
<polyline fill="none" stroke="#000000" points="788.5236,-746.5 788.5236,-838.5 "/>
<text text-anchor="middle" x="835.0236" y="-811.8" font-family="Times,serif" font-size="14.00" fill="#000000">OUT</text>
<polyline fill="none" stroke="#000000" points="788.5236,-792.5 881.5236,-792.5 "/>
<text text-anchor="middle" x="835.0236" y="-765.8" font-family="Times,serif" font-size="14.00" fill="#000000">output_image</text>
</g>
<!-- cbf_compt_wfinputnode&#45;&gt;cbf_compt_wfwm_tfm -->
<g id="edge19" class="edge">
<title>cbf_compt_wfinputnode:e&#45;&gt;cbf_compt_wfwm_tfm:w</title>
<path fill="none" stroke="#000000" d="M607.5236,-956C624.3576,-956 597.5942,-825.2078 602.507,-789.4443"/>
<polygon fill="#000000" stroke="#000000" points="605.6844,-790.934 607.5236,-780.5 599.5791,-787.5097 605.6844,-790.934"/>
</g>
<!-- cbf_compt_wfinputnode&#45;&gt;cbf_compt_wfwm_tfm -->
<g id="edge23" class="edge">
<title>cbf_compt_wfinputnode:e&#45;&gt;cbf_compt_wfwm_tfm:w</title>
<path fill="none" stroke="#000000" d="M607.5236,-933C624.3576,-933 597.5942,-802.2078 602.507,-766.4443"/>
<polygon fill="#000000" stroke="#000000" points="605.6844,-767.934 607.5236,-757.5 599.5791,-764.5097 605.6844,-767.934"/>
</g>
<!-- cbf_compt_wfinputnode&#45;&gt;cbf_compt_wfwm_tfm -->
<g id="edge27" class="edge">
<title>cbf_compt_wfinputnode:e&#45;&gt;cbf_compt_wfwm_tfm:w</title>
<path fill="none" stroke="#000000" d="M607.5236,-887C622.2046,-887 601.6168,-834.0968 602.2454,-813.0182"/>
<polygon fill="#000000" stroke="#000000" points="605.2315,-814.8439 607.5236,-804.5 599.2812,-811.1569 605.2315,-814.8439"/>
</g>
<!-- cbf_compt_wfcsf_tfm -->
<g id="node4" class="node">
<title>cbf_compt_wfcsf_tfm</title>
<polygon fill="none" stroke="#000000" points="315.5236,-746.5 315.5236,-838.5 589.5236,-838.5 589.5236,-746.5 315.5236,-746.5"/>
<text text-anchor="middle" x="370.5236" y="-823.3" font-family="Times,serif" font-size="14.00" fill="#000000">IN</text>
<polyline fill="none" stroke="#000000" points="315.5236,-815.5 425.5236,-815.5 "/>
<text text-anchor="middle" x="370.5236" y="-800.3" font-family="Times,serif" font-size="14.00" fill="#000000">input_image</text>
<polyline fill="none" stroke="#000000" points="315.5236,-792.5 425.5236,-792.5 "/>
<text text-anchor="middle" x="370.5236" y="-777.3" font-family="Times,serif" font-size="14.00" fill="#000000">reference_image</text>
<polyline fill="none" stroke="#000000" points="315.5236,-769.5 425.5236,-769.5 "/>
<text text-anchor="middle" x="370.5236" y="-754.3" font-family="Times,serif" font-size="14.00" fill="#000000">transforms</text>
<polyline fill="none" stroke="#000000" points="425.5236,-746.5 425.5236,-838.5 "/>
<text text-anchor="middle" x="461.0236" y="-819.8" font-family="Times,serif" font-size="14.00" fill="#000000">csf_tfm</text>
<polyline fill="none" stroke="#000000" points="425.5236,-808.5 496.5236,-808.5 "/>
<text text-anchor="middle" x="461.0236" y="-789.3" font-family="Times,serif" font-size="14.00" fill="#000000">interfaces</text>
<polyline fill="none" stroke="#000000" points="425.5236,-777.5 496.5236,-777.5 "/>
<text text-anchor="middle" x="461.0236" y="-758.3" font-family="Times,serif" font-size="14.00" fill="#000000"> </text>
<polyline fill="none" stroke="#000000" points="496.5236,-746.5 496.5236,-838.5 "/>
<text text-anchor="middle" x="543.0236" y="-811.8" font-family="Times,serif" font-size="14.00" fill="#000000">OUT</text>
<polyline fill="none" stroke="#000000" points="496.5236,-792.5 589.5236,-792.5 "/>
<text text-anchor="middle" x="543.0236" y="-765.8" font-family="Times,serif" font-size="14.00" fill="#000000">output_image</text>
</g>
<!-- cbf_compt_wfinputnode&#45;&gt;cbf_compt_wfcsf_tfm -->
<g id="edge16" class="edge">
<title>cbf_compt_wfinputnode:e&#45;&gt;cbf_compt_wfcsf_tfm:w</title>
<path fill="none" stroke="#000000" d="M607.5236,-956C643.5236,-956 631.3712,-901.9683 607.5236,-875 520.9034,-777.0448 402.1438,-936.9552 315.5236,-839 309.0649,-831.6961 304.9817,-802.4418 308.8282,-788.2711"/>
<polygon fill="#000000" stroke="#000000" points="311.6479,-790.3605 315.5236,-780.5 306.3447,-785.7914 311.6479,-790.3605"/>
</g>
<!-- cbf_compt_wfinputnode&#45;&gt;cbf_compt_wfcsf_tfm -->
<g id="edge20" class="edge">
<title>cbf_compt_wfinputnode:e&#45;&gt;cbf_compt_wfcsf_tfm:w</title>
<path fill="none" stroke="#000000" d="M607.5236,-933C633.3014,-933 624.5997,-894.3106 607.5236,-875 520.9034,-777.0448 402.1438,-936.9552 315.5236,-839 310.8371,-833.7002 307.9462,-786.9377 311.2237,-766.7327"/>
<polygon fill="#000000" stroke="#000000" points="314.4745,-768.0428 315.5236,-757.5 308.1289,-765.0874 314.4745,-768.0428"/>
</g>
<!-- cbf_compt_wfinputnode&#45;&gt;cbf_compt_wfcsf_tfm -->
<g id="edge25" class="edge">
<title>cbf_compt_wfinputnode:e&#45;&gt;cbf_compt_wfcsf_tfm:w</title>
<path fill="none" stroke="#000000" d="M607.5236,-887C612.8569,-887 611.0566,-878.9953 607.5236,-875 520.9034,-777.0448 402.1438,-936.9552 315.5236,-839 312.3097,-835.3656 310.0933,-822.5154 310.8417,-813.5686"/>
<polygon fill="#000000" stroke="#000000" points="314.0461,-814.9913 315.5236,-804.5 307.8261,-811.7801 314.0461,-814.9913"/>
</g>
<!-- cbf_compt_wfrefinemask -->
<g id="node5" class="node">
<title>cbf_compt_wfrefinemask</title>
<polygon fill="none" stroke="#000000" points="900.0236,-746.5 900.0236,-838.5 1171.0236,-838.5 1171.0236,-746.5 900.0236,-746.5"/>
<text text-anchor="middle" x="944.5236" y="-823.3" font-family="Times,serif" font-size="14.00" fill="#000000">IN</text>
<polyline fill="none" stroke="#000000" points="900.0236,-815.5 989.0236,-815.5 "/>
<text text-anchor="middle" x="944.5236" y="-800.3" font-family="Times,serif" font-size="14.00" fill="#000000">in_boldmask</text>
<polyline fill="none" stroke="#000000" points="900.0236,-792.5 989.0236,-792.5 "/>
<text text-anchor="middle" x="944.5236" y="-777.3" font-family="Times,serif" font-size="14.00" fill="#000000">in_t1mask</text>
<polyline fill="none" stroke="#000000" points="900.0236,-769.5 989.0236,-769.5 "/>
<text text-anchor="middle" x="944.5236" y="-754.3" font-family="Times,serif" font-size="14.00" fill="#000000">transforms</text>
<polyline fill="none" stroke="#000000" points="989.0236,-746.5 989.0236,-838.5 "/>
<text text-anchor="middle" x="1044.5236" y="-819.8" font-family="Times,serif" font-size="14.00" fill="#000000">refinemask</text>
<polyline fill="none" stroke="#000000" points="989.0236,-808.5 1100.0236,-808.5 "/>
<text text-anchor="middle" x="1044.5236" y="-789.3" font-family="Times,serif" font-size="14.00" fill="#000000">cbf_computation</text>
<polyline fill="none" stroke="#000000" points="989.0236,-777.5 1100.0236,-777.5 "/>
<text text-anchor="middle" x="1044.5236" y="-758.3" font-family="Times,serif" font-size="14.00" fill="#000000"> </text>
<polyline fill="none" stroke="#000000" points="1100.0236,-746.5 1100.0236,-838.5 "/>
<text text-anchor="middle" x="1135.5236" y="-811.8" font-family="Times,serif" font-size="14.00" fill="#000000">OUT</text>
<polyline fill="none" stroke="#000000" points="1100.0236,-792.5 1171.0236,-792.5 "/>
<text text-anchor="middle" x="1135.5236" y="-765.8" font-family="Times,serif" font-size="14.00" fill="#000000">out_mask</text>
</g>
<!-- cbf_compt_wfinputnode&#45;&gt;cbf_compt_wfrefinemask -->
<g id="edge18" class="edge">
<title>cbf_compt_wfinputnode:e&#45;&gt;cbf_compt_wfrefinemask:w</title>
<path fill="none" stroke="#000000" d="M607.5236,-956C743.6267,-956 801.0892,-941.5941 890.5236,-839 897.1943,-831.3477 892.5084,-819.3411 892.4451,-811.6997"/>
<polygon fill="#000000" stroke="#000000" points="895.0085,-814.0846 899.5236,-804.5 890.0169,-809.177 895.0085,-814.0846"/>
</g>
<!-- cbf_compt_wfinputnode&#45;&gt;cbf_compt_wfrefinemask -->
<g id="edge22" class="edge">
<title>cbf_compt_wfinputnode:e&#45;&gt;cbf_compt_wfrefinemask:w</title>
<path fill="none" stroke="#000000" d="M607.5236,-933C673.7909,-933 848.8528,-890.5258 890.5236,-839 899.6542,-827.71 888.3773,-782.6602 892.6397,-764.8245"/>
<polygon fill="#000000" stroke="#000000" points="895.2255,-767.1839 899.5236,-757.5 890.1247,-762.3899 895.2255,-767.1839"/>
</g>
<!-- cbf_compt_wfinputnode&#45;&gt;cbf_compt_wfrefinemask -->
<g id="edge24" class="edge">
<title>cbf_compt_wfinputnode:e&#45;&gt;cbf_compt_wfrefinemask:w</title>
<path fill="none" stroke="#000000" d="M607.5236,-910C672.3615,-910 846.8608,-886.9324 890.5236,-839 897.0974,-831.7833 891.6256,-803.0546 893.7445,-788.7211"/>
<polygon fill="#000000" stroke="#000000" points="896.636,-790.6938 899.5236,-780.5 890.9094,-786.6682 896.636,-790.6938"/>
</g>
<!-- cbf_compt_wfextractcbf -->
<g id="node6" class="node">
<title>cbf_compt_wfextractcbf</title>
<polygon fill="none" stroke="#000000" points="997.0236,-617.5 997.0236,-709.5 1236.0236,-709.5 1236.0236,-617.5 997.0236,-617.5"/>
<text text-anchor="middle" x="1030.0236" y="-694.3" font-family="Times,serif" font-size="14.00" fill="#000000">IN</text>
<polyline fill="none" stroke="#000000" points="997.0236,-686.5 1063.0236,-686.5 "/>
<text text-anchor="middle" x="1030.0236" y="-671.3" font-family="Times,serif" font-size="14.00" fill="#000000">bold_file</text>
<polyline fill="none" stroke="#000000" points="997.0236,-663.5 1063.0236,-663.5 "/>
<text text-anchor="middle" x="1030.0236" y="-648.3" font-family="Times,serif" font-size="14.00" fill="#000000">in_file</text>
<polyline fill="none" stroke="#000000" points="997.0236,-640.5 1063.0236,-640.5 "/>
<text text-anchor="middle" x="1030.0236" y="-625.3" font-family="Times,serif" font-size="14.00" fill="#000000">in_mask</text>
<polyline fill="none" stroke="#000000" points="1063.0236,-617.5 1063.0236,-709.5 "/>
<text text-anchor="middle" x="1118.5236" y="-690.8" font-family="Times,serif" font-size="14.00" fill="#000000">extractcbf</text>
<polyline fill="none" stroke="#000000" points="1063.0236,-679.5 1174.0236,-679.5 "/>
<text text-anchor="middle" x="1118.5236" y="-660.3" font-family="Times,serif" font-size="14.00" fill="#000000">cbf_computation</text>
<polyline fill="none" stroke="#000000" points="1063.0236,-648.5 1174.0236,-648.5 "/>
<text text-anchor="middle" x="1118.5236" y="-629.3" font-family="Times,serif" font-size="14.00" fill="#000000"> </text>
<polyline fill="none" stroke="#000000" points="1174.0236,-617.5 1174.0236,-709.5 "/>
<text text-anchor="middle" x="1205.0236" y="-690.8" font-family="Times,serif" font-size="14.00" fill="#000000">OUT</text>
<polyline fill="none" stroke="#000000" points="1174.0236,-679.5 1236.0236,-679.5 "/>
<text text-anchor="middle" x="1205.0236" y="-660.3" font-family="Times,serif" font-size="14.00" fill="#000000">out_avg</text>
<polyline fill="none" stroke="#000000" points="1174.0236,-648.5 1236.0236,-648.5 "/>
<text text-anchor="middle" x="1205.0236" y="-629.3" font-family="Times,serif" font-size="14.00" fill="#000000">out_file</text>
</g>
<!-- cbf_compt_wfinputnode&#45;&gt;cbf_compt_wfextractcbf -->
<g id="edge14" class="edge">
<title>cbf_compt_wfinputnode:e&#45;&gt;cbf_compt_wfextractcbf:w</title>
<path fill="none" stroke="#000000" d="M607.5236,-1002C746.9767,-1002 1128.683,-949.6762 1213.5236,-839 1238.67,-806.196 1240.2522,-777.5282 1213.5236,-746 1150.3044,-671.4288 1059.7428,-784.5712 996.5236,-710 990.2187,-702.5629 986.0586,-673.3752 989.857,-659.2462"/>
<polygon fill="#000000" stroke="#000000" points="992.6533,-661.3626 996.5236,-651.5 987.3476,-656.7964 992.6533,-661.3626"/>
</g>
<!-- cbf_compt_wfinputnode&#45;&gt;cbf_compt_wfextractcbf -->
<g id="edge15" class="edge">
<title>cbf_compt_wfinputnode:e&#45;&gt;cbf_compt_wfextractcbf:w</title>
<path fill="none" stroke="#000000" d="M607.5236,-979C738.6025,-979 1099.5802,-942.1011 1180.5236,-839 1206.0476,-806.4889 1206.7953,-777.9099 1180.5236,-746 1127.5597,-681.6694 1049.4875,-774.3306 996.5236,-710 989.8232,-701.8617 985.0885,-688.6069 987.7662,-681.1174"/>
<polygon fill="#000000" stroke="#000000" points="989.9961,-683.8452 996.5236,-675.5 986.2167,-677.9532 989.9961,-683.8452"/>
</g>
<!-- cbf_compt_wfbasilcbf -->
<g id="node7" class="node">
<title>cbf_compt_wfbasilcbf</title>
<polygon fill="none" stroke="#000000" points="938.0236,-419.5 938.0236,-580.5 1219.0236,-580.5 1219.0236,-419.5 938.0236,-419.5"/>
<text text-anchor="middle" x="986.5236" y="-565.3" font-family="Times,serif" font-size="14.00" fill="#000000">IN</text>
<polyline fill="none" stroke="#000000" points="938.0236,-557.5 1035.0236,-557.5 "/>
<text text-anchor="middle" x="986.5236" y="-542.3" font-family="Times,serif" font-size="14.00" fill="#000000">in_file</text>
<polyline fill="none" stroke="#000000" points="938.0236,-534.5 1035.0236,-534.5 "/>
<text text-anchor="middle" x="986.5236" y="-519.3" font-family="Times,serif" font-size="14.00" fill="#000000">mask</text>
<polyline fill="none" stroke="#000000" points="938.0236,-511.5 1035.0236,-511.5 "/>
<text text-anchor="middle" x="986.5236" y="-496.3" font-family="Times,serif" font-size="14.00" fill="#000000">mzero</text>
<polyline fill="none" stroke="#000000" points="938.0236,-488.5 1035.0236,-488.5 "/>
<text text-anchor="middle" x="986.5236" y="-473.3" font-family="Times,serif" font-size="14.00" fill="#000000">out_basename</text>
<polyline fill="none" stroke="#000000" points="938.0236,-465.5 1035.0236,-465.5 "/>
<text text-anchor="middle" x="986.5236" y="-450.3" font-family="Times,serif" font-size="14.00" fill="#000000">pvgm</text>
<polyline fill="none" stroke="#000000" points="938.0236,-442.5 1035.0236,-442.5 "/>
<text text-anchor="middle" x="986.5236" y="-427.3" font-family="Times,serif" font-size="14.00" fill="#000000">pvwm</text>
<polyline fill="none" stroke="#000000" points="1035.0236,-419.5 1035.0236,-580.5 "/>
<text text-anchor="middle" x="1090.5236" y="-550.3" font-family="Times,serif" font-size="14.00" fill="#000000">basilcbf</text>
<polyline fill="none" stroke="#000000" points="1035.0236,-527.5 1146.0236,-527.5 "/>
<text text-anchor="middle" x="1090.5236" y="-496.8" font-family="Times,serif" font-size="14.00" fill="#000000">cbf_computation</text>
<polyline fill="none" stroke="#000000" points="1035.0236,-473.5 1146.0236,-473.5 "/>
<text text-anchor="middle" x="1090.5236" y="-442.8" font-family="Times,serif" font-size="14.00" fill="#000000"> </text>
<polyline fill="none" stroke="#000000" points="1146.0236,-419.5 1146.0236,-580.5 "/>
<text text-anchor="middle" x="1182.5236" y="-550.3" font-family="Times,serif" font-size="14.00" fill="#000000">OUT</text>
<polyline fill="none" stroke="#000000" points="1146.0236,-527.5 1219.0236,-527.5 "/>
<text text-anchor="middle" x="1182.5236" y="-496.8" font-family="Times,serif" font-size="14.00" fill="#000000">out_cbfb</text>
<polyline fill="none" stroke="#000000" points="1146.0236,-473.5 1219.0236,-473.5 "/>
<text text-anchor="middle" x="1182.5236" y="-442.8" font-family="Times,serif" font-size="14.00" fill="#000000">out_cbfpv</text>
</g>
<!-- cbf_compt_wfinputnode&#45;&gt;cbf_compt_wfbasilcbf -->
<g id="edge13" class="edge">
<title>cbf_compt_wfinputnode:e&#45;&gt;cbf_compt_wfbasilcbf:w</title>
<path fill="none" stroke="#000000" d="M607.5236,-1002C751.9185,-1002 1144.2279,-950.0468 1236.5236,-839 1299.6421,-763.0581 1311.1707,-690.767 1245.5236,-617 1153.9009,-514.0444 1029.1463,-683.9556 937.5236,-581 909.3159,-549.3033 893.9458,-488.1624 927.3688,-478.3448"/>
<polygon fill="#000000" stroke="#000000" points="928.0697,-481.7826 937.5236,-477 927.1506,-474.8432 928.0697,-481.7826"/>
</g>
<!-- cbf_compt_wfgm_tfm&#45;&gt;cbf_compt_wfbasilcbf -->
<g id="edge11" class="edge">
<title>cbf_compt_wfgm_tfm:e&#45;&gt;cbf_compt_wfbasilcbf:w</title>
<path fill="none" stroke="#000000" d="M297.5236,-769.5C308.7078,-769.5 298.0105,-753.2536 306.5236,-746 365.9714,-695.3471 405.3618,-737.3333 478.5236,-710 694.1302,-629.4493 703.7008,-459.0852 927.4034,-454.1113"/>
<polygon fill="#000000" stroke="#000000" points="927.5627,-457.6099 937.5236,-454 927.4857,-450.6103 927.5627,-457.6099"/>
</g>
<!-- cbf_compt_wfscorescrub -->
<g id="node9" class="node">
<title>cbf_compt_wfscorescrub</title>
<polygon fill="none" stroke="#000000" points="893.0236,-244.5 893.0236,-382.5 1184.0236,-382.5 1184.0236,-244.5 893.0236,-244.5"/>
<text text-anchor="middle" x="932.0236" y="-367.3" font-family="Times,serif" font-size="14.00" fill="#000000">IN</text>
<polyline fill="none" stroke="#000000" points="893.0236,-359.5 971.0236,-359.5 "/>
<text text-anchor="middle" x="932.0236" y="-344.3" font-family="Times,serif" font-size="14.00" fill="#000000">in_csf</text>
<polyline fill="none" stroke="#000000" points="893.0236,-336.5 971.0236,-336.5 "/>
<text text-anchor="middle" x="932.0236" y="-321.3" font-family="Times,serif" font-size="14.00" fill="#000000">in_file</text>
<polyline fill="none" stroke="#000000" points="893.0236,-313.5 971.0236,-313.5 "/>
<text text-anchor="middle" x="932.0236" y="-298.3" font-family="Times,serif" font-size="14.00" fill="#000000">in_greyM</text>
<polyline fill="none" stroke="#000000" points="893.0236,-290.5 971.0236,-290.5 "/>
<text text-anchor="middle" x="932.0236" y="-275.3" font-family="Times,serif" font-size="14.00" fill="#000000">in_mask</text>
<polyline fill="none" stroke="#000000" points="893.0236,-267.5 971.0236,-267.5 "/>
<text text-anchor="middle" x="932.0236" y="-252.3" font-family="Times,serif" font-size="14.00" fill="#000000">in_whiteM</text>
<polyline fill="none" stroke="#000000" points="971.0236,-244.5 971.0236,-382.5 "/>
<text text-anchor="middle" x="1026.5236" y="-355.8" font-family="Times,serif" font-size="14.00" fill="#000000">scorescrub</text>
<polyline fill="none" stroke="#000000" points="971.0236,-336.5 1082.0236,-336.5 "/>
<text text-anchor="middle" x="1026.5236" y="-309.8" font-family="Times,serif" font-size="14.00" fill="#000000">cbf_computation</text>
<polyline fill="none" stroke="#000000" points="971.0236,-290.5 1082.0236,-290.5 "/>
<text text-anchor="middle" x="1026.5236" y="-263.8" font-family="Times,serif" font-size="14.00" fill="#000000"> </text>
<polyline fill="none" stroke="#000000" points="1082.0236,-244.5 1082.0236,-382.5 "/>
<text text-anchor="middle" x="1133.0236" y="-365.3" font-family="Times,serif" font-size="14.00" fill="#000000">OUT</text>
<polyline fill="none" stroke="#000000" points="1082.0236,-355.5 1184.0236,-355.5 "/>
<text text-anchor="middle" x="1133.0236" y="-337.8" font-family="Times,serif" font-size="14.00" fill="#000000">out_avgscore</text>
<polyline fill="none" stroke="#000000" points="1082.0236,-327.5 1184.0236,-327.5 "/>
<text text-anchor="middle" x="1133.0236" y="-310.3" font-family="Times,serif" font-size="14.00" fill="#000000">out_score</text>
<polyline fill="none" stroke="#000000" points="1082.0236,-300.5 1184.0236,-300.5 "/>
<text text-anchor="middle" x="1133.0236" y="-282.8" font-family="Times,serif" font-size="14.00" fill="#000000">out_scoreindex</text>
<polyline fill="none" stroke="#000000" points="1082.0236,-272.5 1184.0236,-272.5 "/>
<text text-anchor="middle" x="1133.0236" y="-254.8" font-family="Times,serif" font-size="14.00" fill="#000000">out_scrub</text>
</g>
<!-- cbf_compt_wfgm_tfm&#45;&gt;cbf_compt_wfscorescrub -->
<g id="edge12" class="edge">
<title>cbf_compt_wfgm_tfm:e&#45;&gt;cbf_compt_wfscorescrub:w</title>
<path fill="none" stroke="#000000" d="M297.5236,-769.5C308.7078,-769.5 300.2317,-755.2466 306.5236,-746 427.5697,-568.1103 486.894,-541.8774 663.5236,-419 754.5858,-355.65 776.8096,-304.6709 882.3873,-301.6424"/>
<polygon fill="#000000" stroke="#000000" points="882.5738,-305.1402 892.5236,-301.5 882.4754,-298.1409 882.5738,-305.1402"/>
</g>
<!-- cbf_compt_wfwm_tfm&#45;&gt;cbf_compt_wfbasilcbf -->
<g id="edge36" class="edge">
<title>cbf_compt_wfwm_tfm:e&#45;&gt;cbf_compt_wfbasilcbf:w</title>
<path fill="none" stroke="#000000" d="M881.5236,-769.5C898.7605,-769.5 915.0297,-492.6907 932.0814,-439.7076"/>
<polygon fill="#000000" stroke="#000000" points="935.1916,-441.335 937.5236,-431 929.2556,-437.625 935.1916,-441.335"/>
</g>
<!-- cbf_compt_wfwm_tfm&#45;&gt;cbf_compt_wfscorescrub -->
<g id="edge37" class="edge">
<title>cbf_compt_wfwm_tfm:e&#45;&gt;cbf_compt_wfscorescrub:w</title>
<path fill="none" stroke="#000000" d="M881.5236,-769.5C891.968,-769.5 881.745,-756.4421 881.5236,-746 878.4421,-600.666 866.5578,-564.1482 874.5236,-419 878.3262,-349.711 825.2587,-264.6467 882.3837,-256.186"/>
<polygon fill="#000000" stroke="#000000" points="882.7827,-259.6671 892.5236,-255.5 882.3101,-252.6831 882.7827,-259.6671"/>
</g>
<!-- cbf_compt_wfcsf_tfm&#45;&gt;cbf_compt_wfscorescrub -->
<g id="edge6" class="edge">
<title>cbf_compt_wfcsf_tfm:e&#45;&gt;cbf_compt_wfscorescrub:w</title>
<path fill="none" stroke="#000000" d="M589.5236,-769.5C600.7078,-769.5 593.149,-755.8082 598.5236,-746 702.4698,-556.3083 673.7311,-354.897 882.4058,-348.6492"/>
<polygon fill="#000000" stroke="#000000" points="882.5763,-352.1471 892.5236,-348.5 882.473,-345.1479 882.5763,-352.1471"/>
</g>
<!-- cbf_compt_wfrefinemask&#45;&gt;cbf_compt_wfextractcbf -->
<g id="edge30" class="edge">
<title>cbf_compt_wfrefinemask:e&#45;&gt;cbf_compt_wfextractcbf:w</title>
<path fill="none" stroke="#000000" d="M1171.5236,-769.5C1181.968,-769.5 1178.1231,-754.0953 1171.5236,-746 1121.3495,-684.4537 1046.6977,-771.5463 996.5236,-710 987.2702,-698.6493 981.1398,-652.3682 988.707,-635.067"/>
<polygon fill="#000000" stroke="#000000" points="991.1184,-637.6124 996.5236,-628.5 986.6156,-632.2528 991.1184,-637.6124"/>
</g>
<!-- cbf_compt_wfrefinemask&#45;&gt;cbf_compt_wfbasilcbf -->
<g id="edge28" class="edge">
<title>cbf_compt_wfrefinemask:e&#45;&gt;cbf_compt_wfbasilcbf:w</title>
<path fill="none" stroke="#000000" d="M1171.5236,-769.5C1181.968,-769.5 1178.158,-754.0667 1171.5236,-746 1118.8698,-681.979 1052.2278,-763.0367 988.5236,-710 964.8335,-690.2769 943.2922,-611.2811 937.5236,-581 933.5665,-560.2277 918.7553,-534.506 927.7896,-525.933"/>
<polygon fill="#000000" stroke="#000000" points="928.9586,-529.2363 937.5236,-523 926.939,-522.5339 928.9586,-529.2363"/>
</g>
<!-- cbf_compt_wfcomputecbf -->
<g id="node8" class="node">
<title>cbf_compt_wfcomputecbf</title>
<polygon fill="none" stroke="#000000" points="1237.0236,-454 1237.0236,-546 1490.0236,-546 1490.0236,-454 1237.0236,-454"/>
<text text-anchor="middle" x="1272.0236" y="-530.8" font-family="Times,serif" font-size="14.00" fill="#000000">IN</text>
<polyline fill="none" stroke="#000000" points="1237.0236,-523 1307.0236,-523 "/>
<text text-anchor="middle" x="1272.0236" y="-507.8" font-family="Times,serif" font-size="14.00" fill="#000000">in_cbf</text>
<polyline fill="none" stroke="#000000" points="1237.0236,-500 1307.0236,-500 "/>
<text text-anchor="middle" x="1272.0236" y="-484.8" font-family="Times,serif" font-size="14.00" fill="#000000">in_m0file</text>
<polyline fill="none" stroke="#000000" points="1237.0236,-477 1307.0236,-477 "/>
<text text-anchor="middle" x="1272.0236" y="-461.8" font-family="Times,serif" font-size="14.00" fill="#000000">in_mask</text>
<polyline fill="none" stroke="#000000" points="1307.0236,-454 1307.0236,-546 "/>
<text text-anchor="middle" x="1362.5236" y="-527.3" font-family="Times,serif" font-size="14.00" fill="#000000">computecbf</text>
<polyline fill="none" stroke="#000000" points="1307.0236,-516 1418.0236,-516 "/>
<text text-anchor="middle" x="1362.5236" y="-496.8" font-family="Times,serif" font-size="14.00" fill="#000000">cbf_computation</text>
<polyline fill="none" stroke="#000000" points="1307.0236,-485 1418.0236,-485 "/>
<text text-anchor="middle" x="1362.5236" y="-465.8" font-family="Times,serif" font-size="14.00" fill="#000000"> </text>
<polyline fill="none" stroke="#000000" points="1418.0236,-454 1418.0236,-546 "/>
<text text-anchor="middle" x="1454.0236" y="-527.3" font-family="Times,serif" font-size="14.00" fill="#000000">OUT</text>
<polyline fill="none" stroke="#000000" points="1418.0236,-516 1490.0236,-516 "/>
<text text-anchor="middle" x="1454.0236" y="-496.8" font-family="Times,serif" font-size="14.00" fill="#000000">out_cbf</text>
<polyline fill="none" stroke="#000000" points="1418.0236,-485 1490.0236,-485 "/>
<text text-anchor="middle" x="1454.0236" y="-465.8" font-family="Times,serif" font-size="14.00" fill="#000000">out_mean</text>
</g>
<!-- cbf_compt_wfrefinemask&#45;&gt;cbf_compt_wfcomputecbf -->
<g id="edge29" class="edge">
<title>cbf_compt_wfrefinemask:e&#45;&gt;cbf_compt_wfcomputecbf:w</title>
<path fill="none" stroke="#000000" d="M1171.5236,-769.5C1213.7253,-769.5 1227.2892,-748.0591 1245.5236,-710 1276.9687,-644.3673 1241.1408,-619.1301 1236.5236,-546.5 1236.0792,-539.5102 1230.9052,-494.579 1232.7732,-474.5783"/>
<polygon fill="#000000" stroke="#000000" points="1236.1367,-475.5878 1236.5236,-465 1229.6185,-473.0356 1236.1367,-475.5878"/>
</g>
<!-- cbf_compt_wfrefinemask&#45;&gt;cbf_compt_wfscorescrub -->
<g id="edge31" class="edge">
<title>cbf_compt_wfrefinemask:e&#45;&gt;cbf_compt_wfscorescrub:w</title>
<path fill="none" stroke="#000000" d="M1171.5236,-769.5C1176.7458,-769.5 1174.9174,-749.9691 1171.5236,-746 1104.5674,-667.6956 1015.2221,-783.0044 942.5236,-710 910.8613,-678.2044 853.1386,-332.5752 883.9612,-284.1282"/>
<polygon fill="#000000" stroke="#000000" points="886.0897,-286.9176 892.5236,-278.5 882.2447,-281.0681 886.0897,-286.9176"/>
</g>
<!-- cbf_compt_wfextractcbf&#45;&gt;cbf_compt_wfbasilcbf -->
<g id="edge7" class="edge">
<title>cbf_compt_wfextractcbf:e&#45;&gt;cbf_compt_wfbasilcbf:w</title>
<path fill="none" stroke="#000000" d="M1236.5236,-664.5C1257.6347,-664.5 1250.5308,-632.7949 1236.5236,-617 1147.7151,-516.8575 1026.332,-681.1425 937.5236,-581 916.2502,-557.0116 904.3144,-511.5023 927.3903,-501.8341"/>
<polygon fill="#000000" stroke="#000000" points="928.3069,-505.2252 937.5236,-500 927.0601,-498.3371 928.3069,-505.2252"/>
</g>
<!-- cbf_compt_wfextractcbf&#45;&gt;cbf_compt_wfbasilcbf -->
<g id="edge9" class="edge">
<title>cbf_compt_wfextractcbf:e&#45;&gt;cbf_compt_wfbasilcbf:w</title>
<path fill="none" stroke="#000000" d="M1236.5236,-632.5C1243.4125,-632.5 1241.0944,-622.1541 1236.5236,-617 1147.7151,-516.8575 1026.332,-681.1425 937.5236,-581 930.2666,-572.8168 925.5243,-558.8378 928.7555,-551.2589"/>
<polygon fill="#000000" stroke="#000000" points="930.7481,-554.1451 937.5236,-546 927.1475,-548.1421 930.7481,-554.1451"/>
</g>
<!-- cbf_compt_wfextractcbf&#45;&gt;cbf_compt_wfcomputecbf -->
<g id="edge8" class="edge">
<title>cbf_compt_wfextractcbf:e&#45;&gt;cbf_compt_wfcomputecbf:w</title>
<path fill="none" stroke="#000000" d="M1236.5236,-664.5C1253.4535,-664.5 1226.5376,-532.9626 1231.4784,-496.9953"/>
<polygon fill="#000000" stroke="#000000" points="1234.6844,-498.434 1236.5236,-488 1228.5791,-495.0097 1234.6844,-498.434"/>
</g>
<!-- cbf_compt_wfextractcbf&#45;&gt;cbf_compt_wfcomputecbf -->
<g id="edge10" class="edge">
<title>cbf_compt_wfextractcbf:e&#45;&gt;cbf_compt_wfcomputecbf:w</title>
<path fill="none" stroke="#000000" d="M1236.5236,-632.5C1259.3265,-632.5 1223.8751,-545.1184 1229.3837,-519.177"/>
<polygon fill="#000000" stroke="#000000" points="1231.9521,-521.5579 1236.5236,-512 1226.9896,-516.6209 1231.9521,-521.5579"/>
</g>
<!-- cbf_compt_wfoutputnode -->
<g id="node10" class="node">
<title>cbf_compt_wfoutputnode</title>
<polygon fill="none" stroke="#000000" points="1198.5236,-.5 1198.5236,-207.5 1424.5236,-207.5 1424.5236,-.5 1198.5236,-.5"/>
<text text-anchor="middle" x="1249.5236" y="-192.3" font-family="Times,serif" font-size="14.00" fill="#000000">IN</text>
<polyline fill="none" stroke="#000000" points="1198.5236,-184.5 1300.5236,-184.5 "/>
<text text-anchor="middle" x="1249.5236" y="-169.3" font-family="Times,serif" font-size="14.00" fill="#000000">out_avgscore</text>
<polyline fill="none" stroke="#000000" points="1198.5236,-161.5 1300.5236,-161.5 "/>
<text text-anchor="middle" x="1249.5236" y="-146.3" font-family="Times,serif" font-size="14.00" fill="#000000">out_cbf</text>
<polyline fill="none" stroke="#000000" points="1198.5236,-138.5 1300.5236,-138.5 "/>
<text text-anchor="middle" x="1249.5236" y="-123.3" font-family="Times,serif" font-size="14.00" fill="#000000">out_cbfb</text>
<polyline fill="none" stroke="#000000" points="1198.5236,-115.5 1300.5236,-115.5 "/>
<text text-anchor="middle" x="1249.5236" y="-100.3" font-family="Times,serif" font-size="14.00" fill="#000000">out_cbfpv</text>
<polyline fill="none" stroke="#000000" points="1198.5236,-92.5 1300.5236,-92.5 "/>
<text text-anchor="middle" x="1249.5236" y="-77.3" font-family="Times,serif" font-size="14.00" fill="#000000">out_mean</text>
<polyline fill="none" stroke="#000000" points="1198.5236,-69.5 1300.5236,-69.5 "/>
<text text-anchor="middle" x="1249.5236" y="-54.3" font-family="Times,serif" font-size="14.00" fill="#000000">out_score</text>
<polyline fill="none" stroke="#000000" points="1198.5236,-46.5 1300.5236,-46.5 "/>
<text text-anchor="middle" x="1249.5236" y="-31.3" font-family="Times,serif" font-size="14.00" fill="#000000">out_scoreindex</text>
<polyline fill="none" stroke="#000000" points="1198.5236,-23.5 1300.5236,-23.5 "/>
<text text-anchor="middle" x="1249.5236" y="-8.3" font-family="Times,serif" font-size="14.00" fill="#000000">out_scrub</text>
<polyline fill="none" stroke="#000000" points="1300.5236,-.5 1300.5236,-207.5 "/>
<text text-anchor="middle" x="1340.0236" y="-169.3" font-family="Times,serif" font-size="14.00" fill="#000000">outputnode</text>
<polyline fill="none" stroke="#000000" points="1300.5236,-138.5 1379.5236,-138.5 "/>
<text text-anchor="middle" x="1340.0236" y="-100.3" font-family="Times,serif" font-size="14.00" fill="#000000">utility</text>
<polyline fill="none" stroke="#000000" points="1300.5236,-69.5 1379.5236,-69.5 "/>
<text text-anchor="middle" x="1340.0236" y="-31.3" font-family="Times,serif" font-size="14.00" fill="#000000"> </text>
<polyline fill="none" stroke="#000000" points="1379.5236,-.5 1379.5236,-207.5 "/>
<text text-anchor="middle" x="1402.0236" y="-100.3" font-family="Times,serif" font-size="14.00" fill="#000000">OUT</text>
</g>
<!-- cbf_compt_wfbasilcbf&#45;&gt;cbf_compt_wfoutputnode -->
<g id="edge1" class="edge">
<title>cbf_compt_wfbasilcbf:e&#45;&gt;cbf_compt_wfoutputnode:w</title>
<path fill="none" stroke="#000000" d="M1219.5236,-501C1232.6577,-501 1226.1345,-396.1284 1226.5236,-383 1228.3536,-321.2493 1246.5727,-302.4339 1226.5236,-244 1219.9453,-224.8274 1205.1019,-227.1726 1198.5236,-208 1188.1638,-177.806 1167.8707,-137.4713 1188.5052,-128.7204"/>
<polygon fill="#000000" stroke="#000000" points="1189.2603,-132.1421 1198.5236,-127 1188.0755,-125.2431 1189.2603,-132.1421"/>
</g>
<!-- cbf_compt_wfbasilcbf&#45;&gt;cbf_compt_wfoutputnode -->
<g id="edge2" class="edge">
<title>cbf_compt_wfbasilcbf:e&#45;&gt;cbf_compt_wfoutputnode:w</title>
<path fill="none" stroke="#000000" d="M1219.5236,-446C1231.5236,-446 1220.1185,-430.9852 1219.5236,-419 1214.8512,-324.8748 1203.196,-302.1252 1198.5236,-208 1196.4289,-165.802 1159.5444,-113.8541 1188.5207,-105.2373"/>
<polygon fill="#000000" stroke="#000000" points="1189.0289,-108.7012 1198.5236,-104 1188.1695,-101.7541 1189.0289,-108.7012"/>
</g>
<!-- cbf_compt_wfcomputecbf&#45;&gt;cbf_compt_wfscorescrub -->
<g id="edge4" class="edge">
<title>cbf_compt_wfcomputecbf:e&#45;&gt;cbf_compt_wfscorescrub:w</title>
<path fill="none" stroke="#000000" d="M1490.5236,-501C1511.6347,-501 1504.4429,-469.3724 1490.5236,-453.5 1413.0848,-365.1957 1345.145,-432.9238 1228.5236,-419 1153.9591,-410.0975 942.715,-438.8563 892.5236,-383 878.2451,-367.1099 869.9804,-337.6056 882.5811,-328.3521"/>
<polygon fill="#000000" stroke="#000000" points="883.8764,-331.6218 892.5236,-325.5 881.9461,-324.8932 883.8764,-331.6218"/>
</g>
<!-- cbf_compt_wfcomputecbf&#45;&gt;cbf_compt_wfoutputnode -->
<g id="edge3" class="edge">
<title>cbf_compt_wfcomputecbf:e&#45;&gt;cbf_compt_wfoutputnode:w</title>
<path fill="none" stroke="#000000" d="M1490.5236,-501C1533.6974,-501 1560.213,-376.6709 1384.5236,-244 1317.3292,-193.2585 1252.1079,-272.9499 1198.5236,-208 1184.8103,-191.3781 1176.0106,-162.016 1188.5503,-152.829"/>
<polygon fill="#000000" stroke="#000000" points="1189.8583,-156.0962 1198.5236,-150 1187.948,-149.3618 1189.8583,-156.0962"/>
</g>
<!-- cbf_compt_wfcomputecbf&#45;&gt;cbf_compt_wfoutputnode -->
<g id="edge5" class="edge">
<title>cbf_compt_wfcomputecbf:e&#45;&gt;cbf_compt_wfoutputnode:w</title>
<path fill="none" stroke="#000000" d="M1490.5236,-469C1497.4125,-469 1493.7775,-459.572 1490.5236,-453.5 1463.799,-403.6299 1426.9569,-420.4253 1384.5236,-383 1323.3146,-329.0149 1328.0368,-295.2543 1264.5236,-244 1238.5211,-223.0163 1215.5799,-236.732 1198.5236,-208 1171.6241,-162.6866 1145.7542,-91.289 1188.3668,-82.0063"/>
<polygon fill="#000000" stroke="#000000" points="1188.9174,-85.469 1198.5236,-81 1188.2272,-78.5031 1188.9174,-85.469"/>
</g>
<!-- cbf_compt_wfscorescrub&#45;&gt;cbf_compt_wfoutputnode -->
<g id="edge32" class="edge">
<title>cbf_compt_wfscorescrub:e&#45;&gt;cbf_compt_wfoutputnode:w</title>
<path fill="none" stroke="#000000" d="M1184.5236,-341.5C1218.1342,-341.5 1172.7502,-206.6686 1189.6979,-178.2276"/>
<polygon fill="#000000" stroke="#000000" points="1191.7033,-181.1077 1198.5236,-173 1188.1359,-175.0849 1191.7033,-181.1077"/>
</g>
<!-- cbf_compt_wfscorescrub&#45;&gt;cbf_compt_wfoutputnode -->
<g id="edge33" class="edge">
<title>cbf_compt_wfscorescrub:e&#45;&gt;cbf_compt_wfoutputnode:w</title>
<path fill="none" stroke="#000000" d="M1184.5236,-314.5C1210.1114,-314.5 1178.1336,-108.355 1191.8035,-65.6765"/>
<polygon fill="#000000" stroke="#000000" points="1194.5703,-67.8297 1198.5236,-58 1189.3033,-63.2189 1194.5703,-67.8297"/>
</g>
<!-- cbf_compt_wfscorescrub&#45;&gt;cbf_compt_wfoutputnode -->
<g id="edge34" class="edge">
<title>cbf_compt_wfscorescrub:e&#45;&gt;cbf_compt_wfoutputnode:w</title>
<path fill="none" stroke="#000000" d="M1184.5236,-286.5C1209.6141,-286.5 1178.4764,-84.3734 1191.926,-42.5269"/>
<polygon fill="#000000" stroke="#000000" points="1194.564,-44.8271 1198.5236,-35 1189.2999,-40.213 1194.564,-44.8271"/>
</g>
<!-- cbf_compt_wfscorescrub&#45;&gt;cbf_compt_wfoutputnode -->
<g id="edge35" class="edge">
<title>cbf_compt_wfscorescrub:e&#45;&gt;cbf_compt_wfoutputnode:w</title>
<path fill="none" stroke="#000000" d="M1184.5236,-258.5C1209.0633,-258.5 1178.951,-61.2541 1191.9626,-19.6476"/>
<polygon fill="#000000" stroke="#000000" points="1194.6686,-21.8686 1198.5236,-12 1189.3558,-17.3107 1194.6686,-21.8686"/>
</g>
</g>
</svg>
