<?xml version="1.0" encoding="UTF-8" standalone="no"?>
<!DOCTYPE svg PUBLIC "-//W3C//DTD SVG 1.1//EN"
 "http://www.w3.org/Graphics/SVG/1.1/DTD/svg11.dtd">
<!-- Generated by graphviz version 2.40.1 (20161225.0304)
 -->
<!-- Title: structs Pages: 1 -->
<svg width="539pt" height="465pt"
 viewBox="0.00 0.00 538.70 465.00" xmlns="http://www.w3.org/2000/svg" xmlns:xlink="http://www.w3.org/1999/xlink">
<g id="graph0" class="graph" transform="scale(1 1) rotate(0) translate(4 461)">
<title>structs</title>
<polygon fill="#ffffff" stroke="transparent" points="-4,4 -4,-461 534.7023,-461 534.7023,4 -4,4"/>
<!-- bold_hmc_wfinputnode -->
<g id="node1" class="node">
<title>bold_hmc_wfinputnode</title>
<polygon fill="none" stroke="#000000" points="0,-387.5 0,-456.5 204,-456.5 204,-387.5 0,-387.5"/>
<text text-anchor="middle" x="15.5" y="-418.3" font-family="Times,serif" font-size="14.00" fill="#000000">IN</text>
<polyline fill="none" stroke="#000000" points="31,-387.5 31,-456.5 "/>
<text text-anchor="middle" x="67" y="-441.3" font-family="Times,serif" font-size="14.00" fill="#000000">inputnode</text>
<polyline fill="none" stroke="#000000" points="31,-433.5 103,-433.5 "/>
<text text-anchor="middle" x="67" y="-418.3" font-family="Times,serif" font-size="14.00" fill="#000000">utility</text>
<polyline fill="none" stroke="#000000" points="31,-410.5 103,-410.5 "/>
<text text-anchor="middle" x="67" y="-395.3" font-family="Times,serif" font-size="14.00" fill="#000000"> </text>
<polyline fill="none" stroke="#000000" points="103,-387.5 103,-456.5 "/>
<text text-anchor="middle" x="153.5" y="-441.3" font-family="Times,serif" font-size="14.00" fill="#000000">OUT</text>
<polyline fill="none" stroke="#000000" points="103,-433.5 204,-433.5 "/>
<text text-anchor="middle" x="153.5" y="-418.3" font-family="Times,serif" font-size="14.00" fill="#000000">bold_file</text>
<polyline fill="none" stroke="#000000" points="103,-410.5 204,-410.5 "/>
<text text-anchor="middle" x="153.5" y="-395.3" font-family="Times,serif" font-size="14.00" fill="#000000">raw_ref_image</text>
</g>
<!-- bold_hmc_wfmcflirt -->
<g id="node2" class="node">
<title>bold_hmc_wfmcflirt</title>
<polygon fill="none" stroke="#000000" points="100.5,-258.5 100.5,-350.5 279.5,-350.5 279.5,-258.5 100.5,-258.5"/>
<text text-anchor="middle" x="129" y="-331.8" font-family="Times,serif" font-size="14.00" fill="#000000">IN</text>
<polyline fill="none" stroke="#000000" points="100.5,-320.5 157.5,-320.5 "/>
<text text-anchor="middle" x="129" y="-301.3" font-family="Times,serif" font-size="14.00" fill="#000000">in_file</text>
<polyline fill="none" stroke="#000000" points="100.5,-289.5 157.5,-289.5 "/>
<text text-anchor="middle" x="129" y="-270.3" font-family="Times,serif" font-size="14.00" fill="#000000">ref_file</text>
<polyline fill="none" stroke="#000000" points="157.5,-258.5 157.5,-350.5 "/>
<text text-anchor="middle" x="184.5" y="-331.8" font-family="Times,serif" font-size="14.00" fill="#000000">mcflirt</text>
<polyline fill="none" stroke="#000000" points="157.5,-320.5 211.5,-320.5 "/>
<text text-anchor="middle" x="184.5" y="-301.3" font-family="Times,serif" font-size="14.00" fill="#000000">fsl</text>
<polyline fill="none" stroke="#000000" points="157.5,-289.5 211.5,-289.5 "/>
<text text-anchor="middle" x="184.5" y="-270.3" font-family="Times,serif" font-size="14.00" fill="#000000"> </text>
<polyline fill="none" stroke="#000000" points="211.5,-258.5 211.5,-350.5 "/>
<text text-anchor="middle" x="245.5" y="-335.3" font-family="Times,serif" font-size="14.00" fill="#000000">OUT</text>
<polyline fill="none" stroke="#000000" points="211.5,-327.5 279.5,-327.5 "/>
<text text-anchor="middle" x="245.5" y="-312.3" font-family="Times,serif" font-size="14.00" fill="#000000">mat_file</text>
<polyline fill="none" stroke="#000000" points="211.5,-304.5 279.5,-304.5 "/>
<text text-anchor="middle" x="245.5" y="-289.3" font-family="Times,serif" font-size="14.00" fill="#000000">par_file</text>
<polyline fill="none" stroke="#000000" points="211.5,-281.5 279.5,-281.5 "/>
<text text-anchor="middle" x="245.5" y="-266.3" font-family="Times,serif" font-size="14.00" fill="#000000">rms_files</text>
</g>
<!-- bold_hmc_wfinputnode&#45;&gt;bold_hmc_wfmcflirt -->
<g id="edge2" class="edge">
<title>bold_hmc_wfinputnode:e&#45;&gt;bold_hmc_wfmcflirt:w</title>
<path fill="none" stroke="#000000" d="M204,-422C219.5556,-422 213.0228,-399.6714 204,-387 175.6285,-347.1559 128.3715,-390.8441 100,-351 90.8362,-338.1306 83.6482,-317.5987 90.5846,-309.2317"/>
<polygon fill="#000000" stroke="#000000" points="91.9932,-312.4384 100,-305.5 89.4139,-305.9309 91.9932,-312.4384"/>
</g>
<!-- bold_hmc_wfinputnode&#45;&gt;bold_hmc_wfmcflirt -->
<g id="edge5" class="edge">
<title>bold_hmc_wfinputnode:e&#45;&gt;bold_hmc_wfmcflirt:w</title>
<path fill="none" stroke="#000000" d="M204,-399C209.3333,-399 207.0935,-391.3445 204,-387 175.6285,-347.1559 128.3715,-390.8441 100,-351 82.2842,-326.1204 68.9036,-284.4273 90.1141,-275.3005"/>
<polygon fill="#000000" stroke="#000000" points="90.789,-278.7352 100,-273.5 89.5347,-271.8485 90.789,-278.7352"/>
</g>
<!-- bold_hmc_wffsl2itk -->
<g id="node4" class="node">
<title>bold_hmc_wffsl2itk</title>
<polygon fill="none" stroke="#000000" points="308,-129.5 308,-221.5 524,-221.5 524,-129.5 308,-129.5"/>
<text text-anchor="middle" x="351" y="-206.3" font-family="Times,serif" font-size="14.00" fill="#000000">IN</text>
<polyline fill="none" stroke="#000000" points="308,-198.5 394,-198.5 "/>
<text text-anchor="middle" x="351" y="-183.3" font-family="Times,serif" font-size="14.00" fill="#000000">in_files</text>
<polyline fill="none" stroke="#000000" points="308,-175.5 394,-175.5 "/>
<text text-anchor="middle" x="351" y="-160.3" font-family="Times,serif" font-size="14.00" fill="#000000">in_reference</text>
<polyline fill="none" stroke="#000000" points="308,-152.5 394,-152.5 "/>
<text text-anchor="middle" x="351" y="-137.3" font-family="Times,serif" font-size="14.00" fill="#000000">in_source</text>
<polyline fill="none" stroke="#000000" points="394,-129.5 394,-221.5 "/>
<text text-anchor="middle" x="429.5" y="-202.8" font-family="Times,serif" font-size="14.00" fill="#000000">fsl2itk</text>
<polyline fill="none" stroke="#000000" points="394,-191.5 465,-191.5 "/>
<text text-anchor="middle" x="429.5" y="-172.3" font-family="Times,serif" font-size="14.00" fill="#000000">interfaces</text>
<polyline fill="none" stroke="#000000" points="394,-160.5 465,-160.5 "/>
<text text-anchor="middle" x="429.5" y="-141.3" font-family="Times,serif" font-size="14.00" fill="#000000"> </text>
<polyline fill="none" stroke="#000000" points="465,-129.5 465,-221.5 "/>
<text text-anchor="middle" x="494.5" y="-194.8" font-family="Times,serif" font-size="14.00" fill="#000000">OUT</text>
<polyline fill="none" stroke="#000000" points="465,-175.5 524,-175.5 "/>
<text text-anchor="middle" x="494.5" y="-148.8" font-family="Times,serif" font-size="14.00" fill="#000000">out_file</text>
</g>
<!-- bold_hmc_wfinputnode&#45;&gt;bold_hmc_wffsl2itk -->
<g id="edge3" class="edge">
<title>bold_hmc_wfinputnode:e&#45;&gt;bold_hmc_wffsl2itk:w</title>
<path fill="none" stroke="#000000" d="M204,-399C247.3852,-399 265.2653,-387.3171 289,-351 293.9224,-343.4682 296.684,-210.4082 304.0084,-173.134"/>
<polygon fill="#000000" stroke="#000000" points="307.4057,-174.0782 308,-163.5 300.9388,-171.3987 307.4057,-174.0782"/>
</g>
<!-- bold_hmc_wfinputnode&#45;&gt;bold_hmc_wffsl2itk -->
<g id="edge4" class="edge">
<title>bold_hmc_wfinputnode:e&#45;&gt;bold_hmc_wffsl2itk:w</title>
<path fill="none" stroke="#000000" d="M204,-399C254.1021,-399 278.9537,-393.1749 306,-351 308.7374,-346.7315 303.8338,-191.5672 306.2963,-150.427"/>
<polygon fill="#000000" stroke="#000000" points="309.758,-150.948 308,-140.5 302.8589,-149.7639 309.758,-150.948"/>
</g>
<!-- bold_hmc_wfnormalize_motion -->
<g id="node3" class="node">
<title>bold_hmc_wfnormalize_motion</title>
<polygon fill="none" stroke="#000000" points="22,-141 22,-210 252,-210 252,-141 22,-141"/>
<text text-anchor="middle" x="48" y="-189.3" font-family="Times,serif" font-size="14.00" fill="#000000">IN</text>
<polyline fill="none" stroke="#000000" points="22,-176 74,-176 "/>
<text text-anchor="middle" x="48" y="-154.8" font-family="Times,serif" font-size="14.00" fill="#000000">in_file</text>
<polyline fill="none" stroke="#000000" points="74,-141 74,-210 "/>
<text text-anchor="middle" x="133.5" y="-194.8" font-family="Times,serif" font-size="14.00" fill="#000000">normalize_motion</text>
<polyline fill="none" stroke="#000000" points="74,-187 193,-187 "/>
<text text-anchor="middle" x="133.5" y="-171.8" font-family="Times,serif" font-size="14.00" fill="#000000">interfaces</text>
<polyline fill="none" stroke="#000000" points="74,-164 193,-164 "/>
<text text-anchor="middle" x="133.5" y="-148.8" font-family="Times,serif" font-size="14.00" fill="#000000"> </text>
<polyline fill="none" stroke="#000000" points="193,-141 193,-210 "/>
<text text-anchor="middle" x="222.5" y="-189.3" font-family="Times,serif" font-size="14.00" fill="#000000">OUT</text>
<polyline fill="none" stroke="#000000" points="193,-176 252,-176 "/>
<text text-anchor="middle" x="222.5" y="-154.8" font-family="Times,serif" font-size="14.00" fill="#000000">out_file</text>
</g>
<!-- bold_hmc_wfmcflirt&#45;&gt;bold_hmc_wfnormalize_motion -->
<g id="edge7" class="edge">
<title>bold_hmc_wfmcflirt:e&#45;&gt;bold_hmc_wfnormalize_motion:w</title>
<path fill="none" stroke="#000000" d="M280,-292.5C295.3333,-292.5 289.8117,-269.7831 280,-258 205.392,-168.4022 96.608,-300.0978 22,-210.5 9.8686,-195.9313 2.0885,-170.2729 12.4416,-161.5223"/>
<polygon fill="#000000" stroke="#000000" points="13.5205,-164.852 22,-158.5 11.4101,-158.1777 13.5205,-164.852"/>
</g>
<!-- bold_hmc_wfmcflirt&#45;&gt;bold_hmc_wffsl2itk -->
<g id="edge6" class="edge">
<title>bold_hmc_wfmcflirt:e&#45;&gt;bold_hmc_wffsl2itk:w</title>
<path fill="none" stroke="#000000" d="M280,-316.5C292.3754,-316.5 293.3592,-224.6631 302.1747,-195.9641"/>
<polygon fill="#000000" stroke="#000000" points="305.2137,-197.7219 308,-187.5 299.4474,-193.7533 305.2137,-197.7219"/>
</g>
<!-- bold_hmc_wfoutputnode -->
<g id="node5" class="node">
<title>bold_hmc_wfoutputnode</title>
<polygon fill="none" stroke="#000000" points="280,-.5 280,-92.5 488,-92.5 488,-.5 280,-.5"/>
<text text-anchor="middle" x="322" y="-77.3" font-family="Times,serif" font-size="14.00" fill="#000000">IN</text>
<polyline fill="none" stroke="#000000" points="280,-69.5 364,-69.5 "/>
<text text-anchor="middle" x="322" y="-54.3" font-family="Times,serif" font-size="14.00" fill="#000000">movpar_file</text>
<polyline fill="none" stroke="#000000" points="280,-46.5 364,-46.5 "/>
<text text-anchor="middle" x="322" y="-31.3" font-family="Times,serif" font-size="14.00" fill="#000000">rmsd_file</text>
<polyline fill="none" stroke="#000000" points="280,-23.5 364,-23.5 "/>
<text text-anchor="middle" x="322" y="-8.3" font-family="Times,serif" font-size="14.00" fill="#000000">xforms</text>
<polyline fill="none" stroke="#000000" points="364,-.5 364,-92.5 "/>
<text text-anchor="middle" x="403.5" y="-73.8" font-family="Times,serif" font-size="14.00" fill="#000000">outputnode</text>
<polyline fill="none" stroke="#000000" points="364,-62.5 443,-62.5 "/>
<text text-anchor="middle" x="403.5" y="-43.3" font-family="Times,serif" font-size="14.00" fill="#000000">utility</text>
<polyline fill="none" stroke="#000000" points="364,-31.5 443,-31.5 "/>
<text text-anchor="middle" x="403.5" y="-12.3" font-family="Times,serif" font-size="14.00" fill="#000000"> </text>
<polyline fill="none" stroke="#000000" points="443,-.5 443,-92.5 "/>
<text text-anchor="middle" x="465.5" y="-42.8" font-family="Times,serif" font-size="14.00" fill="#000000">OUT</text>
</g>
<!-- bold_hmc_wfmcflirt&#45;&gt;bold_hmc_wfoutputnode -->
<g id="edge8" class="edge">
<title>bold_hmc_wfmcflirt:e&#45;&gt;bold_hmc_wfoutputnode:w</title>
<path fill="none" stroke="#000000" d="M280,-269.5C328.1424,-269.5 243.141,-69.7844 270.4797,-38.5789"/>
<polygon fill="#000000" stroke="#000000" points="272.1865,-41.6554 280,-34.5 269.4297,-35.221 272.1865,-41.6554"/>
</g>
<!-- bold_hmc_wfnormalize_motion&#45;&gt;bold_hmc_wfoutputnode -->
<g id="edge9" class="edge">
<title>bold_hmc_wfnormalize_motion:e&#45;&gt;bold_hmc_wfoutputnode:w</title>
<path fill="none" stroke="#000000" d="M252,-158.5C271.5613,-158.5 261.4974,-86.6479 272.0323,-64.7554"/>
<polygon fill="#000000" stroke="#000000" points="274.2958,-67.4282 280,-58.5 269.9731,-61.9223 274.2958,-67.4282"/>
</g>
<!-- bold_hmc_wffsl2itk&#45;&gt;bold_hmc_wfoutputnode -->
<g id="edge1" class="edge">
<title>bold_hmc_wffsl2itk:e&#45;&gt;bold_hmc_wfoutputnode:w</title>
<path fill="none" stroke="#000000" d="M524,-152.5C534.4444,-152.5 530.8251,-136.906 524,-129 452.3679,-46.0238 351.6321,-175.9762 280,-93 258.8264,-68.4732 246.5492,-22.6112 270.1225,-13.21"/>
<polygon fill="#000000" stroke="#000000" points="270.7436,-16.6546 280,-11.5 269.5495,-9.7572 270.7436,-16.6546"/>
</g>
</g>
</svg>
