<?xml version="1.0" encoding="UTF-8" standalone="no"?>
<!DOCTYPE svg PUBLIC "-//W3C//DTD SVG 1.1//EN"
 "http://www.w3.org/Graphics/SVG/1.1/DTD/svg11.dtd">
<!-- Generated by graphviz version 2.40.1 (20161225.0304)
 -->
<!-- Title: structs Pages: 1 -->
<svg width="1144pt" height="617pt"
 viewBox="0.00 0.00 1143.50 617.00" xmlns="http://www.w3.org/2000/svg" xmlns:xlink="http://www.w3.org/1999/xlink">
<g id="graph0" class="graph" transform="scale(1 1) rotate(0) translate(4 613)">
<title>structs</title>
<polygon fill="#ffffff" stroke="transparent" points="-4,4 -4,-613 1139.5,-613 1139.5,4 -4,4"/>
<!-- bold_preproc_trans_wfinputnode -->
<g id="node1" class="node">
<title>bold_preproc_trans_wfinputnode</title>
<polygon fill="none" stroke="#000000" points="0,-516.5 0,-608.5 193,-608.5 193,-516.5 0,-516.5"/>
<text text-anchor="middle" x="15.5" y="-558.8" font-family="Times,serif" font-size="14.00" fill="#000000">IN</text>
<polyline fill="none" stroke="#000000" points="31,-516.5 31,-608.5 "/>
<text text-anchor="middle" x="67" y="-589.8" font-family="Times,serif" font-size="14.00" fill="#000000">inputnode</text>
<polyline fill="none" stroke="#000000" points="31,-578.5 103,-578.5 "/>
<text text-anchor="middle" x="67" y="-559.3" font-family="Times,serif" font-size="14.00" fill="#000000">utility</text>
<polyline fill="none" stroke="#000000" points="31,-547.5 103,-547.5 "/>
<text text-anchor="middle" x="67" y="-528.3" font-family="Times,serif" font-size="14.00" fill="#000000"> </text>
<polyline fill="none" stroke="#000000" points="103,-516.5 103,-608.5 "/>
<text text-anchor="middle" x="148" y="-593.3" font-family="Times,serif" font-size="14.00" fill="#000000">OUT</text>
<polyline fill="none" stroke="#000000" points="103,-585.5 193,-585.5 "/>
<text text-anchor="middle" x="148" y="-570.3" font-family="Times,serif" font-size="14.00" fill="#000000">bold_file</text>
<polyline fill="none" stroke="#000000" points="103,-562.5 193,-562.5 "/>
<text text-anchor="middle" x="148" y="-547.3" font-family="Times,serif" font-size="14.00" fill="#000000">hmc_xforms</text>
<polyline fill="none" stroke="#000000" points="103,-539.5 193,-539.5 "/>
<text text-anchor="middle" x="148" y="-524.3" font-family="Times,serif" font-size="14.00" fill="#000000">name_source</text>
</g>
<!-- bold_preproc_trans_wfbold_transform -->
<g id="node2" class="node">
<title>bold_preproc_trans_wfbold_transform</title>
<polygon fill="none" stroke="#000000" points="193.5,-387.5 193.5,-479.5 471.5,-479.5 471.5,-387.5 193.5,-387.5"/>
<text text-anchor="middle" x="248.5" y="-464.3" font-family="Times,serif" font-size="14.00" fill="#000000">IN</text>
<polyline fill="none" stroke="#000000" points="193.5,-456.5 303.5,-456.5 "/>
<text text-anchor="middle" x="248.5" y="-441.3" font-family="Times,serif" font-size="14.00" fill="#000000">input_image</text>
<polyline fill="none" stroke="#000000" points="193.5,-433.5 303.5,-433.5 "/>
<text text-anchor="middle" x="248.5" y="-418.3" font-family="Times,serif" font-size="14.00" fill="#000000">reference_image</text>
<polyline fill="none" stroke="#000000" points="193.5,-410.5 303.5,-410.5 "/>
<text text-anchor="middle" x="248.5" y="-395.3" font-family="Times,serif" font-size="14.00" fill="#000000">transforms</text>
<polyline fill="none" stroke="#000000" points="303.5,-387.5 303.5,-479.5 "/>
<text text-anchor="middle" x="355" y="-460.8" font-family="Times,serif" font-size="14.00" fill="#000000">bold_transform</text>
<polyline fill="none" stroke="#000000" points="303.5,-449.5 406.5,-449.5 "/>
<text text-anchor="middle" x="355" y="-430.3" font-family="Times,serif" font-size="14.00" fill="#000000">interfaces</text>
<polyline fill="none" stroke="#000000" points="303.5,-418.5 406.5,-418.5 "/>
<text text-anchor="middle" x="355" y="-399.3" font-family="Times,serif" font-size="14.00" fill="#000000"> </text>
<polyline fill="none" stroke="#000000" points="406.5,-387.5 406.5,-479.5 "/>
<text text-anchor="middle" x="439" y="-452.8" font-family="Times,serif" font-size="14.00" fill="#000000">OUT</text>
<polyline fill="none" stroke="#000000" points="406.5,-433.5 471.5,-433.5 "/>
<text text-anchor="middle" x="439" y="-406.8" font-family="Times,serif" font-size="14.00" fill="#000000">out_files</text>
</g>
<!-- bold_preproc_trans_wfinputnode&#45;&gt;bold_preproc_trans_wfbold_transform -->
<g id="edge5" class="edge">
<title>bold_preproc_trans_wfinputnode:e&#45;&gt;bold_preproc_trans_wfbold_transform:w</title>
<path fill="none" stroke="#000000" d="M193.5,-574.5C246.5781,-574.5 152.2401,-463.9379 183.4361,-447.5263"/>
<polygon fill="#000000" stroke="#000000" points="184.3876,-450.905 193.5,-445.5 183.0059,-444.0427 184.3876,-450.905"/>
</g>
<!-- bold_preproc_trans_wfinputnode&#45;&gt;bold_preproc_trans_wfbold_transform -->
<g id="edge6" class="edge">
<title>bold_preproc_trans_wfinputnode:e&#45;&gt;bold_preproc_trans_wfbold_transform:w</title>
<path fill="none" stroke="#000000" d="M193.5,-574.5C257.5156,-574.5 140.7371,-438.9044 183.5659,-423.0143"/>
<polygon fill="#000000" stroke="#000000" points="184.1417,-426.4671 193.5,-421.5 183.0867,-419.547 184.1417,-426.4671"/>
</g>
<!-- bold_preproc_trans_wfinputnode&#45;&gt;bold_preproc_trans_wfbold_transform -->
<g id="edge7" class="edge">
<title>bold_preproc_trans_wfinputnode:e&#45;&gt;bold_preproc_trans_wfbold_transform:w</title>
<path fill="none" stroke="#000000" d="M193.5,-550.5C193.5,-550.5 193.5,-443.2887 193.5,-408.9476"/>
<polygon fill="#000000" stroke="#000000" points="197.0001,-408.5 193.5,-398.5 190.0001,-408.5 197.0001,-408.5"/>
</g>
<!-- bold_preproc_trans_wfmerge -->
<g id="node3" class="node">
<title>bold_preproc_trans_wfmerge</title>
<polygon fill="none" stroke="#000000" points="486,-281.5 486,-350.5 713,-350.5 713,-281.5 486,-281.5"/>
<text text-anchor="middle" x="534.5" y="-335.3" font-family="Times,serif" font-size="14.00" fill="#000000">IN</text>
<polyline fill="none" stroke="#000000" points="486,-327.5 583,-327.5 "/>
<text text-anchor="middle" x="534.5" y="-312.3" font-family="Times,serif" font-size="14.00" fill="#000000">header_source</text>
<polyline fill="none" stroke="#000000" points="486,-304.5 583,-304.5 "/>
<text text-anchor="middle" x="534.5" y="-289.3" font-family="Times,serif" font-size="14.00" fill="#000000">in_files</text>
<polyline fill="none" stroke="#000000" points="583,-281.5 583,-350.5 "/>
<text text-anchor="middle" x="618.5" y="-335.3" font-family="Times,serif" font-size="14.00" fill="#000000">merge</text>
<polyline fill="none" stroke="#000000" points="583,-327.5 654,-327.5 "/>
<text text-anchor="middle" x="618.5" y="-312.3" font-family="Times,serif" font-size="14.00" fill="#000000">interfaces</text>
<polyline fill="none" stroke="#000000" points="583,-304.5 654,-304.5 "/>
<text text-anchor="middle" x="618.5" y="-289.3" font-family="Times,serif" font-size="14.00" fill="#000000"> </text>
<polyline fill="none" stroke="#000000" points="654,-281.5 654,-350.5 "/>
<text text-anchor="middle" x="683.5" y="-329.8" font-family="Times,serif" font-size="14.00" fill="#000000">OUT</text>
<polyline fill="none" stroke="#000000" points="654,-316.5 713,-316.5 "/>
<text text-anchor="middle" x="683.5" y="-295.3" font-family="Times,serif" font-size="14.00" fill="#000000">out_file</text>
</g>
<!-- bold_preproc_trans_wfinputnode&#45;&gt;bold_preproc_trans_wfmerge -->
<g id="edge8" class="edge">
<title>bold_preproc_trans_wfinputnode:e&#45;&gt;bold_preproc_trans_wfmerge:w</title>
<path fill="none" stroke="#000000" d="M193.5,-527.5C225.8227,-527.5 459.2203,-504.3296 480.5,-480 485.5869,-474.1841 479.0929,-360.3905 482.548,-325.854"/>
<polygon fill="#000000" stroke="#000000" points="485.983,-326.5838 485.5,-316 479.2774,-324.575 485.983,-326.5838"/>
</g>
<!-- bold_preproc_trans_wfbold_transform&#45;&gt;bold_preproc_trans_wfmerge -->
<g id="edge4" class="edge">
<title>bold_preproc_trans_wfbold_transform:e&#45;&gt;bold_preproc_trans_wfmerge:w</title>
<path fill="none" stroke="#000000" d="M471.5,-410.5C493.9952,-410.5 469.0041,-324.5104 477.7728,-299.654"/>
<polygon fill="#000000" stroke="#000000" points="480.2062,-302.1775 485.5,-293 475.6385,-296.8731 480.2062,-302.1775"/>
</g>
<!-- bold_preproc_trans_wfbold_reference_wf -->
<g id="node4" class="node">
<title>bold_preproc_trans_wfbold_reference_wf</title>
<polygon fill="none" stroke="#000000" points="487.5,-152.5 487.5,-244.5 911.5,-244.5 911.5,-152.5 487.5,-152.5"/>
<text text-anchor="middle" x="550.5" y="-217.8" font-family="Times,serif" font-size="14.00" fill="#000000">IN</text>
<polyline fill="none" stroke="#000000" points="487.5,-198.5 613.5,-198.5 "/>
<text text-anchor="middle" x="550.5" y="-171.8" font-family="Times,serif" font-size="14.00" fill="#000000">inputnode.bold_file</text>
<polyline fill="none" stroke="#000000" points="613.5,-152.5 613.5,-244.5 "/>
<text text-anchor="middle" x="674.5" y="-225.8" font-family="Times,serif" font-size="14.00" fill="#000000">bold_reference_wf</text>
<polyline fill="none" stroke="#000000" points="613.5,-214.5 735.5,-214.5 "/>
<text text-anchor="middle" x="674.5" y="-195.3" font-family="Times,serif" font-size="14.00" fill="#000000"> </text>
<polyline fill="none" stroke="#000000" points="613.5,-183.5 735.5,-183.5 "/>
<text text-anchor="middle" x="674.5" y="-164.3" font-family="Times,serif" font-size="14.00" fill="#000000"> </text>
<polyline fill="none" stroke="#000000" points="735.5,-152.5 735.5,-244.5 "/>
<text text-anchor="middle" x="823.5" y="-229.3" font-family="Times,serif" font-size="14.00" fill="#000000">OUT</text>
<polyline fill="none" stroke="#000000" points="735.5,-221.5 911.5,-221.5 "/>
<text text-anchor="middle" x="823.5" y="-206.3" font-family="Times,serif" font-size="14.00" fill="#000000">outputnode.bold_mask</text>
<polyline fill="none" stroke="#000000" points="735.5,-198.5 911.5,-198.5 "/>
<text text-anchor="middle" x="823.5" y="-183.3" font-family="Times,serif" font-size="14.00" fill="#000000">outputnode.ref_image</text>
<polyline fill="none" stroke="#000000" points="735.5,-175.5 911.5,-175.5 "/>
<text text-anchor="middle" x="823.5" y="-160.3" font-family="Times,serif" font-size="14.00" fill="#000000">outputnode.ref_image_brain</text>
</g>
<!-- bold_preproc_trans_wfmerge&#45;&gt;bold_preproc_trans_wfbold_reference_wf -->
<g id="edge9" class="edge">
<title>bold_preproc_trans_wfmerge:e&#45;&gt;bold_preproc_trans_wfbold_reference_wf:w</title>
<path fill="none" stroke="#000000" d="M713.5,-299C721.5,-299 718.6929,-287.0855 713.5,-281 647.4784,-203.6293 553.5216,-322.3707 487.5,-245 470.1126,-224.6237 459.6526,-187.3226 477.3246,-177.7739"/>
<polygon fill="#000000" stroke="#000000" points="478.504,-181.0967 487.5,-175.5 476.9774,-174.2652 478.504,-181.0967"/>
</g>
<!-- bold_preproc_trans_wfoutputnode -->
<g id="node5" class="node">
<title>bold_preproc_trans_wfoutputnode</title>
<polygon fill="none" stroke="#000000" points="911.5,-.5 911.5,-115.5 1135.5,-115.5 1135.5,-.5 911.5,-.5"/>
<text text-anchor="middle" x="961.5" y="-100.3" font-family="Times,serif" font-size="14.00" fill="#000000">IN</text>
<polyline fill="none" stroke="#000000" points="911.5,-92.5 1011.5,-92.5 "/>
<text text-anchor="middle" x="961.5" y="-77.3" font-family="Times,serif" font-size="14.00" fill="#000000">bold</text>
<polyline fill="none" stroke="#000000" points="911.5,-69.5 1011.5,-69.5 "/>
<text text-anchor="middle" x="961.5" y="-54.3" font-family="Times,serif" font-size="14.00" fill="#000000">bold_mask</text>
<polyline fill="none" stroke="#000000" points="911.5,-46.5 1011.5,-46.5 "/>
<text text-anchor="middle" x="961.5" y="-31.3" font-family="Times,serif" font-size="14.00" fill="#000000">bold_ref</text>
<polyline fill="none" stroke="#000000" points="911.5,-23.5 1011.5,-23.5 "/>
<text text-anchor="middle" x="961.5" y="-8.3" font-family="Times,serif" font-size="14.00" fill="#000000">bold_ref_brain</text>
<polyline fill="none" stroke="#000000" points="1011.5,-.5 1011.5,-115.5 "/>
<text text-anchor="middle" x="1051" y="-92.8" font-family="Times,serif" font-size="14.00" fill="#000000">outputnode</text>
<polyline fill="none" stroke="#000000" points="1011.5,-77.5 1090.5,-77.5 "/>
<text text-anchor="middle" x="1051" y="-54.8" font-family="Times,serif" font-size="14.00" fill="#000000">utility</text>
<polyline fill="none" stroke="#000000" points="1011.5,-39.5 1090.5,-39.5 "/>
<text text-anchor="middle" x="1051" y="-16.3" font-family="Times,serif" font-size="14.00" fill="#000000"> </text>
<polyline fill="none" stroke="#000000" points="1090.5,-.5 1090.5,-115.5 "/>
<text text-anchor="middle" x="1113" y="-54.3" font-family="Times,serif" font-size="14.00" fill="#000000">OUT</text>
</g>
<!-- bold_preproc_trans_wfmerge&#45;&gt;bold_preproc_trans_wfoutputnode -->
<g id="edge10" class="edge">
<title>bold_preproc_trans_wfmerge:e&#45;&gt;bold_preproc_trans_wfoutputnode:w</title>
<path fill="none" stroke="#000000" d="M713.5,-299C761.0395,-299 891.4352,-282.6196 920.5,-245 945.7705,-212.2915 925.5502,-193.0236 920.5,-152 918.4849,-135.6311 913.5151,-132.3689 911.5,-116 910.3121,-106.3506 904.5327,-95.0911 904.1629,-88.0034"/>
<polygon fill="#000000" stroke="#000000" points="906.683,-90.4365 911.5,-81 901.8497,-85.3729 906.683,-90.4365"/>
</g>
<!-- bold_preproc_trans_wfbold_reference_wf&#45;&gt;bold_preproc_trans_wfoutputnode -->
<g id="edge1" class="edge">
<title>bold_preproc_trans_wfbold_reference_wf:e&#45;&gt;bold_preproc_trans_wfoutputnode:w</title>
<path fill="none" stroke="#000000" d="M911.5,-210.5C941.2852,-210.5 892.5352,-92.6974 903.3002,-64.1671"/>
<polygon fill="#000000" stroke="#000000" points="905.6118,-66.8079 911.5,-58 901.4043,-61.2136 905.6118,-66.8079"/>
</g>
<!-- bold_preproc_trans_wfbold_reference_wf&#45;&gt;bold_preproc_trans_wfoutputnode -->
<g id="edge2" class="edge">
<title>bold_preproc_trans_wfbold_reference_wf:e&#45;&gt;bold_preproc_trans_wfoutputnode:w</title>
<path fill="none" stroke="#000000" d="M911.5,-186.5C911.5,-186.5 911.5,-79.6414 911.5,-45.4132"/>
<polygon fill="#000000" stroke="#000000" points="915.0001,-45 911.5,-35 908.0001,-45 915.0001,-45"/>
</g>
<!-- bold_preproc_trans_wfbold_reference_wf&#45;&gt;bold_preproc_trans_wfoutputnode -->
<g id="edge3" class="edge">
<title>bold_preproc_trans_wfbold_reference_wf:e&#45;&gt;bold_preproc_trans_wfoutputnode:w</title>
<path fill="none" stroke="#000000" d="M911.5,-163.5C911.5,-163.5 911.5,-56.6414 911.5,-22.4132"/>
<polygon fill="#000000" stroke="#000000" points="915.0001,-22 911.5,-12 908.0001,-22 915.0001,-22"/>
</g>
</g>
</svg>
