<?xml version="1.0" encoding="UTF-8" standalone="no"?>
<!DOCTYPE svg PUBLIC "-//W3C//DTD SVG 1.1//EN"
 "http://www.w3.org/Graphics/SVG/1.1/DTD/svg11.dtd">
<!-- Generated by graphviz version 2.40.1 (20161225.0304)
 -->
<!-- Title: structs Pages: 1 -->
<svg width="922pt" height="571pt"
 viewBox="0.00 0.00 922.12 571.00" xmlns="http://www.w3.org/2000/svg" xmlns:xlink="http://www.w3.org/1999/xlink">
<g id="graph0" class="graph" transform="scale(1 1) rotate(0) translate(4 567)">
<title>structs</title>
<polygon fill="#ffffff" stroke="transparent" points="-4,4 -4,-567 918.1167,-567 918.1167,4 -4,4"/>
<!-- bold_confs_wfinputnode -->
<g id="node1" class="node">
<title>bold_confs_wfinputnode</title>
<polygon fill="none" stroke="#000000" points="16.6167,-470.5 16.6167,-562.5 203.6167,-562.5 203.6167,-470.5 16.6167,-470.5"/>
<text text-anchor="middle" x="32.1167" y="-512.8" font-family="Times,serif" font-size="14.00" fill="#000000">IN</text>
<polyline fill="none" stroke="#000000" points="47.6167,-470.5 47.6167,-562.5 "/>
<text text-anchor="middle" x="83.6167" y="-543.8" font-family="Times,serif" font-size="14.00" fill="#000000">inputnode</text>
<polyline fill="none" stroke="#000000" points="47.6167,-532.5 119.6167,-532.5 "/>
<text text-anchor="middle" x="83.6167" y="-513.3" font-family="Times,serif" font-size="14.00" fill="#000000">utility</text>
<polyline fill="none" stroke="#000000" points="47.6167,-501.5 119.6167,-501.5 "/>
<text text-anchor="middle" x="83.6167" y="-482.3" font-family="Times,serif" font-size="14.00" fill="#000000"> </text>
<polyline fill="none" stroke="#000000" points="119.6167,-470.5 119.6167,-562.5 "/>
<text text-anchor="middle" x="161.6167" y="-547.3" font-family="Times,serif" font-size="14.00" fill="#000000">OUT</text>
<polyline fill="none" stroke="#000000" points="119.6167,-539.5 203.6167,-539.5 "/>
<text text-anchor="middle" x="161.6167" y="-524.3" font-family="Times,serif" font-size="14.00" fill="#000000">bold</text>
<polyline fill="none" stroke="#000000" points="119.6167,-516.5 203.6167,-516.5 "/>
<text text-anchor="middle" x="161.6167" y="-501.3" font-family="Times,serif" font-size="14.00" fill="#000000">bold_mask</text>
<polyline fill="none" stroke="#000000" points="119.6167,-493.5 203.6167,-493.5 "/>
<text text-anchor="middle" x="161.6167" y="-478.3" font-family="Times,serif" font-size="14.00" fill="#000000">movpar_file</text>
</g>
<!-- bold_confs_wfadd_motion_headers -->
<g id="node2" class="node">
<title>bold_confs_wfadd_motion_headers</title>
<polygon fill="none" stroke="#000000" points="31.1167,-258.5 31.1167,-327.5 275.1167,-327.5 275.1167,-258.5 31.1167,-258.5"/>
<text text-anchor="middle" x="57.1167" y="-306.8" font-family="Times,serif" font-size="14.00" fill="#000000">IN</text>
<polyline fill="none" stroke="#000000" points="31.1167,-293.5 83.1167,-293.5 "/>
<text text-anchor="middle" x="57.1167" y="-272.3" font-family="Times,serif" font-size="14.00" fill="#000000">in_file</text>
<polyline fill="none" stroke="#000000" points="83.1167,-258.5 83.1167,-327.5 "/>
<text text-anchor="middle" x="149.6167" y="-312.3" font-family="Times,serif" font-size="14.00" fill="#000000">add_motion_headers</text>
<polyline fill="none" stroke="#000000" points="83.1167,-304.5 216.1167,-304.5 "/>
<text text-anchor="middle" x="149.6167" y="-289.3" font-family="Times,serif" font-size="14.00" fill="#000000">interfaces</text>
<polyline fill="none" stroke="#000000" points="83.1167,-281.5 216.1167,-281.5 "/>
<text text-anchor="middle" x="149.6167" y="-266.3" font-family="Times,serif" font-size="14.00" fill="#000000"> </text>
<polyline fill="none" stroke="#000000" points="216.1167,-258.5 216.1167,-327.5 "/>
<text text-anchor="middle" x="245.6167" y="-306.8" font-family="Times,serif" font-size="14.00" fill="#000000">OUT</text>
<polyline fill="none" stroke="#000000" points="216.1167,-293.5 275.1167,-293.5 "/>
<text text-anchor="middle" x="245.6167" y="-272.3" font-family="Times,serif" font-size="14.00" fill="#000000">out_file</text>
</g>
<!-- bold_confs_wfinputnode&#45;&gt;bold_confs_wfadd_motion_headers -->
<g id="edge10" class="edge">
<title>bold_confs_wfinputnode:e&#45;&gt;bold_confs_wfadd_motion_headers:w</title>
<path fill="none" stroke="#000000" d="M204.1167,-481.5C209.2279,-481.5 207.1221,-474.1342 204.1167,-470 173.6211,-428.0501 133.5227,-466.5137 93.1167,-434 37.3305,-389.1102 -36.3804,-287.0803 20.794,-276.8337"/>
<polygon fill="#000000" stroke="#000000" points="21.431,-280.2937 31.1167,-276 20.8674,-273.3164 21.431,-280.2937"/>
</g>
<!-- bold_confs_wffdisp -->
<g id="node3" class="node">
<title>bold_confs_wffdisp</title>
<polygon fill="none" stroke="#000000" points="102.1167,-364.5 102.1167,-433.5 288.1167,-433.5 288.1167,-364.5 102.1167,-364.5"/>
<text text-anchor="middle" x="128.1167" y="-412.8" font-family="Times,serif" font-size="14.00" fill="#000000">IN</text>
<polyline fill="none" stroke="#000000" points="102.1167,-399.5 154.1167,-399.5 "/>
<text text-anchor="middle" x="128.1167" y="-378.3" font-family="Times,serif" font-size="14.00" fill="#000000">in_file</text>
<polyline fill="none" stroke="#000000" points="154.1167,-364.5 154.1167,-433.5 "/>
<text text-anchor="middle" x="191.6167" y="-418.3" font-family="Times,serif" font-size="14.00" fill="#000000">fdisp</text>
<polyline fill="none" stroke="#000000" points="154.1167,-410.5 229.1167,-410.5 "/>
<text text-anchor="middle" x="191.6167" y="-395.3" font-family="Times,serif" font-size="14.00" fill="#000000">confounds</text>
<polyline fill="none" stroke="#000000" points="154.1167,-387.5 229.1167,-387.5 "/>
<text text-anchor="middle" x="191.6167" y="-372.3" font-family="Times,serif" font-size="14.00" fill="#000000"> </text>
<polyline fill="none" stroke="#000000" points="229.1167,-364.5 229.1167,-433.5 "/>
<text text-anchor="middle" x="258.6167" y="-412.8" font-family="Times,serif" font-size="14.00" fill="#000000">OUT</text>
<polyline fill="none" stroke="#000000" points="229.1167,-399.5 288.1167,-399.5 "/>
<text text-anchor="middle" x="258.6167" y="-378.3" font-family="Times,serif" font-size="14.00" fill="#000000">out_file</text>
</g>
<!-- bold_confs_wfinputnode&#45;&gt;bold_confs_wffdisp -->
<g id="edge11" class="edge">
<title>bold_confs_wfinputnode:e&#45;&gt;bold_confs_wffdisp:w</title>
<path fill="none" stroke="#000000" d="M204.1167,-481.5C209.2279,-481.5 207.0688,-474.1724 204.1167,-470 176.3505,-430.7553 129.883,-473.2447 102.1167,-434 91.2712,-418.671 82.7927,-393.9235 92.3909,-385.1821"/>
<polygon fill="#000000" stroke="#000000" points="93.7009,-388.4361 102.1167,-382 91.5241,-381.7832 93.7009,-388.4361"/>
</g>
<!-- bold_confs_wfdvars -->
<g id="node4" class="node">
<title>bold_confs_wfdvars</title>
<polygon fill="none" stroke="#000000" points="306.1167,-364.5 306.1167,-433.5 510.1167,-433.5 510.1167,-364.5 306.1167,-364.5"/>
<text text-anchor="middle" x="338.1167" y="-418.3" font-family="Times,serif" font-size="14.00" fill="#000000">IN</text>
<polyline fill="none" stroke="#000000" points="306.1167,-410.5 370.1167,-410.5 "/>
<text text-anchor="middle" x="338.1167" y="-395.3" font-family="Times,serif" font-size="14.00" fill="#000000">in_file</text>
<polyline fill="none" stroke="#000000" points="306.1167,-387.5 370.1167,-387.5 "/>
<text text-anchor="middle" x="338.1167" y="-372.3" font-family="Times,serif" font-size="14.00" fill="#000000">in_mask</text>
<polyline fill="none" stroke="#000000" points="370.1167,-364.5 370.1167,-433.5 "/>
<text text-anchor="middle" x="407.6167" y="-418.3" font-family="Times,serif" font-size="14.00" fill="#000000">dvars</text>
<polyline fill="none" stroke="#000000" points="370.1167,-410.5 445.1167,-410.5 "/>
<text text-anchor="middle" x="407.6167" y="-395.3" font-family="Times,serif" font-size="14.00" fill="#000000">confounds</text>
<polyline fill="none" stroke="#000000" points="370.1167,-387.5 445.1167,-387.5 "/>
<text text-anchor="middle" x="407.6167" y="-372.3" font-family="Times,serif" font-size="14.00" fill="#000000"> </text>
<polyline fill="none" stroke="#000000" points="445.1167,-364.5 445.1167,-433.5 "/>
<text text-anchor="middle" x="477.6167" y="-418.3" font-family="Times,serif" font-size="14.00" fill="#000000">OUT</text>
<polyline fill="none" stroke="#000000" points="445.1167,-410.5 510.1167,-410.5 "/>
<text text-anchor="middle" x="477.6167" y="-395.3" font-family="Times,serif" font-size="14.00" fill="#000000">out_nstd</text>
<polyline fill="none" stroke="#000000" points="445.1167,-387.5 510.1167,-387.5 "/>
<text text-anchor="middle" x="477.6167" y="-372.3" font-family="Times,serif" font-size="14.00" fill="#000000">out_std</text>
</g>
<!-- bold_confs_wfinputnode&#45;&gt;bold_confs_wfdvars -->
<g id="edge8" class="edge">
<title>bold_confs_wfinputnode:e&#45;&gt;bold_confs_wfdvars:w</title>
<path fill="none" stroke="#000000" d="M204.1167,-528.5C263.0442,-528.5 268.1163,-485.2974 297.1167,-434 302.2423,-424.9336 297.7515,-412.9087 298.3395,-405.5743"/>
<polygon fill="#000000" stroke="#000000" points="300.7392,-408.1287 306.1167,-399 296.2202,-402.7828 300.7392,-408.1287"/>
</g>
<!-- bold_confs_wfinputnode&#45;&gt;bold_confs_wfdvars -->
<g id="edge9" class="edge">
<title>bold_confs_wfinputnode:e&#45;&gt;bold_confs_wfdvars:w</title>
<path fill="none" stroke="#000000" d="M204.1167,-504.5C255.9841,-504.5 270.5367,-478.539 297.1167,-434 302.0254,-425.7748 297.544,-398.3506 299.9827,-384.3618"/>
<polygon fill="#000000" stroke="#000000" points="303.0238,-386.1334 306.1167,-376 297.3797,-381.9929 303.0238,-386.1334"/>
</g>
<!-- bold_confs_wfconcat -->
<g id="node7" class="node">
<title>bold_confs_wfconcat</title>
<polygon fill="none" stroke="#000000" points="444.6167,-106.5 444.6167,-221.5 689.6167,-221.5 689.6167,-106.5 444.6167,-106.5"/>
<text text-anchor="middle" x="479.6167" y="-206.3" font-family="Times,serif" font-size="14.00" fill="#000000">IN</text>
<polyline fill="none" stroke="#000000" points="444.6167,-198.5 514.6167,-198.5 "/>
<text text-anchor="middle" x="479.6167" y="-183.3" font-family="Times,serif" font-size="14.00" fill="#000000">dvars</text>
<polyline fill="none" stroke="#000000" points="444.6167,-175.5 514.6167,-175.5 "/>
<text text-anchor="middle" x="479.6167" y="-160.3" font-family="Times,serif" font-size="14.00" fill="#000000">fd</text>
<polyline fill="none" stroke="#000000" points="444.6167,-152.5 514.6167,-152.5 "/>
<text text-anchor="middle" x="479.6167" y="-137.3" font-family="Times,serif" font-size="14.00" fill="#000000">motion</text>
<polyline fill="none" stroke="#000000" points="444.6167,-129.5 514.6167,-129.5 "/>
<text text-anchor="middle" x="479.6167" y="-114.3" font-family="Times,serif" font-size="14.00" fill="#000000">std_dvars</text>
<polyline fill="none" stroke="#000000" points="514.6167,-106.5 514.6167,-221.5 "/>
<text text-anchor="middle" x="552.1167" y="-198.8" font-family="Times,serif" font-size="14.00" fill="#000000">concat</text>
<polyline fill="none" stroke="#000000" points="514.6167,-183.5 589.6167,-183.5 "/>
<text text-anchor="middle" x="552.1167" y="-160.8" font-family="Times,serif" font-size="14.00" fill="#000000">confounds</text>
<polyline fill="none" stroke="#000000" points="514.6167,-145.5 589.6167,-145.5 "/>
<text text-anchor="middle" x="552.1167" y="-122.3" font-family="Times,serif" font-size="14.00" fill="#000000"> </text>
<polyline fill="none" stroke="#000000" points="589.6167,-106.5 589.6167,-221.5 "/>
<text text-anchor="middle" x="639.6167" y="-189.3" font-family="Times,serif" font-size="14.00" fill="#000000">OUT</text>
<polyline fill="none" stroke="#000000" points="589.6167,-164.5 689.6167,-164.5 "/>
<text text-anchor="middle" x="639.6167" y="-131.8" font-family="Times,serif" font-size="14.00" fill="#000000">confounds_file</text>
</g>
<!-- bold_confs_wfadd_motion_headers&#45;&gt;bold_confs_wfconcat -->
<g id="edge2" class="edge">
<title>bold_confs_wfadd_motion_headers:e&#45;&gt;bold_confs_wfconcat:w</title>
<path fill="none" stroke="#000000" d="M275.1167,-276C285.2516,-276 281.8987,-265.1145 289.1167,-258 348.0664,-199.8962 357.1219,-145.6345 433.8864,-141.2811"/>
<polygon fill="#000000" stroke="#000000" points="434.2167,-144.7734 444.1167,-141 434.0244,-137.7761 434.2167,-144.7734"/>
</g>
<!-- bold_confs_wffdisp&#45;&gt;bold_confs_wfconcat -->
<g id="edge7" class="edge">
<title>bold_confs_wffdisp:e&#45;&gt;bold_confs_wfconcat:w</title>
<path fill="none" stroke="#000000" d="M288.1167,-382C295.2599,-382 318.1369,-263.9317 322.1167,-258 358.3178,-204.0451 374.0426,-167.8247 434.0892,-164.2852"/>
<polygon fill="#000000" stroke="#000000" points="434.2203,-167.783 444.1167,-164 434.0213,-160.7858 434.2203,-167.783"/>
</g>
<!-- bold_confs_wfadd_std_dvars_header -->
<g id="node5" class="node">
<title>bold_confs_wfadd_std_dvars_header</title>
<polygon fill="none" stroke="#000000" points="331.6167,-258.5 331.6167,-327.5 584.6167,-327.5 584.6167,-258.5 331.6167,-258.5"/>
<text text-anchor="middle" x="357.6167" y="-306.8" font-family="Times,serif" font-size="14.00" fill="#000000">IN</text>
<polyline fill="none" stroke="#000000" points="331.6167,-293.5 383.6167,-293.5 "/>
<text text-anchor="middle" x="357.6167" y="-272.3" font-family="Times,serif" font-size="14.00" fill="#000000">in_file</text>
<polyline fill="none" stroke="#000000" points="383.6167,-258.5 383.6167,-327.5 "/>
<text text-anchor="middle" x="454.6167" y="-312.3" font-family="Times,serif" font-size="14.00" fill="#000000">add_std_dvars_header</text>
<polyline fill="none" stroke="#000000" points="383.6167,-304.5 525.6167,-304.5 "/>
<text text-anchor="middle" x="454.6167" y="-289.3" font-family="Times,serif" font-size="14.00" fill="#000000">interfaces</text>
<polyline fill="none" stroke="#000000" points="383.6167,-281.5 525.6167,-281.5 "/>
<text text-anchor="middle" x="454.6167" y="-266.3" font-family="Times,serif" font-size="14.00" fill="#000000"> </text>
<polyline fill="none" stroke="#000000" points="525.6167,-258.5 525.6167,-327.5 "/>
<text text-anchor="middle" x="555.1167" y="-306.8" font-family="Times,serif" font-size="14.00" fill="#000000">OUT</text>
<polyline fill="none" stroke="#000000" points="525.6167,-293.5 584.6167,-293.5 "/>
<text text-anchor="middle" x="555.1167" y="-272.3" font-family="Times,serif" font-size="14.00" fill="#000000">out_file</text>
</g>
<!-- bold_confs_wfdvars&#45;&gt;bold_confs_wfadd_std_dvars_header -->
<g id="edge6" class="edge">
<title>bold_confs_wfdvars:e&#45;&gt;bold_confs_wfadd_std_dvars_header:w</title>
<path fill="none" stroke="#000000" d="M510.1167,-376C515.4501,-376 513.4958,-368.1263 510.1167,-364 458.7032,-301.2168 382.5303,-390.7832 331.1167,-328 325.7974,-321.5043 322.1076,-296.9972 324.9196,-284.0806"/>
<polygon fill="#000000" stroke="#000000" points="327.8084,-286.0651 331.1167,-276 322.2538,-281.8052 327.8084,-286.0651"/>
</g>
<!-- bold_confs_wfadd_dvars_header -->
<g id="node6" class="node">
<title>bold_confs_wfadd_dvars_header</title>
<polygon fill="none" stroke="#000000" points="602.6167,-258.5 602.6167,-327.5 831.6167,-327.5 831.6167,-258.5 602.6167,-258.5"/>
<text text-anchor="middle" x="628.6167" y="-306.8" font-family="Times,serif" font-size="14.00" fill="#000000">IN</text>
<polyline fill="none" stroke="#000000" points="602.6167,-293.5 654.6167,-293.5 "/>
<text text-anchor="middle" x="628.6167" y="-272.3" font-family="Times,serif" font-size="14.00" fill="#000000">in_file</text>
<polyline fill="none" stroke="#000000" points="654.6167,-258.5 654.6167,-327.5 "/>
<text text-anchor="middle" x="713.6167" y="-312.3" font-family="Times,serif" font-size="14.00" fill="#000000">add_dvars_header</text>
<polyline fill="none" stroke="#000000" points="654.6167,-304.5 772.6167,-304.5 "/>
<text text-anchor="middle" x="713.6167" y="-289.3" font-family="Times,serif" font-size="14.00" fill="#000000">interfaces</text>
<polyline fill="none" stroke="#000000" points="654.6167,-281.5 772.6167,-281.5 "/>
<text text-anchor="middle" x="713.6167" y="-266.3" font-family="Times,serif" font-size="14.00" fill="#000000"> </text>
<polyline fill="none" stroke="#000000" points="772.6167,-258.5 772.6167,-327.5 "/>
<text text-anchor="middle" x="802.1167" y="-306.8" font-family="Times,serif" font-size="14.00" fill="#000000">OUT</text>
<polyline fill="none" stroke="#000000" points="772.6167,-293.5 831.6167,-293.5 "/>
<text text-anchor="middle" x="802.1167" y="-272.3" font-family="Times,serif" font-size="14.00" fill="#000000">out_file</text>
</g>
<!-- bold_confs_wfdvars&#45;&gt;bold_confs_wfadd_dvars_header -->
<g id="edge5" class="edge">
<title>bold_confs_wfdvars:e&#45;&gt;bold_confs_wfadd_dvars_header:w</title>
<path fill="none" stroke="#000000" d="M510.1167,-399C558.9996,-399 570.2165,-370.6416 594.1167,-328 598.2253,-320.6696 594.5208,-297.0134 596.4531,-284.2866"/>
<polygon fill="#000000" stroke="#000000" points="599.3636,-286.2309 602.1167,-276 593.5845,-282.281 599.3636,-286.2309"/>
</g>
<!-- bold_confs_wfadd_std_dvars_header&#45;&gt;bold_confs_wfconcat -->
<g id="edge3" class="edge">
<title>bold_confs_wfadd_std_dvars_header:e&#45;&gt;bold_confs_wfconcat:w</title>
<path fill="none" stroke="#000000" d="M585.1167,-276C593.1167,-276 590.0243,-264.3179 585.1167,-258 545.4413,-206.9219 483.7922,-273.0781 444.1167,-222 418.0882,-188.4908 400.8965,-128.8651 434.006,-119.3082"/>
<polygon fill="#000000" stroke="#000000" points="434.6486,-122.7543 444.1167,-118 433.7503,-115.8122 434.6486,-122.7543"/>
</g>
<!-- bold_confs_wfadd_dvars_header&#45;&gt;bold_confs_wfconcat -->
<g id="edge1" class="edge">
<title>bold_confs_wfadd_dvars_header:e&#45;&gt;bold_confs_wfconcat:w</title>
<path fill="none" stroke="#000000" d="M832.1167,-276C840.1167,-276 837.506,-263.9124 832.1167,-258 773.7835,-194.0039 502.45,-285.9961 444.1167,-222 436.7487,-213.9167 432.0515,-199.897 435.3193,-192.2853"/>
<polygon fill="#000000" stroke="#000000" points="437.3472,-195.1501 444.1167,-187 433.7423,-189.1497 437.3472,-195.1501"/>
</g>
<!-- bold_confs_wfoutputnode -->
<g id="node8" class="node">
<title>bold_confs_wfoutputnode</title>
<polygon fill="none" stroke="#000000" points="690.1167,-.5 690.1167,-69.5 914.1167,-69.5 914.1167,-.5 690.1167,-.5"/>
<text text-anchor="middle" x="740.1167" y="-48.8" font-family="Times,serif" font-size="14.00" fill="#000000">IN</text>
<polyline fill="none" stroke="#000000" points="690.1167,-35.5 790.1167,-35.5 "/>
<text text-anchor="middle" x="740.1167" y="-14.3" font-family="Times,serif" font-size="14.00" fill="#000000">confounds_file</text>
<polyline fill="none" stroke="#000000" points="790.1167,-.5 790.1167,-69.5 "/>
<text text-anchor="middle" x="829.6167" y="-54.3" font-family="Times,serif" font-size="14.00" fill="#000000">outputnode</text>
<polyline fill="none" stroke="#000000" points="790.1167,-46.5 869.1167,-46.5 "/>
<text text-anchor="middle" x="829.6167" y="-31.3" font-family="Times,serif" font-size="14.00" fill="#000000">utility</text>
<polyline fill="none" stroke="#000000" points="790.1167,-23.5 869.1167,-23.5 "/>
<text text-anchor="middle" x="829.6167" y="-8.3" font-family="Times,serif" font-size="14.00" fill="#000000"> </text>
<polyline fill="none" stroke="#000000" points="869.1167,-.5 869.1167,-69.5 "/>
<text text-anchor="middle" x="891.6167" y="-31.3" font-family="Times,serif" font-size="14.00" fill="#000000">OUT</text>
</g>
<!-- bold_confs_wfconcat&#45;&gt;bold_confs_wfoutputnode -->
<g id="edge4" class="edge">
<title>bold_confs_wfconcat:e&#45;&gt;bold_confs_wfoutputnode:w</title>
<path fill="none" stroke="#000000" d="M690.1167,-135C737.8511,-135 654.1295,-36.408 680.2969,-20.2328"/>
<polygon fill="#000000" stroke="#000000" points="681.1416,-23.6301 690.1167,-18 679.5896,-16.8043 681.1416,-23.6301"/>
</g>
</g>
</svg>
