<?xml version="1.0" encoding="UTF-8" standalone="no"?>
<!DOCTYPE svg PUBLIC "-//W3C//DTD SVG 1.1//EN"
 "http://www.w3.org/Graphics/SVG/1.1/DTD/svg11.dtd">
<!-- Generated by graphviz version 2.40.1 (20161225.0304)
 -->
<!-- Title: %3 Pages: 1 -->
<svg width="440pt" height="260pt"
 viewBox="0.00 0.00 439.87 260.00" xmlns="http://www.w3.org/2000/svg" xmlns:xlink="http://www.w3.org/1999/xlink">
<g id="graph0" class="graph" transform="scale(1 1) rotate(0) translate(4 256)">
<title>%3</title>
<polygon fill="#ffffff" stroke="transparent" points="-4,4 -4,-256 435.8722,-256 435.8722,4 -4,4"/>
<!-- inputnode (utility) -->
<g id="node1" class="node">
<title>inputnode (utility)</title>
<ellipse fill="none" stroke="#000000" cx="185.9931" cy="-234" rx="77.1866" ry="18"/>
<text text-anchor="middle" x="185.9931" y="-230.3" font-family="Times,serif" font-size="14.00" fill="#000000">inputnode (utility)</text>
</g>
<!-- mcflirt (fsl) -->
<g id="node2" class="node">
<title>mcflirt (fsl)</title>
<ellipse fill="none" stroke="#000000" cx="260.9931" cy="-162" rx="52.7911" ry="18"/>
<text text-anchor="middle" x="260.9931" y="-158.3" font-family="Times,serif" font-size="14.00" fill="#000000">mcflirt (fsl)</text>
</g>
<!-- inputnode (utility)&#45;&gt;mcflirt (fsl) -->
<g id="edge1" class="edge">
<title>inputnode (utility)&#45;&gt;mcflirt (fsl)</title>
<path fill="none" stroke="#000000" d="M204.5324,-216.2022C213.9346,-207.1761 225.4949,-196.0783 235.701,-186.2804"/>
<polygon fill="#000000" stroke="#000000" points="238.3934,-188.5474 243.1835,-179.0972 233.5457,-183.4977 238.3934,-188.5474"/>
</g>
<!-- fsl2itk (interfaces) -->
<g id="node3" class="node">
<title>fsl2itk (interfaces)</title>
<ellipse fill="none" stroke="#000000" cx="77.9931" cy="-90" rx="77.9862" ry="18"/>
<text text-anchor="middle" x="77.9931" y="-86.3" font-family="Times,serif" font-size="14.00" fill="#000000">fsl2itk (interfaces)</text>
</g>
<!-- inputnode (utility)&#45;&gt;fsl2itk (interfaces) -->
<g id="edge2" class="edge">
<title>inputnode (utility)&#45;&gt;fsl2itk (interfaces)</title>
<path fill="none" stroke="#000000" d="M172.5332,-216.0535C153.6969,-190.9384 119.3517,-145.1449 97.652,-116.2119"/>
<polygon fill="#000000" stroke="#000000" points="100.4227,-114.0727 91.6226,-108.1727 94.8226,-118.2727 100.4227,-114.0727"/>
</g>
<!-- mcflirt (fsl)&#45;&gt;fsl2itk (interfaces) -->
<g id="edge3" class="edge">
<title>mcflirt (fsl)&#45;&gt;fsl2itk (interfaces)</title>
<path fill="none" stroke="#000000" d="M226.1414,-148.2879C198.0412,-137.2321 158.1894,-121.5526 126.8952,-109.2402"/>
<polygon fill="#000000" stroke="#000000" points="128.0676,-105.9403 117.4804,-105.536 125.5047,-112.4543 128.0676,-105.9403"/>
</g>
<!-- normalize_motion (interfaces) -->
<g id="node4" class="node">
<title>normalize_motion (interfaces)</title>
<ellipse fill="none" stroke="#000000" cx="294.9931" cy="-90" rx="120.7786" ry="18"/>
<text text-anchor="middle" x="294.9931" y="-86.3" font-family="Times,serif" font-size="14.00" fill="#000000">normalize_motion (interfaces)</text>
</g>
<!-- mcflirt (fsl)&#45;&gt;normalize_motion (interfaces) -->
<g id="edge4" class="edge">
<title>mcflirt (fsl)&#45;&gt;normalize_motion (interfaces)</title>
<path fill="none" stroke="#000000" d="M269.3976,-144.2022C273.2506,-136.0428 277.9032,-126.1904 282.179,-117.1358"/>
<polygon fill="#000000" stroke="#000000" points="285.3439,-118.6302 286.4491,-108.0931 279.0141,-115.6411 285.3439,-118.6302"/>
</g>
<!-- outputnode (utility) -->
<g id="node5" class="node">
<title>outputnode (utility)</title>
<ellipse fill="none" stroke="#000000" cx="294.9931" cy="-18" rx="81.7856" ry="18"/>
<text text-anchor="middle" x="294.9931" y="-14.3" font-family="Times,serif" font-size="14.00" fill="#000000">outputnode (utility)</text>
</g>
<!-- mcflirt (fsl)&#45;&gt;outputnode (utility) -->
<g id="edge5" class="edge">
<title>mcflirt (fsl)&#45;&gt;outputnode (utility)</title>
<path fill="none" stroke="#000000" d="M306.9532,-153.1105C350.3875,-143.6651 410.9357,-127.4285 424.9931,-108 434.3722,-95.0373 433.8756,-85.308 424.9931,-72 412.1109,-52.6995 390.9013,-40.2875 369.3137,-32.3093"/>
<polygon fill="#000000" stroke="#000000" points="370.3253,-28.9565 359.7309,-29.0507 368.0716,-35.5838 370.3253,-28.9565"/>
</g>
<!-- fsl2itk (interfaces)&#45;&gt;outputnode (utility) -->
<g id="edge6" class="edge">
<title>fsl2itk (interfaces)&#45;&gt;outputnode (utility)</title>
<path fill="none" stroke="#000000" d="M122.6925,-75.1689C156.6014,-63.918 203.4047,-48.3888 239.6744,-36.3546"/>
<polygon fill="#000000" stroke="#000000" points="241.2165,-39.5306 249.6055,-33.0595 239.0121,-32.8868 241.2165,-39.5306"/>
</g>
<!-- normalize_motion (interfaces)&#45;&gt;outputnode (utility) -->
<g id="edge7" class="edge">
<title>normalize_motion (interfaces)&#45;&gt;outputnode (utility)</title>
<path fill="none" stroke="#000000" d="M294.9931,-71.8314C294.9931,-64.131 294.9931,-54.9743 294.9931,-46.4166"/>
<polygon fill="#000000" stroke="#000000" points="298.4932,-46.4132 294.9931,-36.4133 291.4932,-46.4133 298.4932,-46.4132"/>
</g>
</g>
</svg>
