<?xml version="1.0" encoding="UTF-8" standalone="no"?>
<!DOCTYPE svg PUBLIC "-//W3C//DTD SVG 1.1//EN"
 "http://www.w3.org/Graphics/SVG/1.1/DTD/svg11.dtd">
<!-- Generated by graphviz version 2.40.1 (20161225.0304)
 -->
<!-- Title: %3 Pages: 1 -->
<svg width="300pt" height="260pt"
 viewBox="0.00 0.00 300.38 260.00" xmlns="http://www.w3.org/2000/svg" xmlns:xlink="http://www.w3.org/1999/xlink">
<g id="graph0" class="graph" transform="scale(1 1) rotate(0) translate(4 256)">
<title>%3</title>
<polygon fill="#ffffff" stroke="transparent" points="-4,4 -4,-256 296.3806,-256 296.3806,4 -4,4"/>
<!-- inputnode (utility) -->
<g id="node1" class="node">
<title>inputnode (utility)</title>
<ellipse fill="none" stroke="#000000" cx="193.5894" cy="-234" rx="77.1866" ry="18"/>
<text text-anchor="middle" x="193.5894" y="-230.3" font-family="Times,serif" font-size="14.00" fill="#000000">inputnode (utility)</text>
</g>
<!-- slice_timing_correction (afni) -->
<g id="node2" class="node">
<title>slice_timing_correction (afni)</title>
<ellipse fill="none" stroke="#000000" cx="119.5894" cy="-162" rx="119.6788" ry="18"/>
<text text-anchor="middle" x="119.5894" y="-158.3" font-family="Times,serif" font-size="14.00" fill="#000000">slice_timing_correction (afni)</text>
</g>
<!-- inputnode (utility)&#45;&gt;slice_timing_correction (afni) -->
<g id="edge1" class="edge">
<title>inputnode (utility)&#45;&gt;slice_timing_correction (afni)</title>
<path fill="none" stroke="#000000" d="M175.2972,-216.2022C166.225,-207.3752 155.1165,-196.5669 145.2126,-186.9307"/>
<polygon fill="#000000" stroke="#000000" points="147.5356,-184.3076 137.9276,-179.8425 142.6541,-189.3247 147.5356,-184.3076"/>
</g>
<!-- copy_xform (interfaces) -->
<g id="node3" class="node">
<title>copy_xform (interfaces)</title>
<ellipse fill="none" stroke="#000000" cx="193.5894" cy="-90" rx="98.5829" ry="18"/>
<text text-anchor="middle" x="193.5894" y="-86.3" font-family="Times,serif" font-size="14.00" fill="#000000">copy_xform (interfaces)</text>
</g>
<!-- inputnode (utility)&#45;&gt;copy_xform (interfaces) -->
<g id="edge2" class="edge">
<title>inputnode (utility)&#45;&gt;copy_xform (interfaces)</title>
<path fill="none" stroke="#000000" d="M218.6914,-216.773C230.1105,-207.3846 242.4281,-194.6838 248.5894,-180 254.7801,-165.2462 254.7801,-158.7538 248.5894,-144 243.8641,-132.7384 235.5176,-122.6433 226.7326,-114.3142"/>
<polygon fill="#000000" stroke="#000000" points="228.791,-111.4624 218.9794,-107.4644 224.1562,-116.7084 228.791,-111.4624"/>
</g>
<!-- slice_timing_correction (afni)&#45;&gt;copy_xform (interfaces) -->
<g id="edge3" class="edge">
<title>slice_timing_correction (afni)&#45;&gt;copy_xform (interfaces)</title>
<path fill="none" stroke="#000000" d="M137.8815,-144.2022C146.9538,-135.3752 158.0623,-124.5669 167.9662,-114.9307"/>
<polygon fill="#000000" stroke="#000000" points="170.5247,-117.3247 175.2512,-107.8425 165.6432,-112.3076 170.5247,-117.3247"/>
</g>
<!-- outputnode (utility) -->
<g id="node4" class="node">
<title>outputnode (utility)</title>
<ellipse fill="none" stroke="#000000" cx="193.5894" cy="-18" rx="81.7856" ry="18"/>
<text text-anchor="middle" x="193.5894" y="-14.3" font-family="Times,serif" font-size="14.00" fill="#000000">outputnode (utility)</text>
</g>
<!-- copy_xform (interfaces)&#45;&gt;outputnode (utility) -->
<g id="edge4" class="edge">
<title>copy_xform (interfaces)&#45;&gt;outputnode (utility)</title>
<path fill="none" stroke="#000000" d="M193.5894,-71.8314C193.5894,-64.131 193.5894,-54.9743 193.5894,-46.4166"/>
<polygon fill="#000000" stroke="#000000" points="197.0895,-46.4132 193.5894,-36.4133 190.0895,-46.4133 197.0895,-46.4132"/>
</g>
</g>
</svg>
