<?xml version="1.0" encoding="UTF-8" standalone="no"?>
<!DOCTYPE svg PUBLIC "-//W3C//DTD SVG 1.1//EN"
 "http://www.w3.org/Graphics/SVG/1.1/DTD/svg11.dtd">
<!-- Generated by graphviz version 2.40.1 (20161225.0304)
 -->
<!-- Title: %3 Pages: 1 -->
<svg width="463pt" height="404pt"
 viewBox="0.00 0.00 462.93 404.00" xmlns="http://www.w3.org/2000/svg" xmlns:xlink="http://www.w3.org/1999/xlink">
<g id="graph0" class="graph" transform="scale(1 1) rotate(0) translate(4 400)">
<title>%3</title>
<polygon fill="#ffffff" stroke="transparent" points="-4,4 -4,-400 458.9294,-400 458.9294,4 -4,4"/>
<!-- inputnode (utility) -->
<g id="node1" class="node">
<title>inputnode (utility)</title>
<ellipse fill="none" stroke="#000000" cx="309.4987" cy="-378" rx="77.1866" ry="18"/>
<text text-anchor="middle" x="309.4987" y="-374.3" font-family="Times,serif" font-size="14.00" fill="#000000">inputnode (utility)</text>
</g>
<!-- flt_bbr_init (interfaces) -->
<g id="node2" class="node">
<title>flt_bbr_init (interfaces)</title>
<ellipse fill="none" stroke="#000000" cx="117.4987" cy="-306" rx="95.5831" ry="18"/>
<text text-anchor="middle" x="117.4987" y="-302.3" font-family="Times,serif" font-size="14.00" fill="#000000">flt_bbr_init (interfaces)</text>
</g>
<!-- inputnode (utility)&#45;&gt;flt_bbr_init (interfaces) -->
<g id="edge1" class="edge">
<title>inputnode (utility)&#45;&gt;flt_bbr_init (interfaces)</title>
<path fill="none" stroke="#000000" d="M268.3099,-362.5542C239.6749,-351.8161 201.2556,-337.4088 170.3614,-325.8235"/>
<polygon fill="#000000" stroke="#000000" points="171.2094,-322.4036 160.6171,-322.1694 168.7515,-328.9579 171.2094,-322.4036"/>
</g>
<!-- fsl2itk_fwd (c3) -->
<g id="node3" class="node">
<title>fsl2itk_fwd (c3)</title>
<ellipse fill="none" stroke="#000000" cx="181.4987" cy="-162" rx="69.5877" ry="18"/>
<text text-anchor="middle" x="181.4987" y="-158.3" font-family="Times,serif" font-size="14.00" fill="#000000">fsl2itk_fwd (c3)</text>
</g>
<!-- inputnode (utility)&#45;&gt;fsl2itk_fwd (c3) -->
<g id="edge2" class="edge">
<title>inputnode (utility)&#45;&gt;fsl2itk_fwd (c3)</title>
<path fill="none" stroke="#000000" d="M233.0227,-374.8965C154.5271,-369.9151 40.0764,-357.044 12.4987,-324 -34.5376,-267.6405 68.9226,-210.1678 133.9318,-181.2074"/>
<polygon fill="#000000" stroke="#000000" points="135.4619,-184.3584 143.2218,-177.1449 132.6572,-177.9448 135.4619,-184.3584"/>
</g>
<!-- fsl2itk_inv (c3) -->
<g id="node4" class="node">
<title>fsl2itk_inv (c3)</title>
<ellipse fill="none" stroke="#000000" cx="374.4987" cy="-90" rx="66.8882" ry="18"/>
<text text-anchor="middle" x="374.4987" y="-86.3" font-family="Times,serif" font-size="14.00" fill="#000000">fsl2itk_inv (c3)</text>
</g>
<!-- inputnode (utility)&#45;&gt;fsl2itk_inv (c3) -->
<g id="edge3" class="edge">
<title>inputnode (utility)&#45;&gt;fsl2itk_inv (c3)</title>
<path fill="none" stroke="#000000" d="M357.8544,-363.9214C378.1538,-355.5614 400.1132,-342.8153 413.4987,-324 460.1884,-258.3709 467.2665,-217.5757 434.4987,-144 429.1001,-131.8781 419.4867,-121.3358 409.515,-112.863"/>
<polygon fill="#000000" stroke="#000000" points="411.5254,-109.9904 401.5147,-106.521 407.1769,-115.4759 411.5254,-109.9904"/>
</g>
<!-- wm_mask (utility) -->
<g id="node5" class="node">
<title>wm_mask (utility)</title>
<ellipse fill="none" stroke="#000000" cx="309.4987" cy="-306" rx="77.9862" ry="18"/>
<text text-anchor="middle" x="309.4987" y="-302.3" font-family="Times,serif" font-size="14.00" fill="#000000">wm_mask (utility)</text>
</g>
<!-- inputnode (utility)&#45;&gt;wm_mask (utility) -->
<g id="edge4" class="edge">
<title>inputnode (utility)&#45;&gt;wm_mask (utility)</title>
<path fill="none" stroke="#000000" d="M309.4987,-359.8314C309.4987,-352.131 309.4987,-342.9743 309.4987,-334.4166"/>
<polygon fill="#000000" stroke="#000000" points="312.9988,-334.4132 309.4987,-324.4133 305.9988,-334.4133 312.9988,-334.4132"/>
</g>
<!-- flt_bbr (interfaces) -->
<g id="node6" class="node">
<title>flt_bbr (interfaces)</title>
<ellipse fill="none" stroke="#000000" cx="294.4987" cy="-234" rx="78.7863" ry="18"/>
<text text-anchor="middle" x="294.4987" y="-230.3" font-family="Times,serif" font-size="14.00" fill="#000000">flt_bbr (interfaces)</text>
</g>
<!-- inputnode (utility)&#45;&gt;flt_bbr (interfaces) -->
<g id="edge5" class="edge">
<title>inputnode (utility)&#45;&gt;flt_bbr (interfaces)</title>
<path fill="none" stroke="#000000" d="M351.469,-362.7084C368.6379,-354.1334 386.7333,-341.5548 396.4987,-324 404.2767,-310.0178 404.7516,-301.7073 396.4987,-288 386.8192,-271.9233 370.5702,-260.3822 353.854,-252.2099"/>
<polygon fill="#000000" stroke="#000000" points="355.112,-248.9376 344.5579,-248.0089 352.2292,-255.3165 355.112,-248.9376"/>
</g>
<!-- flt_bbr_init (interfaces)&#45;&gt;flt_bbr (interfaces) -->
<g id="edge6" class="edge">
<title>flt_bbr_init (interfaces)&#45;&gt;flt_bbr (interfaces)</title>
<path fill="none" stroke="#000000" d="M157.6627,-289.6621C183.9397,-278.9732 218.4176,-264.9483 246.1905,-253.6508"/>
<polygon fill="#000000" stroke="#000000" points="247.7659,-256.7885 255.71,-249.7784 245.1282,-250.3045 247.7659,-256.7885"/>
</g>
<!-- outputnode (utility) -->
<g id="node7" class="node">
<title>outputnode (utility)</title>
<ellipse fill="none" stroke="#000000" cx="279.4987" cy="-18" rx="81.7856" ry="18"/>
<text text-anchor="middle" x="279.4987" y="-14.3" font-family="Times,serif" font-size="14.00" fill="#000000">outputnode (utility)</text>
</g>
<!-- fsl2itk_fwd (c3)&#45;&gt;outputnode (utility) -->
<g id="edge7" class="edge">
<title>fsl2itk_fwd (c3)&#45;&gt;outputnode (utility)</title>
<path fill="none" stroke="#000000" d="M193.7123,-144.0535C210.7311,-119.0462 241.7023,-73.5376 261.4059,-44.5853"/>
<polygon fill="#000000" stroke="#000000" points="264.3984,-46.4091 267.1312,-36.1727 258.6114,-42.4707 264.3984,-46.4091"/>
</g>
<!-- fsl2itk_inv (c3)&#45;&gt;outputnode (utility) -->
<g id="edge8" class="edge">
<title>fsl2itk_inv (c3)&#45;&gt;outputnode (utility)</title>
<path fill="none" stroke="#000000" d="M351.985,-72.937C339.6258,-63.57 324.1117,-51.8119 310.6106,-41.5796"/>
<polygon fill="#000000" stroke="#000000" points="312.5945,-38.6915 302.5107,-35.4407 308.3663,-44.2703 312.5945,-38.6915"/>
</g>
<!-- wm_mask (utility)&#45;&gt;flt_bbr (interfaces) -->
<g id="edge9" class="edge">
<title>wm_mask (utility)&#45;&gt;flt_bbr (interfaces)</title>
<path fill="none" stroke="#000000" d="M305.7136,-287.8314C304.1093,-280.131 302.2017,-270.9743 300.4188,-262.4166"/>
<polygon fill="#000000" stroke="#000000" points="303.8009,-261.4892 298.3348,-252.4133 296.948,-262.9169 303.8009,-261.4892"/>
</g>
<!-- flt_bbr (interfaces)&#45;&gt;fsl2itk_fwd (c3) -->
<g id="edge11" class="edge">
<title>flt_bbr (interfaces)&#45;&gt;fsl2itk_fwd (c3)</title>
<path fill="none" stroke="#000000" d="M267.7193,-216.937C252.4106,-207.1828 233.0324,-194.8356 216.5265,-184.3186"/>
<polygon fill="#000000" stroke="#000000" points="218.0104,-181.114 207.6961,-178.6921 214.2489,-187.0175 218.0104,-181.114"/>
</g>
<!-- flt_bbr (interfaces)&#45;&gt;outputnode (utility) -->
<g id="edge12" class="edge">
<title>flt_bbr (interfaces)&#45;&gt;outputnode (utility)</title>
<path fill="none" stroke="#000000" d="M293.2456,-215.9555C290.6316,-178.3144 284.5811,-91.1867 281.4518,-46.1246"/>
<polygon fill="#000000" stroke="#000000" points="284.9432,-45.8785 280.7588,-36.1451 277.9601,-46.3635 284.9432,-45.8785"/>
</g>
<!-- invt_bbr (fsl) -->
<g id="node8" class="node">
<title>invt_bbr (fsl)</title>
<ellipse fill="none" stroke="#000000" cx="366.4987" cy="-162" rx="59.2899" ry="18"/>
<text text-anchor="middle" x="366.4987" y="-158.3" font-family="Times,serif" font-size="14.00" fill="#000000">invt_bbr (fsl)</text>
</g>
<!-- flt_bbr (interfaces)&#45;&gt;invt_bbr (fsl) -->
<g id="edge10" class="edge">
<title>flt_bbr (interfaces)&#45;&gt;invt_bbr (fsl)</title>
<path fill="none" stroke="#000000" d="M312.2965,-216.2022C321.2562,-207.2425 332.2573,-196.2414 342.0019,-186.4968"/>
<polygon fill="#000000" stroke="#000000" points="344.5579,-188.8906 349.1541,-179.3446 339.6081,-183.9408 344.5579,-188.8906"/>
</g>
<!-- invt_bbr (fsl)&#45;&gt;fsl2itk_inv (c3) -->
<g id="edge13" class="edge">
<title>invt_bbr (fsl)&#45;&gt;fsl2itk_inv (c3)</title>
<path fill="none" stroke="#000000" d="M368.5174,-143.8314C369.373,-136.131 370.3904,-126.9743 371.3413,-118.4166"/>
<polygon fill="#000000" stroke="#000000" points="374.827,-118.7386 372.4528,-108.4133 367.8698,-117.9656 374.827,-118.7386"/>
</g>
</g>
</svg>
