<?xml version="1.0" encoding="UTF-8" standalone="no"?>
<!DOCTYPE svg PUBLIC "-//W3C//DTD SVG 1.1//EN"
 "http://www.w3.org/Graphics/SVG/1.1/DTD/svg11.dtd">
<!-- Generated by graphviz version 2.40.1 (20161225.0304)
 -->
<!-- Title: bold_preproc_trans_wf Pages: 1 -->
<svg width="696pt" height="1873pt"
 viewBox="0.00 0.00 696.34 1873.00" xmlns="http://www.w3.org/2000/svg" xmlns:xlink="http://www.w3.org/1999/xlink">
<g id="graph0" class="graph" transform="scale(1 1) rotate(0) translate(4 1869)">
<title>bold_preproc_trans_wf</title>
<polygon fill="#ffffff" stroke="transparent" points="-4,4 -4,-1869 692.3431,-1869 692.3431,4 -4,4"/>
<text text-anchor="middle" x="344.1716" y="-7.8" font-family="Times,serif" font-size="14.00" fill="#000000">bold_preproc_trans_wf</text>
<g id="clust1" class="cluster">
<title>cluster_bold_preproc_trans_wf_bold_reference_wf</title>
<polygon fill="#b4b4ff" stroke="#000000" points="8,-87 8,-1677 646,-1677 646,-87 8,-87"/>
<text text-anchor="middle" x="327" y="-1661.8" font-family="Times,serif" font-size="14.00" fill="#000000">bold_reference_wf</text>
</g>
<g id="clust2" class="cluster">
<title>cluster_bold_preproc_trans_wf_bold_reference_wf_enhance_and_skullstrip_bold_wf</title>
<polygon fill="#ffb4b4" stroke="#000000" points="308,-159 308,-1458 638,-1458 638,-159 308,-159"/>
<text text-anchor="middle" x="473" y="-1442.8" font-family="Times,serif" font-size="14.00" fill="#000000">enhance_and_skullstrip_bold_wf</text>
</g>
<!-- bold_preproc_trans_wf_inputnode -->
<g id="node1" class="node">
<title>bold_preproc_trans_wf_inputnode</title>
<ellipse fill="#ffffc8" stroke="#000000" cx="542" cy="-1847" rx="77.1866" ry="18"/>
<text text-anchor="middle" x="542" y="-1843.3" font-family="Times,serif" font-size="14.00" fill="#000000">inputnode (utility)</text>
</g>
<!-- bold_preproc_trans_wf_bold_transform -->
<g id="node2" class="node">
<title>bold_preproc_trans_wf_bold_transform</title>
<ellipse fill="#ffffc8" stroke="#000000" cx="542" cy="-1775" rx="110.4804" ry="18"/>
<text text-anchor="middle" x="542" y="-1771.3" font-family="Times,serif" font-size="14.00" fill="#000000">bold_transform (interfaces)</text>
</g>
<!-- bold_preproc_trans_wf_inputnode&#45;&gt;bold_preproc_trans_wf_bold_transform -->
<g id="edge2" class="edge">
<title>bold_preproc_trans_wf_inputnode&#45;&gt;bold_preproc_trans_wf_bold_transform</title>
<path fill="none" stroke="#000000" d="M530.1685,-1829.2022C528.6009,-1821.3864 528.1379,-1812.0171 528.7795,-1803.2836"/>
<polygon fill="#000000" stroke="#000000" points="532.2858,-1803.4621 530.11,-1793.0931 525.3447,-1802.5558 532.2858,-1803.4621"/>
</g>
<!-- bold_preproc_trans_wf_inputnode&#45;&gt;bold_preproc_trans_wf_bold_transform -->
<g id="edge3" class="edge">
<title>bold_preproc_trans_wf_inputnode&#45;&gt;bold_preproc_trans_wf_bold_transform</title>
<path fill="none" stroke="#000000" d="M542,-1828.8314C542,-1821.131 542,-1811.9743 542,-1803.4166"/>
<polygon fill="#000000" stroke="#000000" points="545.5001,-1803.4132 542,-1793.4133 538.5001,-1803.4133 545.5001,-1803.4132"/>
</g>
<!-- bold_preproc_trans_wf_inputnode&#45;&gt;bold_preproc_trans_wf_bold_transform -->
<g id="edge4" class="edge">
<title>bold_preproc_trans_wf_inputnode&#45;&gt;bold_preproc_trans_wf_bold_transform</title>
<path fill="none" stroke="#000000" d="M553.8315,-1829.2022C555.3991,-1821.3864 555.8621,-1812.0171 555.2205,-1803.2836"/>
<polygon fill="#000000" stroke="#000000" points="558.6553,-1802.5558 553.89,-1793.0931 551.7142,-1803.4621 558.6553,-1802.5558"/>
</g>
<!-- bold_preproc_trans_wf_merge -->
<g id="node3" class="node">
<title>bold_preproc_trans_wf_merge</title>
<ellipse fill="#ffffc8" stroke="#000000" cx="611" cy="-1703" rx="77.1866" ry="18"/>
<text text-anchor="middle" x="611" y="-1699.3" font-family="Times,serif" font-size="14.00" fill="#000000">merge (interfaces)</text>
</g>
<!-- bold_preproc_trans_wf_inputnode&#45;&gt;bold_preproc_trans_wf_merge -->
<g id="edge1" class="edge">
<title>bold_preproc_trans_wf_inputnode&#45;&gt;bold_preproc_trans_wf_merge</title>
<path fill="none" stroke="#000000" d="M600.1557,-1835.0266C623.1756,-1827.1325 647.3596,-1814.1688 661,-1793 674.7238,-1771.7017 657.9198,-1746.396 640.1874,-1728.0507"/>
<polygon fill="#000000" stroke="#000000" points="642.2137,-1725.1367 632.6173,-1720.6466 637.3191,-1730.1411 642.2137,-1725.1367"/>
</g>
<!-- bold_preproc_trans_wf_bold_transform&#45;&gt;bold_preproc_trans_wf_merge -->
<g id="edge5" class="edge">
<title>bold_preproc_trans_wf_bold_transform&#45;&gt;bold_preproc_trans_wf_merge</title>
<path fill="none" stroke="#000000" d="M559.0562,-1757.2022C567.4955,-1748.396 577.8246,-1737.6179 587.0427,-1727.9989"/>
<polygon fill="#000000" stroke="#000000" points="589.7479,-1730.2346 594.14,-1720.593 584.694,-1725.3913 589.7479,-1730.2346"/>
</g>
<!-- bold_preproc_trans_wf_outputnode -->
<g id="node4" class="node">
<title>bold_preproc_trans_wf_outputnode</title>
<ellipse fill="#ffffc8" stroke="#000000" cx="188" cy="-41" rx="81.7856" ry="18"/>
<text text-anchor="middle" x="188" y="-37.3" font-family="Times,serif" font-size="14.00" fill="#000000">outputnode (utility)</text>
</g>
<!-- bold_preproc_trans_wf_merge&#45;&gt;bold_preproc_trans_wf_outputnode -->
<g id="edge6" class="edge">
<title>bold_preproc_trans_wf_merge&#45;&gt;bold_preproc_trans_wf_outputnode</title>
<path fill="none" stroke="#000000" d="M641.9935,-1686.3304C645.0953,-1683.5777 647.8768,-1680.4709 650,-1677 678.2499,-1630.8188 664,-1610.1365 664,-1556 664,-1556 664,-1556 664,-185 664,-141.0022 681.7675,-117.4405 650,-87 623.8282,-61.9214 406.3377,-49.3748 279.3106,-44.1307"/>
<polygon fill="#000000" stroke="#000000" points="279.3287,-40.6286 269.1951,-43.7206 279.0451,-47.6229 279.3287,-40.6286"/>
</g>
<!-- bold_preproc_trans_wf_bold_reference_wf_inputnode -->
<g id="node5" class="node">
<title>bold_preproc_trans_wf_bold_reference_wf_inputnode</title>
<ellipse fill="#e6e6ff" stroke="#000000" cx="553" cy="-1628" rx="77.1866" ry="18"/>
<text text-anchor="middle" x="553" y="-1624.3" font-family="Times,serif" font-size="14.00" fill="#000000">inputnode (utility)</text>
</g>
<!-- bold_preproc_trans_wf_merge&#45;&gt;bold_preproc_trans_wf_bold_reference_wf_inputnode -->
<g id="edge52" class="edge">
<title>bold_preproc_trans_wf_merge&#45;&gt;bold_preproc_trans_wf_bold_reference_wf_inputnode</title>
<path fill="none" stroke="#000000" d="M597.2548,-1685.226C590.0123,-1675.8607 580.9951,-1664.2006 572.9936,-1653.8538"/>
<polygon fill="#000000" stroke="#000000" points="575.7337,-1651.6757 566.8475,-1645.9063 570.1963,-1655.958 575.7337,-1651.6757"/>
</g>
<!-- bold_preproc_trans_wf_bold_reference_wf_val_bold -->
<g id="node6" class="node">
<title>bold_preproc_trans_wf_bold_reference_wf_val_bold</title>
<ellipse fill="#e6e6ff" stroke="#000000" cx="359" cy="-1556" rx="86.3847" ry="18"/>
<text text-anchor="middle" x="359" y="-1552.3" font-family="Times,serif" font-size="14.00" fill="#000000">val_bold (interfaces)</text>
</g>
<!-- bold_preproc_trans_wf_bold_reference_wf_inputnode&#45;&gt;bold_preproc_trans_wf_bold_reference_wf_val_bold -->
<g id="edge7" class="edge">
<title>bold_preproc_trans_wf_bold_reference_wf_inputnode&#45;&gt;bold_preproc_trans_wf_bold_reference_wf_val_bold</title>
<path fill="none" stroke="#0000ff" d="M511.8576,-1612.7307C482.4248,-1601.8071 442.5837,-1587.0207 410.9556,-1575.2825"/>
<polygon fill="#0000ff" stroke="#0000ff" points="412.0172,-1571.9433 401.4242,-1571.7451 409.5816,-1578.5059 412.0172,-1571.9433"/>
</g>
<!-- bold_preproc_trans_wf_bold_reference_wf_calc_dummy_scans -->
<g id="node10" class="node">
<title>bold_preproc_trans_wf_bold_reference_wf_calc_dummy_scans</title>
<ellipse fill="#e6e6ff" stroke="#000000" cx="188" cy="-1409" rx="111.5806" ry="18"/>
<text text-anchor="middle" x="188" y="-1405.3" font-family="Times,serif" font-size="14.00" fill="#000000">calc_dummy_scans (utility)</text>
</g>
<!-- bold_preproc_trans_wf_bold_reference_wf_inputnode&#45;&gt;bold_preproc_trans_wf_bold_reference_wf_calc_dummy_scans -->
<g id="edge8" class="edge">
<title>bold_preproc_trans_wf_bold_reference_wf_inputnode&#45;&gt;bold_preproc_trans_wf_bold_reference_wf_calc_dummy_scans</title>
<path fill="none" stroke="#0000ff" d="M554.1711,-1609.7764C556.1893,-1571.6045 558.3392,-1485.1895 538,-1466 528.5387,-1457.0735 316.7027,-1460.7996 304,-1458 278.1495,-1452.3027 250.8024,-1441.0331 229.1573,-1430.7369"/>
<polygon fill="#0000ff" stroke="#0000ff" points="230.469,-1427.4828 219.946,-1426.2511 227.4041,-1433.7762 230.469,-1427.4828"/>
</g>
<!-- bold_preproc_trans_wf_bold_reference_wf_enhance_and_skullstrip_bold_wf_inputnode -->
<g id="node12" class="node">
<title>bold_preproc_trans_wf_bold_reference_wf_enhance_and_skullstrip_bold_wf_inputnode</title>
<ellipse fill="#ffe6e6" stroke="#000000" cx="447" cy="-1409" rx="77.1866" ry="18"/>
<text text-anchor="middle" x="447" y="-1405.3" font-family="Times,serif" font-size="14.00" fill="#000000">inputnode (utility)</text>
</g>
<!-- bold_preproc_trans_wf_bold_reference_wf_inputnode&#45;&gt;bold_preproc_trans_wf_bold_reference_wf_enhance_and_skullstrip_bold_wf_inputnode -->
<g id="edge47" class="edge">
<title>bold_preproc_trans_wf_bold_reference_wf_inputnode&#45;&gt;bold_preproc_trans_wf_bold_reference_wf_enhance_and_skullstrip_bold_wf_inputnode</title>
<path fill="none" stroke="#0000ff" d="M558.6038,-1609.895C567.2745,-1578.1829 580.2707,-1511.6278 553,-1466 542.4083,-1448.2786 524.2021,-1435.7456 505.837,-1427.036"/>
<polygon fill="#0000ff" stroke="#0000ff" points="507.1131,-1423.7736 496.551,-1422.9423 504.2894,-1430.1788 507.1131,-1423.7736"/>
</g>
<!-- bold_preproc_trans_wf_bold_reference_wf_validate_1st -->
<g id="node7" class="node">
<title>bold_preproc_trans_wf_bold_reference_wf_validate_1st</title>
<ellipse fill="#e6e6ff" stroke="#000000" cx="100" cy="-1484" rx="84.485" ry="18"/>
<text text-anchor="middle" x="100" y="-1480.3" font-family="Times,serif" font-size="14.00" fill="#000000">validate_1st (utility)</text>
</g>
<!-- bold_preproc_trans_wf_bold_reference_wf_val_bold&#45;&gt;bold_preproc_trans_wf_bold_reference_wf_validate_1st -->
<g id="edge11" class="edge">
<title>bold_preproc_trans_wf_bold_reference_wf_val_bold&#45;&gt;bold_preproc_trans_wf_bold_reference_wf_validate_1st</title>
<path fill="none" stroke="#0000ff" d="M306.899,-1541.5163C264.8752,-1529.834 205.6754,-1513.377 161.3607,-1501.0578"/>
<polygon fill="#0000ff" stroke="#0000ff" points="162.1475,-1497.6439 151.5754,-1498.3376 160.2726,-1504.3881 162.1475,-1497.6439"/>
</g>
<!-- bold_preproc_trans_wf_bold_reference_wf_bold_1st -->
<g id="node8" class="node">
<title>bold_preproc_trans_wf_bold_reference_wf_bold_1st</title>
<ellipse fill="#e6e6ff" stroke="#000000" cx="275" cy="-1484" rx="72.2875" ry="18"/>
<text text-anchor="middle" x="275" y="-1480.3" font-family="Times,serif" font-size="14.00" fill="#000000">bold_1st (utility)</text>
</g>
<!-- bold_preproc_trans_wf_bold_reference_wf_val_bold&#45;&gt;bold_preproc_trans_wf_bold_reference_wf_bold_1st -->
<g id="edge10" class="edge">
<title>bold_preproc_trans_wf_bold_reference_wf_val_bold&#45;&gt;bold_preproc_trans_wf_bold_reference_wf_bold_1st</title>
<path fill="none" stroke="#0000ff" d="M338.2359,-1538.2022C327.5779,-1529.0668 314.444,-1517.8092 302.9125,-1507.925"/>
<polygon fill="#0000ff" stroke="#0000ff" points="305.1057,-1505.1951 295.2353,-1501.3446 300.5502,-1510.5099 305.1057,-1505.1951"/>
</g>
<!-- bold_preproc_trans_wf_bold_reference_wf_gen_ref -->
<g id="node9" class="node">
<title>bold_preproc_trans_wf_bold_reference_wf_gen_ref</title>
<ellipse fill="#e6e6ff" stroke="#000000" cx="447" cy="-1484" rx="81.7856" ry="18"/>
<text text-anchor="middle" x="447" y="-1480.3" font-family="Times,serif" font-size="14.00" fill="#000000">gen_ref (interfaces)</text>
</g>
<!-- bold_preproc_trans_wf_bold_reference_wf_val_bold&#45;&gt;bold_preproc_trans_wf_bold_reference_wf_gen_ref -->
<g id="edge9" class="edge">
<title>bold_preproc_trans_wf_bold_reference_wf_val_bold&#45;&gt;bold_preproc_trans_wf_bold_reference_wf_gen_ref</title>
<path fill="none" stroke="#0000ff" d="M380.7528,-1538.2022C391.8357,-1529.1345 405.474,-1517.9758 417.4896,-1508.1449"/>
<polygon fill="#0000ff" stroke="#0000ff" points="419.9742,-1510.6343 425.4974,-1501.593 415.5415,-1505.2166 419.9742,-1510.6343"/>
</g>
<!-- bold_preproc_trans_wf_bold_reference_wf_outputnode -->
<g id="node11" class="node">
<title>bold_preproc_trans_wf_bold_reference_wf_outputnode</title>
<ellipse fill="#e6e6ff" stroke="#000000" cx="188" cy="-113" rx="81.7856" ry="18"/>
<text text-anchor="middle" x="188" y="-109.3" font-family="Times,serif" font-size="14.00" fill="#000000">outputnode (utility)</text>
</g>
<!-- bold_preproc_trans_wf_bold_reference_wf_validate_1st&#45;&gt;bold_preproc_trans_wf_bold_reference_wf_outputnode -->
<g id="edge12" class="edge">
<title>bold_preproc_trans_wf_bold_reference_wf_validate_1st&#45;&gt;bold_preproc_trans_wf_bold_reference_wf_outputnode</title>
<path fill="none" stroke="#0000ff" d="M47.1064,-1469.8853C37.3602,-1466.2769 29.2291,-1462.2162 26,-1458 -6.789,-1415.1873 17,-1390.9263 17,-1337 17,-1337 17,-1337 17,-257 17,-213.0629 1.3708,-192.3292 30,-159 41.4858,-145.6286 78.6097,-134.4599 113.9866,-126.4772"/>
<polygon fill="#0000ff" stroke="#0000ff" points="114.8739,-129.866 123.8956,-124.311 113.3788,-123.0275 114.8739,-129.866"/>
</g>
<!-- bold_preproc_trans_wf_bold_reference_wf_bold_1st&#45;&gt;bold_preproc_trans_wf_bold_reference_wf_outputnode -->
<g id="edge13" class="edge">
<title>bold_preproc_trans_wf_bold_reference_wf_bold_1st&#45;&gt;bold_preproc_trans_wf_bold_reference_wf_outputnode</title>
<path fill="none" stroke="#0000ff" d="M223.1697,-1471.3155C213.2073,-1469.2491 202.819,-1467.3475 193,-1466 177.4538,-1463.8666 63.4594,-1468.7199 52,-1458 12.4267,-1420.9805 37,-1391.1894 37,-1337 37,-1337 37,-1337 37,-257 37,-212.9372 23.6726,-192.7504 52,-159 61.5378,-147.6363 91.6132,-136.8943 121.0635,-128.653"/>
<polygon fill="#0000ff" stroke="#0000ff" points="122.2626,-131.9542 130.9964,-125.9567 120.4287,-125.1987 122.2626,-131.9542"/>
</g>
<!-- bold_preproc_trans_wf_bold_reference_wf_gen_ref&#45;&gt;bold_preproc_trans_wf_bold_reference_wf_calc_dummy_scans -->
<g id="edge14" class="edge">
<title>bold_preproc_trans_wf_bold_reference_wf_gen_ref&#45;&gt;bold_preproc_trans_wf_bold_reference_wf_calc_dummy_scans</title>
<path fill="none" stroke="#0000ff" d="M386.8599,-1471.7283C376.5785,-1469.7381 365.9928,-1467.7562 356,-1466 332.9699,-1461.9527 326.497,-1464.3758 304,-1458 279.3567,-1451.0159 252.9731,-1440.1612 231.6039,-1430.4416"/>
<polygon fill="#0000ff" stroke="#0000ff" points="233.0141,-1427.2376 222.4685,-1426.2174 230.0761,-1433.5913 233.0141,-1427.2376"/>
</g>
<!-- bold_preproc_trans_wf_bold_reference_wf_gen_ref&#45;&gt;bold_preproc_trans_wf_bold_reference_wf_outputnode -->
<g id="edge15" class="edge">
<title>bold_preproc_trans_wf_bold_reference_wf_gen_ref&#45;&gt;bold_preproc_trans_wf_bold_reference_wf_outputnode</title>
<path fill="none" stroke="#0000ff" d="M385.5565,-1472.0216C372.8081,-1469.6144 359.4837,-1467.3975 347,-1466 331.038,-1464.2132 69.6641,-1469.042 58,-1458 18.813,-1420.9031 48,-1390.9611 48,-1337 48,-1337 48,-1337 48,-257 48,-201.7407 101.437,-158.3278 142.3972,-134.1703"/>
<polygon fill="#0000ff" stroke="#0000ff" points="144.2274,-137.1559 151.186,-129.1666 140.764,-131.0727 144.2274,-137.1559"/>
</g>
<!-- bold_preproc_trans_wf_bold_reference_wf_gen_ref&#45;&gt;bold_preproc_trans_wf_bold_reference_wf_outputnode -->
<g id="edge16" class="edge">
<title>bold_preproc_trans_wf_bold_reference_wf_gen_ref&#45;&gt;bold_preproc_trans_wf_bold_reference_wf_outputnode</title>
<path fill="none" stroke="#0000ff" d="M393.451,-1470.218C384.0303,-1468.5314 374.2828,-1467.0391 365,-1466 349.038,-1464.2132 87.6641,-1469.042 76,-1458 36.813,-1420.9031 66,-1390.9611 66,-1337 66,-1337 66,-1337 66,-257 66,-202.8705 117.2744,-160.1079 153.4621,-135.6761"/>
<polygon fill="#0000ff" stroke="#0000ff" points="155.4148,-138.581 161.8404,-130.1571 151.5641,-132.7353 155.4148,-138.581"/>
</g>
<!-- bold_preproc_trans_wf_bold_reference_wf_gen_ref&#45;&gt;bold_preproc_trans_wf_bold_reference_wf_enhance_and_skullstrip_bold_wf_inputnode -->
<g id="edge51" class="edge">
<title>bold_preproc_trans_wf_bold_reference_wf_gen_ref&#45;&gt;bold_preproc_trans_wf_bold_reference_wf_enhance_and_skullstrip_bold_wf_inputnode</title>
<path fill="none" stroke="#0000ff" d="M447,-1465.8446C447,-1457.3401 447,-1447.0076 447,-1437.4964"/>
<polygon fill="#0000ff" stroke="#0000ff" points="450.5001,-1437.2481 447,-1427.2482 443.5001,-1437.2482 450.5001,-1437.2481"/>
</g>
<!-- bold_preproc_trans_wf_bold_reference_wf_calc_dummy_scans&#45;&gt;bold_preproc_trans_wf_bold_reference_wf_outputnode -->
<g id="edge17" class="edge">
<title>bold_preproc_trans_wf_bold_reference_wf_calc_dummy_scans&#45;&gt;bold_preproc_trans_wf_bold_reference_wf_outputnode</title>
<path fill="none" stroke="#0000ff" d="M188,-1390.8146C188,-1363.4983 188,-1310.25 188,-1265 188,-1265 188,-1265 188,-257 188,-216.876 188,-170.4631 188,-141.4177"/>
<polygon fill="#0000ff" stroke="#0000ff" points="191.5001,-141.1853 188,-131.1854 184.5001,-141.1854 191.5001,-141.1853"/>
</g>
<!-- bold_preproc_trans_wf_bold_reference_wf_outputnode&#45;&gt;bold_preproc_trans_wf_outputnode -->
<g id="edge53" class="edge">
<title>bold_preproc_trans_wf_bold_reference_wf_outputnode&#45;&gt;bold_preproc_trans_wf_outputnode</title>
<path fill="none" stroke="#000000" d="M176.0952,-94.8314C174.5713,-87.0125 174.1392,-77.6923 174.7991,-69.0221"/>
<polygon fill="#000000" stroke="#000000" points="178.2945,-69.288 176.1455,-58.9134 171.3557,-68.3638 178.2945,-69.288"/>
</g>
<!-- bold_preproc_trans_wf_bold_reference_wf_outputnode&#45;&gt;bold_preproc_trans_wf_outputnode -->
<g id="edge54" class="edge">
<title>bold_preproc_trans_wf_bold_reference_wf_outputnode&#45;&gt;bold_preproc_trans_wf_outputnode</title>
<path fill="none" stroke="#000000" d="M188,-94.8314C188,-87.131 188,-77.9743 188,-69.4166"/>
<polygon fill="#000000" stroke="#000000" points="191.5001,-69.4132 188,-59.4133 184.5001,-69.4133 191.5001,-69.4132"/>
</g>
<!-- bold_preproc_trans_wf_bold_reference_wf_outputnode&#45;&gt;bold_preproc_trans_wf_outputnode -->
<g id="edge55" class="edge">
<title>bold_preproc_trans_wf_bold_reference_wf_outputnode&#45;&gt;bold_preproc_trans_wf_outputnode</title>
<path fill="none" stroke="#000000" d="M199.9048,-94.8314C201.4287,-87.0125 201.8608,-77.6923 201.2009,-69.0221"/>
<polygon fill="#000000" stroke="#000000" points="204.6443,-68.3638 199.8545,-58.9134 197.7055,-69.288 204.6443,-68.3638"/>
</g>
<!-- bold_preproc_trans_wf_bold_reference_wf_enhance_and_skullstrip_bold_wf_init_aff -->
<g id="node13" class="node">
<title>bold_preproc_trans_wf_bold_reference_wf_enhance_and_skullstrip_bold_wf_init_aff</title>
<ellipse fill="#ffe6e6" stroke="#000000" cx="502" cy="-1337" rx="81.4863" ry="18"/>
<text text-anchor="middle" x="502" y="-1333.3" font-family="Times,serif" font-size="14.00" fill="#000000">init_aff (interfaces)</text>
</g>
<!-- bold_preproc_trans_wf_bold_reference_wf_enhance_and_skullstrip_bold_wf_inputnode&#45;&gt;bold_preproc_trans_wf_bold_reference_wf_enhance_and_skullstrip_bold_wf_init_aff -->
<g id="edge18" class="edge">
<title>bold_preproc_trans_wf_bold_reference_wf_enhance_and_skullstrip_bold_wf_inputnode&#45;&gt;bold_preproc_trans_wf_bold_reference_wf_enhance_and_skullstrip_bold_wf_init_aff</title>
<path fill="none" stroke="#ff0000" d="M460.5955,-1391.2022C467.074,-1382.7214 474.9495,-1372.4115 482.0857,-1363.0696"/>
<polygon fill="#ff0000" stroke="#ff0000" points="485.0812,-1364.9139 488.3703,-1354.8425 479.5185,-1360.6646 485.0812,-1364.9139"/>
</g>
<!-- bold_preproc_trans_wf_bold_reference_wf_enhance_and_skullstrip_bold_wf_norm -->
<g id="node14" class="node">
<title>bold_preproc_trans_wf_bold_reference_wf_enhance_and_skullstrip_bold_wf_norm</title>
<ellipse fill="#ffe6e6" stroke="#000000" cx="473" cy="-1265" rx="73.387" ry="18"/>
<text text-anchor="middle" x="473" y="-1261.3" font-family="Times,serif" font-size="14.00" fill="#000000">norm (interfaces)</text>
</g>
<!-- bold_preproc_trans_wf_bold_reference_wf_enhance_and_skullstrip_bold_wf_inputnode&#45;&gt;bold_preproc_trans_wf_bold_reference_wf_enhance_and_skullstrip_bold_wf_norm -->
<g id="edge20" class="edge">
<title>bold_preproc_trans_wf_bold_reference_wf_enhance_and_skullstrip_bold_wf_inputnode&#45;&gt;bold_preproc_trans_wf_bold_reference_wf_enhance_and_skullstrip_bold_wf_norm</title>
<path fill="none" stroke="#ff0000" d="M431.5392,-1391.1846C417.6181,-1372.8634 400.9177,-1343.6115 412,-1319 417.4071,-1306.9921 426.9502,-1296.5756 436.9056,-1288.1814"/>
<polygon fill="#ff0000" stroke="#ff0000" points="439.2085,-1290.8231 444.9068,-1281.8912 434.8822,-1285.32 439.2085,-1290.8231"/>
</g>
<!-- bold_preproc_trans_wf_bold_reference_wf_enhance_and_skullstrip_bold_wf_map_brainmask -->
<g id="node15" class="node">
<title>bold_preproc_trans_wf_bold_reference_wf_enhance_and_skullstrip_bold_wf_map_brainmask</title>
<ellipse fill="#ffe6e6" stroke="#000000" cx="472" cy="-1193" rx="112.3801" ry="18"/>
<text text-anchor="middle" x="472" y="-1189.3" font-family="Times,serif" font-size="14.00" fill="#000000">map_brainmask (interfaces)</text>
</g>
<!-- bold_preproc_trans_wf_bold_reference_wf_enhance_and_skullstrip_bold_wf_inputnode&#45;&gt;bold_preproc_trans_wf_bold_reference_wf_enhance_and_skullstrip_bold_wf_map_brainmask -->
<g id="edge19" class="edge">
<title>bold_preproc_trans_wf_bold_reference_wf_enhance_and_skullstrip_bold_wf_inputnode&#45;&gt;bold_preproc_trans_wf_bold_reference_wf_enhance_and_skullstrip_bold_wf_map_brainmask</title>
<path fill="none" stroke="#ff0000" d="M428.9506,-1391.0488C420.0846,-1381.205 410.0358,-1368.3167 404,-1355 384.0413,-1310.9655 368.1873,-1289.6259 391,-1247 398.0628,-1233.8031 409.9329,-1223.2744 422.4389,-1215.1471"/>
<polygon fill="#ff0000" stroke="#ff0000" points="424.3876,-1218.0593 431.1472,-1209.901 420.7754,-1212.0633 424.3876,-1218.0593"/>
</g>
<!-- bold_preproc_trans_wf_bold_reference_wf_enhance_and_skullstrip_bold_wf_check_hdr -->
<g id="node18" class="node">
<title>bold_preproc_trans_wf_bold_reference_wf_enhance_and_skullstrip_bold_wf_check_hdr</title>
<ellipse fill="#ffe6e6" stroke="#000000" cx="512" cy="-977" rx="92.0841" ry="18"/>
<text text-anchor="middle" x="512" y="-973.3" font-family="Times,serif" font-size="14.00" fill="#000000">check_hdr (interfaces)</text>
</g>
<!-- bold_preproc_trans_wf_bold_reference_wf_enhance_and_skullstrip_bold_wf_inputnode&#45;&gt;bold_preproc_trans_wf_bold_reference_wf_enhance_and_skullstrip_bold_wf_check_hdr -->
<g id="edge21" class="edge">
<title>bold_preproc_trans_wf_bold_reference_wf_enhance_and_skullstrip_bold_wf_inputnode&#45;&gt;bold_preproc_trans_wf_bold_reference_wf_enhance_and_skullstrip_bold_wf_check_hdr</title>
<path fill="none" stroke="#ff0000" d="M513.8393,-1399.7797C542.2038,-1392.3801 573.0324,-1379.0421 592,-1355 616.9597,-1323.3628 603,-1305.2977 603,-1265 603,-1265 603,-1265 603,-1121 603,-1080.0242 605.0987,-1065.506 583,-1031 575.1367,-1018.7219 563.4542,-1008.1711 551.8251,-999.7378"/>
<polygon fill="#ff0000" stroke="#ff0000" points="553.6491,-996.7447 543.4222,-993.9768 549.6909,-1002.5182 553.6491,-996.7447"/>
</g>
<!-- bold_preproc_trans_wf_bold_reference_wf_enhance_and_skullstrip_bold_wf_n4_correct -->
<g id="node19" class="node">
<title>bold_preproc_trans_wf_bold_reference_wf_enhance_and_skullstrip_bold_wf_n4_correct</title>
<ellipse fill="#ffe6e6" stroke="#000000" cx="524" cy="-905" rx="93.6835" ry="18"/>
<text text-anchor="middle" x="524" y="-901.3" font-family="Times,serif" font-size="14.00" fill="#000000">n4_correct (interfaces)</text>
</g>
<!-- bold_preproc_trans_wf_bold_reference_wf_enhance_and_skullstrip_bold_wf_inputnode&#45;&gt;bold_preproc_trans_wf_bold_reference_wf_enhance_and_skullstrip_bold_wf_n4_correct -->
<g id="edge22" class="edge">
<title>bold_preproc_trans_wf_bold_reference_wf_enhance_and_skullstrip_bold_wf_inputnode&#45;&gt;bold_preproc_trans_wf_bold_reference_wf_enhance_and_skullstrip_bold_wf_n4_correct</title>
<path fill="none" stroke="#ff0000" d="M502.148,-1396.1789C541.6309,-1385.903 590.1611,-1370.6585 604,-1355 631.073,-1324.3673 623,-1305.8816 623,-1265 623,-1265 623,-1265 623,-1049 623,-1008.7538 634.6519,-992.9257 613,-959 604.0624,-944.9959 590.0684,-934.0864 575.8015,-925.8548"/>
<polygon fill="#ff0000" stroke="#ff0000" points="577.3893,-922.7346 566.9258,-921.0717 574.0685,-928.8968 577.3893,-922.7346"/>
</g>
<!-- bold_preproc_trans_wf_bold_reference_wf_enhance_and_skullstrip_bold_wf_fixhdr_unifize -->
<g id="node24" class="node">
<title>bold_preproc_trans_wf_bold_reference_wf_enhance_and_skullstrip_bold_wf_fixhdr_unifize</title>
<ellipse fill="#ffe6e6" stroke="#000000" cx="437" cy="-545" rx="105.0817" ry="18"/>
<text text-anchor="middle" x="437" y="-541.3" font-family="Times,serif" font-size="14.00" fill="#000000">fixhdr_unifize (interfaces)</text>
</g>
<!-- bold_preproc_trans_wf_bold_reference_wf_enhance_and_skullstrip_bold_wf_inputnode&#45;&gt;bold_preproc_trans_wf_bold_reference_wf_enhance_and_skullstrip_bold_wf_fixhdr_unifize -->
<g id="edge23" class="edge">
<title>bold_preproc_trans_wf_bold_reference_wf_enhance_and_skullstrip_bold_wf_inputnode&#45;&gt;bold_preproc_trans_wf_bold_reference_wf_enhance_and_skullstrip_bold_wf_fixhdr_unifize</title>
<path fill="none" stroke="#ff0000" d="M395.355,-1395.4363C373.8181,-1387.1956 350.4925,-1374.4008 336,-1355 311.7312,-1322.512 321,-1305.5518 321,-1265 321,-1265 321,-1265 321,-689 321,-645.4059 332.4512,-632.7862 360,-599 369.8925,-586.8677 383.1753,-576.2488 395.9214,-567.7114"/>
<polygon fill="#ff0000" stroke="#ff0000" points="398.0818,-570.4838 404.6116,-562.1404 394.304,-564.5908 398.0818,-570.4838"/>
</g>
<!-- bold_preproc_trans_wf_bold_reference_wf_enhance_and_skullstrip_bold_wf_fixhdr_skullstrip2 -->
<g id="node26" class="node">
<title>bold_preproc_trans_wf_bold_reference_wf_enhance_and_skullstrip_bold_wf_fixhdr_skullstrip2</title>
<ellipse fill="#ffe6e6" stroke="#000000" cx="471" cy="-401" rx="118.8789" ry="18"/>
<text text-anchor="middle" x="471" y="-397.3" font-family="Times,serif" font-size="14.00" fill="#000000">fixhdr_skullstrip2 (interfaces)</text>
</g>
<!-- bold_preproc_trans_wf_bold_reference_wf_enhance_and_skullstrip_bold_wf_inputnode&#45;&gt;bold_preproc_trans_wf_bold_reference_wf_enhance_and_skullstrip_bold_wf_fixhdr_skullstrip2 -->
<g id="edge24" class="edge">
<title>bold_preproc_trans_wf_bold_reference_wf_enhance_and_skullstrip_bold_wf_inputnode&#45;&gt;bold_preproc_trans_wf_bold_reference_wf_enhance_and_skullstrip_bold_wf_fixhdr_skullstrip2</title>
<path fill="none" stroke="#ff0000" d="M422.6815,-1391.8154C391.3866,-1367.48 341,-1319.7907 341,-1265 341,-1265 341,-1265 341,-761 341,-686.5068 325.9208,-645.6481 384,-599 443.1972,-551.454 493.2277,-612.2677 551,-563 577.1249,-540.7209 572.6692,-524.7459 579,-491 581.9502,-475.2743 587.4117,-468.6104 579,-455 569.7411,-440.0188 554.928,-429.0548 539.2033,-421.0847"/>
<polygon fill="#ff0000" stroke="#ff0000" points="540.4165,-417.7885 529.8747,-416.7303 537.4557,-424.1315 540.4165,-417.7885"/>
</g>
<!-- bold_preproc_trans_wf_bold_reference_wf_enhance_and_skullstrip_bold_wf_init_aff&#45;&gt;bold_preproc_trans_wf_bold_reference_wf_enhance_and_skullstrip_bold_wf_norm -->
<g id="edge25" class="edge">
<title>bold_preproc_trans_wf_bold_reference_wf_enhance_and_skullstrip_bold_wf_init_aff&#45;&gt;bold_preproc_trans_wf_bold_reference_wf_enhance_and_skullstrip_bold_wf_norm</title>
<path fill="none" stroke="#ff0000" d="M494.6821,-1318.8314C491.4636,-1310.8406 487.6135,-1301.2819 484.0568,-1292.4514"/>
<polygon fill="#ff0000" stroke="#ff0000" points="487.1978,-1290.8816 480.2151,-1282.9134 480.7047,-1293.4969 487.1978,-1290.8816"/>
</g>
<!-- bold_preproc_trans_wf_bold_reference_wf_enhance_and_skullstrip_bold_wf_norm&#45;&gt;bold_preproc_trans_wf_bold_reference_wf_enhance_and_skullstrip_bold_wf_map_brainmask -->
<g id="edge26" class="edge">
<title>bold_preproc_trans_wf_bold_reference_wf_enhance_and_skullstrip_bold_wf_norm&#45;&gt;bold_preproc_trans_wf_bold_reference_wf_enhance_and_skullstrip_bold_wf_map_brainmask</title>
<path fill="none" stroke="#ff0000" d="M466.7953,-1246.8314C465.9379,-1239.131 465.5898,-1229.9743 465.7796,-1221.4166"/>
<polygon fill="#ff0000" stroke="#ff0000" points="469.2759,-1221.5756 466.2797,-1211.4133 462.2846,-1221.226 469.2759,-1221.5756"/>
</g>
<!-- bold_preproc_trans_wf_bold_reference_wf_enhance_and_skullstrip_bold_wf_norm&#45;&gt;bold_preproc_trans_wf_bold_reference_wf_enhance_and_skullstrip_bold_wf_map_brainmask -->
<g id="edge27" class="edge">
<title>bold_preproc_trans_wf_bold_reference_wf_enhance_and_skullstrip_bold_wf_norm&#45;&gt;bold_preproc_trans_wf_bold_reference_wf_enhance_and_skullstrip_bold_wf_map_brainmask</title>
<path fill="none" stroke="#ff0000" d="M478.7001,-1246.8314C479.3435,-1239.131 479.4373,-1229.9743 479.0098,-1221.4166"/>
<polygon fill="#ff0000" stroke="#ff0000" points="482.4967,-1221.1117 478.2317,-1211.4133 475.5178,-1221.6546 482.4967,-1221.1117"/>
</g>
<!-- bold_preproc_trans_wf_bold_reference_wf_enhance_and_skullstrip_bold_wf_binarize_mask -->
<g id="node16" class="node">
<title>bold_preproc_trans_wf_bold_reference_wf_enhance_and_skullstrip_bold_wf_binarize_mask</title>
<ellipse fill="#ffe6e6" stroke="#000000" cx="475" cy="-1121" rx="107.4815" ry="18"/>
<text text-anchor="middle" x="475" y="-1117.3" font-family="Times,serif" font-size="14.00" fill="#000000">binarize_mask (interfaces)</text>
</g>
<!-- bold_preproc_trans_wf_bold_reference_wf_enhance_and_skullstrip_bold_wf_map_brainmask&#45;&gt;bold_preproc_trans_wf_bold_reference_wf_enhance_and_skullstrip_bold_wf_binarize_mask -->
<g id="edge28" class="edge">
<title>bold_preproc_trans_wf_bold_reference_wf_enhance_and_skullstrip_bold_wf_map_brainmask&#45;&gt;bold_preproc_trans_wf_bold_reference_wf_enhance_and_skullstrip_bold_wf_binarize_mask</title>
<path fill="none" stroke="#ff0000" d="M472.757,-1174.8314C473.0779,-1167.131 473.4594,-1157.9743 473.816,-1149.4166"/>
<polygon fill="#ff0000" stroke="#ff0000" points="477.3133,-1149.5503 474.2328,-1139.4133 470.3194,-1149.2589 477.3133,-1149.5503"/>
</g>
<!-- bold_preproc_trans_wf_bold_reference_wf_enhance_and_skullstrip_bold_wf_pre_mask_dilate -->
<g id="node17" class="node">
<title>bold_preproc_trans_wf_bold_reference_wf_enhance_and_skullstrip_bold_wf_pre_mask_dilate</title>
<ellipse fill="#ffe6e6" stroke="#000000" cx="486" cy="-1049" rx="88.2844" ry="18"/>
<text text-anchor="middle" x="486" y="-1045.3" font-family="Times,serif" font-size="14.00" fill="#000000">pre_mask_dilate (fsl)</text>
</g>
<!-- bold_preproc_trans_wf_bold_reference_wf_enhance_and_skullstrip_bold_wf_binarize_mask&#45;&gt;bold_preproc_trans_wf_bold_reference_wf_enhance_and_skullstrip_bold_wf_pre_mask_dilate -->
<g id="edge29" class="edge">
<title>bold_preproc_trans_wf_bold_reference_wf_enhance_and_skullstrip_bold_wf_binarize_mask&#45;&gt;bold_preproc_trans_wf_bold_reference_wf_enhance_and_skullstrip_bold_wf_pre_mask_dilate</title>
<path fill="none" stroke="#ff0000" d="M477.7758,-1102.8314C478.9522,-1095.131 480.3511,-1085.9743 481.6586,-1077.4166"/>
<polygon fill="#ff0000" stroke="#ff0000" points="485.1364,-1077.8272 483.1869,-1067.4133 478.2167,-1076.7699 485.1364,-1077.8272"/>
</g>
<!-- bold_preproc_trans_wf_bold_reference_wf_enhance_and_skullstrip_bold_wf_pre_mask_dilate&#45;&gt;bold_preproc_trans_wf_bold_reference_wf_enhance_and_skullstrip_bold_wf_check_hdr -->
<g id="edge30" class="edge">
<title>bold_preproc_trans_wf_bold_reference_wf_enhance_and_skullstrip_bold_wf_pre_mask_dilate&#45;&gt;bold_preproc_trans_wf_bold_reference_wf_enhance_and_skullstrip_bold_wf_check_hdr</title>
<path fill="none" stroke="#ff0000" d="M492.5609,-1030.8314C495.4027,-1022.9617 498.7937,-1013.5712 501.9419,-1004.8533"/>
<polygon fill="#ff0000" stroke="#ff0000" points="505.2462,-1006.0076 505.3508,-995.4133 498.6623,-1003.63 505.2462,-1006.0076"/>
</g>
<!-- bold_preproc_trans_wf_bold_reference_wf_enhance_and_skullstrip_bold_wf_check_hdr&#45;&gt;bold_preproc_trans_wf_bold_reference_wf_enhance_and_skullstrip_bold_wf_n4_correct -->
<g id="edge31" class="edge">
<title>bold_preproc_trans_wf_bold_reference_wf_enhance_and_skullstrip_bold_wf_check_hdr&#45;&gt;bold_preproc_trans_wf_bold_reference_wf_enhance_and_skullstrip_bold_wf_n4_correct</title>
<path fill="none" stroke="#ff0000" d="M515.0281,-958.8314C516.3115,-951.131 517.8376,-941.9743 519.2639,-933.4166"/>
<polygon fill="#ff0000" stroke="#ff0000" points="522.7394,-933.8526 520.9311,-923.4133 515.8347,-932.7018 522.7394,-933.8526"/>
</g>
<!-- bold_preproc_trans_wf_bold_reference_wf_enhance_and_skullstrip_bold_wf_skullstrip_first_pass -->
<g id="node20" class="node">
<title>bold_preproc_trans_wf_bold_reference_wf_enhance_and_skullstrip_bold_wf_skullstrip_first_pass</title>
<ellipse fill="#ffe6e6" stroke="#000000" cx="497" cy="-833" rx="100.9827" ry="18"/>
<text text-anchor="middle" x="497" y="-829.3" font-family="Times,serif" font-size="14.00" fill="#000000">skullstrip_first_pass (fsl)</text>
</g>
<!-- bold_preproc_trans_wf_bold_reference_wf_enhance_and_skullstrip_bold_wf_n4_correct&#45;&gt;bold_preproc_trans_wf_bold_reference_wf_enhance_and_skullstrip_bold_wf_skullstrip_first_pass -->
<g id="edge32" class="edge">
<title>bold_preproc_trans_wf_bold_reference_wf_enhance_and_skullstrip_bold_wf_n4_correct&#45;&gt;bold_preproc_trans_wf_bold_reference_wf_enhance_and_skullstrip_bold_wf_skullstrip_first_pass</title>
<path fill="none" stroke="#ff0000" d="M517.1868,-886.8314C514.2356,-878.9617 510.7142,-869.5712 507.445,-860.8533"/>
<polygon fill="#ff0000" stroke="#ff0000" points="510.6934,-859.5476 503.905,-851.4133 504.1391,-862.0055 510.6934,-859.5476"/>
</g>
<!-- bold_preproc_trans_wf_bold_reference_wf_enhance_and_skullstrip_bold_wf_outputnode -->
<g id="node29" class="node">
<title>bold_preproc_trans_wf_bold_reference_wf_enhance_and_skullstrip_bold_wf_outputnode</title>
<ellipse fill="#ffe6e6" stroke="#000000" cx="398" cy="-185" rx="81.7856" ry="18"/>
<text text-anchor="middle" x="398" y="-181.3" font-family="Times,serif" font-size="14.00" fill="#000000">outputnode (utility)</text>
</g>
<!-- bold_preproc_trans_wf_bold_reference_wf_enhance_and_skullstrip_bold_wf_n4_correct&#45;&gt;bold_preproc_trans_wf_bold_reference_wf_enhance_and_skullstrip_bold_wf_outputnode -->
<g id="edge33" class="edge">
<title>bold_preproc_trans_wf_bold_reference_wf_enhance_and_skullstrip_bold_wf_n4_correct&#45;&gt;bold_preproc_trans_wf_bold_reference_wf_enhance_and_skullstrip_bold_wf_outputnode</title>
<path fill="none" stroke="#ff0000" d="M561.817,-888.3434C577.9638,-879.4426 595.663,-866.9857 607,-851 630.8207,-817.4116 629,-802.1777 629,-761 629,-761 629,-761 629,-329 629,-253.5529 539.1617,-216.2044 471.5363,-198.778"/>
<polygon fill="#ff0000" stroke="#ff0000" points="472.2815,-195.3569 461.7333,-196.3493 470.5981,-202.1515 472.2815,-195.3569"/>
</g>
<!-- bold_preproc_trans_wf_bold_reference_wf_enhance_and_skullstrip_bold_wf_skullstrip_first_dilate -->
<g id="node21" class="node">
<title>bold_preproc_trans_wf_bold_reference_wf_enhance_and_skullstrip_bold_wf_skullstrip_first_dilate</title>
<ellipse fill="#ffe6e6" stroke="#000000" cx="485" cy="-761" rx="105.0817" ry="18"/>
<text text-anchor="middle" x="485" y="-757.3" font-family="Times,serif" font-size="14.00" fill="#000000">skullstrip_first_dilate (fsl)</text>
</g>
<!-- bold_preproc_trans_wf_bold_reference_wf_enhance_and_skullstrip_bold_wf_skullstrip_first_pass&#45;&gt;bold_preproc_trans_wf_bold_reference_wf_enhance_and_skullstrip_bold_wf_skullstrip_first_dilate -->
<g id="edge34" class="edge">
<title>bold_preproc_trans_wf_bold_reference_wf_enhance_and_skullstrip_bold_wf_skullstrip_first_pass&#45;&gt;bold_preproc_trans_wf_bold_reference_wf_enhance_and_skullstrip_bold_wf_skullstrip_first_dilate</title>
<path fill="none" stroke="#ff0000" d="M493.9719,-814.8314C492.6885,-807.131 491.1624,-797.9743 489.7361,-789.4166"/>
<polygon fill="#ff0000" stroke="#ff0000" points="493.1653,-788.7018 488.0689,-779.4133 486.2606,-789.8526 493.1653,-788.7018"/>
</g>
<!-- bold_preproc_trans_wf_bold_reference_wf_enhance_and_skullstrip_bold_wf_skullstrip_first_mask -->
<g id="node22" class="node">
<title>bold_preproc_trans_wf_bold_reference_wf_enhance_and_skullstrip_bold_wf_skullstrip_first_mask</title>
<ellipse fill="#ffe6e6" stroke="#000000" cx="465" cy="-689" rx="104.7816" ry="18"/>
<text text-anchor="middle" x="465" y="-685.3" font-family="Times,serif" font-size="14.00" fill="#000000">skullstrip_first_mask (fsl)</text>
</g>
<!-- bold_preproc_trans_wf_bold_reference_wf_enhance_and_skullstrip_bold_wf_skullstrip_first_pass&#45;&gt;bold_preproc_trans_wf_bold_reference_wf_enhance_and_skullstrip_bold_wf_skullstrip_first_mask -->
<g id="edge35" class="edge">
<title>bold_preproc_trans_wf_bold_reference_wf_enhance_and_skullstrip_bold_wf_skullstrip_first_pass&#45;&gt;bold_preproc_trans_wf_bold_reference_wf_enhance_and_skullstrip_bold_wf_skullstrip_first_mask</title>
<path fill="none" stroke="#ff0000" d="M428.9146,-819.6533C406.636,-811.7056 384.2323,-799.0673 371,-779 362.1921,-765.6425 362.985,-756.8477 371,-743 379.276,-728.7014 392.9286,-717.8594 407.2976,-709.7848"/>
<polygon fill="#ff0000" stroke="#ff0000" points="409.036,-712.8259 416.2952,-705.1087 405.8079,-706.6146 409.036,-712.8259"/>
</g>
<!-- bold_preproc_trans_wf_bold_reference_wf_enhance_and_skullstrip_bold_wf_combine_masks -->
<g id="node27" class="node">
<title>bold_preproc_trans_wf_bold_reference_wf_enhance_and_skullstrip_bold_wf_combine_masks</title>
<ellipse fill="#ffe6e6" stroke="#000000" cx="475" cy="-329" rx="87.1846" ry="18"/>
<text text-anchor="middle" x="475" y="-325.3" font-family="Times,serif" font-size="14.00" fill="#000000">combine_masks (fsl)</text>
</g>
<!-- bold_preproc_trans_wf_bold_reference_wf_enhance_and_skullstrip_bold_wf_skullstrip_first_pass&#45;&gt;bold_preproc_trans_wf_bold_reference_wf_enhance_and_skullstrip_bold_wf_combine_masks -->
<g id="edge36" class="edge">
<title>bold_preproc_trans_wf_bold_reference_wf_enhance_and_skullstrip_bold_wf_skullstrip_first_pass&#45;&gt;bold_preproc_trans_wf_bold_reference_wf_enhance_and_skullstrip_bold_wf_combine_masks</title>
<path fill="none" stroke="#ff0000" d="M548.1845,-817.4313C567.1453,-809.0698 586.9426,-796.7276 599,-779 621.6342,-745.7217 609,-729.2462 609,-689 609,-689 609,-689 609,-473 609,-432.7538 622.885,-415.3922 599,-383 586.0077,-365.3802 566.0316,-353.432 545.882,-345.3614"/>
<polygon fill="#ff0000" stroke="#ff0000" points="546.9156,-342.0117 536.3227,-341.8116 544.4787,-348.5739 546.9156,-342.0117"/>
</g>
<!-- bold_preproc_trans_wf_bold_reference_wf_enhance_and_skullstrip_bold_wf_skullstrip_first_dilate&#45;&gt;bold_preproc_trans_wf_bold_reference_wf_enhance_and_skullstrip_bold_wf_skullstrip_first_mask -->
<g id="edge37" class="edge">
<title>bold_preproc_trans_wf_bold_reference_wf_enhance_and_skullstrip_bold_wf_skullstrip_first_dilate&#45;&gt;bold_preproc_trans_wf_bold_reference_wf_enhance_and_skullstrip_bold_wf_skullstrip_first_mask</title>
<path fill="none" stroke="#ff0000" d="M479.9532,-742.8314C477.7906,-735.0463 475.2147,-725.7729 472.8152,-717.1347"/>
<polygon fill="#ff0000" stroke="#ff0000" points="476.1636,-716.1117 470.1148,-707.4133 469.419,-717.9852 476.1636,-716.1117"/>
</g>
<!-- bold_preproc_trans_wf_bold_reference_wf_enhance_and_skullstrip_bold_wf_unifize -->
<g id="node23" class="node">
<title>bold_preproc_trans_wf_bold_reference_wf_enhance_and_skullstrip_bold_wf_unifize</title>
<ellipse fill="#ffe6e6" stroke="#000000" cx="451" cy="-617" rx="57.6901" ry="18"/>
<text text-anchor="middle" x="451" y="-613.3" font-family="Times,serif" font-size="14.00" fill="#000000">unifize (afni)</text>
</g>
<!-- bold_preproc_trans_wf_bold_reference_wf_enhance_and_skullstrip_bold_wf_skullstrip_first_mask&#45;&gt;bold_preproc_trans_wf_bold_reference_wf_enhance_and_skullstrip_bold_wf_unifize -->
<g id="edge38" class="edge">
<title>bold_preproc_trans_wf_bold_reference_wf_enhance_and_skullstrip_bold_wf_skullstrip_first_mask&#45;&gt;bold_preproc_trans_wf_bold_reference_wf_enhance_and_skullstrip_bold_wf_unifize</title>
<path fill="none" stroke="#ff0000" d="M461.4672,-670.8314C459.9699,-663.131 458.1895,-653.9743 456.5255,-645.4166"/>
<polygon fill="#ff0000" stroke="#ff0000" points="459.9248,-644.5614 454.5804,-635.4133 453.0535,-645.8975 459.9248,-644.5614"/>
</g>
<!-- bold_preproc_trans_wf_bold_reference_wf_enhance_and_skullstrip_bold_wf_unifize&#45;&gt;bold_preproc_trans_wf_bold_reference_wf_enhance_and_skullstrip_bold_wf_fixhdr_unifize -->
<g id="edge39" class="edge">
<title>bold_preproc_trans_wf_bold_reference_wf_enhance_and_skullstrip_bold_wf_unifize&#45;&gt;bold_preproc_trans_wf_bold_reference_wf_enhance_and_skullstrip_bold_wf_fixhdr_unifize</title>
<path fill="none" stroke="#ff0000" d="M447.4672,-598.8314C445.9699,-591.131 444.1895,-581.9743 442.5255,-573.4166"/>
<polygon fill="#ff0000" stroke="#ff0000" points="445.9248,-572.5614 440.5804,-563.4133 439.0535,-573.8975 445.9248,-572.5614"/>
</g>
<!-- bold_preproc_trans_wf_bold_reference_wf_enhance_and_skullstrip_bold_wf_skullstrip_second_pass -->
<g id="node25" class="node">
<title>bold_preproc_trans_wf_bold_reference_wf_enhance_and_skullstrip_bold_wf_skullstrip_second_pass</title>
<ellipse fill="#ffe6e6" stroke="#000000" cx="453" cy="-473" rx="116.9792" ry="18"/>
<text text-anchor="middle" x="453" y="-469.3" font-family="Times,serif" font-size="14.00" fill="#000000">skullstrip_second_pass (afni)</text>
</g>
<!-- bold_preproc_trans_wf_bold_reference_wf_enhance_and_skullstrip_bold_wf_fixhdr_unifize&#45;&gt;bold_preproc_trans_wf_bold_reference_wf_enhance_and_skullstrip_bold_wf_skullstrip_second_pass -->
<g id="edge40" class="edge">
<title>bold_preproc_trans_wf_bold_reference_wf_enhance_and_skullstrip_bold_wf_fixhdr_unifize&#45;&gt;bold_preproc_trans_wf_bold_reference_wf_enhance_and_skullstrip_bold_wf_skullstrip_second_pass</title>
<path fill="none" stroke="#ff0000" d="M441.0375,-526.8314C442.7487,-519.131 444.7835,-509.9743 446.6852,-501.4166"/>
<polygon fill="#ff0000" stroke="#ff0000" points="450.1554,-501.9344 448.9082,-491.4133 443.3221,-500.4159 450.1554,-501.9344"/>
</g>
<!-- bold_preproc_trans_wf_bold_reference_wf_enhance_and_skullstrip_bold_wf_apply_mask -->
<g id="node28" class="node">
<title>bold_preproc_trans_wf_bold_reference_wf_enhance_and_skullstrip_bold_wf_apply_mask</title>
<ellipse fill="#ffe6e6" stroke="#000000" cx="388" cy="-257" rx="72.2875" ry="18"/>
<text text-anchor="middle" x="388" y="-253.3" font-family="Times,serif" font-size="14.00" fill="#000000">apply_mask (fsl)</text>
</g>
<!-- bold_preproc_trans_wf_bold_reference_wf_enhance_and_skullstrip_bold_wf_fixhdr_unifize&#45;&gt;bold_preproc_trans_wf_bold_reference_wf_enhance_and_skullstrip_bold_wf_apply_mask -->
<g id="edge41" class="edge">
<title>bold_preproc_trans_wf_bold_reference_wf_enhance_and_skullstrip_bold_wf_fixhdr_unifize&#45;&gt;bold_preproc_trans_wf_bold_reference_wf_enhance_and_skullstrip_bold_wf_apply_mask</title>
<path fill="none" stroke="#ff0000" d="M378.22,-530.0004C358.4635,-521.8513 338.5318,-509.5074 327,-491 285.1635,-423.8563 337.9684,-328.7736 368.7544,-283.2626"/>
<polygon fill="#ff0000" stroke="#ff0000" points="371.7682,-285.0583 374.5835,-274.8443 366.0132,-281.0733 371.7682,-285.0583"/>
</g>
<!-- bold_preproc_trans_wf_bold_reference_wf_enhance_and_skullstrip_bold_wf_skullstrip_second_pass&#45;&gt;bold_preproc_trans_wf_bold_reference_wf_enhance_and_skullstrip_bold_wf_fixhdr_skullstrip2 -->
<g id="edge42" class="edge">
<title>bold_preproc_trans_wf_bold_reference_wf_enhance_and_skullstrip_bold_wf_skullstrip_second_pass&#45;&gt;bold_preproc_trans_wf_bold_reference_wf_enhance_and_skullstrip_bold_wf_fixhdr_skullstrip2</title>
<path fill="none" stroke="#ff0000" d="M457.5422,-454.8314C459.4884,-447.0463 461.8068,-437.7729 463.9663,-429.1347"/>
<polygon fill="#ff0000" stroke="#ff0000" points="467.3668,-429.9636 466.3967,-419.4133 460.5758,-428.2658 467.3668,-429.9636"/>
</g>
<!-- bold_preproc_trans_wf_bold_reference_wf_enhance_and_skullstrip_bold_wf_fixhdr_skullstrip2&#45;&gt;bold_preproc_trans_wf_bold_reference_wf_enhance_and_skullstrip_bold_wf_combine_masks -->
<g id="edge43" class="edge">
<title>bold_preproc_trans_wf_bold_reference_wf_enhance_and_skullstrip_bold_wf_fixhdr_skullstrip2&#45;&gt;bold_preproc_trans_wf_bold_reference_wf_enhance_and_skullstrip_bold_wf_combine_masks</title>
<path fill="none" stroke="#ff0000" d="M472.0094,-382.8314C472.4372,-375.131 472.9459,-365.9743 473.4213,-357.4166"/>
<polygon fill="#ff0000" stroke="#ff0000" points="476.9169,-357.592 473.977,-347.4133 469.9276,-357.2037 476.9169,-357.592"/>
</g>
<!-- bold_preproc_trans_wf_bold_reference_wf_enhance_and_skullstrip_bold_wf_combine_masks&#45;&gt;bold_preproc_trans_wf_bold_reference_wf_enhance_and_skullstrip_bold_wf_apply_mask -->
<g id="edge44" class="edge">
<title>bold_preproc_trans_wf_bold_reference_wf_enhance_and_skullstrip_bold_wf_combine_masks&#45;&gt;bold_preproc_trans_wf_bold_reference_wf_enhance_and_skullstrip_bold_wf_apply_mask</title>
<path fill="none" stroke="#ff0000" d="M453.4944,-311.2022C442.4557,-302.0668 428.8527,-290.8092 416.9094,-280.925"/>
<polygon fill="#ff0000" stroke="#ff0000" points="418.8935,-278.0239 408.958,-274.3446 414.4305,-283.4167 418.8935,-278.0239"/>
</g>
<!-- bold_preproc_trans_wf_bold_reference_wf_enhance_and_skullstrip_bold_wf_combine_masks&#45;&gt;bold_preproc_trans_wf_bold_reference_wf_enhance_and_skullstrip_bold_wf_outputnode -->
<g id="edge45" class="edge">
<title>bold_preproc_trans_wf_bold_reference_wf_enhance_and_skullstrip_bold_wf_combine_masks&#45;&gt;bold_preproc_trans_wf_bold_reference_wf_enhance_and_skullstrip_bold_wf_outputnode</title>
<path fill="none" stroke="#ff0000" d="M477.9877,-310.8968C480.2189,-291.8192 481.0932,-261.4788 469,-239 462.1513,-226.2697 450.8575,-215.6436 439.2708,-207.2797"/>
<polygon fill="#ff0000" stroke="#ff0000" points="441.0884,-204.2839 430.8414,-201.5916 437.1729,-210.0864 441.0884,-204.2839"/>
</g>
<!-- bold_preproc_trans_wf_bold_reference_wf_enhance_and_skullstrip_bold_wf_apply_mask&#45;&gt;bold_preproc_trans_wf_bold_reference_wf_enhance_and_skullstrip_bold_wf_outputnode -->
<g id="edge46" class="edge">
<title>bold_preproc_trans_wf_bold_reference_wf_enhance_and_skullstrip_bold_wf_apply_mask&#45;&gt;bold_preproc_trans_wf_bold_reference_wf_enhance_and_skullstrip_bold_wf_outputnode</title>
<path fill="none" stroke="#ff0000" d="M390.5234,-238.8314C391.5929,-231.131 392.8647,-221.9743 394.0532,-213.4166"/>
<polygon fill="#ff0000" stroke="#ff0000" points="397.5336,-213.7997 395.4426,-203.4133 390.6001,-212.8367 397.5336,-213.7997"/>
</g>
<!-- bold_preproc_trans_wf_bold_reference_wf_enhance_and_skullstrip_bold_wf_outputnode&#45;&gt;bold_preproc_trans_wf_bold_reference_wf_outputnode -->
<g id="edge48" class="edge">
<title>bold_preproc_trans_wf_bold_reference_wf_enhance_and_skullstrip_bold_wf_outputnode&#45;&gt;bold_preproc_trans_wf_bold_reference_wf_outputnode</title>
<path fill="none" stroke="#0000ff" d="M346.3219,-171.0323C311.7015,-160.1639 266.8833,-144.9425 233.589,-132.8154"/>
<polygon fill="#0000ff" stroke="#0000ff" points="234.6806,-129.4877 224.0871,-129.3217 232.2649,-136.0577 234.6806,-129.4877"/>
</g>
<!-- bold_preproc_trans_wf_bold_reference_wf_enhance_and_skullstrip_bold_wf_outputnode&#45;&gt;bold_preproc_trans_wf_bold_reference_wf_outputnode -->
<g id="edge49" class="edge">
<title>bold_preproc_trans_wf_bold_reference_wf_enhance_and_skullstrip_bold_wf_outputnode&#45;&gt;bold_preproc_trans_wf_bold_reference_wf_outputnode</title>
<path fill="none" stroke="#0000ff" d="M353.721,-169.8186C321.0528,-158.6181 276.4368,-143.3212 241.7274,-131.4208"/>
<polygon fill="#0000ff" stroke="#0000ff" points="242.813,-128.0931 232.2184,-128.1606 240.5427,-134.7147 242.813,-128.0931"/>
</g>
<!-- bold_preproc_trans_wf_bold_reference_wf_enhance_and_skullstrip_bold_wf_outputnode&#45;&gt;bold_preproc_trans_wf_bold_reference_wf_outputnode -->
<g id="edge50" class="edge">
<title>bold_preproc_trans_wf_bold_reference_wf_enhance_and_skullstrip_bold_wf_outputnode&#45;&gt;bold_preproc_trans_wf_bold_reference_wf_outputnode</title>
<path fill="none" stroke="#0000ff" d="M361.8694,-168.6621C330.7984,-157.1218 285.8463,-141.693 249.2695,-130.0063"/>
<polygon fill="#0000ff" stroke="#0000ff" points="250.2704,-126.652 239.6803,-126.9684 248.1562,-133.3251 250.2704,-126.652"/>
</g>
</g>
</svg>
