<?xml version="1.0" encoding="UTF-8" standalone="no"?>
<!DOCTYPE svg PUBLIC "-//W3C//DTD SVG 1.1//EN"
 "http://www.w3.org/Graphics/SVG/1.1/DTD/svg11.dtd">
<!-- Generated by graphviz version 2.40.1 (20161225.0304)
 -->
<!-- Title: bold_surf_wf Pages: 1 -->
<svg width="510pt" height="427pt"
 viewBox="0.00 0.00 510.12 427.00" xmlns="http://www.w3.org/2000/svg" xmlns:xlink="http://www.w3.org/1999/xlink">
<g id="graph0" class="graph" transform="scale(1 1) rotate(0) translate(4 423)">
<title>bold_surf_wf</title>
<polygon fill="#ffffff" stroke="transparent" points="-4,4 -4,-423 506.1236,-423 506.1236,4 -4,4"/>
<text text-anchor="middle" x="251.0618" y="-7.8" font-family="Times,serif" font-size="14.00" fill="#000000">bold_surf_wf</text>
<!-- bold_surf_wf_itersource -->
<g id="node1" class="node">
<title>bold_surf_wf_itersource</title>
<polygon fill="#d9d9d9" stroke="#000000" points="137.6279,-347 23.6279,-347 19.6279,-343 19.6279,-311 133.6279,-311 137.6279,-315 137.6279,-347"/>
<polyline fill="none" stroke="#000000" points="133.6279,-343 19.6279,-343 "/>
<polyline fill="none" stroke="#000000" points="133.6279,-343 133.6279,-311 "/>
<polyline fill="none" stroke="#000000" points="133.6279,-343 137.6279,-347 "/>
<text text-anchor="middle" x="78.6279" y="-325.3" font-family="Times,serif" font-size="14.00" fill="#000000">itersource (utility)</text>
</g>
<!-- bold_surf_wf_rename_src -->
<g id="node3" class="node">
<title>bold_surf_wf_rename_src</title>
<ellipse fill="#ffffc8" stroke="#000000" cx="244.6279" cy="-257" rx="82.5854" ry="18"/>
<text text-anchor="middle" x="244.6279" y="-253.3" font-family="Times,serif" font-size="14.00" fill="#000000">rename_src (utility)</text>
</g>
<!-- bold_surf_wf_itersource&#45;&gt;bold_surf_wf_rename_src -->
<g id="edge2" class="edge">
<title>bold_surf_wf_itersource&#45;&gt;bold_surf_wf_rename_src</title>
<path fill="none" stroke="#000000" d="M120.5167,-310.8314C144.0887,-300.6073 173.5793,-287.8162 197.8984,-277.2682"/>
<polygon fill="#000000" stroke="#000000" points="199.5022,-280.3877 207.2837,-273.1975 196.7168,-273.9657 199.5022,-280.3877"/>
</g>
<!-- bold_surf_wf_targets -->
<g id="node4" class="node">
<title>bold_surf_wf_targets</title>
<ellipse fill="#ffffc8" stroke="#000000" cx="78.6279" cy="-257" rx="64.9885" ry="18"/>
<text text-anchor="middle" x="78.6279" y="-253.3" font-family="Times,serif" font-size="14.00" fill="#000000">targets (utility)</text>
</g>
<!-- bold_surf_wf_itersource&#45;&gt;bold_surf_wf_targets -->
<g id="edge1" class="edge">
<title>bold_surf_wf_itersource&#45;&gt;bold_surf_wf_targets</title>
<path fill="none" stroke="#000000" d="M78.6279,-310.8314C78.6279,-303.131 78.6279,-293.9743 78.6279,-285.4166"/>
<polygon fill="#000000" stroke="#000000" points="82.128,-285.4132 78.6279,-275.4133 75.128,-285.4133 82.128,-285.4132"/>
</g>
<!-- bold_surf_wf_outputnode -->
<g id="node9" class="node">
<title>bold_surf_wf_outputnode</title>
<ellipse fill="#ffffc8" stroke="#000000" cx="114.6279" cy="-41" rx="81.7856" ry="18"/>
<text text-anchor="middle" x="114.6279" y="-37.3" font-family="Times,serif" font-size="14.00" fill="#000000">outputnode (utility)</text>
</g>
<!-- bold_surf_wf_itersource&#45;&gt;bold_surf_wf_outputnode -->
<g id="edge3" class="edge">
<title>bold_surf_wf_itersource&#45;&gt;bold_surf_wf_outputnode</title>
<path fill="none" stroke="#000000" d="M40.4396,-310.8328C26.5304,-302.0933 12.3378,-290.1707 4.6279,-275 -2.6211,-260.7363 .6144,-254.4885 4.6279,-239 22.0698,-171.6895 67.897,-102.8998 94.5756,-66.7878"/>
<polygon fill="#000000" stroke="#000000" points="97.4026,-68.8517 100.5983,-58.7503 91.8008,-64.6541 97.4026,-68.8517"/>
</g>
<!-- bold_surf_wf_inputnode -->
<g id="node2" class="node">
<title>bold_surf_wf_inputnode</title>
<ellipse fill="#ffffc8" stroke="#000000" cx="397.6279" cy="-401" rx="77.1866" ry="18"/>
<text text-anchor="middle" x="397.6279" y="-397.3" font-family="Times,serif" font-size="14.00" fill="#000000">inputnode (utility)</text>
</g>
<!-- bold_surf_wf_inputnode&#45;&gt;bold_surf_wf_rename_src -->
<g id="edge7" class="edge">
<title>bold_surf_wf_inputnode&#45;&gt;bold_surf_wf_rename_src</title>
<path fill="none" stroke="#000000" d="M336.6394,-389.81C310.5842,-382.0128 282.0019,-368.9082 263.6279,-347 249.2547,-329.8623 244.9218,-304.5368 243.9451,-285.1129"/>
<polygon fill="#000000" stroke="#000000" points="247.4419,-284.9325 243.7054,-275.0184 240.4439,-285.0987 247.4419,-284.9325"/>
</g>
<!-- bold_surf_wf_inputnode&#45;&gt;bold_surf_wf_targets -->
<g id="edge6" class="edge">
<title>bold_surf_wf_inputnode&#45;&gt;bold_surf_wf_targets</title>
<path fill="none" stroke="#000000" d="M350.0359,-386.6922C318.9584,-376.798 277.7764,-362.6362 242.6279,-347 196.9241,-326.6682 146.8517,-298.224 114.2107,-278.7883"/>
<polygon fill="#000000" stroke="#000000" points="115.8616,-275.6973 105.4846,-273.5596 112.2635,-281.7018 115.8616,-275.6973"/>
</g>
<!-- bold_surf_wf_get_fsnative -->
<g id="node5" class="node">
<title>bold_surf_wf_get_fsnative</title>
<ellipse fill="#ffffc8" stroke="#000000" cx="343.6279" cy="-329" rx="70.6878" ry="18"/>
<text text-anchor="middle" x="343.6279" y="-325.3" font-family="Times,serif" font-size="14.00" fill="#000000">get_fsnative (io)</text>
</g>
<!-- bold_surf_wf_inputnode&#45;&gt;bold_surf_wf_get_fsnative -->
<g id="edge4" class="edge">
<title>bold_surf_wf_inputnode&#45;&gt;bold_surf_wf_get_fsnative</title>
<path fill="none" stroke="#000000" d="M378.3638,-383.2022C371.2799,-374.871 363.4998,-364.7748 357.012,-355.565"/>
<polygon fill="#000000" stroke="#000000" points="359.7693,-353.3954 351.2527,-347.0931 353.9803,-357.3308 359.7693,-353.3954"/>
</g>
<!-- bold_surf_wf_inputnode&#45;&gt;bold_surf_wf_get_fsnative -->
<g id="edge5" class="edge">
<title>bold_surf_wf_inputnode&#45;&gt;bold_surf_wf_get_fsnative</title>
<path fill="none" stroke="#000000" d="M389.9538,-382.8314C384.3189,-374.1962 376.6448,-363.7299 369.105,-354.3304"/>
<polygon fill="#000000" stroke="#000000" points="371.6355,-351.8981 362.5682,-346.4177 366.2388,-356.3564 371.6355,-351.8981"/>
</g>
<!-- bold_surf_wf_itk2lta -->
<g id="node6" class="node">
<title>bold_surf_wf_itk2lta</title>
<ellipse fill="#ffffc8" stroke="#000000" cx="409.6279" cy="-257" rx="64.189" ry="18"/>
<text text-anchor="middle" x="409.6279" y="-253.3" font-family="Times,serif" font-size="14.00" fill="#000000">itk2lta (utility)</text>
</g>
<!-- bold_surf_wf_inputnode&#45;&gt;bold_surf_wf_itk2lta -->
<g id="edge8" class="edge">
<title>bold_surf_wf_inputnode&#45;&gt;bold_surf_wf_itk2lta</title>
<path fill="none" stroke="#000000" d="M400.9703,-382.7678C405.5675,-372.6415 411.7573,-359.5789 414.6279,-347 419.3334,-326.3803 415.3005,-302.7397 411.6592,-284.8633"/>
<polygon fill="#000000" stroke="#000000" points="415.0862,-284.1519 409.6295,-275.0704 408.2319,-285.5726 415.0862,-284.1519"/>
</g>
<!-- bold_surf_wf_inputnode&#45;&gt;bold_surf_wf_itk2lta -->
<g id="edge9" class="edge">
<title>bold_surf_wf_inputnode&#45;&gt;bold_surf_wf_itk2lta</title>
<path fill="none" stroke="#000000" d="M416.6029,-383.2555C423.367,-373.063 429.711,-359.7818 432.6279,-347 437.407,-326.0575 433.1721,-301.9988 426.799,-284.028"/>
<polygon fill="#000000" stroke="#000000" points="430.0438,-282.7156 423.0821,-274.729 423.5438,-285.3138 430.0438,-282.7156"/>
</g>
<!-- bold_surf_wf_sampler -->
<g id="node7" class="node">
<title>bold_surf_wf_sampler</title>
<ellipse fill="#ffffc8" stroke="#000000" cx="326.6279" cy="-185" rx="83.3857" ry="18"/>
<text text-anchor="middle" x="326.6279" y="-181.3" font-family="Times,serif" font-size="14.00" fill="#000000">sampler (freesurfer)</text>
</g>
<!-- bold_surf_wf_inputnode&#45;&gt;bold_surf_wf_sampler -->
<g id="edge10" class="edge">
<title>bold_surf_wf_inputnode&#45;&gt;bold_surf_wf_sampler</title>
<path fill="none" stroke="#000000" d="M414.0758,-383.323C445.8557,-352.5513 508.3549,-287.7696 473.6279,-239 463.1811,-224.3289 425.3908,-211.0476 390.6888,-201.3276"/>
<polygon fill="#000000" stroke="#000000" points="391.5771,-197.9421 381.0082,-198.6824 389.7319,-204.6946 391.5771,-197.9421"/>
</g>
<!-- bold_surf_wf_inputnode&#45;&gt;bold_surf_wf_sampler -->
<g id="edge11" class="edge">
<title>bold_surf_wf_inputnode&#45;&gt;bold_surf_wf_sampler</title>
<path fill="none" stroke="#000000" d="M423.9642,-384.0511C462.8549,-353.5834 526.6312,-288.1576 491.6279,-239 480.4788,-223.3426 438.1863,-209.2681 399.1521,-199.4163"/>
<polygon fill="#000000" stroke="#000000" points="399.8652,-195.9875 389.3193,-197.0042 398.1974,-202.7859 399.8652,-195.9875"/>
</g>
<!-- bold_surf_wf_rename_src&#45;&gt;bold_surf_wf_sampler -->
<g id="edge12" class="edge">
<title>bold_surf_wf_rename_src&#45;&gt;bold_surf_wf_sampler</title>
<path fill="none" stroke="#000000" d="M264.8975,-239.2022C275.1254,-230.2217 287.689,-219.1902 298.8061,-209.4289"/>
<polygon fill="#000000" stroke="#000000" points="301.3862,-211.8211 306.5914,-202.593 296.7676,-206.561 301.3862,-211.8211"/>
</g>
<!-- bold_surf_wf_targets&#45;&gt;bold_surf_wf_sampler -->
<g id="edge13" class="edge">
<title>bold_surf_wf_targets&#45;&gt;bold_surf_wf_sampler</title>
<path fill="none" stroke="#000000" d="M123.5388,-243.9613C163.6374,-232.3198 222.6738,-215.1802 266.7731,-202.3772"/>
<polygon fill="#000000" stroke="#000000" points="267.8802,-205.7004 276.5078,-199.551 265.9285,-198.9779 267.8802,-205.7004"/>
</g>
<!-- bold_surf_wf_get_fsnative&#45;&gt;bold_surf_wf_itk2lta -->
<g id="edge14" class="edge">
<title>bold_surf_wf_get_fsnative&#45;&gt;bold_surf_wf_itk2lta</title>
<path fill="none" stroke="#000000" d="M359.9425,-311.2022C368.0148,-302.396 377.8948,-291.6179 386.7122,-281.9989"/>
<polygon fill="#000000" stroke="#000000" points="389.3237,-284.3296 393.5009,-274.593 384.1636,-279.5995 389.3237,-284.3296"/>
</g>
<!-- bold_surf_wf_itk2lta&#45;&gt;bold_surf_wf_sampler -->
<g id="edge15" class="edge">
<title>bold_surf_wf_itk2lta&#45;&gt;bold_surf_wf_sampler</title>
<path fill="none" stroke="#000000" d="M389.5359,-239.5708C379.011,-230.4408 365.9563,-219.1163 354.472,-209.1539"/>
<polygon fill="#000000" stroke="#000000" points="356.6699,-206.4272 346.8225,-202.5182 352.0829,-211.7149 356.6699,-206.4272"/>
</g>
<!-- bold_surf_wf_update_metadata -->
<g id="node8" class="node">
<title>bold_surf_wf_update_metadata</title>
<ellipse fill="#ffffc8" stroke="#000000" cx="228.6279" cy="-113" rx="116.1796" ry="18"/>
<text text-anchor="middle" x="228.6279" y="-109.3" font-family="Times,serif" font-size="14.00" fill="#000000">update_metadata (interfaces)</text>
</g>
<!-- bold_surf_wf_sampler&#45;&gt;bold_surf_wf_update_metadata -->
<g id="edge16" class="edge">
<title>bold_surf_wf_sampler&#45;&gt;bold_surf_wf_update_metadata</title>
<path fill="none" stroke="#000000" d="M302.9048,-167.5708C290.3327,-158.3341 274.7034,-146.8514 261.0296,-136.8054"/>
<polygon fill="#000000" stroke="#000000" points="262.9444,-133.8691 252.8133,-130.7689 258.7998,-139.5103 262.9444,-133.8691"/>
</g>
<!-- bold_surf_wf_update_metadata&#45;&gt;bold_surf_wf_outputnode -->
<g id="edge17" class="edge">
<title>bold_surf_wf_update_metadata&#45;&gt;bold_surf_wf_outputnode</title>
<path fill="none" stroke="#000000" d="M200.7403,-95.3868C185.6124,-85.8323 166.7446,-73.9158 150.5292,-63.6745"/>
<polygon fill="#000000" stroke="#000000" points="152.158,-60.5636 141.8341,-58.1829 148.42,-66.4821 152.158,-60.5636"/>
</g>
</g>
</svg>
