<?xml version="1.0" encoding="UTF-8" standalone="no"?>
<!DOCTYPE svg PUBLIC "-//W3C//DTD SVG 1.1//EN"
 "http://www.w3.org/Graphics/SVG/1.1/DTD/svg11.dtd">
<!-- Generated by graphviz version 2.40.1 (20161225.0304)
 -->
<!-- Title: %3 Pages: 1 -->
<svg width="982pt" height="1124pt"
 viewBox="0.00 0.00 981.75 1124.00" xmlns="http://www.w3.org/2000/svg" xmlns:xlink="http://www.w3.org/1999/xlink">
<g id="graph0" class="graph" transform="scale(1 1) rotate(0) translate(4 1120)">
<title>%3</title>
<polygon fill="#ffffff" stroke="transparent" points="-4,4 -4,-1120 977.7479,-1120 977.7479,4 -4,4"/>
<!-- inputnode (utility) -->
<g id="node1" class="node">
<title>inputnode (utility)</title>
<ellipse fill="none" stroke="#000000" cx="878.7479" cy="-1098" rx="77.1866" ry="18"/>
<text text-anchor="middle" x="878.7479" y="-1094.3" font-family="Times,serif" font-size="14.00" fill="#000000">inputnode (utility)</text>
</g>
<!-- truncate_images (interfaces) -->
<g id="node2" class="node">
<title>truncate_images (interfaces)</title>
<ellipse fill="none" stroke="#000000" cx="573.7479" cy="-1026" rx="113.9803" ry="18"/>
<text text-anchor="middle" x="573.7479" y="-1022.3" font-family="Times,serif" font-size="14.00" fill="#000000">truncate_images (interfaces)</text>
</g>
<!-- inputnode (utility)&#45;&gt;truncate_images (interfaces) -->
<g id="edge1" class="edge">
<title>inputnode (utility)&#45;&gt;truncate_images (interfaces)</title>
<path fill="none" stroke="#000000" d="M824.22,-1085.1278C774.8605,-1073.4758 701.7543,-1056.2179 647.2483,-1043.3509"/>
<polygon fill="#000000" stroke="#000000" points="647.8339,-1039.893 637.2972,-1041.0018 646.2256,-1046.7058 647.8339,-1039.893"/>
</g>
<!-- copy_xform (interfaces) -->
<g id="node3" class="node">
<title>copy_xform (interfaces)</title>
<ellipse fill="none" stroke="#000000" cx="847.7479" cy="-90" rx="98.5829" ry="18"/>
<text text-anchor="middle" x="847.7479" y="-86.3" font-family="Times,serif" font-size="14.00" fill="#000000">copy_xform (interfaces)</text>
</g>
<!-- inputnode (utility)&#45;&gt;copy_xform (interfaces) -->
<g id="edge2" class="edge">
<title>inputnode (utility)&#45;&gt;copy_xform (interfaces)</title>
<path fill="none" stroke="#000000" d="M900.3049,-1080.4692C928.3338,-1055.5565 973.7479,-1007.012 973.7479,-954 973.7479,-954 973.7479,-954 973.7479,-234 973.7479,-180.6423 924.1451,-137.5525 887.1844,-112.8513"/>
<polygon fill="#000000" stroke="#000000" points="888.8663,-109.7705 878.571,-107.2692 885.0593,-115.6448 888.8663,-109.7705"/>
</g>
<!-- inu_n4_final (ants) -->
<g id="node4" class="node">
<title>inu_n4_final (ants)</title>
<ellipse fill="none" stroke="#000000" cx="785.7479" cy="-234" rx="79.8859" ry="18"/>
<text text-anchor="middle" x="785.7479" y="-230.3" font-family="Times,serif" font-size="14.00" fill="#000000">inu_n4_final (ants)</text>
</g>
<!-- inputnode (utility)&#45;&gt;inu_n4_final (ants) -->
<g id="edge3" class="edge">
<title>inputnode (utility)&#45;&gt;inu_n4_final (ants)</title>
<path fill="none" stroke="#000000" d="M891.116,-1079.8166C907.8802,-1053.3548 935.7479,-1002.1283 935.7479,-954 935.7479,-954 935.7479,-954 935.7479,-378 935.7479,-319.8637 876.3863,-277.8853 832.3497,-254.7425"/>
<polygon fill="#000000" stroke="#000000" points="833.7119,-251.5086 823.2123,-250.091 830.5362,-257.7468 833.7119,-251.5086"/>
</g>
<!-- init_aff (interfaces) -->
<g id="node5" class="node">
<title>init_aff (interfaces)</title>
<ellipse fill="none" stroke="#000000" cx="214.7479" cy="-810" rx="81.4863" ry="18"/>
<text text-anchor="middle" x="214.7479" y="-806.3" font-family="Times,serif" font-size="14.00" fill="#000000">init_aff (interfaces)</text>
</g>
<!-- inputnode (utility)&#45;&gt;init_aff (interfaces) -->
<g id="edge4" class="edge">
<title>inputnode (utility)&#45;&gt;init_aff (interfaces)</title>
<path fill="none" stroke="#000000" d="M804.2998,-1092.9313C613.152,-1078.1505 113.6361,-1027.7702 21.7479,-900 -11.4624,-853.8212 64.9532,-830.6414 131.2228,-819.4956"/>
<polygon fill="#000000" stroke="#000000" points="132.0134,-822.9136 141.3322,-817.8727 130.9038,-816.0021 132.0134,-822.9136"/>
</g>
<!-- norm (interfaces) -->
<g id="node6" class="node">
<title>norm (interfaces)</title>
<ellipse fill="none" stroke="#000000" cx="744.7479" cy="-738" rx="73.387" ry="18"/>
<text text-anchor="middle" x="744.7479" y="-734.3" font-family="Times,serif" font-size="14.00" fill="#000000">norm (interfaces)</text>
</g>
<!-- inputnode (utility)&#45;&gt;norm (interfaces) -->
<g id="edge5" class="edge">
<title>inputnode (utility)&#45;&gt;norm (interfaces)</title>
<path fill="none" stroke="#000000" d="M874.8111,-1079.9156C869.2459,-1052.7281 859.7479,-999.6422 859.7479,-954 859.7479,-954 859.7479,-954 859.7479,-882 859.7479,-839.9747 856.5446,-825.1761 830.7479,-792 820.1729,-778.3999 805.1405,-767.3144 790.5944,-758.8054"/>
<polygon fill="#000000" stroke="#000000" points="792.0869,-755.631 781.6444,-753.8409 788.6914,-761.7523 792.0869,-755.631"/>
</g>
<!-- map_brainmask (interfaces) -->
<g id="node7" class="node">
<title>map_brainmask (interfaces)</title>
<ellipse fill="none" stroke="#000000" cx="770.7479" cy="-666" rx="112.3801" ry="18"/>
<text text-anchor="middle" x="770.7479" y="-662.3" font-family="Times,serif" font-size="14.00" fill="#000000">map_brainmask (interfaces)</text>
</g>
<!-- inputnode (utility)&#45;&gt;map_brainmask (interfaces) -->
<g id="edge6" class="edge">
<title>inputnode (utility)&#45;&gt;map_brainmask (interfaces)</title>
<path fill="none" stroke="#000000" d="M882.6847,-1079.9156C888.2499,-1052.7281 897.7479,-999.6422 897.7479,-954 897.7479,-954 897.7479,-954 897.7479,-810 897.7479,-756.6126 848.0391,-713.6636 810.8198,-688.9881"/>
<polygon fill="#000000" stroke="#000000" points="812.4458,-685.8726 802.1412,-683.4099 808.6609,-691.7612 812.4458,-685.8726"/>
</g>
<!-- inu_n4 (ants) -->
<g id="node8" class="node">
<title>inu_n4 (ants)</title>
<ellipse fill="none" stroke="#000000" cx="429.7479" cy="-954" rx="59.2899" ry="18"/>
<text text-anchor="middle" x="429.7479" y="-950.3" font-family="Times,serif" font-size="14.00" fill="#000000">inu_n4 (ants)</text>
</g>
<!-- truncate_images (interfaces)&#45;&gt;inu_n4 (ants) -->
<g id="edge7" class="edge">
<title>truncate_images (interfaces)&#45;&gt;inu_n4 (ants)</title>
<path fill="none" stroke="#000000" d="M539.2563,-1008.7542C518.2886,-998.2703 491.4327,-984.8424 469.5642,-973.9082"/>
<polygon fill="#000000" stroke="#000000" points="471.0386,-970.7323 460.5291,-969.3906 467.9081,-976.9933 471.0386,-970.7323"/>
</g>
<!-- outputnode (utility) -->
<g id="node9" class="node">
<title>outputnode (utility)</title>
<ellipse fill="none" stroke="#000000" cx="739.7479" cy="-18" rx="81.7856" ry="18"/>
<text text-anchor="middle" x="739.7479" y="-14.3" font-family="Times,serif" font-size="14.00" fill="#000000">outputnode (utility)</text>
</g>
<!-- copy_xform (interfaces)&#45;&gt;outputnode (utility) -->
<g id="edge8" class="edge">
<title>copy_xform (interfaces)&#45;&gt;outputnode (utility)</title>
<path fill="none" stroke="#000000" d="M821.6041,-72.5708C807.4096,-63.1078 789.679,-51.2874 774.3523,-41.0696"/>
<polygon fill="#000000" stroke="#000000" points="775.9129,-37.9035 765.6509,-35.2687 772.03,-43.7279 775.9129,-37.9035"/>
</g>
<!-- inu_n4_final (ants)&#45;&gt;copy_xform (interfaces) -->
<g id="edge10" class="edge">
<title>inu_n4_final (ants)&#45;&gt;copy_xform (interfaces)</title>
<path fill="none" stroke="#000000" d="M803.6368,-215.9746C812.4589,-206.1105 822.5168,-193.2265 828.7479,-180 837.9645,-160.4363 842.7469,-136.3857 845.2073,-118.0699"/>
<polygon fill="#000000" stroke="#000000" points="848.6963,-118.3696 846.4036,-108.0258 841.7454,-117.5417 848.6963,-118.3696"/>
</g>
<!-- apply_mask (fsl) -->
<g id="node10" class="node">
<title>apply_mask (fsl)</title>
<ellipse fill="none" stroke="#000000" cx="747.7479" cy="-162" rx="72.2875" ry="18"/>
<text text-anchor="middle" x="747.7479" y="-158.3" font-family="Times,serif" font-size="14.00" fill="#000000">apply_mask (fsl)</text>
</g>
<!-- inu_n4_final (ants)&#45;&gt;apply_mask (fsl) -->
<g id="edge9" class="edge">
<title>inu_n4_final (ants)&#45;&gt;apply_mask (fsl)</title>
<path fill="none" stroke="#000000" d="M776.1589,-215.8314C771.8509,-207.6688 766.6793,-197.87 761.936,-188.8827"/>
<polygon fill="#000000" stroke="#000000" points="764.9652,-187.1236 757.2022,-179.9134 758.7745,-190.3909 764.9652,-187.1236"/>
</g>
<!-- init_aff (interfaces)&#45;&gt;norm (interfaces) -->
<g id="edge11" class="edge">
<title>init_aff (interfaces)&#45;&gt;norm (interfaces)</title>
<path fill="none" stroke="#000000" d="M284.0361,-800.5873C383.9661,-787.0119 567.7875,-762.0399 670.4425,-748.0943"/>
<polygon fill="#000000" stroke="#000000" points="670.9837,-751.553 680.4215,-746.7387 670.0414,-744.6167 670.9837,-751.553"/>
</g>
<!-- norm (interfaces)&#45;&gt;map_brainmask (interfaces) -->
<g id="edge12" class="edge">
<title>norm (interfaces)&#45;&gt;map_brainmask (interfaces)</title>
<path fill="none" stroke="#000000" d="M751.3088,-719.8314C754.1506,-711.9617 757.5416,-702.5712 760.6898,-693.8533"/>
<polygon fill="#000000" stroke="#000000" points="763.9941,-695.0076 764.0987,-684.4133 757.4102,-692.63 763.9941,-695.0076"/>
</g>
<!-- thr_brainmask (interfaces) -->
<g id="node11" class="node">
<title>thr_brainmask (interfaces)</title>
<ellipse fill="none" stroke="#000000" cx="770.7479" cy="-594" rx="107.4815" ry="18"/>
<text text-anchor="middle" x="770.7479" y="-590.3" font-family="Times,serif" font-size="14.00" fill="#000000">thr_brainmask (interfaces)</text>
</g>
<!-- map_brainmask (interfaces)&#45;&gt;thr_brainmask (interfaces) -->
<g id="edge13" class="edge">
<title>map_brainmask (interfaces)&#45;&gt;thr_brainmask (interfaces)</title>
<path fill="none" stroke="#000000" d="M770.7479,-647.8314C770.7479,-640.131 770.7479,-630.9743 770.7479,-622.4166"/>
<polygon fill="#000000" stroke="#000000" points="774.248,-622.4132 770.7479,-612.4133 767.248,-622.4133 774.248,-622.4132"/>
</g>
<!-- res_target (interfaces) -->
<g id="node12" class="node">
<title>res_target (interfaces)</title>
<ellipse fill="none" stroke="#000000" cx="311.7479" cy="-882" rx="90.1842" ry="18"/>
<text text-anchor="middle" x="311.7479" y="-878.3" font-family="Times,serif" font-size="14.00" fill="#000000">res_target (interfaces)</text>
</g>
<!-- inu_n4 (ants)&#45;&gt;res_target (interfaces) -->
<g id="edge14" class="edge">
<title>inu_n4 (ants)&#45;&gt;res_target (interfaces)</title>
<path fill="none" stroke="#000000" d="M403.2664,-937.8418C387.296,-928.0972 366.7029,-915.5319 349.0964,-904.7889"/>
<polygon fill="#000000" stroke="#000000" points="350.5614,-901.5827 340.2019,-899.3618 346.9153,-907.5582 350.5614,-901.5827"/>
</g>
<!-- lap_target (interfaces) -->
<g id="node13" class="node">
<title>lap_target (interfaces)</title>
<ellipse fill="none" stroke="#000000" cx="548.7479" cy="-882" rx="90.9839" ry="18"/>
<text text-anchor="middle" x="548.7479" y="-878.3" font-family="Times,serif" font-size="14.00" fill="#000000">lap_target (interfaces)</text>
</g>
<!-- inu_n4 (ants)&#45;&gt;lap_target (interfaces) -->
<g id="edge15" class="edge">
<title>inu_n4 (ants)&#45;&gt;lap_target (interfaces)</title>
<path fill="none" stroke="#000000" d="M456.4538,-937.8418C472.5595,-928.0972 493.3271,-915.5319 511.0828,-904.7889"/>
<polygon fill="#000000" stroke="#000000" points="513.3087,-907.533 520.0527,-899.3618 509.685,-901.5439 513.3087,-907.533"/>
</g>
<!-- mrg_target (utility) -->
<g id="node14" class="node">
<title>mrg_target (utility)</title>
<ellipse fill="none" stroke="#000000" cx="548.7479" cy="-810" rx="80.6858" ry="18"/>
<text text-anchor="middle" x="548.7479" y="-806.3" font-family="Times,serif" font-size="14.00" fill="#000000">mrg_target (utility)</text>
</g>
<!-- inu_n4 (ants)&#45;&gt;mrg_target (utility) -->
<g id="edge16" class="edge">
<title>inu_n4 (ants)&#45;&gt;mrg_target (utility)</title>
<path fill="none" stroke="#000000" d="M429.2636,-935.9688C429.6398,-916.3926 432.9728,-885.1055 448.7479,-864 460.0602,-848.8653 476.9029,-837.4971 493.5553,-829.1955"/>
<polygon fill="#000000" stroke="#000000" points="495.1754,-832.3017 502.7507,-824.8946 492.2097,-825.961 495.1754,-832.3017"/>
</g>
<!-- atropos_wf -->
<g id="node15" class="node">
<title>atropos_wf</title>
<ellipse fill="none" stroke="#000000" cx="672.7479" cy="-378" rx="51.1914" ry="18"/>
<text text-anchor="middle" x="672.7479" y="-374.3" font-family="Times,serif" font-size="14.00" fill="#000000">atropos_wf</text>
</g>
<!-- inu_n4 (ants)&#45;&gt;atropos_wf -->
<g id="edge17" class="edge">
<title>inu_n4 (ants)&#45;&gt;atropos_wf</title>
<path fill="none" stroke="#000000" d="M371.963,-950.0246C265.5258,-942.1745 47.0067,-923.3976 21.7479,-900 -8.2437,-872.2184 2.7479,-850.8816 2.7479,-810 2.7479,-810 2.7479,-810 2.7479,-522 2.7479,-459.8611 448.9444,-403.2422 613.0851,-384.5163"/>
<polygon fill="#000000" stroke="#000000" points="613.939,-387.942 623.4812,-383.338 613.1506,-380.9865 613.939,-387.942"/>
</g>
<!-- apply_mask (fsl)&#45;&gt;copy_xform (interfaces) -->
<g id="edge18" class="edge">
<title>apply_mask (fsl)&#45;&gt;copy_xform (interfaces)</title>
<path fill="none" stroke="#000000" d="M771.4465,-144.937C784.3605,-135.6389 800.5469,-123.9847 814.6846,-113.8055"/>
<polygon fill="#000000" stroke="#000000" points="817.1048,-116.3759 823.1751,-107.6924 813.0146,-110.6951 817.1048,-116.3759"/>
</g>
<!-- thr_brainmask (interfaces)&#45;&gt;atropos_wf -->
<g id="edge20" class="edge">
<title>thr_brainmask (interfaces)&#45;&gt;atropos_wf</title>
<path fill="none" stroke="#000000" d="M726.5163,-577.3619C709.938,-568.7977 692.7181,-556.594 682.7479,-540 657.9979,-498.807 661.7859,-440.6025 667.073,-406.3336"/>
<polygon fill="#000000" stroke="#000000" points="670.5871,-406.5446 668.8079,-396.1002 663.6856,-405.3745 670.5871,-406.5446"/>
</g>
<!-- dil_brainmask (interfaces) -->
<g id="node17" class="node">
<title>dil_brainmask (interfaces)</title>
<ellipse fill="none" stroke="#000000" cx="798.7479" cy="-522" rx="106.6812" ry="18"/>
<text text-anchor="middle" x="798.7479" y="-518.3" font-family="Times,serif" font-size="14.00" fill="#000000">dil_brainmask (interfaces)</text>
</g>
<!-- thr_brainmask (interfaces)&#45;&gt;dil_brainmask (interfaces) -->
<g id="edge19" class="edge">
<title>thr_brainmask (interfaces)&#45;&gt;dil_brainmask (interfaces)</title>
<path fill="none" stroke="#000000" d="M777.8135,-575.8314C780.8739,-567.9617 784.5258,-558.5712 787.9161,-549.8533"/>
<polygon fill="#000000" stroke="#000000" points="791.2247,-551.0019 791.5872,-540.4133 784.7006,-548.4647 791.2247,-551.0019"/>
</g>
<!-- res_target (interfaces)&#45;&gt;init_aff (interfaces) -->
<g id="edge21" class="edge">
<title>res_target (interfaces)&#45;&gt;init_aff (interfaces)</title>
<path fill="none" stroke="#000000" d="M288.2669,-864.5708C275.6373,-855.1963 259.8908,-843.5081 246.2143,-833.3565"/>
<polygon fill="#000000" stroke="#000000" points="248.1284,-830.4185 238.0126,-827.2687 243.9563,-836.0393 248.1284,-830.4185"/>
</g>
<!-- lap_target (interfaces)&#45;&gt;mrg_target (utility) -->
<g id="edge22" class="edge">
<title>lap_target (interfaces)&#45;&gt;mrg_target (utility)</title>
<path fill="none" stroke="#000000" d="M548.7479,-863.8314C548.7479,-856.131 548.7479,-846.9743 548.7479,-838.4166"/>
<polygon fill="#000000" stroke="#000000" points="552.248,-838.4132 548.7479,-828.4133 545.248,-838.4133 552.248,-838.4132"/>
</g>
<!-- mrg_target (utility)&#45;&gt;norm (interfaces) -->
<g id="edge23" class="edge">
<title>mrg_target (utility)&#45;&gt;norm (interfaces)</title>
<path fill="none" stroke="#000000" d="M590.7948,-794.5542C621.0703,-783.4326 662.0602,-768.3751 694.1328,-756.5933"/>
<polygon fill="#000000" stroke="#000000" points="695.5985,-759.7836 703.7783,-753.0501 693.1847,-753.213 695.5985,-759.7836"/>
</g>
<!-- atropos_wf&#45;&gt;outputnode (utility) -->
<g id="edge26" class="edge">
<title>atropos_wf&#45;&gt;outputnode (utility)</title>
<path fill="none" stroke="#000000" d="M665.9103,-360.1167C656.2444,-333.1856 639.7479,-280.423 639.7479,-234 639.7479,-234 639.7479,-234 639.7479,-162 639.7479,-112.8253 679.5771,-68.3653 708.9627,-42.2549"/>
<polygon fill="#000000" stroke="#000000" points="711.2697,-44.8871 716.5545,-35.7044 706.6968,-39.5872 711.2697,-44.8871"/>
</g>
<!-- atropos_wf&#45;&gt;apply_mask (fsl) -->
<g id="edge25" class="edge">
<title>atropos_wf&#45;&gt;apply_mask (fsl)</title>
<path fill="none" stroke="#000000" d="M671.9872,-359.9599C671.4031,-328.9129 673.4039,-264.0852 696.7479,-216 702.0619,-205.0539 710.3874,-194.8406 718.7823,-186.3071"/>
<polygon fill="#000000" stroke="#000000" points="721.3233,-188.7193 726.1036,-179.2642 716.4704,-183.6746 721.3233,-188.7193"/>
</g>
<!-- sel_wm (utility) -->
<g id="node21" class="node">
<title>sel_wm (utility)</title>
<ellipse fill="none" stroke="#000000" cx="780.7479" cy="-306" rx="68.7879" ry="18"/>
<text text-anchor="middle" x="780.7479" y="-302.3" font-family="Times,serif" font-size="14.00" fill="#000000">sel_wm (utility)</text>
</g>
<!-- atropos_wf&#45;&gt;sel_wm (utility) -->
<g id="edge24" class="edge">
<title>atropos_wf&#45;&gt;sel_wm (utility)</title>
<path fill="none" stroke="#000000" d="M696.7166,-362.0209C711.3981,-352.2332 730.4222,-339.5505 746.6554,-328.7284"/>
<polygon fill="#000000" stroke="#000000" points="748.9623,-331.3969 755.3414,-322.9377 745.0794,-325.5725 748.9623,-331.3969"/>
</g>
<!-- res_tmpl (interfaces) -->
<g id="node16" class="node">
<title>res_tmpl (interfaces)</title>
<ellipse fill="none" stroke="#000000" cx="116.7479" cy="-882" rx="86.3847" ry="18"/>
<text text-anchor="middle" x="116.7479" y="-878.3" font-family="Times,serif" font-size="14.00" fill="#000000">res_tmpl (interfaces)</text>
</g>
<!-- res_tmpl (interfaces)&#45;&gt;init_aff (interfaces) -->
<g id="edge27" class="edge">
<title>res_tmpl (interfaces)&#45;&gt;init_aff (interfaces)</title>
<path fill="none" stroke="#000000" d="M140.471,-864.5708C153.2307,-855.1963 169.1396,-843.5081 182.9571,-833.3565"/>
<polygon fill="#000000" stroke="#000000" points="185.2567,-836.0101 191.2433,-827.2687 181.1122,-830.3689 185.2567,-836.0101"/>
</g>
<!-- get_brainmask (interfaces) -->
<g id="node18" class="node">
<title>get_brainmask (interfaces)</title>
<ellipse fill="none" stroke="#000000" cx="799.7479" cy="-450" rx="107.781" ry="18"/>
<text text-anchor="middle" x="799.7479" y="-446.3" font-family="Times,serif" font-size="14.00" fill="#000000">get_brainmask (interfaces)</text>
</g>
<!-- dil_brainmask (interfaces)&#45;&gt;get_brainmask (interfaces) -->
<g id="edge28" class="edge">
<title>dil_brainmask (interfaces)&#45;&gt;get_brainmask (interfaces)</title>
<path fill="none" stroke="#000000" d="M799.0002,-503.8314C799.1072,-496.131 799.2344,-486.9743 799.3532,-478.4166"/>
<polygon fill="#000000" stroke="#000000" points="802.8528,-478.4609 799.4921,-468.4133 795.8535,-478.3637 802.8528,-478.4609"/>
</g>
<!-- get_brainmask (interfaces)&#45;&gt;copy_xform (interfaces) -->
<g id="edge29" class="edge">
<title>get_brainmask (interfaces)&#45;&gt;copy_xform (interfaces)</title>
<path fill="none" stroke="#000000" d="M821.5496,-431.9956C849.3182,-406.9031 893.7479,-358.5449 893.7479,-306 893.7479,-306 893.7479,-306 893.7479,-234 893.7479,-191.7421 875.5503,-145.6755 862.0465,-117.3085"/>
<polygon fill="#000000" stroke="#000000" points="865.0501,-115.4843 857.5033,-108.0482 858.7657,-118.5675 865.0501,-115.4843"/>
</g>
<!-- get_brainmask (interfaces)&#45;&gt;atropos_wf -->
<g id="edge30" class="edge">
<title>get_brainmask (interfaces)&#45;&gt;atropos_wf</title>
<path fill="none" stroke="#000000" d="M769.0047,-432.5708C750.7531,-422.2234 727.5297,-409.0574 708.4667,-398.2501"/>
<polygon fill="#000000" stroke="#000000" points="710.1844,-395.2006 699.759,-393.3134 706.7321,-401.29 710.1844,-395.2006"/>
</g>
<!-- lap_tmpl (interfaces) -->
<g id="node19" class="node">
<title>lap_tmpl (interfaces)</title>
<ellipse fill="none" stroke="#000000" cx="744.7479" cy="-882" rx="87.1846" ry="18"/>
<text text-anchor="middle" x="744.7479" y="-878.3" font-family="Times,serif" font-size="14.00" fill="#000000">lap_tmpl (interfaces)</text>
</g>
<!-- mrg_tmpl (utility) -->
<g id="node20" class="node">
<title>mrg_tmpl (utility)</title>
<ellipse fill="none" stroke="#000000" cx="744.7479" cy="-810" rx="76.8869" ry="18"/>
<text text-anchor="middle" x="744.7479" y="-806.3" font-family="Times,serif" font-size="14.00" fill="#000000">mrg_tmpl (utility)</text>
</g>
<!-- lap_tmpl (interfaces)&#45;&gt;mrg_tmpl (utility) -->
<g id="edge31" class="edge">
<title>lap_tmpl (interfaces)&#45;&gt;mrg_tmpl (utility)</title>
<path fill="none" stroke="#000000" d="M744.7479,-863.8314C744.7479,-856.131 744.7479,-846.9743 744.7479,-838.4166"/>
<polygon fill="#000000" stroke="#000000" points="748.248,-838.4132 744.7479,-828.4133 741.248,-838.4133 748.248,-838.4132"/>
</g>
<!-- mrg_tmpl (utility)&#45;&gt;norm (interfaces) -->
<g id="edge32" class="edge">
<title>mrg_tmpl (utility)&#45;&gt;norm (interfaces)</title>
<path fill="none" stroke="#000000" d="M744.7479,-791.8314C744.7479,-784.131 744.7479,-774.9743 744.7479,-766.4166"/>
<polygon fill="#000000" stroke="#000000" points="748.248,-766.4132 744.7479,-756.4133 741.248,-766.4133 748.248,-766.4132"/>
</g>
<!-- sel_wm (utility)&#45;&gt;inu_n4_final (ants) -->
<g id="edge33" class="edge">
<title>sel_wm (utility)&#45;&gt;inu_n4_final (ants)</title>
<path fill="none" stroke="#000000" d="M782.0096,-287.8314C782.5443,-280.131 783.1802,-270.9743 783.7745,-262.4166"/>
<polygon fill="#000000" stroke="#000000" points="787.2679,-262.6317 784.4692,-252.4133 780.2847,-262.1467 787.2679,-262.6317"/>
</g>
</g>
</svg>
