<?xml version="1.0" encoding="UTF-8" standalone="no"?>
<!DOCTYPE svg PUBLIC "-//W3C//DTD SVG 1.1//EN"
 "http://www.w3.org/Graphics/SVG/1.1/DTD/svg11.dtd">
<!-- Generated by graphviz version 2.40.1 (20161225.0304)
 -->
<!-- Title: %3 Pages: 1 -->
<svg width="956pt" height="260pt"
 viewBox="0.00 0.00 956.19 260.00" xmlns="http://www.w3.org/2000/svg" xmlns:xlink="http://www.w3.org/1999/xlink">
<g id="graph0" class="graph" transform="scale(1 1) rotate(0) translate(4 256)">
<title>%3</title>
<polygon fill="#ffffff" stroke="transparent" points="-4,4 -4,-256 952.1869,-256 952.1869,4 -4,4"/>
<!-- inputnode (utility) -->
<g id="node1" class="node">
<title>inputnode (utility)</title>
<ellipse fill="none" stroke="#000000" cx="554.8927" cy="-234" rx="77.1866" ry="18"/>
<text text-anchor="middle" x="554.8927" y="-230.3" font-family="Times,serif" font-size="14.00" fill="#000000">inputnode (utility)</text>
</g>
<!-- csf_tfm (interfaces) -->
<g id="node2" class="node">
<title>csf_tfm (interfaces)</title>
<ellipse fill="none" stroke="#000000" cx="81.8927" cy="-162" rx="81.7856" ry="18"/>
<text text-anchor="middle" x="81.8927" y="-158.3" font-family="Times,serif" font-size="14.00" fill="#000000">csf_tfm (interfaces)</text>
</g>
<!-- inputnode (utility)&#45;&gt;csf_tfm (interfaces) -->
<g id="edge1" class="edge">
<title>inputnode (utility)&#45;&gt;csf_tfm (interfaces)</title>
<path fill="none" stroke="#000000" d="M486.4026,-225.4691C409.8194,-215.6628 282.1847,-198.5196 172.8927,-180 166.1717,-178.8611 159.1854,-177.6068 152.2054,-176.3062"/>
<polygon fill="#000000" stroke="#000000" points="152.4915,-172.7983 142.0148,-174.3759 151.1886,-179.676 152.4915,-172.7983"/>
</g>
<!-- wm_tfm (interfaces) -->
<g id="node3" class="node">
<title>wm_tfm (interfaces)</title>
<ellipse fill="none" stroke="#000000" cx="266.8927" cy="-162" rx="85.2851" ry="18"/>
<text text-anchor="middle" x="266.8927" y="-158.3" font-family="Times,serif" font-size="14.00" fill="#000000">wm_tfm (interfaces)</text>
</g>
<!-- inputnode (utility)&#45;&gt;wm_tfm (interfaces) -->
<g id="edge2" class="edge">
<title>inputnode (utility)&#45;&gt;wm_tfm (interfaces)</title>
<path fill="none" stroke="#000000" d="M502.0691,-220.7941C454.2658,-208.8433 383.6897,-191.1992 332.3295,-178.3592"/>
<polygon fill="#000000" stroke="#000000" points="332.8764,-174.8883 322.3261,-175.8583 331.1786,-181.6793 332.8764,-174.8883"/>
</g>
<!-- gm_tfm (interfaces) -->
<g id="node4" class="node">
<title>gm_tfm (interfaces)</title>
<ellipse fill="none" stroke="#000000" cx="452.8927" cy="-162" rx="83.3857" ry="18"/>
<text text-anchor="middle" x="452.8927" y="-158.3" font-family="Times,serif" font-size="14.00" fill="#000000">gm_tfm (interfaces)</text>
</g>
<!-- inputnode (utility)&#45;&gt;gm_tfm (interfaces) -->
<g id="edge3" class="edge">
<title>inputnode (utility)&#45;&gt;gm_tfm (interfaces)</title>
<path fill="none" stroke="#000000" d="M530.4612,-216.7542C517.0604,-207.2948 500.2641,-195.4386 485.731,-185.1799"/>
<polygon fill="#000000" stroke="#000000" points="487.6665,-182.2621 477.4784,-179.3546 483.6297,-187.9809 487.6665,-182.2621"/>
</g>
<!-- masktonative (interfaces) -->
<g id="node5" class="node">
<title>masktonative (interfaces)</title>
<ellipse fill="none" stroke="#000000" cx="656.8927" cy="-162" rx="102.8821" ry="18"/>
<text text-anchor="middle" x="656.8927" y="-158.3" font-family="Times,serif" font-size="14.00" fill="#000000">masktonative (interfaces)</text>
</g>
<!-- inputnode (utility)&#45;&gt;masktonative (interfaces) -->
<g id="edge4" class="edge">
<title>inputnode (utility)&#45;&gt;masktonative (interfaces)</title>
<path fill="none" stroke="#000000" d="M579.3243,-216.7542C592.6266,-207.3644 609.2746,-195.6128 623.7335,-185.4065"/>
<polygon fill="#000000" stroke="#000000" points="625.8007,-188.2315 631.9519,-179.6053 621.7638,-182.5127 625.8007,-188.2315"/>
</g>
<!-- qccompute (cbf_computation) -->
<g id="node6" class="node">
<title>qccompute (cbf_computation)</title>
<ellipse fill="none" stroke="#000000" cx="554.8927" cy="-90" rx="120.7786" ry="18"/>
<text text-anchor="middle" x="554.8927" y="-86.3" font-family="Times,serif" font-size="14.00" fill="#000000">qccompute (cbf_computation)</text>
</g>
<!-- inputnode (utility)&#45;&gt;qccompute (cbf_computation) -->
<g id="edge5" class="edge">
<title>inputnode (utility)&#45;&gt;qccompute (cbf_computation)</title>
<path fill="none" stroke="#000000" d="M623.8403,-225.7983C679.3823,-217.6058 751.0553,-202.8976 768.8927,-180 803.6556,-135.3756 735.9824,-112.63 667.7425,-101.1861"/>
<polygon fill="#000000" stroke="#000000" points="668.1094,-97.7004 657.6824,-99.5784 667.0047,-104.6127 668.1094,-97.7004"/>
</g>
<!-- resample (afni) -->
<g id="node7" class="node">
<title>resample (afni)</title>
<ellipse fill="none" stroke="#000000" cx="881.8927" cy="-162" rx="66.0889" ry="18"/>
<text text-anchor="middle" x="881.8927" y="-158.3" font-family="Times,serif" font-size="14.00" fill="#000000">resample (afni)</text>
</g>
<!-- inputnode (utility)&#45;&gt;resample (afni) -->
<g id="edge6" class="edge">
<title>inputnode (utility)&#45;&gt;resample (afni)</title>
<path fill="none" stroke="#000000" d="M611.815,-221.6582C661.8918,-210.7761 736.7558,-194.448 801.8927,-180 808.0037,-178.6445 814.3754,-177.2237 820.738,-175.7999"/>
<polygon fill="#000000" stroke="#000000" points="821.6979,-179.1717 830.6902,-173.5691 820.1668,-172.3412 821.6979,-179.1717"/>
</g>
<!-- csf_tfm (interfaces)&#45;&gt;qccompute (cbf_computation) -->
<g id="edge7" class="edge">
<title>csf_tfm (interfaces)&#45;&gt;qccompute (cbf_computation)</title>
<path fill="none" stroke="#000000" d="M142.0148,-149.6241C152.2984,-147.646 162.8894,-145.6951 172.8927,-144 267.2186,-128.0164 375.2075,-113.0581 452.2476,-102.9569"/>
<polygon fill="#000000" stroke="#000000" points="452.971,-106.3922 462.4333,-101.626 452.0641,-99.4512 452.971,-106.3922"/>
</g>
<!-- wm_tfm (interfaces)&#45;&gt;qccompute (cbf_computation) -->
<g id="edge8" class="edge">
<title>wm_tfm (interfaces)&#45;&gt;qccompute (cbf_computation)</title>
<path fill="none" stroke="#000000" d="M322.0813,-148.2029C367.8651,-136.7569 433.2999,-120.3982 483.1452,-107.9369"/>
<polygon fill="#000000" stroke="#000000" points="484.0435,-111.3201 492.896,-105.4992 482.3457,-104.5291 484.0435,-111.3201"/>
</g>
<!-- gm_tfm (interfaces)&#45;&gt;qccompute (cbf_computation) -->
<g id="edge9" class="edge">
<title>gm_tfm (interfaces)&#45;&gt;qccompute (cbf_computation)</title>
<path fill="none" stroke="#000000" d="M477.3243,-144.7542C490.528,-135.4339 507.0281,-123.7868 521.4119,-113.6336"/>
<polygon fill="#000000" stroke="#000000" points="523.444,-116.4833 529.5953,-107.857 519.4072,-110.7645 523.444,-116.4833"/>
</g>
<!-- masktonative (interfaces)&#45;&gt;qccompute (cbf_computation) -->
<g id="edge10" class="edge">
<title>masktonative (interfaces)&#45;&gt;qccompute (cbf_computation)</title>
<path fill="none" stroke="#000000" d="M631.9407,-144.3868C618.8512,-135.1472 602.6324,-123.6986 588.4567,-113.6922"/>
<polygon fill="#000000" stroke="#000000" points="590.1288,-110.5884 579.9407,-107.6809 586.0919,-116.3072 590.1288,-110.5884"/>
</g>
<!-- outputnode (utility) -->
<g id="node8" class="node">
<title>outputnode (utility)</title>
<ellipse fill="none" stroke="#000000" cx="554.8927" cy="-18" rx="81.7856" ry="18"/>
<text text-anchor="middle" x="554.8927" y="-14.3" font-family="Times,serif" font-size="14.00" fill="#000000">outputnode (utility)</text>
</g>
<!-- qccompute (cbf_computation)&#45;&gt;outputnode (utility) -->
<g id="edge11" class="edge">
<title>qccompute (cbf_computation)&#45;&gt;outputnode (utility)</title>
<path fill="none" stroke="#000000" d="M554.8927,-71.8314C554.8927,-64.131 554.8927,-54.9743 554.8927,-46.4166"/>
<polygon fill="#000000" stroke="#000000" points="558.3928,-46.4132 554.8927,-36.4133 551.3928,-46.4133 558.3928,-46.4132"/>
</g>
<!-- resample (afni)&#45;&gt;qccompute (cbf_computation) -->
<g id="edge12" class="edge">
<title>resample (afni)&#45;&gt;qccompute (cbf_computation)</title>
<path fill="none" stroke="#000000" d="M830.6902,-150.4309C821.122,-148.2827 811.2046,-146.0655 801.8927,-144 745.4643,-131.4836 681.736,-117.5563 633.1469,-106.981"/>
<polygon fill="#000000" stroke="#000000" points="633.8429,-103.5506 623.3274,-104.8446 632.3547,-110.3906 633.8429,-103.5506"/>
</g>
</g>
</svg>
