<?xml version="1.0" encoding="UTF-8" standalone="no"?>
<!DOCTYPE svg PUBLIC "-//W3C//DTD SVG 1.1//EN"
 "http://www.w3.org/Graphics/SVG/1.1/DTD/svg11.dtd">
<!-- Generated by graphviz version 2.40.1 (20161225.0304)
 -->
<!-- Title: %3 Pages: 1 -->
<svg width="900pt" height="404pt"
 viewBox="0.00 0.00 899.73 404.00" xmlns="http://www.w3.org/2000/svg" xmlns:xlink="http://www.w3.org/1999/xlink">
<g id="graph0" class="graph" transform="scale(1 1) rotate(0) translate(4 400)">
<title>%3</title>
<polygon fill="#ffffff" stroke="transparent" points="-4,4 -4,-400 895.733,-400 895.733,4 -4,4"/>
<!-- inputnode (utility) -->
<g id="node1" class="node">
<title>inputnode (utility)</title>
<ellipse fill="none" stroke="#000000" cx="474.8403" cy="-378" rx="77.1866" ry="18"/>
<text text-anchor="middle" x="474.8403" y="-374.3" font-family="Times,serif" font-size="14.00" fill="#000000">inputnode (utility)</text>
</g>
<!-- extractcbf (cbf_computation) -->
<g id="node2" class="node">
<title>extractcbf (cbf_computation)</title>
<ellipse fill="none" stroke="#000000" cx="255.8403" cy="-234" rx="116.9792" ry="18"/>
<text text-anchor="middle" x="255.8403" y="-230.3" font-family="Times,serif" font-size="14.00" fill="#000000">extractcbf (cbf_computation)</text>
</g>
<!-- inputnode (utility)&#45;&gt;extractcbf (cbf_computation) -->
<g id="edge1" class="edge">
<title>inputnode (utility)&#45;&gt;extractcbf (cbf_computation)</title>
<path fill="none" stroke="#000000" d="M409.1748,-368.4767C356.8673,-359.5151 289.4317,-344.4189 270.8403,-324 255.9032,-307.5947 252.8208,-282.2002 253.0924,-262.5635"/>
<polygon fill="#000000" stroke="#000000" points="256.5991,-262.4822 253.5344,-252.3403 249.6056,-262.1798 256.5991,-262.4822"/>
</g>
<!-- refinemask (cbf_computation) -->
<g id="node3" class="node">
<title>refinemask (cbf_computation)</title>
<ellipse fill="none" stroke="#000000" cx="400.8403" cy="-306" rx="120.7786" ry="18"/>
<text text-anchor="middle" x="400.8403" y="-302.3" font-family="Times,serif" font-size="14.00" fill="#000000">refinemask (cbf_computation)</text>
</g>
<!-- inputnode (utility)&#45;&gt;refinemask (cbf_computation) -->
<g id="edge2" class="edge">
<title>inputnode (utility)&#45;&gt;refinemask (cbf_computation)</title>
<path fill="none" stroke="#000000" d="M456.5481,-360.2022C447.4759,-351.3752 436.3673,-340.5669 426.4635,-330.9307"/>
<polygon fill="#000000" stroke="#000000" points="428.7865,-328.3076 419.1784,-323.8425 423.905,-333.3247 428.7865,-328.3076"/>
</g>
<!-- basilcbf (cbf_computation) -->
<g id="node4" class="node">
<title>basilcbf (cbf_computation)</title>
<ellipse fill="none" stroke="#000000" cx="109.8403" cy="-162" rx="109.6807" ry="18"/>
<text text-anchor="middle" x="109.8403" y="-158.3" font-family="Times,serif" font-size="14.00" fill="#000000">basilcbf (cbf_computation)</text>
</g>
<!-- inputnode (utility)&#45;&gt;basilcbf (cbf_computation) -->
<g id="edge3" class="edge">
<title>inputnode (utility)&#45;&gt;basilcbf (cbf_computation)</title>
<path fill="none" stroke="#000000" d="M414.2949,-366.6693C319.0193,-347.3854 141.5347,-305.0664 108.8403,-252 97.4984,-233.591 98.7099,-208.7879 102.2176,-189.8815"/>
<polygon fill="#000000" stroke="#000000" points="105.6482,-190.5762 104.3374,-180.0628 98.8058,-189.0989 105.6482,-190.5762"/>
</g>
<!-- csf_tfm (interfaces) -->
<g id="node5" class="node">
<title>csf_tfm (interfaces)</title>
<ellipse fill="none" stroke="#000000" cx="809.8403" cy="-306" rx="81.7856" ry="18"/>
<text text-anchor="middle" x="809.8403" y="-302.3" font-family="Times,serif" font-size="14.00" fill="#000000">csf_tfm (interfaces)</text>
</g>
<!-- inputnode (utility)&#45;&gt;csf_tfm (interfaces) -->
<g id="edge4" class="edge">
<title>inputnode (utility)&#45;&gt;csf_tfm (interfaces)</title>
<path fill="none" stroke="#000000" d="M531.6684,-365.7862C589.4917,-353.3585 679.1649,-334.0854 740.9859,-320.7985"/>
<polygon fill="#000000" stroke="#000000" points="742.0001,-324.1606 751.0414,-318.6374 740.5292,-317.3169 742.0001,-324.1606"/>
</g>
<!-- wm_tfm (interfaces) -->
<g id="node6" class="node">
<title>wm_tfm (interfaces)</title>
<ellipse fill="none" stroke="#000000" cx="735.8403" cy="-234" rx="85.2851" ry="18"/>
<text text-anchor="middle" x="735.8403" y="-230.3" font-family="Times,serif" font-size="14.00" fill="#000000">wm_tfm (interfaces)</text>
</g>
<!-- inputnode (utility)&#45;&gt;wm_tfm (interfaces) -->
<g id="edge5" class="edge">
<title>inputnode (utility)&#45;&gt;wm_tfm (interfaces)</title>
<path fill="none" stroke="#000000" d="M505.0352,-361.3407C552.2517,-335.2902 643.5817,-284.9013 696.0899,-255.9312"/>
<polygon fill="#000000" stroke="#000000" points="698.0451,-258.8499 705.1101,-250.9545 694.6636,-252.7208 698.0451,-258.8499"/>
</g>
<!-- gm_tfm (interfaces) -->
<g id="node7" class="node">
<title>gm_tfm (interfaces)</title>
<ellipse fill="none" stroke="#000000" cx="549.8403" cy="-234" rx="83.3857" ry="18"/>
<text text-anchor="middle" x="549.8403" y="-230.3" font-family="Times,serif" font-size="14.00" fill="#000000">gm_tfm (interfaces)</text>
</g>
<!-- inputnode (utility)&#45;&gt;gm_tfm (interfaces) -->
<g id="edge6" class="edge">
<title>inputnode (utility)&#45;&gt;gm_tfm (interfaces)</title>
<path fill="none" stroke="#000000" d="M498.5289,-360.714C509.9784,-351.1415 522.9221,-338.2959 530.8403,-324 541.3186,-305.082 546.0278,-280.994 548.1394,-262.4997"/>
<polygon fill="#000000" stroke="#000000" points="551.6432,-262.6249 549.1065,-252.3383 544.6747,-261.9616 551.6432,-262.6249"/>
</g>
<!-- extractcbf (cbf_computation)&#45;&gt;basilcbf (cbf_computation) -->
<g id="edge8" class="edge">
<title>extractcbf (cbf_computation)&#45;&gt;basilcbf (cbf_computation)</title>
<path fill="none" stroke="#000000" d="M220.8696,-216.7542C200.7344,-206.8245 175.2437,-194.2537 153.7663,-183.6622"/>
<polygon fill="#000000" stroke="#000000" points="155.0423,-180.389 144.5255,-179.1051 151.9462,-186.6671 155.0423,-180.389"/>
</g>
<!-- computecbf (cbf_computation) -->
<g id="node8" class="node">
<title>computecbf (cbf_computation)</title>
<ellipse fill="none" stroke="#000000" cx="360.8403" cy="-162" rx="123.4781" ry="18"/>
<text text-anchor="middle" x="360.8403" y="-158.3" font-family="Times,serif" font-size="14.00" fill="#000000">computecbf (cbf_computation)</text>
</g>
<!-- extractcbf (cbf_computation)&#45;&gt;computecbf (cbf_computation) -->
<g id="edge7" class="edge">
<title>extractcbf (cbf_computation)&#45;&gt;computecbf (cbf_computation)</title>
<path fill="none" stroke="#000000" d="M281.5261,-216.3868C295.1278,-207.06 312.0118,-195.4824 326.7015,-185.4094"/>
<polygon fill="#000000" stroke="#000000" points="328.7877,-188.2228 335.0556,-179.6809 324.829,-182.4497 328.7877,-188.2228"/>
</g>
<!-- refinemask (cbf_computation)&#45;&gt;extractcbf (cbf_computation) -->
<g id="edge12" class="edge">
<title>refinemask (cbf_computation)&#45;&gt;extractcbf (cbf_computation)</title>
<path fill="none" stroke="#000000" d="M366.1091,-288.7542C346.1848,-278.8607 320.9804,-266.3455 299.6991,-255.7782"/>
<polygon fill="#000000" stroke="#000000" points="301.0522,-252.5424 290.539,-251.2297 297.939,-258.812 301.0522,-252.5424"/>
</g>
<!-- refinemask (cbf_computation)&#45;&gt;basilcbf (cbf_computation) -->
<g id="edge11" class="edge">
<title>refinemask (cbf_computation)&#45;&gt;basilcbf (cbf_computation)</title>
<path fill="none" stroke="#000000" d="M296.269,-296.9118C230.4034,-289.0311 153.5026,-275.1478 129.8403,-252 113.6434,-236.1554 109.2437,-210.3146 108.5469,-190.3774"/>
<polygon fill="#000000" stroke="#000000" points="112.0464,-190.2699 108.483,-180.2923 105.0465,-190.3143 112.0464,-190.2699"/>
</g>
<!-- refinemask (cbf_computation)&#45;&gt;computecbf (cbf_computation) -->
<g id="edge9" class="edge">
<title>refinemask (cbf_computation)&#45;&gt;computecbf (cbf_computation)</title>
<path fill="none" stroke="#000000" d="M397.9055,-287.8543C394.7322,-269.5222 389.1337,-240.488 381.8403,-216 379.2399,-207.2694 375.8513,-197.9579 372.5576,-189.5693"/>
<polygon fill="#000000" stroke="#000000" points="375.7781,-188.1969 368.7875,-180.2356 369.2875,-190.8187 375.7781,-188.1969"/>
</g>
<!-- scorescrub (cbf_computation) -->
<g id="node9" class="node">
<title>scorescrub (cbf_computation)</title>
<ellipse fill="none" stroke="#000000" cx="530.8403" cy="-90" rx="119.6788" ry="18"/>
<text text-anchor="middle" x="530.8403" y="-86.3" font-family="Times,serif" font-size="14.00" fill="#000000">scorescrub (cbf_computation)</text>
</g>
<!-- refinemask (cbf_computation)&#45;&gt;scorescrub (cbf_computation) -->
<g id="edge10" class="edge">
<title>refinemask (cbf_computation)&#45;&gt;scorescrub (cbf_computation)</title>
<path fill="none" stroke="#000000" d="M410.7457,-288.0226C421.3862,-269.3155 439.2826,-239.5231 457.8403,-216 471.6618,-198.4803 480.51,-198.5995 492.8403,-180 505.65,-160.6773 515.6139,-136.3309 522.119,-117.8341"/>
<polygon fill="#000000" stroke="#000000" points="525.4793,-118.8233 525.3733,-108.229 518.8494,-116.5771 525.4793,-118.8233"/>
</g>
<!-- outputnode (utility) -->
<g id="node10" class="node">
<title>outputnode (utility)</title>
<ellipse fill="none" stroke="#000000" cx="360.8403" cy="-18" rx="81.7856" ry="18"/>
<text text-anchor="middle" x="360.8403" y="-14.3" font-family="Times,serif" font-size="14.00" fill="#000000">outputnode (utility)</text>
</g>
<!-- basilcbf (cbf_computation)&#45;&gt;outputnode (utility) -->
<g id="edge13" class="edge">
<title>basilcbf (cbf_computation)&#45;&gt;outputnode (utility)</title>
<path fill="none" stroke="#000000" d="M140.1167,-144.6302C185.7788,-118.4337 272.24,-68.8304 322.3252,-40.0963"/>
<polygon fill="#000000" stroke="#000000" points="324.3036,-42.9964 331.2358,-34.9842 320.8202,-36.9247 324.3036,-42.9964"/>
</g>
<!-- csf_tfm (interfaces)&#45;&gt;scorescrub (cbf_computation) -->
<g id="edge14" class="edge">
<title>csf_tfm (interfaces)&#45;&gt;scorescrub (cbf_computation)</title>
<path fill="none" stroke="#000000" d="M821.3573,-287.9576C832.0663,-268.6556 844.3571,-237.8707 829.8403,-216 786.2675,-150.3546 701.0506,-118.829 632.7032,-103.7356"/>
<polygon fill="#000000" stroke="#000000" points="633.257,-100.2753 622.7486,-101.6259 631.8056,-107.1232 633.257,-100.2753"/>
</g>
<!-- wm_tfm (interfaces)&#45;&gt;basilcbf (cbf_computation) -->
<g id="edge16" class="edge">
<title>wm_tfm (interfaces)&#45;&gt;basilcbf (cbf_computation)</title>
<path fill="none" stroke="#000000" d="M674.8076,-221.3744C663.8631,-219.3786 652.5378,-217.4865 641.8403,-216 459.3422,-190.6406 411.7989,-201.7891 228.8403,-180 219.0368,-178.8325 208.7983,-177.4827 198.6193,-176.0578"/>
<polygon fill="#000000" stroke="#000000" points="198.8725,-172.5586 188.4785,-174.6118 197.8843,-179.4885 198.8725,-172.5586"/>
</g>
<!-- wm_tfm (interfaces)&#45;&gt;scorescrub (cbf_computation) -->
<g id="edge15" class="edge">
<title>wm_tfm (interfaces)&#45;&gt;scorescrub (cbf_computation)</title>
<path fill="none" stroke="#000000" d="M711.1125,-216.6302C674.4265,-190.8606 605.4957,-142.4409 564.3201,-113.5175"/>
<polygon fill="#000000" stroke="#000000" points="566.1712,-110.5407 555.9765,-107.6567 562.1476,-116.2687 566.1712,-110.5407"/>
</g>
<!-- gm_tfm (interfaces)&#45;&gt;basilcbf (cbf_computation) -->
<g id="edge18" class="edge">
<title>gm_tfm (interfaces)&#45;&gt;basilcbf (cbf_computation)</title>
<path fill="none" stroke="#000000" d="M483.0137,-223.0647C406.7783,-210.5899 281.8271,-190.1433 197.7487,-176.385"/>
<polygon fill="#000000" stroke="#000000" points="198.1378,-172.9022 187.7038,-174.7413 197.0073,-179.8103 198.1378,-172.9022"/>
</g>
<!-- gm_tfm (interfaces)&#45;&gt;scorescrub (cbf_computation) -->
<g id="edge17" class="edge">
<title>gm_tfm (interfaces)&#45;&gt;scorescrub (cbf_computation)</title>
<path fill="none" stroke="#000000" d="M547.4339,-215.7623C544.1932,-191.201 538.3937,-147.2474 534.5814,-118.3541"/>
<polygon fill="#000000" stroke="#000000" points="538.0052,-117.5458 533.2271,-108.0896 531.0653,-118.4616 538.0052,-117.5458"/>
</g>
<!-- computecbf (cbf_computation)&#45;&gt;scorescrub (cbf_computation) -->
<g id="edge19" class="edge">
<title>computecbf (cbf_computation)&#45;&gt;scorescrub (cbf_computation)</title>
<path fill="none" stroke="#000000" d="M401.1279,-144.937C425.0703,-134.7967 455.6293,-121.854 481.0716,-111.0785"/>
<polygon fill="#000000" stroke="#000000" points="482.7044,-114.188 490.5476,-107.0651 479.9744,-107.7423 482.7044,-114.188"/>
</g>
<!-- computecbf (cbf_computation)&#45;&gt;outputnode (utility) -->
<g id="edge20" class="edge">
<title>computecbf (cbf_computation)&#45;&gt;outputnode (utility)</title>
<path fill="none" stroke="#000000" d="M360.8403,-143.7623C360.8403,-119.201 360.8403,-75.2474 360.8403,-46.3541"/>
<polygon fill="#000000" stroke="#000000" points="364.3404,-46.0896 360.8403,-36.0896 357.3404,-46.0897 364.3404,-46.0896"/>
</g>
<!-- scorescrub (cbf_computation)&#45;&gt;outputnode (utility) -->
<g id="edge21" class="edge">
<title>scorescrub (cbf_computation)&#45;&gt;outputnode (utility)</title>
<path fill="none" stroke="#000000" d="M490.5526,-72.937C465.8051,-62.4557 433.9886,-48.9805 408.0603,-37.9991"/>
<polygon fill="#000000" stroke="#000000" points="409.3713,-34.7534 398.7981,-34.0763 406.6413,-41.1991 409.3713,-34.7534"/>
</g>
</g>
</svg>
