<?xml version="1.0" encoding="UTF-8" standalone="no"?>
<!DOCTYPE svg PUBLIC "-//W3C//DTD SVG 1.1//EN"
 "http://www.w3.org/Graphics/SVG/1.1/DTD/svg11.dtd">
<!-- Generated by graphviz version 2.40.1 (20161225.0304)
 -->
<!-- Title: %3 Pages: 1 -->
<svg width="664pt" height="260pt"
 viewBox="0.00 0.00 663.74 260.00" xmlns="http://www.w3.org/2000/svg" xmlns:xlink="http://www.w3.org/1999/xlink">
<g id="graph0" class="graph" transform="scale(1 1) rotate(0) translate(4 256)">
<title>%3</title>
<polygon fill="#ffffff" stroke="transparent" points="-4,4 -4,-256 659.7364,-256 659.7364,4 -4,4"/>
<!-- inputnode (utility) -->
<g id="node1" class="node">
<title>inputnode (utility)</title>
<ellipse fill="none" stroke="#000000" cx="187.1926" cy="-162" rx="77.1866" ry="18"/>
<text text-anchor="middle" x="187.1926" y="-158.3" font-family="Times,serif" font-size="14.00" fill="#000000">inputnode (utility)</text>
</g>
<!-- anat_preproc_wf -->
<g id="node2" class="node">
<title>anat_preproc_wf</title>
<ellipse fill="none" stroke="#000000" cx="371.1926" cy="-90" rx="72.2875" ry="18"/>
<text text-anchor="middle" x="371.1926" y="-86.3" font-family="Times,serif" font-size="14.00" fill="#000000">anat_preproc_wf</text>
</g>
<!-- inputnode (utility)&#45;&gt;anat_preproc_wf -->
<g id="edge1" class="edge">
<title>inputnode (utility)&#45;&gt;anat_preproc_wf</title>
<path fill="none" stroke="#000000" d="M227.1179,-146.3771C255.253,-135.3677 293.0765,-120.5672 322.9094,-108.8934"/>
<polygon fill="#000000" stroke="#000000" points="324.2552,-112.1253 332.2922,-105.2219 321.7043,-105.6066 324.2552,-112.1253"/>
</g>
<!-- summary (reports) -->
<g id="node3" class="node">
<title>summary (reports)</title>
<ellipse fill="none" stroke="#000000" cx="169.1926" cy="-90" rx="77.9862" ry="18"/>
<text text-anchor="middle" x="169.1926" y="-86.3" font-family="Times,serif" font-size="14.00" fill="#000000">summary (reports)</text>
</g>
<!-- inputnode (utility)&#45;&gt;summary (reports) -->
<g id="edge2" class="edge">
<title>inputnode (utility)&#45;&gt;summary (reports)</title>
<path fill="none" stroke="#000000" d="M182.6505,-143.8314C180.7042,-136.0463 178.3858,-126.7729 176.2263,-118.1347"/>
<polygon fill="#000000" stroke="#000000" points="179.6169,-117.2658 173.7959,-108.4133 172.8259,-118.9636 179.6169,-117.2658"/>
</g>
<!-- func_preproc_task_restEyesOpen_asl -->
<g id="node4" class="node">
<title>func_preproc_task_restEyesOpen_asl</title>
<ellipse fill="none" stroke="#000000" cx="371.1926" cy="-18" rx="148.3739" ry="18"/>
<text text-anchor="middle" x="371.1926" y="-14.3" font-family="Times,serif" font-size="14.00" fill="#000000">func_preproc_task_restEyesOpen_asl</text>
</g>
<!-- anat_preproc_wf&#45;&gt;func_preproc_task_restEyesOpen_asl -->
<g id="edge3" class="edge">
<title>anat_preproc_wf&#45;&gt;func_preproc_task_restEyesOpen_asl</title>
<path fill="none" stroke="#000000" d="M371.1926,-71.8314C371.1926,-64.131 371.1926,-54.9743 371.1926,-46.4166"/>
<polygon fill="#000000" stroke="#000000" points="374.6927,-46.4132 371.1926,-36.4133 367.6927,-46.4133 374.6927,-46.4132"/>
</g>
<!-- ds_report_summary -->
<g id="node7" class="node">
<title>ds_report_summary</title>
<ellipse fill="none" stroke="#000000" cx="83.1926" cy="-18" rx="83.3857" ry="18"/>
<text text-anchor="middle" x="83.1926" y="-14.3" font-family="Times,serif" font-size="14.00" fill="#000000">ds_report_summary</text>
</g>
<!-- summary (reports)&#45;&gt;ds_report_summary -->
<g id="edge4" class="edge">
<title>summary (reports)&#45;&gt;ds_report_summary</title>
<path fill="none" stroke="#000000" d="M148.3744,-72.5708C137.4691,-63.4408 123.9426,-52.1163 112.0431,-42.1539"/>
<polygon fill="#000000" stroke="#000000" points="114.0316,-39.254 104.1172,-35.5182 109.538,-44.6213 114.0316,-39.254"/>
</g>
<!-- bidssrc (interfaces) -->
<g id="node5" class="node">
<title>bidssrc (interfaces)</title>
<ellipse fill="none" stroke="#000000" cx="371.1926" cy="-234" rx="79.8859" ry="18"/>
<text text-anchor="middle" x="371.1926" y="-230.3" font-family="Times,serif" font-size="14.00" fill="#000000">bidssrc (interfaces)</text>
</g>
<!-- bidssrc (interfaces)&#45;&gt;anat_preproc_wf -->
<g id="edge7" class="edge">
<title>bidssrc (interfaces)&#45;&gt;anat_preproc_wf</title>
<path fill="none" stroke="#000000" d="M419.3415,-219.5208C438.3444,-211.1831 458.2253,-198.5652 469.1926,-180 477.3306,-166.2242 477.3306,-157.7758 469.1926,-144 459.6889,-127.9122 443.4917,-116.2904 426.9727,-108.0497"/>
<polygon fill="#000000" stroke="#000000" points="428.3487,-104.83 417.8028,-103.8125 425.4125,-111.1844 428.3487,-104.83"/>
</g>
<!-- bidssrc (interfaces)&#45;&gt;summary (reports) -->
<g id="edge6" class="edge">
<title>bidssrc (interfaces)&#45;&gt;summary (reports)</title>
<path fill="none" stroke="#000000" d="M293.9831,-229.2168C222.9881,-223.0165 125.2107,-209.2974 101.1926,-180 91.0488,-167.6265 94.2357,-158.4084 101.1926,-144 107.2517,-131.4511 117.8011,-120.924 128.808,-112.5948"/>
<polygon fill="#000000" stroke="#000000" points="131.0831,-115.2736 137.2475,-106.6567 127.055,-109.5487 131.0831,-115.2736"/>
</g>
<!-- bids_info (interfaces) -->
<g id="node6" class="node">
<title>bids_info (interfaces)</title>
<ellipse fill="none" stroke="#000000" cx="371.1926" cy="-162" rx="89.0842" ry="18"/>
<text text-anchor="middle" x="371.1926" y="-158.3" font-family="Times,serif" font-size="14.00" fill="#000000">bids_info (interfaces)</text>
</g>
<!-- bidssrc (interfaces)&#45;&gt;bids_info (interfaces) -->
<g id="edge5" class="edge">
<title>bidssrc (interfaces)&#45;&gt;bids_info (interfaces)</title>
<path fill="none" stroke="#000000" d="M371.1926,-215.8314C371.1926,-208.131 371.1926,-198.9743 371.1926,-190.4166"/>
<polygon fill="#000000" stroke="#000000" points="374.6927,-190.4132 371.1926,-180.4133 367.6927,-190.4133 374.6927,-190.4132"/>
</g>
<!-- bidssrc (interfaces)&#45;&gt;ds_report_summary -->
<g id="edge8" class="edge">
<title>bidssrc (interfaces)&#45;&gt;ds_report_summary</title>
<path fill="none" stroke="#000000" d="M294.0164,-229.1131C220.8654,-222.781 118.2563,-208.9163 91.1926,-180 57.6546,-144.1662 66.0762,-82.0326 74.8683,-46.0217"/>
<polygon fill="#000000" stroke="#000000" points="78.3002,-46.7316 77.4427,-36.1715 71.5277,-44.9614 78.3002,-46.7316"/>
</g>
<!-- ds_report_about -->
<g id="node8" class="node">
<title>ds_report_about</title>
<ellipse fill="none" stroke="#000000" cx="586.1926" cy="-162" rx="69.5877" ry="18"/>
<text text-anchor="middle" x="586.1926" y="-158.3" font-family="Times,serif" font-size="14.00" fill="#000000">ds_report_about</text>
</g>
<!-- bidssrc (interfaces)&#45;&gt;ds_report_about -->
<g id="edge9" class="edge">
<title>bidssrc (interfaces)&#45;&gt;ds_report_about</title>
<path fill="none" stroke="#000000" d="M416.002,-218.9941C450.3117,-207.5043 497.7175,-191.6289 533.7849,-179.5505"/>
<polygon fill="#000000" stroke="#000000" points="535.2658,-182.7457 543.6368,-176.2513 533.0429,-176.108 535.2658,-182.7457"/>
</g>
<!-- bids_info (interfaces)&#45;&gt;anat_preproc_wf -->
<g id="edge11" class="edge">
<title>bids_info (interfaces)&#45;&gt;anat_preproc_wf</title>
<path fill="none" stroke="#000000" d="M371.1926,-143.8314C371.1926,-136.131 371.1926,-126.9743 371.1926,-118.4166"/>
<polygon fill="#000000" stroke="#000000" points="374.6927,-118.4132 371.1926,-108.4133 367.6927,-118.4133 374.6927,-118.4132"/>
</g>
<!-- bids_info (interfaces)&#45;&gt;summary (reports) -->
<g id="edge10" class="edge">
<title>bids_info (interfaces)&#45;&gt;summary (reports)</title>
<path fill="none" stroke="#000000" d="M326.8629,-146.1993C295.8144,-135.1325 254.202,-120.3004 221.5229,-108.6524"/>
<polygon fill="#000000" stroke="#000000" points="222.2841,-105.2081 211.6895,-105.1474 219.9339,-111.8017 222.2841,-105.2081"/>
</g>
<!-- about (reports) -->
<g id="node9" class="node">
<title>about (reports)</title>
<ellipse fill="none" stroke="#000000" cx="586.1926" cy="-234" rx="64.189" ry="18"/>
<text text-anchor="middle" x="586.1926" y="-230.3" font-family="Times,serif" font-size="14.00" fill="#000000">about (reports)</text>
</g>
<!-- about (reports)&#45;&gt;ds_report_about -->
<g id="edge12" class="edge">
<title>about (reports)&#45;&gt;ds_report_about</title>
<path fill="none" stroke="#000000" d="M586.1926,-215.8314C586.1926,-208.131 586.1926,-198.9743 586.1926,-190.4166"/>
<polygon fill="#000000" stroke="#000000" points="589.6927,-190.4132 586.1926,-180.4133 582.6927,-190.4133 589.6927,-190.4132"/>
</g>
</g>
</svg>
