<?xml version="1.0" encoding="UTF-8" standalone="no"?>
<!DOCTYPE svg PUBLIC "-//W3C//DTD SVG 1.1//EN"
 "http://www.w3.org/Graphics/SVG/1.1/DTD/svg11.dtd">
<!-- Generated by graphviz version 2.40.1 (20161225.0304)
 -->
<!-- Title: discover_wf Pages: 1 -->
<svg width="856pt" height="355pt"
 viewBox="0.00 0.00 855.88 355.00" xmlns="http://www.w3.org/2000/svg" xmlns:xlink="http://www.w3.org/1999/xlink">
<g id="graph0" class="graph" transform="scale(1 1) rotate(0) translate(4 351)">
<title>discover_wf</title>
<polygon fill="#ffffff" stroke="transparent" points="-4,4 -4,-351 851.8777,-351 851.8777,4 -4,4"/>
<text text-anchor="middle" x="423.9389" y="-7.8" font-family="Times,serif" font-size="14.00" fill="#000000">discover_wf</text>
<!-- discover_wf_inputnode -->
<g id="node1" class="node">
<title>discover_wf_inputnode</title>
<ellipse fill="#ffffc8" stroke="#000000" cx="369.9885" cy="-329" rx="77.1866" ry="18"/>
<text text-anchor="middle" x="369.9885" y="-325.3" font-family="Times,serif" font-size="14.00" fill="#000000">inputnode (utility)</text>
</g>
<!-- discover_wf_add_motion_headers -->
<g id="node2" class="node">
<title>discover_wf_add_motion_headers</title>
<ellipse fill="#ffffc8" stroke="#000000" cx="129.9885" cy="-185" rx="129.9769" ry="18"/>
<text text-anchor="middle" x="129.9885" y="-181.3" font-family="Times,serif" font-size="14.00" fill="#000000">add_motion_headers (interfaces)</text>
</g>
<!-- discover_wf_inputnode&#45;&gt;discover_wf_add_motion_headers -->
<g id="edge4" class="edge">
<title>discover_wf_inputnode&#45;&gt;discover_wf_add_motion_headers</title>
<path fill="none" stroke="#000000" d="M307.3773,-318.2804C273.6675,-310.3211 232.6331,-296.9324 200.9885,-275 177.3,-258.5819 157.6914,-231.9374 145.1274,-211.891"/>
<polygon fill="#000000" stroke="#000000" points="148.0386,-209.9416 139.8611,-203.2052 142.0529,-213.5708 148.0386,-209.9416"/>
</g>
<!-- discover_wf_fdisp -->
<g id="node3" class="node">
<title>discover_wf_fdisp</title>
<ellipse fill="#ffffc8" stroke="#000000" cx="284.9885" cy="-257" rx="75.2868" ry="18"/>
<text text-anchor="middle" x="284.9885" y="-253.3" font-family="Times,serif" font-size="14.00" fill="#000000">fdisp (confounds)</text>
</g>
<!-- discover_wf_inputnode&#45;&gt;discover_wf_fdisp -->
<g id="edge3" class="edge">
<title>discover_wf_inputnode&#45;&gt;discover_wf_fdisp</title>
<path fill="none" stroke="#000000" d="M349.4123,-311.5708C338.6338,-302.4408 325.2646,-291.1163 313.5035,-281.1539"/>
<polygon fill="#000000" stroke="#000000" points="315.5624,-278.3111 305.6697,-274.5182 311.038,-283.6524 315.5624,-278.3111"/>
</g>
<!-- discover_wf_dvars -->
<g id="node4" class="node">
<title>discover_wf_dvars</title>
<ellipse fill="#ffffc8" stroke="#000000" cx="454.9885" cy="-257" rx="76.8869" ry="18"/>
<text text-anchor="middle" x="454.9885" y="-253.3" font-family="Times,serif" font-size="14.00" fill="#000000">dvars (confounds)</text>
</g>
<!-- discover_wf_inputnode&#45;&gt;discover_wf_dvars -->
<g id="edge1" class="edge">
<title>discover_wf_inputnode&#45;&gt;discover_wf_dvars</title>
<path fill="none" stroke="#000000" d="M385.084,-311.2022C395.1214,-301.9106 408.5312,-290.4237 420.9711,-280.4194"/>
<polygon fill="#000000" stroke="#000000" points="423.2907,-283.0472 428.9607,-274.0972 418.947,-277.5579 423.2907,-283.0472"/>
</g>
<!-- discover_wf_inputnode&#45;&gt;discover_wf_dvars -->
<g id="edge2" class="edge">
<title>discover_wf_inputnode&#45;&gt;discover_wf_dvars</title>
<path fill="none" stroke="#000000" d="M395.9722,-311.937C407.5971,-302.9021 421.0909,-291.6425 432.3041,-281.6733"/>
<polygon fill="#000000" stroke="#000000" points="434.9474,-284.0013 440.0067,-274.6924 430.2466,-278.8145 434.9474,-284.0013"/>
</g>
<!-- discover_wf_concat -->
<g id="node7" class="node">
<title>discover_wf_concat</title>
<ellipse fill="#ffffc8" stroke="#000000" cx="369.9885" cy="-113" rx="80.6858" ry="18"/>
<text text-anchor="middle" x="369.9885" y="-109.3" font-family="Times,serif" font-size="14.00" fill="#000000">concat (confounds)</text>
</g>
<!-- discover_wf_add_motion_headers&#45;&gt;discover_wf_concat -->
<g id="edge5" class="edge">
<title>discover_wf_add_motion_headers&#45;&gt;discover_wf_concat</title>
<path fill="none" stroke="#000000" d="M184.7485,-168.572C222.5939,-157.2184 272.8777,-142.1332 311.5052,-130.545"/>
<polygon fill="#000000" stroke="#000000" points="312.9917,-133.7532 321.5642,-127.5273 310.9802,-127.0484 312.9917,-133.7532"/>
</g>
<!-- discover_wf_fdisp&#45;&gt;discover_wf_concat -->
<g id="edge6" class="edge">
<title>discover_wf_fdisp&#45;&gt;discover_wf_concat</title>
<path fill="none" stroke="#000000" d="M286.155,-238.8414C288.097,-219.7176 293.2629,-189.3389 306.9885,-167 314.1999,-155.2631 324.8141,-144.76 335.2829,-136.2065"/>
<polygon fill="#000000" stroke="#000000" points="337.4497,-138.9553 343.2013,-130.0575 333.1564,-133.4265 337.4497,-138.9553"/>
</g>
<!-- discover_wf_add_std_dvars_header -->
<g id="node5" class="node">
<title>discover_wf_add_std_dvars_header</title>
<ellipse fill="#ffffc8" stroke="#000000" cx="451.9885" cy="-185" rx="135.6761" ry="18"/>
<text text-anchor="middle" x="451.9885" y="-181.3" font-family="Times,serif" font-size="14.00" fill="#000000">add_std_dvars_header (interfaces)</text>
</g>
<!-- discover_wf_dvars&#45;&gt;discover_wf_add_std_dvars_header -->
<g id="edge8" class="edge">
<title>discover_wf_dvars&#45;&gt;discover_wf_add_std_dvars_header</title>
<path fill="none" stroke="#000000" d="M454.2314,-238.8314C453.9106,-231.131 453.5291,-221.9743 453.1725,-213.4166"/>
<polygon fill="#000000" stroke="#000000" points="456.6691,-213.2589 452.7557,-203.4133 449.6751,-213.5503 456.6691,-213.2589"/>
</g>
<!-- discover_wf_add_dvars_header -->
<g id="node6" class="node">
<title>discover_wf_add_dvars_header</title>
<ellipse fill="#ffffc8" stroke="#000000" cx="726.9885" cy="-185" rx="120.7786" ry="18"/>
<text text-anchor="middle" x="726.9885" y="-181.3" font-family="Times,serif" font-size="14.00" fill="#000000">add_dvars_header (interfaces)</text>
</g>
<!-- discover_wf_dvars&#45;&gt;discover_wf_add_dvars_header -->
<g id="edge7" class="edge">
<title>discover_wf_dvars&#45;&gt;discover_wf_add_dvars_header</title>
<path fill="none" stroke="#000000" d="M506.1496,-243.4574C548.9635,-232.1243 610.4544,-215.8473 657.6835,-203.3454"/>
<polygon fill="#000000" stroke="#000000" points="658.7619,-206.6806 667.5333,-200.7381 656.9706,-199.9137 658.7619,-206.6806"/>
</g>
<!-- discover_wf_add_std_dvars_header&#45;&gt;discover_wf_concat -->
<g id="edge9" class="edge">
<title>discover_wf_add_std_dvars_header&#45;&gt;discover_wf_concat</title>
<path fill="none" stroke="#000000" d="M431.2964,-166.8314C421.141,-157.9144 408.7616,-147.0447 397.7928,-137.4135"/>
<polygon fill="#000000" stroke="#000000" points="399.9307,-134.633 390.107,-130.665 395.3121,-139.8931 399.9307,-134.633"/>
</g>
<!-- discover_wf_add_dvars_header&#45;&gt;discover_wf_concat -->
<g id="edge10" class="edge">
<title>discover_wf_add_dvars_header&#45;&gt;discover_wf_concat</title>
<path fill="none" stroke="#000000" d="M655.1736,-170.5163C592.4891,-157.8741 502.0787,-139.6401 439.9489,-127.1097"/>
<polygon fill="#000000" stroke="#000000" points="440.3398,-123.6181 429.8452,-125.0719 438.9558,-130.4799 440.3398,-123.6181"/>
</g>
<!-- discover_wf_outputnode -->
<g id="node8" class="node">
<title>discover_wf_outputnode</title>
<ellipse fill="#ffffc8" stroke="#000000" cx="369.9885" cy="-41" rx="81.7856" ry="18"/>
<text text-anchor="middle" x="369.9885" y="-37.3" font-family="Times,serif" font-size="14.00" fill="#000000">outputnode (utility)</text>
</g>
<!-- discover_wf_concat&#45;&gt;discover_wf_outputnode -->
<g id="edge11" class="edge">
<title>discover_wf_concat&#45;&gt;discover_wf_outputnode</title>
<path fill="none" stroke="#000000" d="M369.9885,-94.8314C369.9885,-87.131 369.9885,-77.9743 369.9885,-69.4166"/>
<polygon fill="#000000" stroke="#000000" points="373.4886,-69.4132 369.9885,-59.4133 366.4886,-69.4133 373.4886,-69.4132"/>
</g>
</g>
</svg>
