<?xml version="1.0" encoding="UTF-8" standalone="no"?>
<!DOCTYPE svg PUBLIC "-//W3C//DTD SVG 1.1//EN"
 "http://www.w3.org/Graphics/SVG/1.1/DTD/svg11.dtd">
<!-- Generated by graphviz version 2.40.1 (20161225.0304)
 -->
<!-- Title: structs Pages: 1 -->
<svg width="1321pt" height="778pt"
 viewBox="0.00 0.00 1320.83 778.00" xmlns="http://www.w3.org/2000/svg" xmlns:xlink="http://www.w3.org/1999/xlink">
<g id="graph0" class="graph" transform="scale(1 1) rotate(0) translate(4 774)">
<title>structs</title>
<polygon fill="#ffffff" stroke="transparent" points="-4,4 -4,-774 1316.8317,-774 1316.8317,4 -4,4"/>
<!-- bold_t1_trans_wfinputnode -->
<g id="node1" class="node">
<title>bold_t1_trans_wfinputnode</title>
<polygon fill="none" stroke="#000000" points="160.4791,-516.5 160.4791,-769.5 363.4791,-769.5 363.4791,-516.5 160.4791,-516.5"/>
<text text-anchor="middle" x="175.9791" y="-639.3" font-family="Times,serif" font-size="14.00" fill="#000000">IN</text>
<polyline fill="none" stroke="#000000" points="191.4791,-516.5 191.4791,-769.5 "/>
<text text-anchor="middle" x="227.4791" y="-723.8" font-family="Times,serif" font-size="14.00" fill="#000000">inputnode</text>
<polyline fill="none" stroke="#000000" points="191.4791,-685.5 263.4791,-685.5 "/>
<text text-anchor="middle" x="227.4791" y="-639.8" font-family="Times,serif" font-size="14.00" fill="#000000">utility</text>
<polyline fill="none" stroke="#000000" points="191.4791,-601.5 263.4791,-601.5 "/>
<text text-anchor="middle" x="227.4791" y="-555.3" font-family="Times,serif" font-size="14.00" fill="#000000"> </text>
<polyline fill="none" stroke="#000000" points="263.4791,-516.5 263.4791,-769.5 "/>
<text text-anchor="middle" x="313.4791" y="-754.3" font-family="Times,serif" font-size="14.00" fill="#000000">OUT</text>
<polyline fill="none" stroke="#000000" points="263.4791,-746.5 363.4791,-746.5 "/>
<text text-anchor="middle" x="313.4791" y="-731.3" font-family="Times,serif" font-size="14.00" fill="#000000">bold_split</text>
<polyline fill="none" stroke="#000000" points="263.4791,-723.5 363.4791,-723.5 "/>
<text text-anchor="middle" x="313.4791" y="-708.3" font-family="Times,serif" font-size="14.00" fill="#000000">hmc_xforms</text>
<polyline fill="none" stroke="#000000" points="263.4791,-700.5 363.4791,-700.5 "/>
<text text-anchor="middle" x="313.4791" y="-685.3" font-family="Times,serif" font-size="14.00" fill="#000000">itk_bold_to_t1</text>
<polyline fill="none" stroke="#000000" points="263.4791,-677.5 363.4791,-677.5 "/>
<text text-anchor="middle" x="313.4791" y="-662.3" font-family="Times,serif" font-size="14.00" fill="#000000">name_source</text>
<polyline fill="none" stroke="#000000" points="263.4791,-654.5 363.4791,-654.5 "/>
<text text-anchor="middle" x="313.4791" y="-639.3" font-family="Times,serif" font-size="14.00" fill="#000000">ref_bold_brain</text>
<polyline fill="none" stroke="#000000" points="263.4791,-631.5 363.4791,-631.5 "/>
<text text-anchor="middle" x="313.4791" y="-616.3" font-family="Times,serif" font-size="14.00" fill="#000000">ref_bold_mask</text>
<polyline fill="none" stroke="#000000" points="263.4791,-608.5 363.4791,-608.5 "/>
<text text-anchor="middle" x="313.4791" y="-593.3" font-family="Times,serif" font-size="14.00" fill="#000000">t1w_aparc</text>
<polyline fill="none" stroke="#000000" points="263.4791,-585.5 363.4791,-585.5 "/>
<text text-anchor="middle" x="313.4791" y="-570.3" font-family="Times,serif" font-size="14.00" fill="#000000">t1w_aseg</text>
<polyline fill="none" stroke="#000000" points="263.4791,-562.5 363.4791,-562.5 "/>
<text text-anchor="middle" x="313.4791" y="-547.3" font-family="Times,serif" font-size="14.00" fill="#000000">t1w_brain</text>
<polyline fill="none" stroke="#000000" points="263.4791,-539.5 363.4791,-539.5 "/>
<text text-anchor="middle" x="313.4791" y="-524.3" font-family="Times,serif" font-size="14.00" fill="#000000">t1w_mask</text>
</g>
<!-- bold_t1_trans_wfmerge_xforms -->
<g id="node2" class="node">
<title>bold_t1_trans_wfmerge_xforms</title>
<polygon fill="none" stroke="#000000" points="120.4791,-399 120.4791,-468 297.4791,-468 297.4791,-399 120.4791,-399"/>
<text text-anchor="middle" x="137.4791" y="-452.8" font-family="Times,serif" font-size="14.00" fill="#000000">IN</text>
<polyline fill="none" stroke="#000000" points="120.4791,-445 154.4791,-445 "/>
<text text-anchor="middle" x="137.4791" y="-429.8" font-family="Times,serif" font-size="14.00" fill="#000000">in1</text>
<polyline fill="none" stroke="#000000" points="120.4791,-422 154.4791,-422 "/>
<text text-anchor="middle" x="137.4791" y="-406.8" font-family="Times,serif" font-size="14.00" fill="#000000">in2</text>
<polyline fill="none" stroke="#000000" points="154.4791,-399 154.4791,-468 "/>
<text text-anchor="middle" x="203.4791" y="-452.8" font-family="Times,serif" font-size="14.00" fill="#000000">merge_xforms</text>
<polyline fill="none" stroke="#000000" points="154.4791,-445 252.4791,-445 "/>
<text text-anchor="middle" x="203.4791" y="-429.8" font-family="Times,serif" font-size="14.00" fill="#000000">utility</text>
<polyline fill="none" stroke="#000000" points="154.4791,-422 252.4791,-422 "/>
<text text-anchor="middle" x="203.4791" y="-406.8" font-family="Times,serif" font-size="14.00" fill="#000000"> </text>
<polyline fill="none" stroke="#000000" points="252.4791,-399 252.4791,-468 "/>
<text text-anchor="middle" x="274.9791" y="-447.3" font-family="Times,serif" font-size="14.00" fill="#000000">OUT</text>
<polyline fill="none" stroke="#000000" points="252.4791,-434 297.4791,-434 "/>
<text text-anchor="middle" x="274.9791" y="-412.8" font-family="Times,serif" font-size="14.00" fill="#000000">out</text>
</g>
<!-- bold_t1_trans_wfinputnode&#45;&gt;bold_t1_trans_wfmerge_xforms -->
<g id="edge9" class="edge">
<title>bold_t1_trans_wfinputnode:e&#45;&gt;bold_t1_trans_wfmerge_xforms:w</title>
<path fill="none" stroke="#000000" d="M363.9791,-712C451.0902,-712 419.3791,-583.2249 363.9791,-516 293.717,-430.7409 190.2411,-553.7591 119.9791,-468.5 106.2748,-451.8706 97.4691,-422.5136 110.0065,-413.3284"/>
<polygon fill="#000000" stroke="#000000" points="111.3136,-416.5958 119.9791,-410.5 109.4035,-409.8615 111.3136,-416.5958"/>
</g>
<!-- bold_t1_trans_wfinputnode&#45;&gt;bold_t1_trans_wfmerge_xforms -->
<g id="edge11" class="edge">
<title>bold_t1_trans_wfinputnode:e&#45;&gt;bold_t1_trans_wfmerge_xforms:w</title>
<path fill="none" stroke="#000000" d="M363.9791,-689C440.868,-689 412.8781,-575.3362 363.9791,-516 293.717,-430.7409 190.2411,-553.7591 119.9791,-468.5 113.0232,-460.0594 108.1586,-446.1849 111.2906,-438.6909"/>
<polygon fill="#000000" stroke="#000000" points="113.1896,-441.6335 119.9791,-433.5 109.5994,-435.6242 113.1896,-441.6335"/>
</g>
<!-- bold_t1_trans_wfgen_ref -->
<g id="node3" class="node">
<title>bold_t1_trans_wfgen_ref</title>
<polygon fill="none" stroke="#000000" points="391.9791,-387.5 391.9791,-479.5 621.9791,-479.5 621.9791,-387.5 391.9791,-387.5"/>
<text text-anchor="middle" x="441.9791" y="-464.3" font-family="Times,serif" font-size="14.00" fill="#000000">IN</text>
<polyline fill="none" stroke="#000000" points="391.9791,-456.5 491.9791,-456.5 "/>
<text text-anchor="middle" x="441.9791" y="-441.3" font-family="Times,serif" font-size="14.00" fill="#000000">fixed_image</text>
<polyline fill="none" stroke="#000000" points="391.9791,-433.5 491.9791,-433.5 "/>
<text text-anchor="middle" x="441.9791" y="-418.3" font-family="Times,serif" font-size="14.00" fill="#000000">fov_mask</text>
<polyline fill="none" stroke="#000000" points="391.9791,-410.5 491.9791,-410.5 "/>
<text text-anchor="middle" x="441.9791" y="-395.3" font-family="Times,serif" font-size="14.00" fill="#000000">moving_image</text>
<polyline fill="none" stroke="#000000" points="491.9791,-387.5 491.9791,-479.5 "/>
<text text-anchor="middle" x="527.4791" y="-460.8" font-family="Times,serif" font-size="14.00" fill="#000000">gen_ref</text>
<polyline fill="none" stroke="#000000" points="491.9791,-449.5 562.9791,-449.5 "/>
<text text-anchor="middle" x="527.4791" y="-430.3" font-family="Times,serif" font-size="14.00" fill="#000000">interfaces</text>
<polyline fill="none" stroke="#000000" points="491.9791,-418.5 562.9791,-418.5 "/>
<text text-anchor="middle" x="527.4791" y="-399.3" font-family="Times,serif" font-size="14.00" fill="#000000"> </text>
<polyline fill="none" stroke="#000000" points="562.9791,-387.5 562.9791,-479.5 "/>
<text text-anchor="middle" x="592.4791" y="-452.8" font-family="Times,serif" font-size="14.00" fill="#000000">OUT</text>
<polyline fill="none" stroke="#000000" points="562.9791,-433.5 621.9791,-433.5 "/>
<text text-anchor="middle" x="592.4791" y="-406.8" font-family="Times,serif" font-size="14.00" fill="#000000">out_file</text>
</g>
<!-- bold_t1_trans_wfinputnode&#45;&gt;bold_t1_trans_wfgen_ref -->
<g id="edge13" class="edge">
<title>bold_t1_trans_wfinputnode:e&#45;&gt;bold_t1_trans_wfgen_ref:w</title>
<path fill="none" stroke="#000000" d="M363.9791,-643C388.4928,-643 369.5812,-446.4992 385.1045,-405.8174"/>
<polygon fill="#000000" stroke="#000000" points="387.6828,-408.1847 391.9791,-398.5 382.5811,-403.3917 387.6828,-408.1847"/>
</g>
<!-- bold_t1_trans_wfinputnode&#45;&gt;bold_t1_trans_wfgen_ref -->
<g id="edge17" class="edge">
<title>bold_t1_trans_wfinputnode:e&#45;&gt;bold_t1_trans_wfgen_ref:w</title>
<path fill="none" stroke="#000000" d="M363.9791,-551C384.6347,-551 372.8261,-474.4958 383.8439,-451.7836"/>
<polygon fill="#000000" stroke="#000000" points="386.2044,-454.3828 391.9791,-445.5 381.9254,-448.8429 386.2044,-454.3828"/>
</g>
<!-- bold_t1_trans_wfinputnode&#45;&gt;bold_t1_trans_wfgen_ref -->
<g id="edge18" class="edge">
<title>bold_t1_trans_wfinputnode:e&#45;&gt;bold_t1_trans_wfgen_ref:w</title>
<path fill="none" stroke="#000000" d="M363.9791,-528C386.2013,-528 372.2802,-501.4791 377.9791,-480 380.5501,-470.31 379.6206,-442.2487 384.6344,-428.8237"/>
<polygon fill="#000000" stroke="#000000" points="387.3692,-431.0394 391.9791,-421.5 382.4265,-426.0826 387.3692,-431.0394"/>
</g>
<!-- bold_t1_trans_wfbold_to_t1w_transform -->
<g id="node4" class="node">
<title>bold_t1_trans_wfbold_to_t1w_transform</title>
<polygon fill="none" stroke="#000000" points="21.9791,-258.5 21.9791,-350.5 345.9791,-350.5 345.9791,-258.5 21.9791,-258.5"/>
<text text-anchor="middle" x="76.9791" y="-335.3" font-family="Times,serif" font-size="14.00" fill="#000000">IN</text>
<polyline fill="none" stroke="#000000" points="21.9791,-327.5 131.9791,-327.5 "/>
<text text-anchor="middle" x="76.9791" y="-312.3" font-family="Times,serif" font-size="14.00" fill="#000000">input_image</text>
<polyline fill="none" stroke="#000000" points="21.9791,-304.5 131.9791,-304.5 "/>
<text text-anchor="middle" x="76.9791" y="-289.3" font-family="Times,serif" font-size="14.00" fill="#000000">reference_image</text>
<polyline fill="none" stroke="#000000" points="21.9791,-281.5 131.9791,-281.5 "/>
<text text-anchor="middle" x="76.9791" y="-266.3" font-family="Times,serif" font-size="14.00" fill="#000000">transforms</text>
<polyline fill="none" stroke="#000000" points="131.9791,-258.5 131.9791,-350.5 "/>
<text text-anchor="middle" x="206.4791" y="-331.8" font-family="Times,serif" font-size="14.00" fill="#000000">bold_to_t1w_transform</text>
<polyline fill="none" stroke="#000000" points="131.9791,-320.5 280.9791,-320.5 "/>
<text text-anchor="middle" x="206.4791" y="-301.3" font-family="Times,serif" font-size="14.00" fill="#000000">interfaces</text>
<polyline fill="none" stroke="#000000" points="131.9791,-289.5 280.9791,-289.5 "/>
<text text-anchor="middle" x="206.4791" y="-270.3" font-family="Times,serif" font-size="14.00" fill="#000000"> </text>
<polyline fill="none" stroke="#000000" points="280.9791,-258.5 280.9791,-350.5 "/>
<text text-anchor="middle" x="313.4791" y="-323.8" font-family="Times,serif" font-size="14.00" fill="#000000">OUT</text>
<polyline fill="none" stroke="#000000" points="280.9791,-304.5 345.9791,-304.5 "/>
<text text-anchor="middle" x="313.4791" y="-277.8" font-family="Times,serif" font-size="14.00" fill="#000000">out_files</text>
</g>
<!-- bold_t1_trans_wfinputnode&#45;&gt;bold_t1_trans_wfbold_to_t1w_transform -->
<g id="edge8" class="edge">
<title>bold_t1_trans_wfinputnode:e&#45;&gt;bold_t1_trans_wfbold_to_t1w_transform:w</title>
<path fill="none" stroke="#000000" d="M363.9791,-735C461.3124,-735 427.752,-589.5309 363.9791,-516 289.8515,-430.5301 208.3267,-539.3055 111.9791,-480 80.5227,-460.6374 .8109,-346.0741 13.05,-321.245"/>
<polygon fill="#000000" stroke="#000000" points="14.791,-324.2834 21.9791,-316.5 11.5061,-318.102 14.791,-324.2834"/>
</g>
<!-- bold_t1_trans_wfmerge -->
<g id="node5" class="node">
<title>bold_t1_trans_wfmerge</title>
<polygon fill="none" stroke="#000000" points="360.4791,-152.5 360.4791,-221.5 587.4791,-221.5 587.4791,-152.5 360.4791,-152.5"/>
<text text-anchor="middle" x="408.9791" y="-206.3" font-family="Times,serif" font-size="14.00" fill="#000000">IN</text>
<polyline fill="none" stroke="#000000" points="360.4791,-198.5 457.4791,-198.5 "/>
<text text-anchor="middle" x="408.9791" y="-183.3" font-family="Times,serif" font-size="14.00" fill="#000000">header_source</text>
<polyline fill="none" stroke="#000000" points="360.4791,-175.5 457.4791,-175.5 "/>
<text text-anchor="middle" x="408.9791" y="-160.3" font-family="Times,serif" font-size="14.00" fill="#000000">in_files</text>
<polyline fill="none" stroke="#000000" points="457.4791,-152.5 457.4791,-221.5 "/>
<text text-anchor="middle" x="492.9791" y="-206.3" font-family="Times,serif" font-size="14.00" fill="#000000">merge</text>
<polyline fill="none" stroke="#000000" points="457.4791,-198.5 528.4791,-198.5 "/>
<text text-anchor="middle" x="492.9791" y="-183.3" font-family="Times,serif" font-size="14.00" fill="#000000">interfaces</text>
<polyline fill="none" stroke="#000000" points="457.4791,-175.5 528.4791,-175.5 "/>
<text text-anchor="middle" x="492.9791" y="-160.3" font-family="Times,serif" font-size="14.00" fill="#000000"> </text>
<polyline fill="none" stroke="#000000" points="528.4791,-152.5 528.4791,-221.5 "/>
<text text-anchor="middle" x="557.9791" y="-200.8" font-family="Times,serif" font-size="14.00" fill="#000000">OUT</text>
<polyline fill="none" stroke="#000000" points="528.4791,-187.5 587.4791,-187.5 "/>
<text text-anchor="middle" x="557.9791" y="-166.3" font-family="Times,serif" font-size="14.00" fill="#000000">out_file</text>
</g>
<!-- bold_t1_trans_wfinputnode&#45;&gt;bold_t1_trans_wfmerge -->
<g id="edge12" class="edge">
<title>bold_t1_trans_wfinputnode:e&#45;&gt;bold_t1_trans_wfmerge:w</title>
<path fill="none" stroke="#000000" d="M363.9791,-666C430.6457,-666 408.4901,-565.6308 363.9791,-516 314.7265,-461.0822 87.4978,-530.7693 33.9791,-480 -8.1636,-440.0223 17.661,-408.8991 12.9791,-351 9.6476,-309.8011 -13.1549,-290.0228 12.9791,-258 60.752,-199.4624 264.0418,-187.8841 349.8722,-187.0508"/>
<polygon fill="#000000" stroke="#000000" points="349.9968,-190.5503 359.9791,-187 349.9616,-183.5504 349.9968,-190.5503"/>
</g>
<!-- bold_t1_trans_wfaparc_t1w_tfm -->
<g id="node6" class="node">
<title>bold_t1_trans_wfaparc_t1w_tfm</title>
<polygon fill="none" stroke="#000000" points="685.9791,-270 685.9791,-339 989.9791,-339 989.9791,-270 685.9791,-270"/>
<text text-anchor="middle" x="740.9791" y="-323.8" font-family="Times,serif" font-size="14.00" fill="#000000">IN</text>
<polyline fill="none" stroke="#000000" points="685.9791,-316 795.9791,-316 "/>
<text text-anchor="middle" x="740.9791" y="-300.8" font-family="Times,serif" font-size="14.00" fill="#000000">input_image</text>
<polyline fill="none" stroke="#000000" points="685.9791,-293 795.9791,-293 "/>
<text text-anchor="middle" x="740.9791" y="-277.8" font-family="Times,serif" font-size="14.00" fill="#000000">reference_image</text>
<polyline fill="none" stroke="#000000" points="795.9791,-270 795.9791,-339 "/>
<text text-anchor="middle" x="846.4791" y="-323.8" font-family="Times,serif" font-size="14.00" fill="#000000">aparc_t1w_tfm</text>
<polyline fill="none" stroke="#000000" points="795.9791,-316 896.9791,-316 "/>
<text text-anchor="middle" x="846.4791" y="-300.8" font-family="Times,serif" font-size="14.00" fill="#000000">interfaces</text>
<polyline fill="none" stroke="#000000" points="795.9791,-293 896.9791,-293 "/>
<text text-anchor="middle" x="846.4791" y="-277.8" font-family="Times,serif" font-size="14.00" fill="#000000"> </text>
<polyline fill="none" stroke="#000000" points="896.9791,-270 896.9791,-339 "/>
<text text-anchor="middle" x="943.4791" y="-318.3" font-family="Times,serif" font-size="14.00" fill="#000000">OUT</text>
<polyline fill="none" stroke="#000000" points="896.9791,-305 989.9791,-305 "/>
<text text-anchor="middle" x="943.4791" y="-283.8" font-family="Times,serif" font-size="14.00" fill="#000000">output_image</text>
</g>
<!-- bold_t1_trans_wfinputnode&#45;&gt;bold_t1_trans_wfaparc_t1w_tfm -->
<g id="edge15" class="edge">
<title>bold_t1_trans_wfinputnode:e&#45;&gt;bold_t1_trans_wfaparc_t1w_tfm:w</title>
<path fill="none" stroke="#000000" d="M363.9791,-597C493.539,-597 542.6504,-574.783 630.9791,-480 672.4774,-435.4694 660.9277,-409.7149 676.9791,-351 678.9089,-343.9408 677.4177,-324.2174 679.868,-312.8538"/>
<polygon fill="#000000" stroke="#000000" points="682.8997,-314.6375 685.9791,-304.5 677.25,-310.5045 682.8997,-314.6375"/>
</g>
<!-- bold_t1_trans_wfaseg_t1w_tfm -->
<g id="node7" class="node">
<title>bold_t1_trans_wfaseg_t1w_tfm</title>
<polygon fill="none" stroke="#000000" points="1008.4791,-270 1008.4791,-339 1307.4791,-339 1307.4791,-270 1008.4791,-270"/>
<text text-anchor="middle" x="1063.4791" y="-323.8" font-family="Times,serif" font-size="14.00" fill="#000000">IN</text>
<polyline fill="none" stroke="#000000" points="1008.4791,-316 1118.4791,-316 "/>
<text text-anchor="middle" x="1063.4791" y="-300.8" font-family="Times,serif" font-size="14.00" fill="#000000">input_image</text>
<polyline fill="none" stroke="#000000" points="1008.4791,-293 1118.4791,-293 "/>
<text text-anchor="middle" x="1063.4791" y="-277.8" font-family="Times,serif" font-size="14.00" fill="#000000">reference_image</text>
<polyline fill="none" stroke="#000000" points="1118.4791,-270 1118.4791,-339 "/>
<text text-anchor="middle" x="1166.4791" y="-323.8" font-family="Times,serif" font-size="14.00" fill="#000000">aseg_t1w_tfm</text>
<polyline fill="none" stroke="#000000" points="1118.4791,-316 1214.4791,-316 "/>
<text text-anchor="middle" x="1166.4791" y="-300.8" font-family="Times,serif" font-size="14.00" fill="#000000">interfaces</text>
<polyline fill="none" stroke="#000000" points="1118.4791,-293 1214.4791,-293 "/>
<text text-anchor="middle" x="1166.4791" y="-277.8" font-family="Times,serif" font-size="14.00" fill="#000000"> </text>
<polyline fill="none" stroke="#000000" points="1214.4791,-270 1214.4791,-339 "/>
<text text-anchor="middle" x="1260.9791" y="-318.3" font-family="Times,serif" font-size="14.00" fill="#000000">OUT</text>
<polyline fill="none" stroke="#000000" points="1214.4791,-305 1307.4791,-305 "/>
<text text-anchor="middle" x="1260.9791" y="-283.8" font-family="Times,serif" font-size="14.00" fill="#000000">output_image</text>
</g>
<!-- bold_t1_trans_wfinputnode&#45;&gt;bold_t1_trans_wfaseg_t1w_tfm -->
<g id="edge16" class="edge">
<title>bold_t1_trans_wfinputnode:e&#45;&gt;bold_t1_trans_wfaseg_t1w_tfm:w</title>
<path fill="none" stroke="#000000" d="M363.9791,-574C513.5388,-574 902.9504,-465.6585 998.9791,-351 1008.9048,-339.1487 997.7533,-319.6262 999.4658,-310.0911"/>
<polygon fill="#000000" stroke="#000000" points="1001.5419,-312.9151 1007.9791,-304.5 997.6992,-307.0641 1001.5419,-312.9151"/>
</g>
<!-- bold_t1_trans_wfmask_t1w_tfm -->
<g id="node8" class="node">
<title>bold_t1_trans_wfmask_t1w_tfm</title>
<polygon fill="none" stroke="#000000" points="364.4791,-258.5 364.4791,-350.5 667.4791,-350.5 667.4791,-258.5 364.4791,-258.5"/>
<text text-anchor="middle" x="419.4791" y="-335.3" font-family="Times,serif" font-size="14.00" fill="#000000">IN</text>
<polyline fill="none" stroke="#000000" points="364.4791,-327.5 474.4791,-327.5 "/>
<text text-anchor="middle" x="419.4791" y="-312.3" font-family="Times,serif" font-size="14.00" fill="#000000">input_image</text>
<polyline fill="none" stroke="#000000" points="364.4791,-304.5 474.4791,-304.5 "/>
<text text-anchor="middle" x="419.4791" y="-289.3" font-family="Times,serif" font-size="14.00" fill="#000000">reference_image</text>
<polyline fill="none" stroke="#000000" points="364.4791,-281.5 474.4791,-281.5 "/>
<text text-anchor="middle" x="419.4791" y="-266.3" font-family="Times,serif" font-size="14.00" fill="#000000">transforms</text>
<polyline fill="none" stroke="#000000" points="474.4791,-258.5 474.4791,-350.5 "/>
<text text-anchor="middle" x="524.4791" y="-331.8" font-family="Times,serif" font-size="14.00" fill="#000000">mask_t1w_tfm</text>
<polyline fill="none" stroke="#000000" points="474.4791,-320.5 574.4791,-320.5 "/>
<text text-anchor="middle" x="524.4791" y="-301.3" font-family="Times,serif" font-size="14.00" fill="#000000">interfaces</text>
<polyline fill="none" stroke="#000000" points="474.4791,-289.5 574.4791,-289.5 "/>
<text text-anchor="middle" x="524.4791" y="-270.3" font-family="Times,serif" font-size="14.00" fill="#000000"> </text>
<polyline fill="none" stroke="#000000" points="574.4791,-258.5 574.4791,-350.5 "/>
<text text-anchor="middle" x="620.9791" y="-323.8" font-family="Times,serif" font-size="14.00" fill="#000000">OUT</text>
<polyline fill="none" stroke="#000000" points="574.4791,-304.5 667.4791,-304.5 "/>
<text text-anchor="middle" x="620.9791" y="-277.8" font-family="Times,serif" font-size="14.00" fill="#000000">output_image</text>
</g>
<!-- bold_t1_trans_wfinputnode&#45;&gt;bold_t1_trans_wfmask_t1w_tfm -->
<g id="edge10" class="edge">
<title>bold_t1_trans_wfinputnode:e&#45;&gt;bold_t1_trans_wfmask_t1w_tfm:w</title>
<path fill="none" stroke="#000000" d="M363.9791,-689C440.868,-689 378.1562,-591.5706 363.9791,-516 360.8137,-499.1271 353.1445,-496.8729 349.9791,-480 342.3578,-439.3754 347.1292,-428.235 349.9791,-387 351.0928,-370.8849 352.9812,-367.0296 354.9791,-351 355.8594,-343.937 355.2967,-298.1663 359.3527,-278.4796"/>
<polygon fill="#000000" stroke="#000000" points="362.5104,-279.9926 363.9791,-269.5 356.2877,-276.7865 362.5104,-279.9926"/>
</g>
<!-- bold_t1_trans_wfinputnode&#45;&gt;bold_t1_trans_wfmask_t1w_tfm -->
<g id="edge14" class="edge">
<title>bold_t1_trans_wfinputnode:e&#45;&gt;bold_t1_trans_wfmask_t1w_tfm:w</title>
<path fill="none" stroke="#000000" d="M363.9791,-620C379.0619,-620 353.6686,-377.1435 360.2134,-325.916"/>
<polygon fill="#000000" stroke="#000000" points="363.5155,-327.0847 363.9791,-316.5 357.016,-324.4854 363.5155,-327.0847"/>
</g>
<!-- bold_t1_trans_wfmerge_xforms&#45;&gt;bold_t1_trans_wfbold_to_t1w_transform -->
<g id="edge23" class="edge">
<title>bold_t1_trans_wfmerge_xforms:e&#45;&gt;bold_t1_trans_wfbold_to_t1w_transform:w</title>
<path fill="none" stroke="#000000" d="M297.9791,-416.5C305.9791,-416.5 303.1339,-404.6178 297.9791,-398.5 217.7759,-303.3147 102.1822,-446.1853 21.9791,-351 12.5428,-339.801 6.5253,-293.4262 14.1423,-276.0837"/>
<polygon fill="#000000" stroke="#000000" points="16.5738,-278.6123 21.9791,-269.5 12.0711,-273.2526 16.5738,-278.6123"/>
</g>
<!-- bold_t1_trans_wfgen_ref&#45;&gt;bold_t1_trans_wfbold_to_t1w_transform -->
<g id="edge6" class="edge">
<title>bold_t1_trans_wfgen_ref:e&#45;&gt;bold_t1_trans_wfbold_to_t1w_transform:w</title>
<path fill="none" stroke="#000000" d="M621.9791,-410.5C632.4235,-410.5 629.1398,-394.6033 621.9791,-387 530.4007,-289.7622 113.5574,-448.2378 21.9791,-351 15.2944,-343.9023 11.3243,-314.5449 15.2413,-300.3098"/>
<polygon fill="#000000" stroke="#000000" points="18.0969,-302.358 21.9791,-292.5 12.7967,-297.7853 18.0969,-302.358"/>
</g>
<!-- bold_t1_trans_wfgen_ref&#45;&gt;bold_t1_trans_wfaparc_t1w_tfm -->
<g id="edge4" class="edge">
<title>bold_t1_trans_wfgen_ref:e&#45;&gt;bold_t1_trans_wfaparc_t1w_tfm:w</title>
<path fill="none" stroke="#000000" d="M621.9791,-410.5C639.9849,-410.5 669.3513,-367.3103 676.9791,-351 682.0817,-340.0892 675.359,-304.4807 679.2562,-288.9057"/>
<polygon fill="#000000" stroke="#000000" points="681.8491,-291.2567 685.9791,-281.5 676.6661,-286.5517 681.8491,-291.2567"/>
</g>
<!-- bold_t1_trans_wfgen_ref&#45;&gt;bold_t1_trans_wfaseg_t1w_tfm -->
<g id="edge5" class="edge">
<title>bold_t1_trans_wfgen_ref:e&#45;&gt;bold_t1_trans_wfaseg_t1w_tfm:w</title>
<path fill="none" stroke="#000000" d="M621.9791,-410.5C643.1828,-410.5 984.1953,-366.1999 998.9791,-351 1007.2924,-342.4527 999.0227,-306.2538 1001.6789,-289.7551"/>
<polygon fill="#000000" stroke="#000000" points="1004.6945,-291.5729 1007.9791,-281.5 999.1299,-287.326 1004.6945,-291.5729"/>
</g>
<!-- bold_t1_trans_wfgen_ref&#45;&gt;bold_t1_trans_wfmask_t1w_tfm -->
<g id="edge7" class="edge">
<title>bold_t1_trans_wfgen_ref:e&#45;&gt;bold_t1_trans_wfmask_t1w_tfm:w</title>
<path fill="none" stroke="#000000" d="M621.9791,-410.5C632.4235,-410.5 628.8351,-394.8791 621.9791,-387 545.9791,-299.659 439.9791,-438.341 363.9791,-351 357.5789,-343.6447 353.4665,-314.4161 357.2947,-300.2615"/>
<polygon fill="#000000" stroke="#000000" points="360.1054,-302.3613 363.9791,-292.5 354.8013,-297.7933 360.1054,-302.3613"/>
</g>
<!-- bold_t1_trans_wfbold_to_t1w_transform&#45;&gt;bold_t1_trans_wfmerge -->
<g id="edge3" class="edge">
<title>bold_t1_trans_wfbold_to_t1w_transform:e&#45;&gt;bold_t1_trans_wfmerge:w</title>
<path fill="none" stroke="#000000" d="M345.9791,-281.5C368.4743,-281.5 343.4832,-195.5104 352.2519,-170.654"/>
<polygon fill="#000000" stroke="#000000" points="354.6852,-173.1775 359.9791,-164 350.1175,-167.8731 354.6852,-173.1775"/>
</g>
<!-- bold_t1_trans_wfbold_reference_wf -->
<g id="node9" class="node">
<title>bold_t1_trans_wfbold_reference_wf</title>
<polygon fill="none" stroke="#000000" points="615.9791,-23.5 615.9791,-92.5 919.9791,-92.5 919.9791,-23.5 615.9791,-23.5"/>
<text text-anchor="middle" x="684.4791" y="-77.3" font-family="Times,serif" font-size="14.00" fill="#000000">IN</text>
<polyline fill="none" stroke="#000000" points="615.9791,-69.5 752.9791,-69.5 "/>
<text text-anchor="middle" x="684.4791" y="-54.3" font-family="Times,serif" font-size="14.00" fill="#000000">inputnode.bold_file</text>
<polyline fill="none" stroke="#000000" points="615.9791,-46.5 752.9791,-46.5 "/>
<text text-anchor="middle" x="684.4791" y="-31.3" font-family="Times,serif" font-size="14.00" fill="#000000">inputnode.bold_mask</text>
<polyline fill="none" stroke="#000000" points="752.9791,-23.5 752.9791,-92.5 "/>
<text text-anchor="middle" x="813.9791" y="-77.3" font-family="Times,serif" font-size="14.00" fill="#000000">bold_reference_wf</text>
<polyline fill="none" stroke="#000000" points="752.9791,-69.5 874.9791,-69.5 "/>
<text text-anchor="middle" x="813.9791" y="-54.3" font-family="Times,serif" font-size="14.00" fill="#000000"> </text>
<polyline fill="none" stroke="#000000" points="752.9791,-46.5 874.9791,-46.5 "/>
<text text-anchor="middle" x="813.9791" y="-31.3" font-family="Times,serif" font-size="14.00" fill="#000000"> </text>
<polyline fill="none" stroke="#000000" points="874.9791,-23.5 874.9791,-92.5 "/>
<text text-anchor="middle" x="897.4791" y="-54.3" font-family="Times,serif" font-size="14.00" fill="#000000">OUT</text>
</g>
<!-- bold_t1_trans_wfmerge&#45;&gt;bold_t1_trans_wfbold_reference_wf -->
<g id="edge21" class="edge">
<title>bold_t1_trans_wfmerge:e&#45;&gt;bold_t1_trans_wfbold_reference_wf:w</title>
<path fill="none" stroke="#000000" d="M587.9791,-170C635.2803,-170 575.56,-74.8164 606.1391,-59.944"/>
<polygon fill="#000000" stroke="#000000" points="606.8471,-63.3718 615.9791,-58 605.4903,-56.5046 606.8471,-63.3718"/>
</g>
<!-- bold_t1_trans_wfoutputnode -->
<g id="node10" class="node">
<title>bold_t1_trans_wfoutputnode</title>
<polygon fill="none" stroke="#000000" points="971.4791,-.5 971.4791,-115.5 1192.4791,-115.5 1192.4791,-.5 971.4791,-.5"/>
<text text-anchor="middle" x="1019.9791" y="-100.3" font-family="Times,serif" font-size="14.00" fill="#000000">IN</text>
<polyline fill="none" stroke="#000000" points="971.4791,-92.5 1068.4791,-92.5 "/>
<text text-anchor="middle" x="1019.9791" y="-77.3" font-family="Times,serif" font-size="14.00" fill="#000000">bold_aparc_t1</text>
<polyline fill="none" stroke="#000000" points="971.4791,-69.5 1068.4791,-69.5 "/>
<text text-anchor="middle" x="1019.9791" y="-54.3" font-family="Times,serif" font-size="14.00" fill="#000000">bold_aseg_t1</text>
<polyline fill="none" stroke="#000000" points="971.4791,-46.5 1068.4791,-46.5 "/>
<text text-anchor="middle" x="1019.9791" y="-31.3" font-family="Times,serif" font-size="14.00" fill="#000000">bold_mask_t1</text>
<polyline fill="none" stroke="#000000" points="971.4791,-23.5 1068.4791,-23.5 "/>
<text text-anchor="middle" x="1019.9791" y="-8.3" font-family="Times,serif" font-size="14.00" fill="#000000">bold_t1</text>
<polyline fill="none" stroke="#000000" points="1068.4791,-.5 1068.4791,-115.5 "/>
<text text-anchor="middle" x="1107.9791" y="-92.8" font-family="Times,serif" font-size="14.00" fill="#000000">outputnode</text>
<polyline fill="none" stroke="#000000" points="1068.4791,-77.5 1147.4791,-77.5 "/>
<text text-anchor="middle" x="1107.9791" y="-54.8" font-family="Times,serif" font-size="14.00" fill="#000000">utility</text>
<polyline fill="none" stroke="#000000" points="1068.4791,-39.5 1147.4791,-39.5 "/>
<text text-anchor="middle" x="1107.9791" y="-16.3" font-family="Times,serif" font-size="14.00" fill="#000000"> </text>
<polyline fill="none" stroke="#000000" points="1147.4791,-.5 1147.4791,-115.5 "/>
<text text-anchor="middle" x="1169.9791" y="-54.3" font-family="Times,serif" font-size="14.00" fill="#000000">OUT</text>
</g>
<!-- bold_t1_trans_wfmerge&#45;&gt;bold_t1_trans_wfoutputnode -->
<g id="edge22" class="edge">
<title>bold_t1_trans_wfmerge:e&#45;&gt;bold_t1_trans_wfoutputnode:w</title>
<path fill="none" stroke="#000000" d="M587.9791,-170C627.9,-170 636.6442,-158.815 675.9791,-152 731.934,-142.3055 884.2618,-151.0044 928.9791,-116 965.1654,-87.6736 927.9626,-23.1892 960.9835,-13.2864"/>
<polygon fill="#000000" stroke="#000000" points="961.5077,-16.7479 970.9791,-12 960.6141,-9.8052 961.5077,-16.7479"/>
</g>
<!-- bold_t1_trans_wfaparc_t1w_tfm&#45;&gt;bold_t1_trans_wfoutputnode -->
<g id="edge1" class="edge">
<title>bold_t1_trans_wfaparc_t1w_tfm:e&#45;&gt;bold_t1_trans_wfoutputnode:w</title>
<path fill="none" stroke="#000000" d="M989.9791,-287.5C1010.1403,-287.5 962.8315,-129.3984 966.1251,-89.873"/>
<polygon fill="#000000" stroke="#000000" points="969.2504,-91.4529 970.9791,-81 963.1092,-88.0934 969.2504,-91.4529"/>
</g>
<!-- bold_t1_trans_wfaseg_t1w_tfm&#45;&gt;bold_t1_trans_wfoutputnode -->
<g id="edge2" class="edge">
<title>bold_t1_trans_wfaseg_t1w_tfm:e&#45;&gt;bold_t1_trans_wfoutputnode:w</title>
<path fill="none" stroke="#000000" d="M1307.9791,-287.5C1315.9791,-287.5 1312.3075,-276.2279 1307.9791,-269.5 1218.9302,-131.0878 1060.028,-254.4122 970.9791,-116 959.3201,-97.8779 949.1402,-69.5238 961.1717,-60.7079"/>
<polygon fill="#000000" stroke="#000000" points="962.2713,-64.0353 970.9791,-58 960.4082,-57.2878 962.2713,-64.0353"/>
</g>
<!-- bold_t1_trans_wfmask_t1w_tfm&#45;&gt;bold_t1_trans_wfbold_reference_wf -->
<g id="edge19" class="edge">
<title>bold_t1_trans_wfmask_t1w_tfm:e&#45;&gt;bold_t1_trans_wfbold_reference_wf:w</title>
<path fill="none" stroke="#000000" d="M667.9791,-281.5C678.4235,-281.5 669.5672,-268.323 667.9791,-258 656.2876,-182.0052 627.6706,-168.9948 615.9791,-93 612.7637,-72.1001 597.4774,-46.4602 606.3169,-37.9206"/>
<polygon fill="#000000" stroke="#000000" points="607.4196,-41.2438 615.9791,-35 605.3941,-34.5432 607.4196,-41.2438"/>
</g>
<!-- bold_t1_trans_wfmask_t1w_tfm&#45;&gt;bold_t1_trans_wfoutputnode -->
<g id="edge20" class="edge">
<title>bold_t1_trans_wfmask_t1w_tfm:e&#45;&gt;bold_t1_trans_wfoutputnode:w</title>
<path fill="none" stroke="#000000" d="M667.9791,-281.5C679.1633,-281.5 669.6744,-266.4693 676.9791,-258 760.9428,-160.6496 839.6702,-208.4713 928.9791,-116 954.3993,-89.6797 935.1232,-44.9071 960.9097,-36.4135"/>
<polygon fill="#000000" stroke="#000000" points="961.5628,-39.8562 970.9791,-35 960.5896,-32.9242 961.5628,-39.8562"/>
</g>
</g>
</svg>
