<?xml version="1.0" encoding="UTF-8" standalone="no"?>
<!DOCTYPE svg PUBLIC "-//W3C//DTD SVG 1.1//EN"
 "http://www.w3.org/Graphics/SVG/1.1/DTD/svg11.dtd">
<!-- Generated by graphviz version 2.40.1 (20161225.0304)
 -->
<!-- Title: structs Pages: 1 -->
<svg width="1246pt" height="746pt"
 viewBox="0.00 0.00 1246.00 746.00" xmlns="http://www.w3.org/2000/svg" xmlns:xlink="http://www.w3.org/1999/xlink">
<g id="graph0" class="graph" transform="scale(1 1) rotate(0) translate(4 742)">
<title>structs</title>
<polygon fill="#ffffff" stroke="transparent" points="-4,4 -4,-742 1242,-742 1242,4 -4,4"/>
<!-- bbreg_wfinputnode -->
<g id="node1" class="node">
<title>bbreg_wfinputnode</title>
<polygon fill="none" stroke="#000000" points="0,-622.5 0,-737.5 221,-737.5 221,-622.5 0,-622.5"/>
<text text-anchor="middle" x="15.5" y="-676.3" font-family="Times,serif" font-size="14.00" fill="#000000">IN</text>
<polyline fill="none" stroke="#000000" points="31,-622.5 31,-737.5 "/>
<text text-anchor="middle" x="67" y="-714.8" font-family="Times,serif" font-size="14.00" fill="#000000">inputnode</text>
<polyline fill="none" stroke="#000000" points="31,-699.5 103,-699.5 "/>
<text text-anchor="middle" x="67" y="-676.8" font-family="Times,serif" font-size="14.00" fill="#000000">utility</text>
<polyline fill="none" stroke="#000000" points="31,-661.5 103,-661.5 "/>
<text text-anchor="middle" x="67" y="-638.3" font-family="Times,serif" font-size="14.00" fill="#000000"> </text>
<polyline fill="none" stroke="#000000" points="103,-622.5 103,-737.5 "/>
<text text-anchor="middle" x="162" y="-722.3" font-family="Times,serif" font-size="14.00" fill="#000000">OUT</text>
<polyline fill="none" stroke="#000000" points="103,-714.5 221,-714.5 "/>
<text text-anchor="middle" x="162" y="-699.3" font-family="Times,serif" font-size="14.00" fill="#000000">fsnative2t1w_xfm</text>
<polyline fill="none" stroke="#000000" points="103,-691.5 221,-691.5 "/>
<text text-anchor="middle" x="162" y="-676.3" font-family="Times,serif" font-size="14.00" fill="#000000">in_file</text>
<polyline fill="none" stroke="#000000" points="103,-668.5 221,-668.5 "/>
<text text-anchor="middle" x="162" y="-653.3" font-family="Times,serif" font-size="14.00" fill="#000000">subject_id</text>
<polyline fill="none" stroke="#000000" points="103,-645.5 221,-645.5 "/>
<text text-anchor="middle" x="162" y="-630.3" font-family="Times,serif" font-size="14.00" fill="#000000">subjects_dir</text>
</g>
<!-- bbreg_wfmri_coreg -->
<g id="node2" class="node">
<title>bbreg_wfmri_coreg</title>
<polygon fill="none" stroke="#000000" points="221.5,-493.5 221.5,-585.5 459.5,-585.5 459.5,-493.5 221.5,-493.5"/>
<text text-anchor="middle" x="263.5" y="-570.3" font-family="Times,serif" font-size="14.00" fill="#000000">IN</text>
<polyline fill="none" stroke="#000000" points="221.5,-562.5 305.5,-562.5 "/>
<text text-anchor="middle" x="263.5" y="-547.3" font-family="Times,serif" font-size="14.00" fill="#000000">source_file</text>
<polyline fill="none" stroke="#000000" points="221.5,-539.5 305.5,-539.5 "/>
<text text-anchor="middle" x="263.5" y="-524.3" font-family="Times,serif" font-size="14.00" fill="#000000">subject_id</text>
<polyline fill="none" stroke="#000000" points="221.5,-516.5 305.5,-516.5 "/>
<text text-anchor="middle" x="263.5" y="-501.3" font-family="Times,serif" font-size="14.00" fill="#000000">subjects_dir</text>
<polyline fill="none" stroke="#000000" points="305.5,-493.5 305.5,-585.5 "/>
<text text-anchor="middle" x="342.5" y="-566.8" font-family="Times,serif" font-size="14.00" fill="#000000">mri_coreg</text>
<polyline fill="none" stroke="#000000" points="305.5,-555.5 379.5,-555.5 "/>
<text text-anchor="middle" x="342.5" y="-536.3" font-family="Times,serif" font-size="14.00" fill="#000000">interfaces</text>
<polyline fill="none" stroke="#000000" points="305.5,-524.5 379.5,-524.5 "/>
<text text-anchor="middle" x="342.5" y="-505.3" font-family="Times,serif" font-size="14.00" fill="#000000"> </text>
<polyline fill="none" stroke="#000000" points="379.5,-493.5 379.5,-585.5 "/>
<text text-anchor="middle" x="419.5" y="-558.8" font-family="Times,serif" font-size="14.00" fill="#000000">OUT</text>
<polyline fill="none" stroke="#000000" points="379.5,-539.5 459.5,-539.5 "/>
<text text-anchor="middle" x="419.5" y="-512.8" font-family="Times,serif" font-size="14.00" fill="#000000">out_lta_file</text>
</g>
<!-- bbreg_wfinputnode&#45;&gt;bbreg_wfmri_coreg -->
<g id="edge7" class="edge">
<title>bbreg_wfinputnode:e&#45;&gt;bbreg_wfmri_coreg:w</title>
<path fill="none" stroke="#000000" d="M221.5,-680C246.0399,-680 207.3129,-585.0995 214.0589,-558.4087"/>
<polygon fill="#000000" stroke="#000000" points="216.5531,-560.869 221.5,-551.5 211.7902,-555.7392 216.5531,-560.869"/>
</g>
<!-- bbreg_wfinputnode&#45;&gt;bbreg_wfmri_coreg -->
<g id="edge9" class="edge">
<title>bbreg_wfinputnode:e&#45;&gt;bbreg_wfmri_coreg:w</title>
<path fill="none" stroke="#000000" d="M221.5,-657C246.2309,-657 207.2024,-561.361 214.001,-534.4625"/>
<polygon fill="#000000" stroke="#000000" points="216.5531,-536.869 221.5,-527.5 211.7902,-531.7392 216.5531,-536.869"/>
</g>
<!-- bbreg_wfinputnode&#45;&gt;bbreg_wfmri_coreg -->
<g id="edge11" class="edge">
<title>bbreg_wfinputnode:e&#45;&gt;bbreg_wfmri_coreg:w</title>
<path fill="none" stroke="#000000" d="M221.5,-634C221.5,-634 221.5,-545.1901 221.5,-514.6616"/>
<polygon fill="#000000" stroke="#000000" points="225.0001,-514.5 221.5,-504.5 218.0001,-514.5 225.0001,-514.5"/>
</g>
<!-- bbreg_wfbbregister -->
<g id="node3" class="node">
<title>bbreg_wfbbregister</title>
<polygon fill="none" stroke="#000000" points="460,-341.5 460,-456.5 697,-456.5 697,-341.5 460,-341.5"/>
<text text-anchor="middle" x="502.5" y="-441.3" font-family="Times,serif" font-size="14.00" fill="#000000">IN</text>
<polyline fill="none" stroke="#000000" points="460,-433.5 545,-433.5 "/>
<text text-anchor="middle" x="502.5" y="-418.3" font-family="Times,serif" font-size="14.00" fill="#000000">init_reg_file</text>
<polyline fill="none" stroke="#000000" points="460,-410.5 545,-410.5 "/>
<text text-anchor="middle" x="502.5" y="-395.3" font-family="Times,serif" font-size="14.00" fill="#000000">source_file</text>
<polyline fill="none" stroke="#000000" points="460,-387.5 545,-387.5 "/>
<text text-anchor="middle" x="502.5" y="-372.3" font-family="Times,serif" font-size="14.00" fill="#000000">subject_id</text>
<polyline fill="none" stroke="#000000" points="460,-364.5 545,-364.5 "/>
<text text-anchor="middle" x="502.5" y="-349.3" font-family="Times,serif" font-size="14.00" fill="#000000">subjects_dir</text>
<polyline fill="none" stroke="#000000" points="545,-341.5 545,-456.5 "/>
<text text-anchor="middle" x="581" y="-433.8" font-family="Times,serif" font-size="14.00" fill="#000000">bbregister</text>
<polyline fill="none" stroke="#000000" points="545,-418.5 617,-418.5 "/>
<text text-anchor="middle" x="581" y="-395.8" font-family="Times,serif" font-size="14.00" fill="#000000">interfaces</text>
<polyline fill="none" stroke="#000000" points="545,-380.5 617,-380.5 "/>
<text text-anchor="middle" x="581" y="-357.3" font-family="Times,serif" font-size="14.00" fill="#000000"> </text>
<polyline fill="none" stroke="#000000" points="617,-341.5 617,-456.5 "/>
<text text-anchor="middle" x="657" y="-433.8" font-family="Times,serif" font-size="14.00" fill="#000000">OUT</text>
<polyline fill="none" stroke="#000000" points="617,-418.5 697,-418.5 "/>
<text text-anchor="middle" x="657" y="-395.8" font-family="Times,serif" font-size="14.00" fill="#000000">out_lta_file</text>
<polyline fill="none" stroke="#000000" points="617,-380.5 697,-380.5 "/>
<text text-anchor="middle" x="657" y="-357.3" font-family="Times,serif" font-size="14.00" fill="#000000">out_report</text>
</g>
<!-- bbreg_wfinputnode&#45;&gt;bbreg_wfbbregister -->
<g id="edge6" class="edge">
<title>bbreg_wfinputnode:e&#45;&gt;bbreg_wfbbregister:w</title>
<path fill="none" stroke="#000000" d="M221.5,-680C287.135,-680 463.1796,-639.2869 501.5,-586 525.6321,-552.4428 518.7714,-530.5519 501.5,-493 491.2268,-470.6638 469.7732,-479.3362 459.5,-457 450.5799,-437.6058 438.7556,-410.5574 449.5942,-401.8324"/>
<polygon fill="#000000" stroke="#000000" points="450.8475,-405.1144 459.5,-399 448.9231,-398.3841 450.8475,-405.1144"/>
</g>
<!-- bbreg_wfinputnode&#45;&gt;bbreg_wfbbregister -->
<g id="edge8" class="edge">
<title>bbreg_wfinputnode:e&#45;&gt;bbreg_wfbbregister:w</title>
<path fill="none" stroke="#000000" d="M221.5,-657C278.6115,-657 434.1442,-631.6225 468.5,-586 493.3643,-552.9816 473.5502,-534.0236 468.5,-493 466.4849,-476.6311 461.5151,-473.3689 459.5,-457 455.6169,-425.4569 430.533,-386.4791 449.4763,-377.7768"/>
<polygon fill="#000000" stroke="#000000" points="450.2644,-381.1918 459.5,-376 449.0426,-374.2992 450.2644,-381.1918"/>
</g>
<!-- bbreg_wfinputnode&#45;&gt;bbreg_wfbbregister -->
<g id="edge10" class="edge">
<title>bbreg_wfinputnode:e&#45;&gt;bbreg_wfbbregister:w</title>
<path fill="none" stroke="#000000" d="M221.5,-634C226.8333,-634 222.1516,-627.2934 221.5,-622 219.4849,-605.6311 214.5151,-602.3689 212.5,-586 207.4498,-544.9764 191.6913,-528.7133 212.5,-493 274.2894,-386.953 330.177,-354.7521 449.3019,-353.0704"/>
<polygon fill="#000000" stroke="#000000" points="449.5244,-356.5691 459.5,-353 449.476,-349.5692 449.5244,-356.5691"/>
</g>
<!-- bbreg_wfmerge_ltas -->
<g id="node4" class="node">
<title>bbreg_wfmerge_ltas</title>
<polygon fill="none" stroke="#000000" points="726,-235.5 726,-304.5 883,-304.5 883,-235.5 726,-235.5"/>
<text text-anchor="middle" x="743" y="-289.3" font-family="Times,serif" font-size="14.00" fill="#000000">IN</text>
<polyline fill="none" stroke="#000000" points="726,-281.5 760,-281.5 "/>
<text text-anchor="middle" x="743" y="-266.3" font-family="Times,serif" font-size="14.00" fill="#000000">in1</text>
<polyline fill="none" stroke="#000000" points="726,-258.5 760,-258.5 "/>
<text text-anchor="middle" x="743" y="-243.3" font-family="Times,serif" font-size="14.00" fill="#000000">in2</text>
<polyline fill="none" stroke="#000000" points="760,-235.5 760,-304.5 "/>
<text text-anchor="middle" x="799" y="-289.3" font-family="Times,serif" font-size="14.00" fill="#000000">merge_ltas</text>
<polyline fill="none" stroke="#000000" points="760,-281.5 838,-281.5 "/>
<text text-anchor="middle" x="799" y="-266.3" font-family="Times,serif" font-size="14.00" fill="#000000">utility</text>
<polyline fill="none" stroke="#000000" points="760,-258.5 838,-258.5 "/>
<text text-anchor="middle" x="799" y="-243.3" font-family="Times,serif" font-size="14.00" fill="#000000"> </text>
<polyline fill="none" stroke="#000000" points="838,-235.5 838,-304.5 "/>
<text text-anchor="middle" x="860.5" y="-283.8" font-family="Times,serif" font-size="14.00" fill="#000000">OUT</text>
<polyline fill="none" stroke="#000000" points="838,-270.5 883,-270.5 "/>
<text text-anchor="middle" x="860.5" y="-249.3" font-family="Times,serif" font-size="14.00" fill="#000000">out</text>
</g>
<!-- bbreg_wfinputnode&#45;&gt;bbreg_wfmerge_ltas -->
<g id="edge5" class="edge">
<title>bbreg_wfinputnode:e&#45;&gt;bbreg_wfmerge_ltas:w</title>
<path fill="none" stroke="#000000" d="M221.5,-703C463.1981,-703 583.874,-665.2807 706.5,-457 740.9638,-398.4631 717.1881,-372.7208 722.5,-305 722.6843,-302.6503 722.4785,-272.7855 723.6117,-256.8571"/>
<polygon fill="#000000" stroke="#000000" points="727.056,-257.4799 725.5,-247 720.181,-256.1629 727.056,-257.4799"/>
</g>
<!-- bbreg_wfmri_coreg&#45;&gt;bbreg_wfbbregister -->
<g id="edge13" class="edge">
<title>bbreg_wfmri_coreg:e&#45;&gt;bbreg_wfbbregister:w</title>
<path fill="none" stroke="#000000" d="M459.5,-516.5C496.9063,-516.5 434.3677,-441.5414 449.911,-425.1442"/>
<polygon fill="#000000" stroke="#000000" points="451.0883,-428.4416 459.5,-422 448.9072,-421.79 451.0883,-428.4416"/>
</g>
<!-- bbreg_wfbbregister&#45;&gt;bbreg_wfmerge_ltas -->
<g id="edge1" class="edge">
<title>bbreg_wfbbregister:e&#45;&gt;bbreg_wfmerge_ltas:w</title>
<path fill="none" stroke="#000000" d="M697.5,-400C709.967,-400 710.8105,-307.4512 719.6452,-278.5297"/>
<polygon fill="#000000" stroke="#000000" points="722.7264,-280.2254 725.5,-270 716.9552,-276.2639 722.7264,-280.2254"/>
</g>
<!-- bbreg_wfoutputnode -->
<g id="node6" class="node">
<title>bbreg_wfoutputnode</title>
<polygon fill="none" stroke="#000000" points="1015,-.5 1015,-92.5 1238,-92.5 1238,-.5 1015,-.5"/>
<text text-anchor="middle" x="1064.5" y="-77.3" font-family="Times,serif" font-size="14.00" fill="#000000">IN</text>
<polyline fill="none" stroke="#000000" points="1015,-69.5 1114,-69.5 "/>
<text text-anchor="middle" x="1064.5" y="-54.3" font-family="Times,serif" font-size="14.00" fill="#000000">itk_bold_to_t1</text>
<polyline fill="none" stroke="#000000" points="1015,-46.5 1114,-46.5 "/>
<text text-anchor="middle" x="1064.5" y="-31.3" font-family="Times,serif" font-size="14.00" fill="#000000">itk_t1_to_bold</text>
<polyline fill="none" stroke="#000000" points="1015,-23.5 1114,-23.5 "/>
<text text-anchor="middle" x="1064.5" y="-8.3" font-family="Times,serif" font-size="14.00" fill="#000000">out_report</text>
<polyline fill="none" stroke="#000000" points="1114,-.5 1114,-92.5 "/>
<text text-anchor="middle" x="1153.5" y="-73.8" font-family="Times,serif" font-size="14.00" fill="#000000">outputnode</text>
<polyline fill="none" stroke="#000000" points="1114,-62.5 1193,-62.5 "/>
<text text-anchor="middle" x="1153.5" y="-43.3" font-family="Times,serif" font-size="14.00" fill="#000000">utility</text>
<polyline fill="none" stroke="#000000" points="1114,-31.5 1193,-31.5 "/>
<text text-anchor="middle" x="1153.5" y="-12.3" font-family="Times,serif" font-size="14.00" fill="#000000"> </text>
<polyline fill="none" stroke="#000000" points="1193,-.5 1193,-92.5 "/>
<text text-anchor="middle" x="1215.5" y="-42.8" font-family="Times,serif" font-size="14.00" fill="#000000">OUT</text>
</g>
<!-- bbreg_wfbbregister&#45;&gt;bbreg_wfoutputnode -->
<g id="edge2" class="edge">
<title>bbreg_wfbbregister:e&#45;&gt;bbreg_wfoutputnode:w</title>
<path fill="none" stroke="#000000" d="M697.5,-361C711.6753,-361 711.9937,-248.0621 717.5,-235 780.3556,-85.8947 846.5274,-14.4573 1004.4586,-11.59"/>
<polygon fill="#000000" stroke="#000000" points="1004.5318,-15.0896 1014.5,-11.5 1004.469,-8.0899 1004.5318,-15.0896"/>
</g>
<!-- bbreg_wfconcat_xfm -->
<g id="node5" class="node">
<title>bbreg_wfconcat_xfm</title>
<polygon fill="none" stroke="#000000" points="805,-129.5 805,-198.5 1014,-198.5 1014,-129.5 805,-129.5"/>
<text text-anchor="middle" x="836" y="-177.8" font-family="Times,serif" font-size="14.00" fill="#000000">IN</text>
<polyline fill="none" stroke="#000000" points="805,-164.5 867,-164.5 "/>
<text text-anchor="middle" x="836" y="-143.3" font-family="Times,serif" font-size="14.00" fill="#000000">in_xfms</text>
<polyline fill="none" stroke="#000000" points="867,-129.5 867,-198.5 "/>
<text text-anchor="middle" x="908.5" y="-183.3" font-family="Times,serif" font-size="14.00" fill="#000000">concat_xfm</text>
<polyline fill="none" stroke="#000000" points="867,-175.5 950,-175.5 "/>
<text text-anchor="middle" x="908.5" y="-160.3" font-family="Times,serif" font-size="14.00" fill="#000000">interfaces</text>
<polyline fill="none" stroke="#000000" points="867,-152.5 950,-152.5 "/>
<text text-anchor="middle" x="908.5" y="-137.3" font-family="Times,serif" font-size="14.00" fill="#000000"> </text>
<polyline fill="none" stroke="#000000" points="950,-129.5 950,-198.5 "/>
<text text-anchor="middle" x="982" y="-183.3" font-family="Times,serif" font-size="14.00" fill="#000000">OUT</text>
<polyline fill="none" stroke="#000000" points="950,-175.5 1014,-175.5 "/>
<text text-anchor="middle" x="982" y="-160.3" font-family="Times,serif" font-size="14.00" fill="#000000">out_inv</text>
<polyline fill="none" stroke="#000000" points="950,-152.5 1014,-152.5 "/>
<text text-anchor="middle" x="982" y="-137.3" font-family="Times,serif" font-size="14.00" fill="#000000">out_xfm</text>
</g>
<!-- bbreg_wfmerge_ltas&#45;&gt;bbreg_wfconcat_xfm -->
<g id="edge12" class="edge">
<title>bbreg_wfmerge_ltas:e&#45;&gt;bbreg_wfconcat_xfm:w</title>
<path fill="none" stroke="#000000" d="M883.5,-253C891.5,-253 887.8279,-241.7283 883.5,-235 862.6262,-202.5489 825.3738,-231.4511 804.5,-199 794.3415,-183.2073 785.4336,-158.7496 794.8466,-150.1332"/>
<polygon fill="#000000" stroke="#000000" points="796.069,-153.4163 804.5,-147 793.9079,-146.7582 796.069,-153.4163"/>
</g>
<!-- bbreg_wfconcat_xfm&#45;&gt;bbreg_wfoutputnode -->
<g id="edge3" class="edge">
<title>bbreg_wfconcat_xfm:e&#45;&gt;bbreg_wfoutputnode:w</title>
<path fill="none" stroke="#000000" d="M1014.5,-164C1067.7839,-164 973.0801,-53.0093 1004.3971,-36.5341"/>
<polygon fill="#000000" stroke="#000000" points="1005.3876,-39.905 1014.5,-34.5 1004.0059,-33.0427 1005.3876,-39.905"/>
</g>
<!-- bbreg_wfconcat_xfm&#45;&gt;bbreg_wfoutputnode -->
<g id="edge4" class="edge">
<title>bbreg_wfconcat_xfm:e&#45;&gt;bbreg_wfoutputnode:w</title>
<path fill="none" stroke="#000000" d="M1014.5,-141C1046.2969,-141 995.3722,-78.9588 1005.1962,-62.4791"/>
<polygon fill="#000000" stroke="#000000" points="1006.6819,-65.6504 1014.5,-58.5 1003.9293,-59.2144 1006.6819,-65.6504"/>
</g>
</g>
</svg>
